# Created by FreeCAD <https://www.freecad.org>
v -5.497889 182.401291 112.699997
v -12.700000 190.000000 112.699997
v -5.236776 182.669006 112.699997
v -4.962644 182.923355 112.699997
v -5.745333 182.120911 112.699997
v -4.676174 183.163742 112.699997
v -5.978494 181.828537 112.699997
v -4.378078 183.389542 112.699997
v -6.196791 181.524902 112.699997
v -4.069097 183.600189 112.699997
v -6.399682 181.210770 112.699997
v -3.750000 183.795197 112.699997
v -6.586662 180.886902 112.699997
v -3.421580 183.974045 112.699997
v -6.757267 180.554123 112.699997
v -3.084653 184.136292 112.699997
v -6.911072 180.213257 112.699997
v -2.740058 184.281555 112.699997
v -7.047695 179.865158 112.699997
v -2.388650 184.409454 112.699997
v -7.166796 179.510666 112.699997
v -2.031303 184.519684 112.699997
v -7.268080 179.150681 112.699997
v -1.668907 184.611954 112.699997
v -7.351294 178.786102 112.699997
v -1.302361 184.686066 112.699997
v -7.416231 178.417816 112.699997
v -0.932578 184.741791 112.699997
v -7.462731 178.046753 112.699997
v -0.560476 184.779022 112.699997
v -7.490677 177.673843 112.699997
v -0.186980 184.797668 112.699997
v -7.500000 177.300003 112.699997
v 12.700000 190.000000 112.699997
v 0.932578 184.741791 112.699997
v 0.560476 184.779022 112.699997
v 1.302361 184.686066 112.699997
v 1.668907 184.611954 112.699997
v 2.031303 184.519684 112.699997
v 2.388650 184.409454 112.699997
v 2.740058 184.281555 112.699997
v 3.084653 184.136292 112.699997
v 3.421580 183.974045 112.699997
v 3.750000 183.795197 112.699997
v 4.069097 183.600189 112.699997
v 4.378078 183.389542 112.699997
v 4.676174 183.163742 112.699997
v 4.962644 182.923355 112.699997
v 5.236776 182.669006 112.699997
v 0.186980 184.797668 112.699997
v -12.700000 164.600006 112.699997
v -5.745333 172.479095 112.699997
v -5.497889 172.198700 112.699997
v -5.978494 172.771469 112.699997
v -6.196791 173.075104 112.699997
v -6.399682 173.389236 112.699997
v -6.586662 173.713089 112.699997
v -6.757267 174.045868 112.699997
v -6.911072 174.386734 112.699997
v -7.047695 174.734848 112.699997
v -7.166796 175.089340 112.699997
v -7.268080 175.449326 112.699997
v -7.351294 175.813904 112.699997
v -7.416231 176.182190 112.699997
v -7.462731 176.553238 112.699997
v -7.490677 176.926163 112.699997
v -5.236776 171.931000 112.699997
v 5.497889 182.401291 112.699997
v -4.962644 171.676636 112.699997
v 5.745333 182.120911 112.699997
v -4.676174 171.436264 112.699997
v 5.978494 181.828537 112.699997
v -4.378078 171.210464 112.699997
v 6.196791 181.524902 112.699997
v -4.069097 170.999802 112.699997
v 6.399682 181.210770 112.699997
v -3.750000 170.804810 112.699997
v 6.586662 180.886902 112.699997
v -3.421580 170.625961 112.699997
v 6.757267 180.554123 112.699997
v -3.084653 170.463699 112.699997
v 6.911072 180.213257 112.699997
v -2.740058 170.318451 112.699997
v 7.047695 179.865158 112.699997
v -2.388650 170.190552 112.699997
v 7.166796 179.510666 112.699997
v -2.031303 170.080322 112.699997
v 7.268080 179.150681 112.699997
v -1.668907 169.988037 112.699997
v 7.351294 178.786102 112.699997
v -1.302361 169.913940 112.699997
v 7.416231 178.417816 112.699997
v -0.932578 169.858200 112.699997
v 7.462731 178.046753 112.699997
v -0.560476 169.820969 112.699997
v 7.490677 177.673843 112.699997
v 7.500000 177.300003 112.699997
v 12.700000 164.600006 112.699997
v 7.490677 176.926163 112.699997
v 7.462731 176.553238 112.699997
v 7.416231 176.182190 112.699997
v 7.351294 175.813904 112.699997
v 7.268080 175.449326 112.699997
v 7.166796 175.089340 112.699997
v 7.047695 174.734848 112.699997
v 6.911072 174.386734 112.699997
v 6.757267 174.045868 112.699997
v 6.586662 173.713089 112.699997
v 6.399682 173.389236 112.699997
v 6.196791 173.075104 112.699997
v 5.978494 172.771469 112.699997
v 5.745333 172.479095 112.699997
v 5.497889 172.198700 112.699997
v 5.236776 171.931000 112.699997
v 4.962644 171.676636 112.699997
v 4.676174 171.436264 112.699997
v 4.378078 171.210464 112.699997
v 4.069097 170.999802 112.699997
v 3.750000 170.804810 112.699997
v 3.421580 170.625961 112.699997
v 3.084653 170.463699 112.699997
v 2.740058 170.318451 112.699997
v 2.388650 170.190552 112.699997
v 2.031303 170.080322 112.699997
v 1.668907 169.988037 112.699997
v 1.302361 169.913940 112.699997
v 0.932578 169.858200 112.699997
v 0.560476 169.820969 112.699997
v -0.186980 169.802338 112.699997
v 0.186980 169.802338 112.699997
v -12.684213 164.600006 175.233047
v -12.558151 164.600006 176.492844
v -12.636890 164.600006 175.864517
v -12.700000 164.600006 174.600006
v -12.448191 164.600006 177.116455
v -12.135775 164.600006 178.343384
v -12.307281 164.600006 177.733826
v -11.702748 164.600006 179.533127
v -11.934096 164.600006 178.943649
v -11.153414 164.600006 180.673828
v -11.442305 164.600006 180.110321
v -10.493233 164.600006 181.754166
v -10.836794 164.600006 181.222229
v -10.123583 164.600006 182.268311
v -9.309759 164.600006 183.238190
v -9.728765 164.600006 182.763397
v -8.867607 164.600006 183.691513
v -8.403410 164.600006 184.122223
v -7.413545 164.600006 184.911606
v -7.918321 164.600006 184.529266
v -6.890337 164.600006 185.268326
v -6.350000 164.600006 185.598526
v -5.793875 164.600006 185.901367
v -5.223346 164.600006 186.176117
v -3.439674 164.600006 186.825333
v -4.639831 164.600006 186.422104
v -4.044780 164.600006 186.638672
v -2.826016 164.600006 186.981583
v -1.579165 164.600006 187.201431
v -2.205332 164.600006 187.107056
v 12.700000 164.600006 174.600006
v 12.636890 164.600006 175.864517
v 12.684213 164.600006 175.233047
v 1.579165 164.600006 187.201431
v -0.949072 164.600006 187.264496
v -0.316620 164.600006 187.296051
v 0.316620 164.600006 187.296051
v 0.949072 164.600006 187.264496
v 12.448191 164.600006 177.116455
v 12.558151 164.600006 176.492844
v 12.307281 164.600006 177.733826
v 12.135775 164.600006 178.343384
v 2.205332 164.600006 187.107056
v 4.044780 164.600006 186.638672
v 2.826016 164.600006 186.981583
v 3.439674 164.600006 186.825333
v 11.934096 164.600006 178.943649
v 4.639831 164.600006 186.422104
v 11.702748 164.600006 179.533127
v 11.442305 164.600006 180.110321
v 6.350000 164.600006 185.598526
v 5.223346 164.600006 186.176117
v 5.793875 164.600006 185.901367
v 11.153414 164.600006 180.673828
v 10.836794 164.600006 181.222229
v 6.890337 164.600006 185.268326
v 10.493233 164.600006 181.754166
v 7.918321 164.600006 184.529266
v 7.413545 164.600006 184.911606
v 8.403410 164.600006 184.122223
v 9.728765 164.600006 182.763397
v 9.309759 164.600006 183.238190
v 10.123583 164.600006 182.268311
v 8.867607 164.600006 183.691513
v -12.700000 190.000000 225.399994
v -12.700000 177.300003 174.600006
v -12.700000 177.300003 225.399994
v 12.700000 190.000000 225.399994
v 12.700000 177.300003 174.600006
v 12.700000 177.300003 225.399994
v 7.500000 177.300003 138.100006
v 7.490677 176.926163 138.100006
v 7.462731 176.553238 138.100006
v 7.416231 176.182190 138.100006
v 7.351294 175.813904 138.100006
v 7.268080 175.449326 138.100006
v 7.166796 175.089340 138.100006
v 7.047695 174.734848 138.100006
v 6.911072 174.386734 138.100006
v 6.757267 174.045868 138.100006
v 6.586662 173.713089 138.100006
v 6.399682 173.389236 138.100006
v 6.196791 173.075104 138.100006
v 5.978494 172.771469 138.100006
v 5.745333 172.479095 138.100006
v 5.497889 172.198700 138.100006
v 5.236776 171.931000 138.100006
v 4.962644 171.676636 138.100006
v 4.676174 171.436264 138.100006
v 4.378078 171.210464 138.100006
v 4.069097 170.999802 138.100006
v 3.750000 170.804810 138.100006
v 3.421580 170.625961 138.100006
v 3.084653 170.463699 138.100006
v 2.740058 170.318451 138.100006
v 2.388650 170.190552 138.100006
v 2.031303 170.080322 138.100006
v 1.668907 169.988037 138.100006
v 1.302361 169.913940 138.100006
v 0.932578 169.858200 138.100006
v 0.560476 169.820969 138.100006
v 0.186980 169.802338 138.100006
v -0.186980 169.802338 138.100006
v -0.560476 169.820969 138.100006
v -0.932578 169.858200 138.100006
v -1.302361 169.913940 138.100006
v -1.668907 169.988037 138.100006
v -2.031303 170.080322 138.100006
v -2.388650 170.190552 138.100006
v -2.740058 170.318451 138.100006
v -3.084653 170.463699 138.100006
v -3.421580 170.625961 138.100006
v -3.750000 170.804810 138.100006
v -4.069097 170.999802 138.100006
v -4.378078 171.210464 138.100006
v -4.676174 171.436264 138.100006
v -4.962644 171.676636 138.100006
v -5.236776 171.931000 138.100006
v -5.497889 172.198700 138.100006
v -5.745333 172.479095 138.100006
v -5.978494 172.771469 138.100006
v -6.196791 173.075104 138.100006
v -6.399682 173.389236 138.100006
v -6.586662 173.713089 138.100006
v -6.757267 174.045868 138.100006
v -6.911072 174.386734 138.100006
v -7.047695 174.734848 138.100006
v -7.166796 175.089340 138.100006
v -7.268080 175.449326 138.100006
v -7.351294 175.813904 138.100006
v -7.416231 176.182190 138.100006
v -7.462731 176.553238 138.100006
v -7.490677 176.926163 138.100006
v -7.500000 177.300003 138.100006
v -7.490677 177.673843 138.100006
v -7.462731 178.046753 138.100006
v -7.416231 178.417816 138.100006
v -7.351294 178.786102 138.100006
v -7.268080 179.150681 138.100006
v -7.166796 179.510666 138.100006
v -7.047695 179.865158 138.100006
v -6.911072 180.213257 138.100006
v -6.757267 180.554123 138.100006
v -6.586662 180.886902 138.100006
v -6.399682 181.210770 138.100006
v -6.196791 181.524902 138.100006
v -5.978494 181.828537 138.100006
v -5.745333 182.120911 138.100006
v -5.497889 182.401291 138.100006
v -5.236776 182.669006 138.100006
v -4.962644 182.923355 138.100006
v -4.676174 183.163742 138.100006
v -4.378078 183.389542 138.100006
v -4.069097 183.600189 138.100006
v -3.750000 183.795197 138.100006
v -3.421580 183.974045 138.100006
v -3.084653 184.136292 138.100006
v -2.740058 184.281555 138.100006
v -2.388650 184.409454 138.100006
v -2.031303 184.519684 138.100006
v -1.668907 184.611954 138.100006
v -1.302361 184.686066 138.100006
v -0.932578 184.741791 138.100006
v -0.560476 184.779022 138.100006
v -0.186980 184.797668 138.100006
v 0.186980 184.797668 138.100006
v 0.560476 184.779022 138.100006
v 0.932578 184.741791 138.100006
v 1.302361 184.686066 138.100006
v 1.668907 184.611954 138.100006
v 2.031303 184.519684 138.100006
v 2.388650 184.409454 138.100006
v 2.740058 184.281555 138.100006
v 3.084653 184.136292 138.100006
v 3.421580 183.974045 138.100006
v 3.750000 183.795197 138.100006
v 4.069097 183.600189 138.100006
v 4.378078 183.389542 138.100006
v 4.676174 183.163742 138.100006
v 4.962644 182.923355 138.100006
v 5.236776 182.669006 138.100006
v 5.497889 182.401291 138.100006
v 5.745333 182.120911 138.100006
v 5.978494 181.828537 138.100006
v 6.196791 181.524902 138.100006
v 6.399682 181.210770 138.100006
v 6.586662 180.886902 138.100006
v 6.757267 180.554123 138.100006
v 6.911072 180.213257 138.100006
v 7.047695 179.865158 138.100006
v 7.166796 179.510666 138.100006
v 7.268080 179.150681 138.100006
v 7.351294 178.786102 138.100006
v 7.416231 178.417816 138.100006
v 7.462731 178.046753 138.100006
v 7.490677 177.673843 138.100006
v -12.684213 177.300003 175.233047
v -12.636890 177.300003 175.864517
v -12.558151 177.300003 176.492844
v -12.448191 177.300003 177.116455
v -12.307281 177.300003 177.733826
v -12.135775 177.300003 178.343384
v -11.934096 177.300003 178.943649
v -11.702748 177.300003 179.533127
v -11.442305 177.300003 180.110321
v -11.153414 177.300003 180.673828
v -10.836794 177.300003 181.222229
v -10.493233 177.300003 181.754166
v -10.123583 177.300003 182.268311
v -9.728765 177.300003 182.763397
v -9.309759 177.300003 183.238190
v -8.867607 177.300003 183.691513
v -8.403410 177.300003 184.122223
v -7.918321 177.300003 184.529266
v -7.413545 177.300003 184.911606
v -6.890337 177.300003 185.268326
v -6.350000 177.300003 185.598526
v -5.793875 177.300003 185.901367
v -5.223346 177.300003 186.176117
v -4.639831 177.300003 186.422104
v -4.044780 177.300003 186.638672
v -3.439674 177.300003 186.825333
v -2.826016 177.300003 186.981583
v -2.205332 177.300003 187.107056
v -1.579165 177.300003 187.201431
v -0.949072 177.300003 187.264496
v -0.316620 177.300003 187.296051
v 0.316620 177.300003 187.296051
v 0.949072 177.300003 187.264496
v 1.579165 177.300003 187.201431
v 2.205332 177.300003 187.107056
v 2.826016 177.300003 186.981583
v 3.439674 177.300003 186.825333
v 4.044780 177.300003 186.638672
v 4.639831 177.300003 186.422104
v 5.223346 177.300003 186.176117
v 5.793875 177.300003 185.901367
v 6.350000 177.300003 185.598526
v 6.890337 177.300003 185.268326
v 7.413545 177.300003 184.911606
v 7.918321 177.300003 184.529266
v 8.403410 177.300003 184.122223
v 8.867607 177.300003 183.691513
v 9.309759 177.300003 183.238190
v 9.728765 177.300003 182.763397
v 10.123583 177.300003 182.268311
v 10.493233 177.300003 181.754166
v 10.836794 177.300003 181.222229
v 11.153414 177.300003 180.673828
v 11.442305 177.300003 180.110321
v 11.702748 177.300003 179.533127
v 11.934096 177.300003 178.943649
v 12.135775 177.300003 178.343384
v 12.307281 177.300003 177.733826
v 12.448191 177.300003 177.116455
v 12.558151 177.300003 176.492844
v 12.636890 177.300003 175.864517
v 12.684213 177.300003 175.233047
v -5.236776 177.300003 207.330994
v -5.497889 177.300003 207.598709
v -4.962644 177.300003 207.076645
v -5.745333 177.300003 207.879089
v -4.676174 177.300003 206.836258
v -5.978494 177.300003 208.171463
v -4.378078 177.300003 206.610458
v -6.196791 177.300003 208.475098
v -4.069097 177.300003 206.399811
v -6.399682 177.300003 208.789230
v -3.750000 177.300003 206.204803
v -6.586662 177.300003 209.113098
v -3.421580 177.300003 206.025955
v -6.757267 177.300003 209.445877
v -3.084653 177.300003 205.863708
v -6.911072 177.300003 209.786743
v -2.740058 177.300003 205.718445
v -7.047695 177.300003 210.134842
v -2.388650 177.300003 205.590546
v -7.166796 177.300003 210.489334
v -2.031303 177.300003 205.480316
v -7.268080 177.300003 210.849319
v -1.668907 177.300003 205.388046
v -7.351294 177.300003 211.213898
v -1.302361 177.300003 205.313934
v -0.932578 177.300003 205.258209
v -0.560476 177.300003 205.220978
v -0.186980 177.300003 205.202332
v 0.186980 177.300003 205.202332
v 0.560476 177.300003 205.220978
v 0.932578 177.300003 205.258209
v 1.302361 177.300003 205.313934
v 1.668907 177.300003 205.388046
v 2.031303 177.300003 205.480316
v 2.388650 177.300003 205.590546
v 2.740058 177.300003 205.718445
v 3.084653 177.300003 205.863708
v 3.421580 177.300003 206.025955
v 3.750000 177.300003 206.204803
v 4.069097 177.300003 206.399811
v 4.378078 177.300003 206.610458
v 4.676174 177.300003 206.836258
v 4.962644 177.300003 207.076645
v 5.236776 177.300003 207.330994
v -7.490677 177.300003 213.073837
v -7.500000 177.300003 212.699997
v -7.462731 177.300003 213.446762
v -7.416231 177.300003 213.817810
v -7.351294 177.300003 214.186096
v -7.268080 177.300003 214.550674
v -7.166796 177.300003 214.910660
v -7.047695 177.300003 215.265152
v -6.911072 177.300003 215.613266
v -6.757267 177.300003 215.954132
v -6.586662 177.300003 216.286911
v -6.399682 177.300003 216.610764
v -6.196791 177.300003 216.924896
v -5.978494 177.300003 217.228531
v -5.745333 177.300003 217.520905
v -5.497889 177.300003 217.801300
v -7.416231 177.300003 211.582184
v -7.462731 177.300003 211.953247
v -7.490677 177.300003 212.326157
v -5.236776 177.300003 218.069000
v 5.497889 177.300003 207.598709
v -4.962644 177.300003 218.323364
v 5.745333 177.300003 207.879089
v -4.676174 177.300003 218.563736
v 5.978494 177.300003 208.171463
v -4.378078 177.300003 218.789536
v 6.196791 177.300003 208.475098
v -4.069097 177.300003 219.000198
v 6.399682 177.300003 208.789230
v -3.750000 177.300003 219.195190
v 6.586662 177.300003 209.113098
v -3.421580 177.300003 219.374039
v 6.757267 177.300003 209.445877
v -3.084653 177.300003 219.536301
v 6.911072 177.300003 209.786743
v -2.740058 177.300003 219.681549
v -2.388650 177.300003 219.809448
v -2.031303 177.300003 219.919678
v -1.668907 177.300003 220.011963
v -1.302361 177.300003 220.086060
v -0.932578 177.300003 220.141800
v -0.560476 177.300003 220.179031
v -0.186980 177.300003 220.197662
v 0.186980 177.300003 220.197662
v 1.302361 177.300003 220.086060
v 0.932578 177.300003 220.141800
v 1.668907 177.300003 220.011963
v 2.031303 177.300003 219.919678
v 2.388650 177.300003 219.809448
v 2.740058 177.300003 219.681549
v 3.084653 177.300003 219.536301
v 3.421580 177.300003 219.374039
v 3.750000 177.300003 219.195190
v 4.069097 177.300003 219.000198
v 4.378078 177.300003 218.789536
v 4.676174 177.300003 218.563736
v 4.962644 177.300003 218.323364
v 5.236776 177.300003 218.069000
v 5.497889 177.300003 217.801300
v 5.745333 177.300003 217.520905
v 5.978494 177.300003 217.228531
v 6.196791 177.300003 216.924896
v 6.399682 177.300003 216.610764
v 6.586662 177.300003 216.286911
v 6.757267 177.300003 215.954132
v 6.911072 177.300003 215.613266
v 7.047695 177.300003 215.265152
v 7.166796 177.300003 214.910660
v 7.268080 177.300003 214.550674
v 7.351294 177.300003 214.186096
v 7.416231 177.300003 213.817810
v 7.462731 177.300003 213.446762
v 7.490677 177.300003 213.073837
v 7.500000 177.300003 212.699997
v 7.490677 177.300003 212.326157
v 7.462731 177.300003 211.953247
v 0.560476 177.300003 220.179031
v 7.416231 177.300003 211.582184
v 7.351294 177.300003 211.213898
v 7.268080 177.300003 210.849319
v 7.166796 177.300003 210.489334
v 7.047695 177.300003 210.134842
v -7.500000 164.600006 212.699997
v -7.490677 164.600006 213.073837
v -7.462731 164.600006 213.446762
v -7.416231 164.600006 213.817810
v -7.351294 164.600006 214.186096
v -7.268080 164.600006 214.550674
v -7.166796 164.600006 214.910660
v -7.047695 164.600006 215.265152
v -6.911072 164.600006 215.613266
v -6.757267 164.600006 215.954132
v -6.586662 164.600006 216.286911
v -6.399682 164.600006 216.610764
v -6.196791 164.600006 216.924896
v -5.978494 164.600006 217.228531
v -5.745333 164.600006 217.520905
v -5.497889 164.600006 217.801300
v -5.236776 164.600006 218.069000
v -4.962644 164.600006 218.323364
v -4.676174 164.600006 218.563736
v -4.378078 164.600006 218.789536
v -4.069097 164.600006 219.000198
v -3.750000 164.600006 219.195190
v -3.421580 164.600006 219.374039
v -3.084653 164.600006 219.536301
v -2.740058 164.600006 219.681549
v -2.388650 164.600006 219.809448
v -2.031303 164.600006 219.919678
v -1.668907 164.600006 220.011963
v -1.302361 164.600006 220.086060
v -0.932578 164.600006 220.141800
v -0.560476 164.600006 220.179031
v -0.186980 164.600006 220.197662
v 0.186980 164.600006 220.197662
v 0.560476 164.600006 220.179031
v 0.932578 164.600006 220.141800
v 1.302361 164.600006 220.086060
v 1.668907 164.600006 220.011963
v 2.031303 164.600006 219.919678
v 2.388650 164.600006 219.809448
v 2.740058 164.600006 219.681549
v 3.084653 164.600006 219.536301
v 3.421580 164.600006 219.374039
v 3.750000 164.600006 219.195190
v 4.069097 164.600006 219.000198
v 4.378078 164.600006 218.789536
v 4.676174 164.600006 218.563736
v 4.962644 164.600006 218.323364
v 5.236776 164.600006 218.069000
v 5.497889 164.600006 217.801300
v 5.745333 164.600006 217.520905
v 5.978494 164.600006 217.228531
v 6.196791 164.600006 216.924896
v 6.399682 164.600006 216.610764
v 6.586662 164.600006 216.286911
v 6.757267 164.600006 215.954132
v 6.911072 164.600006 215.613266
v 7.047695 164.600006 215.265152
v 7.166796 164.600006 214.910660
v 7.268080 164.600006 214.550674
v 7.351294 164.600006 214.186096
v 7.416231 164.600006 213.817810
v 7.462731 164.600006 213.446762
v 7.490677 164.600006 213.073837
v 7.500000 164.600006 212.699997
v 7.490677 164.600006 212.326157
v 7.462731 164.600006 211.953247
v 7.416231 164.600006 211.582184
v 7.351294 164.600006 211.213898
v 7.268080 164.600006 210.849319
v 7.166796 164.600006 210.489334
v 7.047695 164.600006 210.134842
v 6.911072 164.600006 209.786743
v 6.757267 164.600006 209.445877
v 6.586662 164.600006 209.113098
v 6.399682 164.600006 208.789230
v 6.196791 164.600006 208.475098
v 5.978494 164.600006 208.171463
v 5.745333 164.600006 207.879089
v 5.497889 164.600006 207.598709
v 5.236776 164.600006 207.330994
v 4.962644 164.600006 207.076645
v 4.676174 164.600006 206.836258
v 4.378078 164.600006 206.610458
v 4.069097 164.600006 206.399811
v 3.750000 164.600006 206.204803
v 3.421580 164.600006 206.025955
v 3.084653 164.600006 205.863708
v 2.740058 164.600006 205.718445
v 2.388650 164.600006 205.590546
v 2.031303 164.600006 205.480316
v 1.668907 164.600006 205.388046
v 1.302361 164.600006 205.313934
v 0.932578 164.600006 205.258209
v 0.560476 164.600006 205.220978
v 0.186980 164.600006 205.202332
v -0.186980 164.600006 205.202332
v -0.560476 164.600006 205.220978
v -0.932578 164.600006 205.258209
v -1.302361 164.600006 205.313934
v -1.668907 164.600006 205.388046
v -2.031303 164.600006 205.480316
v -2.388650 164.600006 205.590546
v -2.740058 164.600006 205.718445
v -3.084653 164.600006 205.863708
v -3.421580 164.600006 206.025955
v -3.750000 164.600006 206.204803
v -4.069097 164.600006 206.399811
v -4.378078 164.600006 206.610458
v -4.676174 164.600006 206.836258
v -4.962644 164.600006 207.076645
v -5.236776 164.600006 207.330994
v -5.497889 164.600006 207.598709
v -5.745333 164.600006 207.879089
v -5.978494 164.600006 208.171463
v -6.196791 164.600006 208.475098
v -6.399682 164.600006 208.789230
v -6.586662 164.600006 209.113098
v -6.757267 164.600006 209.445877
v -6.911072 164.600006 209.786743
v -7.047695 164.600006 210.134842
v -7.166796 164.600006 210.489334
v -7.268080 164.600006 210.849319
v -7.351294 164.600006 211.213898
v -7.416231 164.600006 211.582184
v -7.462731 164.600006 211.953247
v -7.490677 164.600006 212.326157
vn 0.000000 0.000000 -1.000000
vn -0.000000 0.000000 -1.000000
vn 0.000000 0.000000 -1.000000
vn -0.000000 0.000000 -1.000000
vn 0.000000 0.000000 -1.000000
vn -0.000000 0.000000 -1.000000
vn 0.000000 0.000000 -1.000000
vn -0.000000 0.000000 -1.000000
vn 0.000000 0.000000 -1.000000
vn -0.000000 0.000000 -1.000000
vn 0.000000 0.000000 -1.000000
vn -0.000000 0.000000 -1.000000
vn 0.000000 0.000000 -1.000000
vn -0.000000 0.000000 -1.000000
vn 0.000000 0.000000 -1.000000
vn -0.000000 0.000000 -1.000000
vn 0.000000 0.000000 -1.000000
vn -0.000000 0.000000 -1.000000
vn 0.000000 0.000000 -1.000000
vn -0.000000 0.000000 -1.000000
vn 0.000000 0.000000 -1.000000
vn -0.000000 0.000000 -1.000000
vn 0.000000 0.000000 -1.000000
vn -0.000000 0.000000 -1.000000
vn 0.000000 0.000000 -1.000000
vn -0.000000 0.000000 -1.000000
vn 0.000000 0.000000 -1.000000
vn -0.000000 0.000000 -1.000000
vn 0.000000 0.000000 -1.000000
vn -0.000000 0.000000 -1.000000
vn 0.000000 0.000000 -1.000000
vn 0.000000 0.000000 -1.000000
vn 0.000000 0.000000 -1.000000
vn 0.000000 0.000000 -1.000000
vn 0.000000 0.000000 -1.000000
vn 0.000000 0.000000 -1.000000
vn 0.000000 0.000000 -1.000000
vn 0.000000 0.000000 -1.000000
vn 0.000000 0.000000 -1.000000
vn 0.000000 0.000000 -1.000000
vn 0.000000 0.000000 -1.000000
vn 0.000000 0.000000 -1.000000
vn 0.000000 0.000000 -1.000000
vn 0.000000 0.000000 -1.000000
vn 0.000000 0.000000 -1.000000
vn -0.000000 0.000000 -1.000000
vn 0.000000 0.000000 -1.000000
vn 0.000000 0.000000 -1.000000
vn 0.000000 0.000000 -1.000000
vn 0.000000 0.000000 -1.000000
vn 0.000000 0.000000 -1.000000
vn 0.000000 0.000000 -1.000000
vn 0.000000 0.000000 -1.000000
vn 0.000000 0.000000 -1.000000
vn 0.000000 0.000000 -1.000000
vn 0.000000 0.000000 -1.000000
vn 0.000000 0.000000 -1.000000
vn 0.000000 0.000000 -1.000000
vn 0.000000 0.000000 -1.000000
vn 0.000000 0.000000 -1.000000
vn 0.000000 0.000000 -1.000000
vn 0.000000 0.000000 -1.000000
vn 0.000000 0.000000 -1.000000
vn 0.000000 0.000000 -1.000000
vn -0.000000 0.000000 -1.000000
vn 0.000000 0.000000 -1.000000
vn -0.000000 0.000000 -1.000000
vn 0.000000 0.000000 -1.000000
vn -0.000000 0.000000 -1.000000
vn 0.000000 0.000000 -1.000000
vn -0.000000 0.000000 -1.000000
vn 0.000000 0.000000 -1.000000
vn -0.000000 0.000000 -1.000000
vn 0.000000 0.000000 -1.000000
vn -0.000000 0.000000 -1.000000
vn 0.000000 0.000000 -1.000000
vn -0.000000 0.000000 -1.000000
vn 0.000000 0.000000 -1.000000
vn -0.000000 0.000000 -1.000000
vn 0.000000 0.000000 -1.000000
vn -0.000000 0.000000 -1.000000
vn 0.000000 0.000000 -1.000000
vn -0.000000 0.000000 -1.000000
vn 0.000000 0.000000 -1.000000
vn -0.000000 0.000000 -1.000000
vn 0.000000 0.000000 -1.000000
vn -0.000000 0.000000 -1.000000
vn 0.000000 0.000000 -1.000000
vn -0.000000 0.000000 -1.000000
vn 0.000000 0.000000 -1.000000
vn -0.000000 0.000000 -1.000000
vn 0.000000 0.000000 -1.000000
vn -0.000000 0.000000 -1.000000
vn 0.000000 0.000000 -1.000000
vn 0.000000 0.000000 -1.000000
vn 0.000000 0.000000 -1.000000
vn 0.000000 0.000000 -1.000000
vn 0.000000 0.000000 -1.000000
vn 0.000000 0.000000 -1.000000
vn 0.000000 0.000000 -1.000000
vn 0.000000 0.000000 -1.000000
vn 0.000000 0.000000 -1.000000
vn 0.000000 0.000000 -1.000000
vn 0.000000 0.000000 -1.000000
vn 0.000000 0.000000 -1.000000
vn 0.000000 0.000000 -1.000000
vn 0.000000 0.000000 -1.000000
vn 0.000000 0.000000 -1.000000
vn 0.000000 0.000000 -1.000000
vn 0.000000 0.000000 -1.000000
vn 0.000000 0.000000 -1.000000
vn 0.000000 0.000000 -1.000000
vn 0.000000 0.000000 -1.000000
vn 0.000000 0.000000 -1.000000
vn 0.000000 0.000000 -1.000000
vn 0.000000 0.000000 -1.000000
vn 0.000000 0.000000 -1.000000
vn 0.000000 0.000000 -1.000000
vn 0.000000 0.000000 -1.000000
vn 0.000000 0.000000 -1.000000
vn 0.000000 0.000000 -1.000000
vn 0.000000 0.000000 -1.000000
vn 0.000000 0.000000 -1.000000
vn 0.000000 0.000000 -1.000000
vn 0.000000 0.000000 -1.000000
vn 0.000000 0.000000 -1.000000
vn 0.000000 0.000000 -1.000000
vn -0.000000 0.000000 -1.000000
vn 0.000000 0.000000 -1.000000
vn 0.000000 0.000000 -1.000000
vn 0.000000 -1.000000 0.000000
vn 0.000000 -1.000000 0.000000
vn 0.000000 -1.000000 0.000000
vn 0.000000 -1.000000 0.000000
vn 0.000000 -1.000000 0.000000
vn 0.000000 -1.000000 0.000000
vn 0.000000 -1.000000 0.000000
vn 0.000000 -1.000000 0.000000
vn 0.000000 -1.000000 0.000000
vn 0.000000 -1.000000 0.000000
vn 0.000000 -1.000000 0.000000
vn 0.000000 -1.000000 0.000000
vn 0.000000 -1.000000 0.000000
vn 0.000000 -1.000000 0.000000
vn 0.000000 -1.000000 0.000000
vn 0.000000 -1.000000 0.000000
vn 0.000000 -1.000000 0.000000
vn 0.000000 -1.000000 0.000000
vn 0.000000 -1.000000 0.000000
vn 0.000000 -1.000000 0.000000
vn 0.000000 -1.000000 0.000000
vn 0.000000 -1.000000 0.000000
vn 0.000000 -1.000000 0.000000
vn 0.000000 -1.000000 0.000000
vn 0.000000 -1.000000 0.000000
vn 0.000000 -1.000000 0.000000
vn 0.000000 -1.000000 0.000000
vn 0.000000 -1.000000 0.000000
vn -0.000000 -1.000000 -0.000000
vn 0.000000 -1.000000 0.000000
vn 0.000000 -1.000000 0.000000
vn 0.000000 -1.000000 0.000000
vn 0.000000 -1.000000 0.000000
vn 0.000000 -1.000000 0.000000
vn 0.000000 -1.000000 0.000000
vn 0.000000 -1.000000 0.000000
vn -0.000000 -1.000000 -0.000000
vn -0.000000 -1.000000 -0.000000
vn 0.000000 -1.000000 0.000000
vn 0.000000 -1.000000 0.000000
vn -0.000000 -1.000000 -0.000000
vn 0.000000 -1.000000 0.000000
vn -0.000000 -1.000000 -0.000000
vn 0.000000 -1.000000 0.000000
vn 0.000000 -1.000000 0.000000
vn 0.000000 -1.000000 0.000000
vn 0.000000 -1.000000 0.000000
vn 0.000000 -1.000000 0.000000
vn -0.000000 -1.000000 -0.000000
vn 0.000000 -1.000000 0.000000
vn 0.000000 -1.000000 0.000000
vn -0.000000 -1.000000 -0.000000
vn 0.000000 -1.000000 0.000000
vn 0.000000 -1.000000 0.000000
vn -0.000000 -1.000000 -0.000000
vn 0.000000 -1.000000 0.000000
vn 0.000000 -1.000000 0.000000
vn 0.000000 -1.000000 0.000000
vn -0.000000 -1.000000 -0.000000
vn -0.000000 -1.000000 -0.000000
vn 0.000000 -1.000000 0.000000
vn 0.000000 -1.000000 0.000000
vn -0.000000 -1.000000 -0.000000
vn -0.000000 -1.000000 -0.000000
vn -1.000000 -0.000000 0.000000
vn -1.000000 -0.000000 0.000000
vn -1.000000 0.000000 -0.000000
vn -1.000000 0.000000 -0.000000
vn 0.000000 1.000000 0.000000
vn 0.000000 1.000000 0.000000
vn 1.000000 0.000000 0.000000
vn 1.000000 0.000000 0.000000
vn 1.000000 0.000000 0.000000
vn 1.000000 0.000000 -0.000000
vn -0.999689 0.024931 0.000000
vn -0.999689 0.024931 0.000000
vn -0.997204 0.074728 0.000000
vn -0.997204 0.074728 0.000000
vn -0.992239 0.124347 0.000000
vn -0.992239 0.124347 0.000000
vn -0.984808 0.173645 0.000000
vn -0.984808 0.173645 0.000000
vn -0.974927 0.222524 0.000000
vn -0.962625 0.270839 0.000000
vn -0.974927 0.222524 0.000000
vn -0.947929 0.318483 0.000000
vn -0.962625 0.270839 0.000000
vn -0.930875 0.365337 0.000000
vn -0.947929 0.318483 0.000000
vn -0.930875 0.365337 0.000000
vn -0.911505 0.411288 0.000000
vn -0.911505 0.411288 0.000000
vn -0.889873 0.456208 0.000000
vn -0.889873 0.456208 0.000000
vn -0.866021 0.500008 0.000000
vn -0.866021 0.500008 0.000000
vn -0.840023 0.542551 0.000000
vn -0.840023 0.542551 0.000000
vn -0.811940 0.583741 0.000000
vn -0.811940 0.583741 0.000000
vn -0.781831 0.623490 0.000000
vn -0.781831 0.623490 0.000000
vn -0.749790 0.661676 0.000000
vn -0.749790 0.661676 0.000000
vn -0.715860 0.698244 0.000000
vn -0.715860 0.698244 0.000000
vn -0.680181 0.733044 0.000000
vn -0.680181 0.733044 0.000000
vn -0.642780 0.766051 0.000000
vn -0.642780 0.766051 0.000000
vn -0.603805 0.797132 0.000000
vn -0.603805 0.797132 0.000000
vn -0.563326 0.826234 0.000000
vn -0.563326 0.826234 0.000000
vn -0.521427 0.853296 0.000000
vn -0.521427 0.853296 0.000000
vn -0.478254 0.878221 0.000000
vn -0.478254 0.878221 0.000000
vn -0.433898 0.900962 0.000000
vn -0.388410 0.921487 0.000000
vn -0.433898 0.900962 0.000000
vn -0.388410 0.921487 0.000000
vn -0.342014 0.939695 0.000000
vn -0.342014 0.939695 0.000000
vn -0.294762 0.955571 0.000000
vn -0.294762 0.955571 0.000000
vn -0.246777 0.969072 0.000000
vn -0.246777 0.969072 0.000000
vn -0.198141 0.980174 0.000000
vn -0.198141 0.980174 0.000000
vn -0.149054 0.988829 0.000000
vn -0.149054 0.988829 0.000000
vn -0.099560 0.995032 0.000000
vn -0.099560 0.995032 0.000000
vn -0.049821 0.998758 0.000000
vn -0.049821 0.998758 0.000000
vn 0.000000 1.000000 0.000000
vn 0.000000 1.000000 -0.000000
vn 0.049821 0.998758 0.000000
vn 0.049821 0.998758 -0.000000
vn 0.099560 0.995032 0.000000
vn 0.099560 0.995032 -0.000000
vn 0.149054 0.988829 0.000000
vn 0.149054 0.988829 -0.000000
vn 0.198141 0.980174 0.000000
vn 0.246777 0.969072 0.000000
vn 0.198141 0.980174 -0.000000
vn 0.246777 0.969072 0.000000
vn 0.294762 0.955571 -0.000000
vn 0.294762 0.955571 0.000000
vn 0.342014 0.939695 0.000000
vn 0.342014 0.939695 0.000000
vn 0.388410 0.921487 -0.000000
vn 0.388410 0.921487 0.000000
vn 0.433898 0.900962 -0.000000
vn 0.433898 0.900962 0.000000
vn 0.478254 0.878221 0.000000
vn 0.478254 0.878221 0.000000
vn 0.521427 0.853296 0.000000
vn 0.521427 0.853296 0.000000
vn 0.563326 0.826234 -0.000000
vn 0.563326 0.826234 0.000000
vn 0.603805 0.797132 0.000000
vn 0.603805 0.797132 0.000000
vn 0.642780 0.766051 0.000000
vn 0.642780 0.766051 0.000000
vn 0.680181 0.733044 0.000000
vn 0.680181 0.733044 0.000000
vn 0.715860 0.698244 0.000000
vn 0.715860 0.698244 -0.000000
vn 0.749790 0.661676 0.000000
vn 0.749790 0.661676 0.000000
vn 0.781831 0.623490 -0.000000
vn 0.781831 0.623490 0.000000
vn 0.811940 0.583741 0.000000
vn 0.811940 0.583741 -0.000000
vn 0.840023 0.542551 0.000000
vn 0.866021 0.500008 0.000000
vn 0.840023 0.542551 -0.000000
vn 0.866021 0.500008 0.000000
vn 0.889873 0.456208 0.000000
vn 0.889873 0.456208 -0.000000
vn 0.911505 0.411288 0.000000
vn 0.930875 0.365337 0.000000
vn 0.911505 0.411288 -0.000000
vn 0.947929 0.318483 0.000000
vn 0.930875 0.365337 0.000000
vn 0.947929 0.318483 0.000000
vn 0.962625 0.270839 0.000000
vn 0.962625 0.270839 -0.000000
vn 0.974927 0.222524 0.000000
vn 0.974927 0.222524 -0.000000
vn 0.984808 0.173645 0.000000
vn 0.984808 0.173645 -0.000000
vn 0.992239 0.124347 0.000000
vn 0.992239 0.124347 -0.000000
vn 0.997204 0.074728 -0.000000
vn 0.997204 0.074728 0.000000
vn 0.999689 0.024931 -0.000000
vn 0.999689 0.024931 0.000000
vn 0.999689 -0.024931 0.000000
vn 0.999689 -0.024931 0.000000
vn 0.997204 -0.074731 0.000000
vn 0.997204 -0.074731 0.000000
vn 0.992239 -0.124342 0.000000
vn 0.992239 -0.124342 0.000000
vn 0.984808 -0.173645 0.000000
vn 0.984808 -0.173645 0.000000
vn 0.974927 -0.222524 0.000000
vn 0.974927 -0.222524 0.000000
vn 0.962625 -0.270839 0.000000
vn 0.962625 -0.270839 0.000000
vn 0.947929 -0.318483 0.000000
vn 0.947929 -0.318483 0.000000
vn 0.930870 -0.365351 0.000000
vn 0.930870 -0.365351 0.000000
vn 0.911505 -0.411288 0.000000
vn 0.911505 -0.411288 0.000000
vn 0.889873 -0.456208 0.000000
vn 0.889873 -0.456208 0.000000
vn 0.866031 -0.499990 0.000000
vn 0.866031 -0.499990 0.000000
vn 0.840023 -0.542551 0.000000
vn 0.840023 -0.542551 0.000000
vn 0.811940 -0.583741 0.000000
vn 0.811940 -0.583741 0.000000
vn 0.781831 -0.623490 0.000000
vn 0.781831 -0.623490 0.000000
vn 0.749772 -0.661697 0.000000
vn 0.749772 -0.661697 0.000000
vn 0.715880 -0.698224 0.000000
vn 0.715880 -0.698224 0.000000
vn 0.680159 -0.733064 0.000000
vn 0.680159 -0.733064 0.000000
vn 0.642804 -0.766031 0.000000
vn 0.642804 -0.766031 0.000000
vn 0.603805 -0.797132 0.000000
vn 0.603805 -0.797132 0.000000
vn 0.563299 -0.826253 0.000000
vn 0.563299 -0.826253 0.000000
vn 0.521457 -0.853278 0.000000
vn 0.478254 -0.878221 0.000000
vn 0.521457 -0.853278 0.000000
vn 0.478254 -0.878221 0.000000
vn 0.433865 -0.900978 0.000000
vn 0.388445 -0.921472 0.000000
vn 0.433865 -0.900978 0.000000
vn 0.388445 -0.921472 0.000000
vn 0.342014 -0.939695 0.000000
vn 0.342014 -0.939695 0.000000
vn 0.294762 -0.955571 0.000000
vn 0.294762 -0.955571 0.000000
vn 0.246738 -0.969082 0.000000
vn 0.246738 -0.969082 0.000000
vn 0.198180 -0.980166 0.000000
vn 0.198180 -0.980166 0.000000
vn 0.149014 -0.988835 0.000000
vn 0.149014 -0.988835 0.000000
vn 0.099560 -0.995032 0.000000
vn 0.099560 -0.995032 0.000000
vn 0.049861 -0.998756 0.000000
vn 0.049861 -0.998756 0.000000
vn 0.000000 -1.000000 0.000000
vn 0.000000 -1.000000 0.000000
vn -0.049861 -0.998756 0.000000
vn -0.049861 -0.998756 0.000000
vn -0.099560 -0.995032 -0.000000
vn -0.099560 -0.995032 0.000000
vn -0.149014 -0.988835 -0.000000
vn -0.149014 -0.988835 0.000000
vn -0.198180 -0.980166 -0.000000
vn -0.198180 -0.980166 0.000000
vn -0.246738 -0.969082 0.000000
vn -0.294762 -0.955571 -0.000000
vn -0.246738 -0.969082 0.000000
vn -0.294762 -0.955571 0.000000
vn -0.342014 -0.939695 0.000000
vn -0.342014 -0.939695 0.000000
vn -0.388445 -0.921472 0.000000
vn -0.433865 -0.900978 -0.000000
vn -0.388445 -0.921472 0.000000
vn -0.433865 -0.900978 0.000000
vn -0.478254 -0.878221 0.000000
vn -0.478254 -0.878221 0.000000
vn -0.521457 -0.853278 0.000000
vn -0.563299 -0.826253 -0.000000
vn -0.521457 -0.853278 0.000000
vn -0.563299 -0.826253 0.000000
vn -0.603805 -0.797132 0.000000
vn -0.603805 -0.797132 0.000000
vn -0.642804 -0.766031 0.000000
vn -0.680159 -0.733064 -0.000000
vn -0.642804 -0.766031 0.000000
vn -0.715880 -0.698224 -0.000000
vn -0.680159 -0.733064 0.000000
vn -0.749772 -0.661697 -0.000000
vn -0.715880 -0.698224 0.000000
vn -0.749772 -0.661697 0.000000
vn -0.781831 -0.623490 -0.000000
vn -0.781831 -0.623490 0.000000
vn -0.811940 -0.583741 -0.000000
vn -0.811940 -0.583741 0.000000
vn -0.840023 -0.542551 0.000000
vn -0.840023 -0.542551 0.000000
vn -0.866031 -0.499990 0.000000
vn -0.866031 -0.499990 0.000000
vn -0.889873 -0.456208 0.000000
vn -0.889873 -0.456208 0.000000
vn -0.911505 -0.411288 0.000000
vn -0.911505 -0.411288 0.000000
vn -0.930870 -0.365351 0.000000
vn -0.930870 -0.365351 0.000000
vn -0.947929 -0.318483 0.000000
vn -0.962625 -0.270839 -0.000000
vn -0.947929 -0.318483 0.000000
vn -0.962625 -0.270839 0.000000
vn -0.974927 -0.222524 0.000000
vn -0.984808 -0.173645 -0.000000
vn -0.974927 -0.222524 0.000000
vn -0.984808 -0.173645 0.000000
vn -0.992239 -0.124342 0.000000
vn -0.992239 -0.124342 0.000000
vn -0.997204 -0.074731 0.000000
vn -0.997204 -0.074731 0.000000
vn -0.999689 -0.024931 0.000000
vn -0.999689 -0.024931 0.000000
vn -0.999689 0.000000 0.024931
vn -0.999689 0.000000 0.024931
vn -0.997204 0.000000 0.074730
vn -0.997204 0.000000 0.074730
vn -0.992239 0.000000 0.124343
vn -0.992239 0.000000 0.124343
vn -0.984807 0.000000 0.173650
vn -0.984807 0.000000 0.173650
vn -0.974928 0.000000 0.222519
vn -0.962623 0.000000 0.270846
vn -0.974928 0.000000 0.222519
vn -0.962623 0.000000 0.270846
vn -0.947927 0.000000 0.318486
vn -0.947927 0.000000 0.318486
vn -0.930876 0.000000 0.365334
vn -0.930876 0.000000 0.365334
vn -0.911504 0.000000 0.411292
vn -0.889873 0.000000 0.456208
vn -0.911504 0.000000 0.411292
vn -0.889873 0.000000 0.456208
vn -0.866025 0.000000 0.500001
vn -0.866025 0.000000 0.500001
vn -0.840026 0.000000 0.542546
vn -0.840026 0.000000 0.542546
vn -0.811934 0.000000 0.583749
vn -0.811934 0.000000 0.583749
vn -0.781832 0.000000 0.623490
vn -0.781832 0.000000 0.623490
vn -0.749782 0.000000 0.661685
vn -0.749782 0.000000 0.661685
vn -0.715872 0.000000 0.698231
vn -0.715872 0.000000 0.698231
vn -0.680171 0.000000 0.733054
vn -0.680171 0.000000 0.733054
vn -0.642792 0.000000 0.766040
vn -0.642792 0.000000 0.766040
vn -0.603791 0.000000 0.797143
vn -0.603791 0.000000 0.797143
vn -0.563324 0.000000 0.826236
vn -0.563324 0.000000 0.826236
vn -0.521443 0.000000 0.853286
vn -0.521443 0.000000 0.853286
vn -0.478244 0.000000 0.878227
vn -0.478244 0.000000 0.878227
vn -0.433880 0.000000 0.900970
vn -0.433880 0.000000 0.900970
vn -0.388454 0.000000 0.921468
vn -0.388454 0.000000 0.921468
vn -0.342002 0.000000 0.939699
vn -0.342002 0.000000 0.939699
vn -0.294770 0.000000 0.955568
vn -0.294770 0.000000 0.955568
vn -0.246748 0.000000 0.969080
vn -0.246748 0.000000 0.969080
vn -0.198145 0.000000 0.980173
vn -0.198145 0.000000 0.980173
vn -0.149036 0.000000 0.988832
vn -0.149036 0.000000 0.988832
vn -0.099590 0.000000 0.995028
vn -0.099590 0.000000 0.995028
vn -0.049831 0.000000 0.998758
vn -0.049831 0.000000 0.998758
vn -0.000000 0.000000 1.000000
vn 0.000000 0.000000 1.000000
vn 0.049831 0.000000 0.998758
vn 0.049831 -0.000000 0.998758
vn 0.099590 0.000000 0.995028
vn 0.099590 -0.000000 0.995028
vn 0.149036 0.000000 0.988832
vn 0.198145 0.000000 0.980173
vn 0.149036 -0.000000 0.988832
vn 0.198145 0.000000 0.980173
vn 0.246748 0.000000 0.969080
vn 0.246748 -0.000000 0.969080
vn 0.294770 0.000000 0.955568
vn 0.294770 -0.000000 0.955568
vn 0.342002 0.000000 0.939699
vn 0.342002 -0.000000 0.939699
vn 0.388454 0.000000 0.921468
vn 0.388454 -0.000000 0.921468
vn 0.433880 0.000000 0.900970
vn 0.433880 -0.000000 0.900970
vn 0.478244 0.000000 0.878227
vn 0.521443 0.000000 0.853286
vn 0.478244 -0.000000 0.878227
vn 0.521443 0.000000 0.853286
vn 0.563324 -0.000000 0.826236
vn 0.563324 0.000000 0.826236
vn 0.603791 0.000000 0.797143
vn 0.603791 0.000000 0.797143
vn 0.642792 -0.000000 0.766040
vn 0.642792 0.000000 0.766040
vn 0.680171 0.000000 0.733054
vn 0.680171 0.000000 0.733054
vn 0.715872 0.000000 0.698231
vn 0.715872 0.000000 0.698231
vn 0.749782 -0.000000 0.661685
vn 0.749782 0.000000 0.661685
vn 0.781832 -0.000000 0.623490
vn 0.781832 0.000000 0.623490
vn 0.811934 -0.000000 0.583749
vn 0.811934 0.000000 0.583749
vn 0.840026 -0.000000 0.542546
vn 0.840026 0.000000 0.542546
vn 0.866025 -0.000000 0.500001
vn 0.866025 0.000000 0.500001
vn 0.889873 -0.000000 0.456208
vn 0.889873 0.000000 0.456208
vn 0.911504 0.000000 0.411292
vn 0.911504 0.000000 0.411292
vn 0.930876 -0.000000 0.365334
vn 0.930876 0.000000 0.365334
vn 0.947927 0.000000 0.318486
vn 0.962623 0.000000 0.270846
vn 0.947927 -0.000000 0.318486
vn 0.962623 0.000000 0.270846
vn 0.974928 0.000000 0.222519
vn 0.974928 -0.000000 0.222519
vn 0.984807 0.000000 0.173650
vn 0.984807 -0.000000 0.173650
vn 0.992239 0.000000 0.124343
vn 0.992239 -0.000000 0.124343
vn 0.997204 0.000000 0.074730
vn 0.997204 -0.000000 0.074730
vn 0.999689 0.000000 0.024931
vn 0.999689 -0.000000 0.024931
vn -0.000000 -1.000000 0.000000
vn -0.000000 -1.000000 0.000000
vn -0.000000 -1.000000 0.000000
vn -0.000000 -1.000000 0.000000
vn 0.000000 -1.000000 0.000000
vn -0.000000 -1.000000 0.000000
vn -0.000000 -1.000000 0.000000
vn 0.000000 -1.000000 0.000000
vn -0.000000 -1.000000 0.000000
vn -0.000000 -1.000000 0.000000
vn 0.000000 -1.000000 0.000000
vn -0.000000 -1.000000 0.000000
vn -0.000000 -1.000000 0.000000
vn -0.000000 -1.000000 0.000000
vn 0.000000 -1.000000 0.000000
vn -0.000000 -1.000000 0.000000
vn -0.000000 -1.000000 0.000000
vn -0.000000 -1.000000 0.000000
vn 0.000000 -1.000000 0.000000
vn -0.000000 -1.000000 0.000000
vn -0.000000 -1.000000 0.000000
vn -0.000000 -1.000000 0.000000
vn 0.000000 -1.000000 0.000000
vn -0.000000 -1.000000 0.000000
vn -0.000000 -1.000000 0.000000
vn 0.000000 -1.000000 0.000000
vn -0.000000 -1.000000 0.000000
vn -0.000000 -1.000000 0.000000
vn -0.000000 -1.000000 0.000000
vn 0.000000 -1.000000 0.000000
vn -0.000000 -1.000000 0.000000
vn -0.000000 -1.000000 0.000000
vn -0.000000 -1.000000 0.000000
vn 0.000000 -1.000000 0.000000
vn -0.000000 -1.000000 0.000000
vn -0.000000 -1.000000 0.000000
vn 0.000000 -1.000000 0.000000
vn -0.000000 -1.000000 0.000000
vn -0.000000 -1.000000 0.000000
vn 0.000000 -1.000000 0.000000
vn -0.000000 -1.000000 0.000000
vn -0.000000 -1.000000 0.000000
vn 0.000000 -1.000000 0.000000
vn -0.000000 -1.000000 0.000000
vn -0.000000 -1.000000 0.000000
vn 0.000000 -1.000000 0.000000
vn 0.000000 -1.000000 0.000000
vn -0.000000 -1.000000 0.000000
vn 0.000000 -1.000000 0.000000
vn 0.000000 -1.000000 0.000000
vn 0.000000 -1.000000 0.000000
vn 0.000000 -1.000000 0.000000
vn 0.000000 -1.000000 0.000000
vn 0.000000 -1.000000 0.000000
vn 0.000000 -1.000000 0.000000
vn 0.000000 -1.000000 0.000000
vn 0.000000 -1.000000 0.000000
vn 0.000000 -1.000000 0.000000
vn 0.000000 -1.000000 0.000000
vn 0.000000 -1.000000 0.000000
vn 0.000000 -1.000000 0.000000
vn 0.000000 -1.000000 0.000000
vn 0.000000 -1.000000 0.000000
vn 0.000000 -1.000000 0.000000
vn 0.000000 -1.000000 0.000000
vn 0.000000 -1.000000 0.000000
vn 0.000000 -1.000000 0.000000
vn 0.000000 -1.000000 0.000000
vn 0.000000 -1.000000 0.000000
vn 0.000000 -1.000000 0.000000
vn 0.000000 -1.000000 0.000000
vn 0.000000 -1.000000 0.000000
vn 0.000000 -1.000000 0.000000
vn 0.000000 -1.000000 0.000000
vn 0.000000 -1.000000 0.000000
vn 0.000000 -1.000000 0.000000
vn 0.000000 -1.000000 0.000000
vn 0.000000 -1.000000 0.000000
vn -0.000000 -1.000000 0.000000
vn -0.000000 -1.000000 0.000000
vn -0.000000 -1.000000 0.000000
vn -0.000000 -1.000000 0.000000
vn -0.000000 -1.000000 0.000000
vn -0.000000 -1.000000 0.000000
vn -0.000000 -1.000000 0.000000
vn -0.000000 -1.000000 0.000000
vn -0.000000 -1.000000 0.000000
vn -0.000000 -1.000000 0.000000
vn -0.000000 -1.000000 0.000000
vn -0.000000 -1.000000 0.000000
vn -0.000000 -1.000000 0.000000
vn -0.000000 -1.000000 0.000000
vn -0.000000 -1.000000 0.000000
vn -0.000000 -1.000000 0.000000
vn -0.000000 -1.000000 0.000000
vn -0.000000 -1.000000 0.000000
vn -0.000000 -1.000000 0.000000
vn -0.000000 -1.000000 0.000000
vn -0.000000 -1.000000 0.000000
vn -0.000000 -1.000000 0.000000
vn -0.000000 -1.000000 0.000000
vn -0.000000 -1.000000 -0.000000
vn -0.000000 -1.000000 -0.000000
vn -0.000000 -1.000000 -0.000000
vn -0.000000 -1.000000 -0.000000
vn 0.000000 -1.000000 0.000000
vn 0.000000 -1.000000 0.000000
vn 0.000000 -1.000000 0.000000
vn 0.000000 -1.000000 0.000000
vn 0.000000 -1.000000 0.000000
vn 0.000000 -1.000000 0.000000
vn 0.000000 -1.000000 0.000000
vn 0.000000 -1.000000 0.000000
vn 0.000000 -1.000000 0.000000
vn 0.000000 -1.000000 0.000000
vn 0.000000 -1.000000 0.000000
vn 0.000000 -1.000000 0.000000
vn 0.000000 -1.000000 0.000000
vn 0.000000 -1.000000 0.000000
vn 0.000000 -1.000000 0.000000
vn 0.000000 -1.000000 0.000000
vn 0.000000 -1.000000 0.000000
vn 0.000000 -1.000000 0.000000
vn 0.000000 -1.000000 0.000000
vn 0.000000 -1.000000 0.000000
vn 0.000000 -1.000000 0.000000
vn 0.000000 -1.000000 0.000000
vn 0.000000 -1.000000 0.000000
vn 0.000000 -1.000000 0.000000
vn 0.000000 -1.000000 0.000000
vn 0.000000 -1.000000 0.000000
vn 0.000000 -1.000000 0.000000
vn 0.000000 -1.000000 0.000000
vn 0.000000 -1.000000 0.000000
vn 0.000000 -1.000000 0.000000
vn 0.000000 -1.000000 0.000000
vn 0.000000 -1.000000 0.000000
vn 0.000000 -1.000000 0.000000
vn 0.000000 -1.000000 0.000000
vn 0.000000 -1.000000 0.000000
vn 0.000000 -1.000000 0.000000
vn 0.000000 -1.000000 0.000000
vn 0.000000 -1.000000 0.000000
vn 0.000000 -1.000000 0.000000
vn 0.000000 -1.000000 0.000000
vn 0.000000 -1.000000 0.000000
vn 0.000000 -1.000000 0.000000
vn 0.000000 -1.000000 0.000000
vn 0.000000 -1.000000 0.000000
vn 0.000000 -1.000000 0.000000
vn 0.000000 -1.000000 0.000000
vn 0.000000 -1.000000 0.000000
vn 0.000000 -1.000000 0.000000
vn 0.000000 -1.000000 0.000000
vn 0.000000 -1.000000 0.000000
vn 0.000000 -1.000000 0.000000
vn 0.000000 -1.000000 0.000000
vn 0.000000 -1.000000 0.000000
vn 0.000000 -1.000000 0.000000
vn 0.000000 -1.000000 0.000000
vn 0.000000 -1.000000 0.000000
vn 0.000000 -1.000000 0.000000
vn 0.000000 -1.000000 0.000000
vn 0.000000 -1.000000 0.000000
vn 0.000000 -1.000000 0.000000
vn 0.000000 -1.000000 0.000000
vn 0.000000 -1.000000 0.000000
vn 0.000000 -1.000000 0.000000
vn 0.000000 -1.000000 0.000000
vn 0.000000 -1.000000 0.000000
vn 0.000000 -1.000000 0.000000
vn 0.000000 -1.000000 0.000000
vn 0.000000 -1.000000 0.000000
vn 0.000000 -1.000000 0.000000
vn 0.000000 -1.000000 0.000000
vn 0.000000 -1.000000 0.000000
vn 0.000000 -1.000000 0.000000
vn 0.000000 -1.000000 0.000000
vn 0.000000 -1.000000 0.000000
vn 0.000000 -1.000000 0.000000
vn 0.000000 -1.000000 0.000000
vn 0.000000 -1.000000 0.000000
vn 0.000000 -1.000000 0.000000
vn 0.000000 -1.000000 0.000000
vn 0.000000 -1.000000 0.000000
vn 0.000000 -1.000000 0.000000
vn 0.000000 -1.000000 0.000000
vn 0.000000 -1.000000 0.000000
vn 0.000000 -1.000000 0.000000
vn 0.000000 -1.000000 0.000000
vn 0.000000 -1.000000 0.000000
vn 0.000000 -1.000000 0.000000
vn 0.000000 0.000000 1.000000
vn 0.000000 0.000000 1.000000
vn 0.000000 0.000000 -1.000000
vn 0.000000 0.000000 -1.000000
vn 0.000000 0.000000 -1.000000
vn 0.000000 0.000000 -1.000000
vn 0.000000 0.000000 -1.000000
vn 0.000000 0.000000 -1.000000
vn 0.000000 0.000000 -1.000000
vn 0.000000 0.000000 -1.000000
vn 0.000000 0.000000 -1.000000
vn 0.000000 0.000000 -1.000000
vn 0.000000 0.000000 -1.000000
vn 0.000000 0.000000 -1.000000
vn 0.000000 0.000000 -1.000000
vn 0.000000 0.000000 -1.000000
vn 0.000000 0.000000 -1.000000
vn 0.000000 0.000000 -1.000000
vn 0.000000 0.000000 -1.000000
vn 0.000000 0.000000 -1.000000
vn 0.000000 0.000000 -1.000000
vn 0.000000 0.000000 -1.000000
vn 0.000000 0.000000 -1.000000
vn 0.000000 0.000000 -1.000000
vn 0.000000 0.000000 -1.000000
vn 0.000000 0.000000 -1.000000
vn 0.000000 0.000000 -1.000000
vn 0.000000 0.000000 -1.000000
vn 0.000000 0.000000 -1.000000
vn 0.000000 0.000000 -1.000000
vn 0.000000 0.000000 -1.000000
vn 0.000000 0.000000 -1.000000
vn 0.000000 0.000000 -1.000000
vn 0.000000 0.000000 -1.000000
vn 0.000000 0.000000 -1.000000
vn 0.000000 0.000000 -1.000000
vn 0.000000 0.000000 -1.000000
vn 0.000000 0.000000 -1.000000
vn 0.000000 0.000000 -1.000000
vn 0.000000 0.000000 -1.000000
vn 0.000000 0.000000 -1.000000
vn 0.000000 0.000000 -1.000000
vn 0.000000 0.000000 -1.000000
vn 0.000000 0.000000 -1.000000
vn 0.000000 0.000000 -1.000000
vn 0.000000 0.000000 -1.000000
vn 0.000000 0.000000 -1.000000
vn 0.000000 0.000000 -1.000000
vn 0.000000 0.000000 -1.000000
vn 0.000000 0.000000 -1.000000
vn 0.000000 0.000000 -1.000000
vn 0.000000 0.000000 -1.000000
vn 0.000000 0.000000 -1.000000
vn 0.000000 0.000000 -1.000000
vn 0.000000 0.000000 -1.000000
vn 0.000000 0.000000 -1.000000
vn 0.000000 0.000000 -1.000000
vn 0.000000 0.000000 -1.000000
vn 0.000000 0.000000 -1.000000
vn 0.000000 0.000000 -1.000000
vn 0.000000 0.000000 -1.000000
vn 0.000000 0.000000 -1.000000
vn 0.000000 0.000000 -1.000000
vn 0.000000 0.000000 -1.000000
vn 0.000000 0.000000 -1.000000
vn 0.000000 0.000000 -1.000000
vn 0.000000 0.000000 -1.000000
vn 0.000000 0.000000 -1.000000
vn 0.000000 0.000000 -1.000000
vn 0.000000 0.000000 -1.000000
vn 0.000000 0.000000 -1.000000
vn 0.000000 0.000000 -1.000000
vn 0.000000 0.000000 -1.000000
vn 0.000000 0.000000 -1.000000
vn 0.000000 0.000000 -1.000000
vn 0.000000 0.000000 -1.000000
vn 0.000000 0.000000 -1.000000
vn 0.000000 0.000000 -1.000000
vn 0.000000 0.000000 -1.000000
vn 0.000000 0.000000 -1.000000
vn 0.000000 0.000000 -1.000000
vn 0.000000 0.000000 -1.000000
vn 0.000000 0.000000 -1.000000
vn 0.000000 0.000000 -1.000000
vn 0.000000 0.000000 -1.000000
vn 0.000000 0.000000 -1.000000
vn 0.000000 0.000000 -1.000000
vn 0.000000 0.000000 -1.000000
vn 0.000000 0.000000 -1.000000
vn 0.000000 0.000000 -1.000000
vn 0.000000 0.000000 -1.000000
vn 0.000000 0.000000 -1.000000
vn 0.000000 0.000000 -1.000000
vn 0.000000 0.000000 -1.000000
vn 0.000000 0.000000 -1.000000
vn 0.000000 0.000000 -1.000000
vn 0.000000 0.000000 -1.000000
vn 0.000000 0.000000 -1.000000
vn 0.000000 0.000000 -1.000000
vn 0.000000 0.000000 -1.000000
vn 0.000000 0.000000 -1.000000
vn 0.000000 0.000000 -1.000000
vn 0.000000 0.000000 -1.000000
vn 0.000000 0.000000 -1.000000
vn 0.000000 0.000000 -1.000000
vn 0.000000 0.000000 -1.000000
vn 0.000000 0.000000 -1.000000
vn 0.000000 0.000000 -1.000000
vn 0.000000 0.000000 -1.000000
vn 0.000000 0.000000 -1.000000
vn 0.000000 0.000000 -1.000000
vn 0.000000 0.000000 -1.000000
vn 0.000000 0.000000 -1.000000
vn 0.000000 0.000000 -1.000000
vn 0.000000 0.000000 -1.000000
vn 0.000000 0.000000 -1.000000
vn 0.000000 0.000000 -1.000000
vn 0.000000 0.000000 -1.000000
vn 0.000000 0.000000 -1.000000
vn 0.000000 0.000000 -1.000000
vn 0.000000 0.000000 -1.000000
vn 0.000000 0.000000 -1.000000
vn 0.000000 0.000000 -1.000000
vn 0.000000 0.000000 -1.000000
vn 0.000000 0.000000 -1.000000
vn -0.000000 0.000000 -1.000000
vn -0.999689 0.000000 0.024931
vn -0.999689 0.000000 0.024931
vn -0.997204 0.000000 0.074728
vn -0.997204 0.000000 0.074728
vn -0.992239 0.000000 0.124347
vn -0.992239 0.000000 0.124347
vn -0.984808 0.000000 0.173645
vn -0.984808 0.000000 0.173645
vn -0.974927 0.000000 0.222524
vn -0.962625 0.000000 0.270839
vn -0.974927 0.000000 0.222524
vn -0.962625 0.000000 0.270839
vn -0.947929 0.000000 0.318483
vn -0.947929 0.000000 0.318483
vn -0.930875 0.000000 0.365337
vn -0.930875 0.000000 0.365337
vn -0.911505 0.000000 0.411288
vn -0.889873 0.000000 0.456208
vn -0.911505 0.000000 0.411288
vn -0.889873 0.000000 0.456208
vn -0.866021 0.000000 0.500008
vn -0.866021 0.000000 0.500008
vn -0.840023 0.000000 0.542551
vn -0.840023 0.000000 0.542551
vn -0.811940 0.000000 0.583741
vn -0.811940 0.000000 0.583741
vn -0.781831 0.000000 0.623490
vn -0.781831 0.000000 0.623490
vn -0.749790 0.000000 0.661676
vn -0.749790 0.000000 0.661676
vn -0.715860 0.000000 0.698244
vn -0.715860 0.000000 0.698244
vn -0.680181 0.000000 0.733044
vn -0.680181 0.000000 0.733044
vn -0.642780 0.000000 0.766051
vn -0.642780 0.000000 0.766051
vn -0.603805 0.000000 0.797132
vn -0.603805 0.000000 0.797132
vn -0.563326 0.000000 0.826234
vn -0.563326 0.000000 0.826234
vn -0.521427 0.000000 0.853296
vn -0.521427 0.000000 0.853296
vn -0.478254 0.000000 0.878221
vn -0.478254 0.000000 0.878221
vn -0.433898 0.000000 0.900962
vn -0.433898 0.000000 0.900962
vn -0.388410 0.000000 0.921487
vn -0.342014 0.000000 0.939695
vn -0.388410 0.000000 0.921487
vn -0.342014 0.000000 0.939695
vn -0.294762 0.000000 0.955571
vn -0.294762 0.000000 0.955571
vn -0.246777 0.000000 0.969072
vn -0.246777 0.000000 0.969072
vn -0.198141 0.000000 0.980174
vn -0.198141 0.000000 0.980174
vn -0.149054 0.000000 0.988829
vn -0.149054 0.000000 0.988829
vn -0.099560 0.000000 0.995032
vn -0.099560 0.000000 0.995032
vn -0.049821 0.000000 0.998758
vn -0.049821 0.000000 0.998758
vn -0.000000 0.000000 1.000000
vn 0.000000 0.000000 1.000000
vn 0.049821 0.000000 0.998758
vn 0.049821 -0.000000 0.998758
vn 0.099560 0.000000 0.995032
vn 0.099560 -0.000000 0.995032
vn 0.149054 0.000000 0.988829
vn 0.198141 0.000000 0.980174
vn 0.149054 -0.000000 0.988829
vn 0.198141 0.000000 0.980174
vn 0.246777 -0.000000 0.969072
vn 0.246777 0.000000 0.969072
vn 0.294762 -0.000000 0.955571
vn 0.294762 0.000000 0.955571
vn 0.342014 -0.000000 0.939695
vn 0.342014 0.000000 0.939695
vn 0.388410 -0.000000 0.921487
vn 0.388410 0.000000 0.921487
vn 0.433898 -0.000000 0.900962
vn 0.433898 0.000000 0.900962
vn 0.478254 -0.000000 0.878221
vn 0.478254 0.000000 0.878221
vn 0.521427 0.000000 0.853296
vn 0.521427 0.000000 0.853296
vn 0.563326 -0.000000 0.826234
vn 0.563326 0.000000 0.826234
vn 0.603805 0.000000 0.797132
vn 0.603805 0.000000 0.797132
vn 0.642780 -0.000000 0.766051
vn 0.642780 0.000000 0.766051
vn 0.680181 0.000000 0.733044
vn 0.680181 0.000000 0.733044
vn 0.715860 0.000000 0.698244
vn 0.715860 0.000000 0.698244
vn 0.749790 0.000000 0.661676
vn 0.749790 -0.000000 0.661676
vn 0.781831 0.000000 0.623490
vn 0.781831 -0.000000 0.623490
vn 0.811940 0.000000 0.583741
vn 0.811940 -0.000000 0.583741
vn 0.840023 0.000000 0.542551
vn 0.840023 -0.000000 0.542551
vn 0.866021 0.000000 0.500008
vn 0.866021 -0.000000 0.500008
vn 0.889873 0.000000 0.456208
vn 0.911505 0.000000 0.411288
vn 0.889873 -0.000000 0.456208
vn 0.911505 0.000000 0.411288
vn 0.930875 0.000000 0.365337
vn 0.930875 -0.000000 0.365337
vn 0.947929 0.000000 0.318483
vn 0.962625 0.000000 0.270839
vn 0.947929 -0.000000 0.318483
vn 0.962625 0.000000 0.270839
vn 0.974927 0.000000 0.222524
vn 0.974927 -0.000000 0.222524
vn 0.984808 0.000000 0.173645
vn 0.984808 -0.000000 0.173645
vn 0.992239 0.000000 0.124347
vn 0.992239 -0.000000 0.124347
vn 0.997204 -0.000000 0.074728
vn 0.997204 0.000000 0.074728
vn 0.999689 -0.000000 0.024931
vn 0.999689 0.000000 0.024931
vn 0.999689 0.000000 -0.024931
vn 0.999689 0.000000 -0.024931
vn 0.997204 0.000000 -0.074731
vn 0.997204 0.000000 -0.074731
vn 0.992239 0.000000 -0.124342
vn 0.992239 0.000000 -0.124342
vn 0.984808 0.000000 -0.173645
vn 0.984808 0.000000 -0.173645
vn 0.974927 0.000000 -0.222524
vn 0.974927 0.000000 -0.222524
vn 0.962625 0.000000 -0.270839
vn 0.962625 0.000000 -0.270839
vn 0.947929 0.000000 -0.318483
vn 0.947929 0.000000 -0.318483
vn 0.930870 0.000000 -0.365351
vn 0.930870 0.000000 -0.365351
vn 0.911505 0.000000 -0.411288
vn 0.911505 0.000000 -0.411288
vn 0.889873 0.000000 -0.456208
vn 0.889873 0.000000 -0.456208
vn 0.866031 0.000000 -0.499990
vn 0.866031 0.000000 -0.499990
vn 0.840023 0.000000 -0.542551
vn 0.840023 0.000000 -0.542551
vn 0.811940 0.000000 -0.583741
vn 0.811940 0.000000 -0.583741
vn 0.781831 0.000000 -0.623490
vn 0.781831 0.000000 -0.623490
vn 0.749772 0.000000 -0.661697
vn 0.749772 0.000000 -0.661697
vn 0.715880 0.000000 -0.698224
vn 0.715880 0.000000 -0.698224
vn 0.680159 0.000000 -0.733064
vn 0.680159 0.000000 -0.733064
vn 0.642804 0.000000 -0.766031
vn 0.642804 0.000000 -0.766031
vn 0.603805 0.000000 -0.797132
vn 0.603805 0.000000 -0.797132
vn 0.563299 0.000000 -0.826253
vn 0.563299 0.000000 -0.826253
vn 0.521457 0.000000 -0.853278
vn 0.521457 0.000000 -0.853278
vn 0.478254 0.000000 -0.878221
vn 0.433865 0.000000 -0.900978
vn 0.478254 0.000000 -0.878221
vn 0.433865 0.000000 -0.900978
vn 0.388445 0.000000 -0.921472
vn 0.342014 0.000000 -0.939695
vn 0.388445 0.000000 -0.921472
vn 0.342014 0.000000 -0.939695
vn 0.294762 0.000000 -0.955571
vn 0.294762 0.000000 -0.955571
vn 0.246738 0.000000 -0.969082
vn 0.246738 0.000000 -0.969082
vn 0.198180 0.000000 -0.980166
vn 0.198180 0.000000 -0.980166
vn 0.149014 0.000000 -0.988835
vn 0.149014 0.000000 -0.988835
vn 0.099560 0.000000 -0.995032
vn 0.099560 0.000000 -0.995032
vn 0.049861 0.000000 -0.998756
vn 0.049861 0.000000 -0.998756
vn 0.000000 0.000000 -1.000000
vn -0.000000 0.000000 -1.000000
vn -0.049861 0.000000 -0.998756
vn -0.049861 0.000000 -0.998756
vn -0.099560 -0.000000 -0.995032
vn -0.099560 0.000000 -0.995032
vn -0.149014 -0.000000 -0.988835
vn -0.149014 0.000000 -0.988835
vn -0.198180 -0.000000 -0.980166
vn -0.246738 -0.000000 -0.969082
vn -0.198180 0.000000 -0.980166
vn -0.246738 0.000000 -0.969082
vn -0.294762 0.000000 -0.955571
vn -0.342014 -0.000000 -0.939695
vn -0.294762 0.000000 -0.955571
vn -0.342014 0.000000 -0.939695
vn -0.388445 0.000000 -0.921472
vn -0.433865 -0.000000 -0.900978
vn -0.388445 0.000000 -0.921472
vn -0.433865 0.000000 -0.900978
vn -0.478254 0.000000 -0.878221
vn -0.478254 0.000000 -0.878221
vn -0.521457 0.000000 -0.853278
vn -0.521457 0.000000 -0.853278
vn -0.563299 0.000000 -0.826253
vn -0.603805 -0.000000 -0.797132
vn -0.563299 0.000000 -0.826253
vn -0.603805 0.000000 -0.797132
vn -0.642804 0.000000 -0.766031
vn -0.642804 0.000000 -0.766031
vn -0.680159 0.000000 -0.733064
vn -0.715880 -0.000000 -0.698224
vn -0.680159 0.000000 -0.733064
vn -0.715880 0.000000 -0.698224
vn -0.749772 0.000000 -0.661697
vn -0.749772 0.000000 -0.661697
vn -0.781831 -0.000000 -0.623490
vn -0.781831 0.000000 -0.623490
vn -0.811940 0.000000 -0.583741
vn -0.811940 0.000000 -0.583741
vn -0.840023 -0.000000 -0.542551
vn -0.840023 0.000000 -0.542551
vn -0.866031 0.000000 -0.499990
vn -0.866031 0.000000 -0.499990
vn -0.889873 -0.000000 -0.456208
vn -0.889873 0.000000 -0.456208
vn -0.911505 0.000000 -0.411288
vn -0.911505 0.000000 -0.411288
vn -0.930870 0.000000 -0.365351
vn -0.930870 0.000000 -0.365351
vn -0.947929 0.000000 -0.318483
vn -0.947929 0.000000 -0.318483
vn -0.962625 0.000000 -0.270839
vn -0.974927 -0.000000 -0.222524
vn -0.962625 0.000000 -0.270839
vn -0.974927 0.000000 -0.222524
vn -0.984808 0.000000 -0.173645
vn -0.984808 0.000000 -0.173645
vn -0.992239 0.000000 -0.124342
vn -0.992239 0.000000 -0.124342
vn -0.997204 0.000000 -0.074731
vn -0.997204 0.000000 -0.074731
vn -0.999689 0.000000 -0.024931
vn -0.999689 0.000000 -0.024931
vn 0.000000 -1.000000 0.000000
vn 0.000000 -1.000000 0.000000
vn 0.000000 -1.000000 0.000000
vn 0.000000 -1.000000 0.000000
vn 0.000000 -1.000000 0.000000
vn 0.000000 -1.000000 0.000000
vn 0.000000 -1.000000 0.000000
vn 0.000000 -1.000000 0.000000
vn 0.000000 -1.000000 0.000000
vn 0.000000 -1.000000 0.000000
vn 0.000000 -1.000000 0.000000
vn 0.000000 -1.000000 0.000000
vn 0.000000 -1.000000 0.000000
vn 0.000000 -1.000000 0.000000
vn 0.000000 -1.000000 0.000000
vn 0.000000 -1.000000 0.000000
vn 0.000000 -1.000000 0.000000
vn 0.000000 -1.000000 0.000000
vn 0.000000 -1.000000 0.000000
vn 0.000000 -1.000000 0.000000
vn 0.000000 -1.000000 0.000000
vn 0.000000 -1.000000 0.000000
vn 0.000000 -1.000000 0.000000
vn 0.000000 -1.000000 0.000000
vn 0.000000 -1.000000 0.000000
vn 0.000000 -1.000000 0.000000
vn -0.000000 -1.000000 0.000000
vn -0.000000 -1.000000 0.000000
vn 0.000000 -1.000000 0.000000
vn 0.000000 -1.000000 0.000000
vn 0.000000 -1.000000 0.000000
vn 0.000000 -1.000000 0.000000
vn -0.000000 -1.000000 0.000000
vn -0.000000 -1.000000 0.000000
vn 0.000000 -1.000000 0.000000
vn 0.000000 -1.000000 0.000000
vn 0.000000 -1.000000 0.000000
vn 0.000000 -1.000000 0.000000
vn 0.000000 -1.000000 0.000000
vn -0.000000 -1.000000 0.000000
vn 0.000000 -1.000000 0.000000
vn -0.000000 -1.000000 0.000000
vn -0.000000 -1.000000 0.000000
vn -0.000000 -1.000000 0.000000
vn -0.000000 -1.000000 0.000000
vn -0.000000 -1.000000 0.000000
vn 0.000000 -1.000000 0.000000
vn 0.000000 -1.000000 0.000000
vn 0.000000 -1.000000 0.000000
vn 0.000000 -1.000000 0.000000
vn 0.000000 -1.000000 0.000000
vn 0.000000 -1.000000 0.000000
vn 0.000000 -1.000000 0.000000
vn 0.000000 -1.000000 0.000000
vn -0.000000 -1.000000 0.000000
vn -0.000000 -1.000000 0.000000
vn -0.000000 -1.000000 0.000000
vn 0.000000 -1.000000 0.000000
vn -0.000000 -1.000000 0.000000
vn 0.000000 -1.000000 0.000000
vn 0.000000 -1.000000 0.000000
vn 0.000000 -1.000000 0.000000
vn 0.000000 -1.000000 0.000000
vn 0.000000 -1.000000 0.000000
vn 0.000000 -1.000000 0.000000
vn -0.000000 -1.000000 0.000000
vn -0.000000 -1.000000 0.000000
vn -0.000000 -1.000000 0.000000
vn -0.000000 -1.000000 0.000000
vn -0.000000 -1.000000 0.000000
vn 0.000000 -1.000000 0.000000
vn 0.000000 -1.000000 0.000000
vn 0.000000 -1.000000 0.000000
vn 0.000000 -1.000000 0.000000
vn -0.000000 -1.000000 0.000000
vn 0.000000 -1.000000 0.000000
vn -0.000000 -1.000000 0.000000
vn -0.000000 -1.000000 0.000000
vn 0.000000 -1.000000 0.000000
vn 0.000000 -1.000000 0.000000
vn 0.000000 -1.000000 0.000000
vn 0.000000 -1.000000 0.000000
vn 0.000000 -1.000000 0.000000
vn -0.000000 -1.000000 0.000000
vn -0.000000 -1.000000 0.000000
vn 0.000000 -1.000000 0.000000
vn -0.000000 -1.000000 0.000000
vn -0.000000 -1.000000 0.000000
vn 0.000000 -1.000000 0.000000
vn -0.000000 -1.000000 -0.000000
vn -0.000000 -1.000000 -0.000000
vn -0.000000 -1.000000 -0.000000
vn 0.000000 -1.000000 0.000000
vn 0.000000 -1.000000 0.000000
vn 0.000000 -1.000000 0.000000
vn 0.000000 -1.000000 0.000000
vn -0.000000 -1.000000 -0.000000
vn -0.000000 -1.000000 -0.000000
vn -0.000000 -1.000000 0.000000
vn 0.000000 -1.000000 0.000000
vn 0.000000 -1.000000 0.000000
vn -0.000000 -1.000000 -0.000000
vn 0.000000 -1.000000 0.000000
vn -0.000000 -1.000000 -0.000000
vn 0.000000 -1.000000 0.000000
vn -0.000000 -1.000000 0.000000
vn -0.000000 -1.000000 -0.000000
vn -0.000000 -1.000000 -0.000000
vn -0.000000 -1.000000 -0.000000
vn -0.000000 -1.000000 0.000000
vn -0.000000 -1.000000 0.000000
vn 0.000000 -1.000000 0.000000
vn 0.000000 -1.000000 0.000000
vn -0.000000 -1.000000 -0.000000
vn 0.000000 -1.000000 0.000000
vn -0.000000 -1.000000 -0.000000
vn 0.000000 -1.000000 0.000000
vn -0.000000 -1.000000 0.000000
vn 0.000000 -1.000000 0.000000
vn -0.000000 -1.000000 0.000000
vn -0.000000 -1.000000 -0.000000
vn 0.000000 -1.000000 0.000000
vn -0.000000 -1.000000 -0.000000
vn 0.000000 -1.000000 0.000000
f 1//1 2//1 3//1
f 4//2 3//2 2//2
f 5//3 2//3 1//3
f 6//4 4//4 2//4
f 7//5 2//5 5//5
f 8//6 6//6 2//6
f 9//7 2//7 7//7
f 10//8 8//8 2//8
f 11//9 2//9 9//9
f 12//10 10//10 2//10
f 13//11 2//11 11//11
f 14//12 12//12 2//12
f 15//13 2//13 13//13
f 16//14 14//14 2//14
f 17//15 2//15 15//15
f 18//16 16//16 2//16
f 19//17 2//17 17//17
f 20//18 18//18 2//18
f 21//19 2//19 19//19
f 22//20 20//20 2//20
f 23//21 2//21 21//21
f 24//22 22//22 2//22
f 25//23 2//23 23//23
f 26//24 24//24 2//24
f 27//25 2//25 25//25
f 28//26 26//26 2//26
f 29//27 2//27 27//27
f 30//28 28//28 2//28
f 31//29 2//29 29//29
f 32//30 30//30 2//30
f 33//31 2//31 31//31
f 34//32 35//32 36//32
f 34//33 37//33 35//33
f 34//34 38//34 37//34
f 34//35 39//35 38//35
f 34//36 40//36 39//36
f 34//37 41//37 40//37
f 34//38 42//38 41//38
f 34//39 43//39 42//39
f 34//40 44//40 43//40
f 34//41 45//41 44//41
f 34//42 46//42 45//42
f 34//43 47//43 46//43
f 34//44 48//44 47//44
f 34//45 49//45 48//45
f 34//46 32//46 2//46
f 34//47 50//47 32//47
f 34//48 36//48 50//48
f 51//49 52//49 53//49
f 51//50 54//50 52//50
f 51//51 55//51 54//51
f 51//52 56//52 55//52
f 51//53 57//53 56//53
f 51//54 58//54 57//54
f 51//55 59//55 58//55
f 51//56 60//56 59//56
f 51//57 61//57 60//57
f 51//58 62//58 61//58
f 51//59 63//59 62//59
f 51//60 64//60 63//60
f 51//61 65//61 64//61
f 51//62 66//62 65//62
f 51//63 33//63 66//63
f 51//64 2//64 33//64
f 67//65 51//65 53//65
f 68//66 49//66 34//66
f 69//67 51//67 67//67
f 70//68 68//68 34//68
f 71//69 51//69 69//69
f 72//70 70//70 34//70
f 73//71 51//71 71//71
f 74//72 72//72 34//72
f 75//73 51//73 73//73
f 76//74 74//74 34//74
f 77//75 51//75 75//75
f 78//76 76//76 34//76
f 79//77 51//77 77//77
f 80//78 78//78 34//78
f 81//79 51//79 79//79
f 82//80 80//80 34//80
f 83//81 51//81 81//81
f 84//82 82//82 34//82
f 85//83 51//83 83//83
f 86//84 84//84 34//84
f 87//85 51//85 85//85
f 88//86 86//86 34//86
f 89//87 51//87 87//87
f 90//88 88//88 34//88
f 91//89 51//89 89//89
f 92//90 90//90 34//90
f 93//91 51//91 91//91
f 94//92 92//92 34//92
f 95//93 51//93 93//93
f 96//94 94//94 34//94
f 97//95 96//95 34//95
f 98//96 99//96 97//96
f 98//97 100//97 99//97
f 98//98 101//98 100//98
f 98//99 102//99 101//99
f 98//100 103//100 102//100
f 98//101 104//101 103//101
f 98//102 105//102 104//102
f 98//103 106//103 105//103
f 98//104 107//104 106//104
f 98//105 108//105 107//105
f 98//106 109//106 108//106
f 98//107 110//107 109//107
f 98//108 111//108 110//108
f 98//109 112//109 111//109
f 98//110 113//110 112//110
f 98//111 114//111 113//111
f 98//112 115//112 114//112
f 98//113 116//113 115//113
f 98//114 117//114 116//114
f 98//115 118//115 117//115
f 98//116 97//116 34//116
f 98//117 119//117 118//117
f 98//118 120//118 119//118
f 98//119 121//119 120//119
f 98//120 122//120 121//120
f 98//121 123//121 122//121
f 98//122 124//122 123//122
f 98//123 125//123 124//123
f 98//124 126//124 125//124
f 98//125 127//125 126//125
f 98//126 128//126 127//126
f 98//127 51//127 129//127
f 129//128 51//128 95//128
f 98//129 129//129 130//129
f 98//130 130//130 128//130
f 131//131 132//131 133//131
f 134//132 135//132 131//132
f 131//133 135//133 132//133
f 135//134 136//134 137//134
f 134//135 136//135 135//135
f 136//136 138//136 139//136
f 134//137 138//137 136//137
f 138//138 140//138 141//138
f 140//139 142//139 143//139
f 138//140 142//140 140//140
f 134//141 144//141 138//141
f 138//142 144//142 142//142
f 144//143 145//143 146//143
f 134//144 147//144 144//144
f 144//145 147//145 145//145
f 148//146 149//146 150//146
f 148//147 151//147 149//147
f 147//148 151//148 148//148
f 147//149 152//149 151//149
f 147//150 153//150 152//150
f 147//151 154//151 153//151
f 154//152 155//152 156//152
f 156//153 155//153 157//153
f 158//154 159//154 160//154
f 98//155 161//155 51//155
f 51//156 161//156 134//156
f 134//157 162//157 147//157
f 161//158 162//158 134//158
f 163//159 162//159 161//159
f 159//160 164//160 165//160
f 165//161 164//161 166//161
f 166//162 164//162 167//162
f 167//163 164//163 168//163
f 147//164 169//164 154//164
f 154//165 169//165 155//165
f 162//166 169//166 147//166
f 170//167 169//167 162//167
f 171//168 172//168 169//168
f 173//169 174//169 175//169
f 175//170 174//170 176//170
f 172//171 177//171 169//171
f 173//172 178//172 174//172
f 177//173 179//173 169//173
f 169//174 180//174 155//174
f 158//175 180//175 159//175
f 155//176 180//176 158//176
f 164//177 180//177 173//177
f 159//178 180//178 164//178
f 179//179 180//179 169//179
f 178//180 181//180 182//180
f 182//181 181//181 183//181
f 184//182 185//182 180//182
f 173//183 186//183 178//183
f 178//184 186//184 181//184
f 185//185 187//185 180//185
f 186//186 188//186 189//186
f 173//187 190//187 186//187
f 186//188 190//188 188//188
f 191//189 192//189 193//189
f 193//190 192//190 187//190
f 180//191 194//191 173//191
f 173//192 194//192 190//192
f 187//193 194//193 180//193
f 192//194 194//194 187//194
f 195//195 196//195 197//195
f 196//196 51//196 134//196
f 196//197 2//197 51//197
f 195//198 2//198 196//198
f 198//199 2//199 195//199
f 198//200 34//200 2//200
f 34//201 199//201 98//201
f 98//202 199//202 161//202
f 199//203 198//203 200//203
f 34//204 198//204 199//204
f 97//205 99//205 201//205
f 201//206 99//206 202//206
f 202//207 100//207 203//207
f 99//208 100//208 202//208
f 203//209 101//209 204//209
f 100//210 101//210 203//210
f 204//211 102//211 205//211
f 101//212 102//212 204//212
f 205//213 103//213 206//213
f 206//214 103//214 207//214
f 102//215 103//215 205//215
f 207//216 104//216 208//216
f 103//217 104//217 207//217
f 208//218 105//218 209//218
f 104//219 105//219 208//219
f 105//220 106//220 209//220
f 209//221 107//221 210//221
f 106//222 107//222 209//222
f 210//223 108//223 211//223
f 107//224 108//224 210//224
f 108//225 109//225 211//225
f 211//226 109//226 212//226
f 109//227 110//227 212//227
f 212//228 110//228 213//228
f 110//229 111//229 213//229
f 213//230 111//230 214//230
f 111//231 112//231 214//231
f 214//232 112//232 215//232
f 215//233 112//233 216//233
f 112//234 113//234 216//234
f 113//235 114//235 216//235
f 216//236 114//236 217//236
f 217//237 115//237 218//237
f 114//238 115//238 217//238
f 218//239 116//239 219//239
f 115//240 116//240 218//240
f 219//241 117//241 220//241
f 116//242 117//242 219//242
f 220//243 118//243 221//243
f 117//244 118//244 220//244
f 221//245 119//245 222//245
f 118//246 119//246 221//246
f 222//247 120//247 223//247
f 119//248 120//248 222//248
f 223//249 121//249 224//249
f 224//250 121//250 225//250
f 120//251 121//251 223//251
f 121//252 122//252 225//252
f 225//253 123//253 226//253
f 122//254 123//254 225//254
f 226//255 124//255 227//255
f 123//256 124//256 226//256
f 227//257 125//257 228//257
f 124//258 125//258 227//258
f 228//259 126//259 229//259
f 125//260 126//260 228//260
f 229//261 127//261 230//261
f 126//262 127//262 229//262
f 230//263 128//263 231//263
f 127//264 128//264 230//264
f 231//265 130//265 232//265
f 128//266 130//266 231//266
f 232//267 129//267 233//267
f 130//268 129//268 232//268
f 233//269 95//269 234//269
f 129//270 95//270 233//270
f 234//271 93//271 235//271
f 95//272 93//272 234//272
f 235//273 91//273 236//273
f 93//274 91//274 235//274
f 236//275 89//275 237//275
f 237//276 89//276 238//276
f 91//277 89//277 236//277
f 89//278 87//278 238//278
f 87//279 85//279 238//279
f 238//280 85//280 239//280
f 239//281 85//281 240//281
f 85//282 83//282 240//282
f 83//283 81//283 240//283
f 240//284 81//284 241//284
f 81//285 79//285 241//285
f 241//286 79//286 242//286
f 242//287 79//287 243//287
f 79//288 77//288 243//288
f 243//289 77//289 244//289
f 77//290 75//290 244//290
f 75//291 73//291 244//291
f 244//292 73//292 245//292
f 245//293 73//293 246//293
f 73//294 71//294 246//294
f 246//295 71//295 247//295
f 71//296 69//296 247//296
f 247//297 69//297 248//297
f 69//298 67//298 248//298
f 248//299 53//299 249//299
f 67//300 53//300 248//300
f 249//301 53//301 250//301
f 53//302 52//302 250//302
f 52//303 54//303 250//303
f 250//304 54//304 251//304
f 251//305 55//305 252//305
f 54//306 55//306 251//306
f 252//307 56//307 253//307
f 253//308 56//308 254//308
f 55//309 56//309 252//309
f 56//310 57//310 254//310
f 254//311 58//311 255//311
f 57//312 58//312 254//312
f 255//313 59//313 256//313
f 256//314 59//314 257//314
f 58//315 59//315 255//315
f 257//316 60//316 258//316
f 59//317 60//317 257//317
f 60//318 61//318 258//318
f 258//319 62//319 259//319
f 61//320 62//320 258//320
f 259//321 63//321 260//321
f 62//322 63//322 259//322
f 260//323 64//323 261//323
f 63//324 64//324 260//324
f 261//325 65//325 262//325
f 64//326 65//326 261//326
f 65//327 66//327 262//327
f 262//328 66//328 263//328
f 66//329 33//329 263//329
f 263//330 33//330 264//330
f 33//331 31//331 264//331
f 264//332 31//332 265//332
f 31//333 29//333 265//333
f 265//334 29//334 266//334
f 29//335 27//335 266//335
f 266//336 27//336 267//336
f 27//337 25//337 267//337
f 267//338 25//338 268//338
f 25//339 23//339 268//339
f 268//340 23//340 269//340
f 269//341 23//341 270//341
f 23//342 21//342 270//342
f 21//343 19//343 270//343
f 270//344 19//344 271//344
f 19//345 17//345 271//345
f 271//346 17//346 272//346
f 17//347 15//347 272//347
f 272//348 15//348 273//348
f 15//349 13//349 273//349
f 273//350 13//350 274//350
f 13//351 11//351 274//351
f 274//352 11//352 275//352
f 275//353 11//353 276//353
f 11//354 9//354 276//354
f 9//355 7//355 276//355
f 276//356 7//356 277//356
f 7//357 5//357 277//357
f 277//358 5//358 278//358
f 278//359 5//359 279//359
f 5//360 1//360 279//360
f 1//361 3//361 279//361
f 279//362 3//362 280//362
f 280//363 3//363 281//363
f 3//364 4//364 281//364
f 4//365 6//365 281//365
f 281//366 6//366 282//366
f 6//367 8//367 282//367
f 282//368 8//368 283//368
f 283//369 8//369 284//369
f 8//370 10//370 284//370
f 284//371 12//371 285//371
f 285//372 12//372 286//372
f 10//373 12//373 284//373
f 12//374 14//374 286//374
f 286//375 16//375 287//375
f 287//376 16//376 288//376
f 14//377 16//377 286//377
f 16//378 18//378 288//378
f 18//379 20//379 288//379
f 288//380 20//380 289//380
f 20//381 22//381 289//381
f 289//382 22//382 290//382
f 290//383 22//383 291//383
f 22//384 24//384 291//384
f 24//385 26//385 291//385
f 291//386 26//386 292//386
f 26//387 28//387 292//387
f 292//388 28//388 293//388
f 293//389 28//389 294//389
f 28//390 30//390 294//390
f 30//391 32//391 294//391
f 294//392 32//392 295//392
f 295//393 32//393 296//393
f 32//394 50//394 296//394
f 50//395 36//395 296//395
f 296//396 36//396 297//396
f 297//397 36//397 298//397
f 36//398 35//398 298//398
f 298//399 35//399 299//399
f 35//400 37//400 299//400
f 299//401 37//401 300//401
f 37//402 38//402 300//402
f 300//403 39//403 301//403
f 301//404 39//404 302//404
f 38//405 39//405 300//405
f 39//406 40//406 302//406
f 302//407 41//407 303//407
f 40//408 41//408 302//408
f 303//409 42//409 304//409
f 304//410 42//410 305//410
f 41//411 42//411 303//411
f 42//412 43//412 305//412
f 305//413 44//413 306//413
f 43//414 44//414 305//414
f 306//415 45//415 307//415
f 307//416 45//416 308//416
f 44//417 45//417 306//417
f 45//418 46//418 308//418
f 308//419 47//419 309//419
f 46//420 47//420 308//420
f 309//421 48//421 310//421
f 310//422 48//422 311//422
f 47//423 48//423 309//423
f 311//424 49//424 312//424
f 48//425 49//425 311//425
f 312//426 68//426 313//426
f 49//427 68//427 312//427
f 68//428 70//428 313//428
f 313//429 70//429 314//429
f 70//430 72//430 314//430
f 314//431 72//431 315//431
f 72//432 74//432 315//432
f 74//433 76//433 315//433
f 315//434 76//434 316//434
f 76//435 78//435 316//435
f 316//436 78//436 317//436
f 317//437 80//437 318//437
f 78//438 80//438 317//438
f 318//439 82//439 319//439
f 80//440 82//440 318//440
f 319//441 84//441 320//441
f 82//442 84//442 319//442
f 320//443 86//443 321//443
f 321//444 86//444 322//444
f 84//445 86//445 320//445
f 86//446 88//446 322//446
f 322//447 90//447 323//447
f 323//448 90//448 324//448
f 88//449 90//449 322//449
f 90//450 92//450 324//450
f 324//451 94//451 325//451
f 92//452 94//452 324//452
f 325//453 96//453 326//453
f 94//454 96//454 325//454
f 326//455 97//455 201//455
f 96//456 97//456 326//456
f 134//457 131//457 196//457
f 196//458 131//458 327//458
f 327//459 133//459 328//459
f 131//460 133//460 327//460
f 328//461 132//461 329//461
f 133//462 132//462 328//462
f 329//463 135//463 330//463
f 132//464 135//464 329//464
f 330//465 137//465 331//465
f 331//466 137//466 332//466
f 135//467 137//467 330//467
f 137//468 136//468 332//468
f 332//469 139//469 333//469
f 136//470 139//470 332//470
f 333//471 138//471 334//471
f 139//472 138//472 333//472
f 334//473 141//473 335//473
f 335//474 141//474 336//474
f 138//475 141//475 334//475
f 141//476 140//476 336//476
f 336//477 143//477 337//477
f 140//478 143//478 336//478
f 337//479 142//479 338//479
f 143//480 142//480 337//480
f 338//481 144//481 339//481
f 142//482 144//482 338//482
f 339//483 146//483 340//483
f 144//484 146//484 339//484
f 340//485 145//485 341//485
f 146//486 145//486 340//486
f 341//487 147//487 342//487
f 145//488 147//488 341//488
f 342//489 148//489 343//489
f 147//490 148//490 342//490
f 343//491 150//491 344//491
f 148//492 150//492 343//492
f 150//493 149//493 344//493
f 344//494 149//494 345//494
f 149//495 151//495 345//495
f 345//496 151//496 346//496
f 151//497 152//497 346//497
f 346//498 152//498 347//498
f 152//499 153//499 347//499
f 347//500 153//500 348//500
f 348//501 154//501 349//501
f 153//502 154//502 348//502
f 349//503 156//503 350//503
f 154//504 156//504 349//504
f 350//505 156//505 351//505
f 156//506 157//506 351//506
f 351//507 155//507 352//507
f 157//508 155//508 351//508
f 352//509 158//509 353//509
f 155//510 158//510 352//510
f 353//511 160//511 354//511
f 158//512 160//512 353//512
f 354//513 159//513 355//513
f 160//514 159//514 354//514
f 355//515 165//515 356//515
f 159//516 165//516 355//516
f 356//517 166//517 357//517
f 165//518 166//518 356//518
f 357//519 167//519 358//519
f 166//520 167//520 357//520
f 358//521 168//521 359//521
f 167//522 168//522 358//522
f 359//523 164//523 360//523
f 168//524 164//524 359//524
f 360//525 173//525 361//525
f 361//526 173//526 362//526
f 164//527 173//527 360//527
f 173//528 175//528 362//528
f 362//529 176//529 363//529
f 175//530 176//530 362//530
f 363//531 174//531 364//531
f 176//532 174//532 363//532
f 364//533 178//533 365//533
f 174//534 178//534 364//534
f 365//535 182//535 366//535
f 178//536 182//536 365//536
f 366//537 183//537 367//537
f 182//538 183//538 366//538
f 367//539 181//539 368//539
f 368//540 181//540 369//540
f 183//541 181//541 367//541
f 181//542 186//542 369//542
f 186//543 189//543 369//543
f 369//544 189//544 370//544
f 370//545 189//545 371//545
f 189//546 188//546 371//546
f 188//547 190//547 371//547
f 371//548 190//548 372//548
f 372//549 190//549 373//549
f 190//550 194//550 373//550
f 373//551 194//551 374//551
f 194//552 192//552 374//552
f 192//553 191//553 374//553
f 374//554 191//554 375//554
f 191//555 193//555 375//555
f 375//556 193//556 376//556
f 193//557 187//557 376//557
f 376//558 187//558 377//558
f 187//559 185//559 377//559
f 377//560 185//560 378//560
f 185//561 184//561 378//561
f 378//562 184//562 379//562
f 184//563 180//563 379//563
f 379//564 180//564 380//564
f 380//565 180//565 381//565
f 180//566 179//566 381//566
f 179//567 177//567 381//567
f 381//568 177//568 382//568
f 382//569 172//569 383//569
f 383//570 172//570 384//570
f 177//571 172//571 382//571
f 172//572 171//572 384//572
f 384//573 169//573 385//573
f 171//574 169//574 384//574
f 385//575 170//575 386//575
f 169//576 170//576 385//576
f 386//577 162//577 387//577
f 170//578 162//578 386//578
f 387//579 163//579 388//579
f 162//580 163//580 387//580
f 388//581 161//581 199//581
f 163//582 161//582 388//582
f 346//583 389//583 345//583
f 345//584 390//584 344//584
f 389//585 390//585 345//585
f 347//586 391//586 346//586
f 346//587 391//587 389//587
f 344//588 392//588 343//588
f 390//589 392//589 344//589
f 347//590 393//590 391//590
f 392//591 394//591 343//591
f 348//592 395//592 347//592
f 347//593 395//593 393//593
f 394//594 396//594 343//594
f 343//595 396//595 342//595
f 349//596 397//596 348//596
f 348//597 397//597 395//597
f 342//598 398//598 341//598
f 396//599 398//599 342//599
f 350//600 399//600 349//600
f 349//601 399//601 397//601
f 341//602 400//602 340//602
f 398//603 400//603 341//603
f 351//604 401//604 350//604
f 350//605 401//605 399//605
f 340//606 402//606 339//606
f 400//607 402//607 340//607
f 351//608 403//608 401//608
f 339//609 404//609 338//609
f 402//610 404//610 339//610
f 352//611 405//611 351//611
f 351//612 405//612 403//612
f 338//613 406//613 337//613
f 404//614 406//614 338//614
f 353//615 407//615 352//615
f 352//616 407//616 405//616
f 406//617 408//617 337//617
f 354//618 409//618 353//618
f 353//619 409//619 407//619
f 337//620 410//620 336//620
f 408//621 410//621 337//621
f 354//622 411//622 409//622
f 336//623 412//623 335//623
f 410//624 412//624 336//624
f 354//625 413//625 411//625
f 355//626 413//626 354//626
f 356//627 414//627 355//627
f 355//628 414//628 413//628
f 356//629 415//629 414//629
f 357//630 415//630 356//630
f 357//631 416//631 415//631
f 358//632 417//632 357//632
f 357//633 417//633 416//633
f 359//634 418//634 358//634
f 358//635 418//635 417//635
f 360//636 419//636 359//636
f 359//637 419//637 418//637
f 361//638 420//638 360//638
f 360//639 420//639 419//639
f 361//640 421//640 420//640
f 362//641 422//641 361//641
f 361//642 422//642 421//642
f 363//643 423//643 362//643
f 362//644 423//644 422//644
f 364//645 424//645 363//645
f 363//646 424//646 423//646
f 364//647 425//647 424//647
f 364//648 426//648 425//648
f 365//649 426//649 364//649
f 365//650 427//650 426//650
f 366//651 427//651 365//651
f 366//652 428//652 427//652
f 367//653 428//653 366//653
f 367//654 429//654 428//654
f 368//655 429//655 367//655
f 368//656 430//656 429//656
f 368//657 431//657 430//657
f 369//658 431//658 368//658
f 369//659 432//659 431//659
f 370//660 432//660 369//660
f 329//661 197//661 328//661
f 330//662 197//662 329//662
f 331//663 197//663 330//663
f 332//664 197//664 331//664
f 333//665 197//665 332//665
f 334//666 197//666 333//666
f 335//667 197//667 334//667
f 412//668 197//668 335//668
f 433//669 197//669 434//669
f 435//670 197//670 433//670
f 436//671 197//671 435//671
f 437//672 197//672 436//672
f 438//673 197//673 437//673
f 439//674 197//674 438//674
f 440//675 197//675 439//675
f 441//676 197//676 440//676
f 442//677 197//677 441//677
f 443//678 197//678 442//678
f 444//679 197//679 443//679
f 445//680 197//680 444//680
f 446//681 197//681 445//681
f 447//682 197//682 446//682
f 448//683 197//683 447//683
f 449//684 197//684 412//684
f 450//685 197//685 449//685
f 451//686 197//686 450//686
f 434//687 197//687 451//687
f 448//688 452//688 197//688
f 370//689 453//689 432//689
f 371//690 453//690 370//690
f 452//691 454//691 197//691
f 371//692 455//692 453//692
f 372//693 455//693 371//693
f 454//694 456//694 197//694
f 372//695 457//695 455//695
f 456//696 458//696 197//696
f 372//697 459//697 457//697
f 373//698 459//698 372//698
f 458//699 460//699 197//699
f 374//700 461//700 373//700
f 373//701 461//701 459//701
f 460//702 462//702 197//702
f 375//703 463//703 374//703
f 374//704 463//704 461//704
f 462//705 464//705 197//705
f 376//706 465//706 375//706
f 375//707 465//707 463//707
f 464//708 466//708 197//708
f 377//709 467//709 376//709
f 376//710 467//710 465//710
f 466//711 468//711 197//711
f 468//712 469//712 197//712
f 469//713 470//713 197//713
f 470//714 471//714 197//714
f 471//715 472//715 197//715
f 472//716 473//716 197//716
f 473//717 474//717 197//717
f 474//718 475//718 197//718
f 475//719 476//719 197//719
f 477//720 200//720 478//720
f 479//721 200//721 477//721
f 480//722 200//722 479//722
f 481//723 200//723 480//723
f 482//724 200//724 481//724
f 483//725 200//725 482//725
f 484//726 200//726 483//726
f 476//727 200//727 197//727
f 485//728 200//728 484//728
f 486//729 200//729 485//729
f 487//730 200//730 486//730
f 488//731 200//731 487//731
f 489//732 200//732 488//732
f 490//733 200//733 489//733
f 491//734 200//734 490//734
f 492//735 200//735 491//735
f 493//736 200//736 492//736
f 494//737 200//737 493//737
f 495//738 200//738 494//738
f 496//739 200//739 495//739
f 497//740 200//740 496//740
f 498//741 200//741 497//741
f 499//742 200//742 498//742
f 500//743 200//743 499//743
f 501//744 200//744 500//744
f 502//745 200//745 501//745
f 503//746 200//746 502//746
f 504//747 200//747 503//747
f 505//748 200//748 504//748
f 506//749 200//749 505//749
f 507//750 200//750 506//750
f 508//751 200//751 507//751
f 509//752 200//752 476//752
f 478//753 200//753 509//753
f 197//754 196//754 327//754
f 197//755 327//755 328//755
f 199//756 200//756 388//756
f 388//757 200//757 387//757
f 387//758 200//758 386//758
f 386//759 200//759 385//759
f 385//760 200//760 384//760
f 384//761 200//761 383//761
f 383//762 200//762 382//762
f 382//763 200//763 381//763
f 381//764 200//764 380//764
f 380//765 200//765 379//765
f 379//766 200//766 378//766
f 378//767 200//767 377//767
f 377//768 200//768 508//768
f 377//769 508//769 510//769
f 377//770 510//770 511//770
f 377//771 511//771 512//771
f 377//772 512//772 513//772
f 377//773 513//773 514//773
f 377//774 514//774 467//774
f 197//775 198//775 195//775
f 197//776 200//776 198//776
f 283//777 279//777 280//777
f 283//778 280//778 281//778
f 283//779 281//779 282//779
f 276//780 277//780 278//780
f 276//781 278//781 279//781
f 287//782 285//782 286//782
f 272//783 273//783 274//783
f 272//784 274//784 275//784
f 272//785 275//785 276//785
f 289//786 287//786 288//786
f 270//787 271//787 272//787
f 290//788 287//788 289//788
f 291//789 279//789 283//789
f 291//790 285//790 287//790
f 291//791 287//791 290//791
f 291//792 283//792 284//792
f 291//793 284//793 285//793
f 268//794 269//794 270//794
f 294//795 291//795 292//795
f 294//796 292//796 293//796
f 264//797 265//797 266//797
f 264//798 266//798 267//798
f 264//799 267//799 268//799
f 264//800 268//800 270//800
f 298//801 296//801 297//801
f 261//802 264//802 270//802
f 261//803 262//803 263//803
f 261//804 263//804 264//804
f 301//805 299//805 300//805
f 257//806 276//806 279//806
f 257//807 272//807 276//807
f 257//808 258//808 259//808
f 257//809 259//809 260//809
f 257//810 260//810 261//810
f 257//811 270//811 272//811
f 257//812 261//812 270//812
f 303//813 301//813 302//813
f 303//814 296//814 298//814
f 303//815 299//815 301//815
f 303//816 295//816 296//816
f 303//817 298//817 299//817
f 305//818 303//818 304//818
f 254//819 255//819 256//819
f 307//820 305//820 306//820
f 252//821 257//821 279//821
f 252//822 254//822 256//822
f 252//823 253//823 254//823
f 252//824 256//824 257//824
f 252//825 279//825 291//825
f 252//826 291//826 294//826
f 252//827 294//827 295//827
f 308//828 303//828 305//828
f 308//829 305//829 307//829
f 250//830 251//830 252//830
f 310//831 308//831 309//831
f 311//832 303//832 308//832
f 311//833 308//833 310//833
f 248//834 249//834 250//834
f 246//835 247//835 248//835
f 245//836 250//836 252//836
f 245//837 248//837 250//837
f 245//838 246//838 248//838
f 242//839 243//839 244//839
f 242//840 244//840 245//840
f 318//841 315//841 316//841
f 318//842 316//842 317//842
f 241//843 242//843 245//843
f 319//844 314//844 315//844
f 319//845 315//845 318//845
f 240//846 252//846 295//846
f 240//847 295//847 303//847
f 240//848 303//848 311//848
f 240//849 245//849 252//849
f 240//850 241//850 245//850
f 239//851 311//851 312//851
f 239//852 312//852 313//852
f 239//853 313//853 314//853
f 239//854 240//854 311//854
f 321//855 319//855 320//855
f 321//856 314//856 319//856
f 238//857 239//857 314//857
f 322//858 314//858 321//858
f 323//859 314//859 322//859
f 324//860 314//860 323//860
f 325//861 314//861 324//861
f 234//862 235//862 236//862
f 233//863 234//863 236//863
f 233//864 236//864 237//864
f 233//865 237//865 238//865
f 203//866 201//866 202//866
f 203//867 326//867 201//867
f 230//868 231//868 232//868
f 230//869 232//869 233//869
f 204//870 326//870 203//870
f 204//871 325//871 326//871
f 228//872 229//872 230//872
f 207//873 204//873 205//873
f 207//874 205//874 206//874
f 207//875 325//875 204//875
f 226//876 227//876 228//876
f 208//877 314//877 325//877
f 208//878 325//878 207//878
f 225//879 230//879 233//879
f 225//880 228//880 230//880
f 225//881 226//881 228//881
f 224//882 225//882 233//882
f 223//883 224//883 233//883
f 211//884 209//884 210//884
f 212//885 208//885 209//885
f 212//886 314//886 208//886
f 212//887 209//887 211//887
f 220//888 221//888 222//888
f 220//889 222//889 223//889
f 218//890 219//890 220//890
f 218//891 220//891 223//891
f 216//892 214//892 215//892
f 217//893 212//893 213//893
f 217//894 213//894 214//894
f 217//895 233//895 238//895
f 217//896 223//896 233//896
f 217//897 314//897 212//897
f 217//898 218//898 223//898
f 217//899 214//899 216//899
f 217//900 238//900 314//900
f 515//901 516//901 434//901
f 434//902 516//902 433//902
f 433//903 517//903 435//903
f 516//904 517//904 433//904
f 435//905 518//905 436//905
f 517//906 518//906 435//906
f 436//907 519//907 437//907
f 518//908 519//908 436//908
f 437//909 520//909 438//909
f 438//910 520//910 439//910
f 519//911 520//911 437//911
f 520//912 521//912 439//912
f 439//913 522//913 440//913
f 521//914 522//914 439//914
f 440//915 523//915 441//915
f 522//916 523//916 440//916
f 441//917 524//917 442//917
f 442//918 524//918 443//918
f 523//919 524//919 441//919
f 524//920 525//920 443//920
f 525//921 526//921 443//921
f 443//922 526//922 444//922
f 526//923 527//923 444//923
f 444//924 527//924 445//924
f 527//925 528//925 445//925
f 445//926 528//926 446//926
f 528//927 529//927 446//927
f 446//928 529//928 447//928
f 447//929 530//929 448//929
f 529//930 530//930 447//930
f 448//931 531//931 452//931
f 530//932 531//932 448//932
f 452//933 532//933 454//933
f 531//934 532//934 452//934
f 454//935 533//935 456//935
f 532//936 533//936 454//936
f 456//937 534//937 458//937
f 533//938 534//938 456//938
f 458//939 535//939 460//939
f 534//940 535//940 458//940
f 460//941 536//941 462//941
f 535//942 536//942 460//942
f 462//943 537//943 464//943
f 536//944 537//944 462//944
f 464//945 538//945 466//945
f 537//946 538//946 464//946
f 466//947 539//947 468//947
f 468//948 539//948 469//948
f 538//949 539//949 466//949
f 539//950 540//950 469//950
f 469//951 541//951 470//951
f 540//952 541//952 469//952
f 470//953 542//953 471//953
f 541//954 542//954 470//954
f 471//955 543//955 472//955
f 542//956 543//956 471//956
f 472//957 544//957 473//957
f 543//958 544//958 472//958
f 473//959 545//959 474//959
f 544//960 545//960 473//960
f 474//961 546//961 475//961
f 545//962 546//962 474//962
f 475//963 547//963 476//963
f 546//964 547//964 475//964
f 476//965 548//965 509//965
f 547//966 548//966 476//966
f 509//967 549//967 478//967
f 548//968 549//968 509//968
f 478//969 550//969 477//969
f 477//970 550//970 479//970
f 549//971 550//971 478//971
f 550//972 551//972 479//972
f 551//973 552//973 479//973
f 479//974 552//974 480//974
f 552//975 553//975 480//975
f 480//976 553//976 481//976
f 553//977 554//977 481//977
f 481//978 554//978 482//978
f 554//979 555//979 482//979
f 482//980 555//980 483//980
f 555//981 556//981 483//981
f 483//982 556//982 484//982
f 556//983 557//983 484//983
f 484//984 557//984 485//984
f 485//985 557//985 486//985
f 557//986 558//986 486//986
f 558//987 559//987 486//987
f 486//988 559//988 487//988
f 487//989 559//989 488//989
f 559//990 560//990 488//990
f 560//991 561//991 488//991
f 488//992 561//992 489//992
f 489//993 561//993 490//993
f 561//994 562//994 490//994
f 490//995 562//995 491//995
f 562//996 563//996 491//996
f 491//997 564//997 492//997
f 563//998 564//998 491//998
f 492//999 565//999 493//999
f 564//1000 565//1000 492//1000
f 493//1001 566//1001 494//1001
f 565//1002 566//1002 493//1002
f 494//1003 567//1003 495//1003
f 566//1004 567//1004 494//1004
f 495//1005 568//1005 496//1005
f 567//1006 568//1006 495//1006
f 496//1007 569//1007 497//1007
f 497//1008 569//1008 498//1008
f 568//1009 569//1009 496//1009
f 569//1010 570//1010 498//1010
f 498//1011 571//1011 499//1011
f 570//1012 571//1012 498//1012
f 499//1013 572//1013 500//1013
f 500//1014 572//1014 501//1014
f 571//1015 572//1015 499//1015
f 572//1016 573//1016 501//1016
f 501//1017 574//1017 502//1017
f 573//1018 574//1018 501//1018
f 502//1019 575//1019 503//1019
f 574//1020 575//1020 502//1020
f 503//1021 576//1021 504//1021
f 575//1022 576//1022 503//1022
f 576//1023 577//1023 504//1023
f 504//1024 577//1024 505//1024
f 577//1025 578//1025 505//1025
f 505//1026 578//1026 506//1026
f 578//1027 579//1027 506//1027
f 506//1028 579//1028 507//1028
f 579//1029 580//1029 507//1029
f 507//1030 580//1030 508//1030
f 508//1031 580//1031 510//1031
f 580//1032 581//1032 510//1032
f 581//1033 582//1033 510//1033
f 510//1034 582//1034 511//1034
f 582//1035 583//1035 511//1035
f 511//1036 583//1036 512//1036
f 512//1037 583//1037 513//1037
f 583//1038 584//1038 513//1038
f 584//1039 585//1039 513//1039
f 513//1040 585//1040 514//1040
f 585//1041 586//1041 514//1041
f 514//1042 586//1042 467//1042
f 467//1043 586//1043 465//1043
f 586//1044 587//1044 465//1044
f 465//1045 587//1045 463//1045
f 587//1046 588//1046 463//1046
f 463//1047 588//1047 461//1047
f 588//1048 589//1048 461//1048
f 589//1049 590//1049 461//1049
f 461//1050 590//1050 459//1050
f 590//1051 591//1051 459//1051
f 459//1052 591//1052 457//1052
f 591//1053 592//1053 457//1053
f 457//1054 592//1054 455//1054
f 592//1055 593//1055 455//1055
f 455//1056 593//1056 453//1056
f 593//1057 594//1057 453//1057
f 453//1058 594//1058 432//1058
f 594//1059 595//1059 432//1059
f 432//1060 595//1060 431//1060
f 595//1061 596//1061 431//1061
f 431//1062 596//1062 430//1062
f 596//1063 597//1063 430//1063
f 430//1064 597//1064 429//1064
f 429//1065 598//1065 428//1065
f 597//1066 598//1066 429//1066
f 428//1067 598//1067 427//1067
f 598//1068 599//1068 427//1068
f 427//1069 600//1069 426//1069
f 426//1070 600//1070 425//1070
f 599//1071 600//1071 427//1071
f 600//1072 601//1072 425//1072
f 425//1073 602//1073 424//1073
f 424//1074 602//1074 423//1074
f 601//1075 602//1075 425//1075
f 602//1076 603//1076 423//1076
f 603//1077 604//1077 423//1077
f 423//1078 604//1078 422//1078
f 604//1079 605//1079 422//1079
f 422//1080 605//1080 421//1080
f 421//1081 605//1081 420//1081
f 605//1082 606//1082 420//1082
f 606//1083 607//1083 420//1083
f 420//1084 607//1084 419//1084
f 419//1085 607//1085 418//1085
f 607//1086 608//1086 418//1086
f 608//1087 609//1087 418//1087
f 418//1088 609//1088 417//1088
f 609//1089 610//1089 417//1089
f 417//1090 610//1090 416//1090
f 610//1091 611//1091 416//1091
f 416//1092 611//1092 415//1092
f 415//1093 611//1093 414//1093
f 611//1094 612//1094 414//1094
f 414//1095 612//1095 413//1095
f 612//1096 613//1096 413//1096
f 413//1097 613//1097 411//1097
f 411//1098 614//1098 409//1098
f 613//1099 614//1099 411//1099
f 614//1100 615//1100 409//1100
f 409//1101 616//1101 407//1101
f 407//1102 616//1102 405//1102
f 615//1103 616//1103 409//1103
f 616//1104 617//1104 405//1104
f 405//1105 618//1105 403//1105
f 403//1106 618//1106 401//1106
f 617//1107 618//1107 405//1107
f 618//1108 619//1108 401//1108
f 401//1109 620//1109 399//1109
f 619//1110 620//1110 401//1110
f 399//1111 621//1111 397//1111
f 620//1112 621//1112 399//1112
f 397//1113 622//1113 395//1113
f 395//1114 622//1114 393//1114
f 621//1115 622//1115 397//1115
f 622//1116 623//1116 393//1116
f 393//1117 624//1117 391//1117
f 623//1118 624//1118 393//1118
f 391//1119 625//1119 389//1119
f 389//1120 625//1120 390//1120
f 624//1121 625//1121 391//1121
f 625//1122 626//1122 390//1122
f 626//1123 627//1123 390//1123
f 390//1124 627//1124 392//1124
f 392//1125 627//1125 394//1125
f 627//1126 628//1126 394//1126
f 628//1127 629//1127 394//1127
f 394//1128 629//1128 396//1128
f 396//1129 629//1129 398//1129
f 629//1130 630//1130 398//1130
f 630//1131 631//1131 398//1131
f 398//1132 631//1132 400//1132
f 400//1133 631//1133 402//1133
f 631//1134 632//1134 402//1134
f 402//1135 633//1135 404//1135
f 632//1136 633//1136 402//1136
f 404//1137 634//1137 406//1137
f 633//1138 634//1138 404//1138
f 406//1139 635//1139 408//1139
f 634//1140 635//1140 406//1140
f 408//1141 636//1141 410//1141
f 410//1142 636//1142 412//1142
f 635//1143 636//1143 408//1143
f 636//1144 637//1144 412//1144
f 412//1145 638//1145 449//1145
f 637//1146 638//1146 412//1146
f 449//1147 639//1147 450//1147
f 638//1148 639//1148 449//1148
f 450//1149 640//1149 451//1149
f 639//1150 640//1150 450//1150
f 451//1151 515//1151 434//1151
f 640//1152 515//1152 451//1152
f 625//1153 627//1153 626//1153
f 627//1154 629//1154 628//1154
f 622//1155 621//1155 623//1155
f 623//1156 621//1156 624//1156
f 625//1157 630//1157 627//1157
f 627//1158 630//1158 629//1158
f 624//1159 631//1159 625//1159
f 625//1160 631//1160 630//1160
f 620//1161 619//1161 621//1161
f 618//1162 617//1162 619//1162
f 619//1163 617//1163 621//1163
f 632//1164 634//1164 633//1164
f 632//1165 635//1165 634//1165
f 615//1166 614//1166 616//1166
f 616//1167 614//1167 617//1167
f 635//1168 637//1168 636//1168
f 637//1169 639//1169 638//1169
f 614//1170 611//1170 617//1170
f 612//1171 611//1171 613//1171
f 613//1172 611//1172 614//1172
f 609//1173 608//1173 610//1173
f 515//1174 517//1174 516//1174
f 639//1175 517//1175 640//1175
f 640//1176 517//1176 515//1176
f 635//1177 517//1177 637//1177
f 637//1178 517//1178 639//1178
f 608//1179 607//1179 610//1179
f 607//1180 606//1180 610//1180
f 610//1181 606//1181 611//1181
f 517//1182 519//1182 518//1182
f 517//1183 520//1183 519//1183
f 517//1184 521//1184 520//1184
f 604//1185 603//1185 605//1185
f 605//1186 603//1186 606//1186
f 517//1187 522//1187 521//1187
f 517//1188 523//1188 522//1188
f 631//1189 523//1189 632//1189
f 632//1190 523//1190 635//1190
f 635//1191 523//1191 517//1191
f 602//1192 601//1192 603//1192
f 524//1193 526//1193 525//1193
f 599//1194 598//1194 600//1194
f 600//1195 598//1195 601//1195
f 601//1196 596//1196 603//1196
f 598//1197 596//1197 601//1197
f 597//1198 596//1198 598//1198
f 631//1199 530//1199 523//1199
f 523//1200 530//1200 524//1200
f 526//1201 530//1201 527//1201
f 527//1202 530//1202 528//1202
f 528//1203 530//1203 529//1203
f 524//1204 530//1204 526//1204
f 621//1205 530//1205 624//1205
f 624//1206 530//1206 631//1206
f 594//1207 593//1207 595//1207
f 593//1208 592//1208 595//1208
f 595//1209 592//1209 596//1209
f 531//1210 533//1210 532//1210
f 591//1211 590//1211 592//1211
f 533//1212 535//1212 534//1212
f 531//1213 535//1213 533//1213
f 530//1214 536//1214 531//1214
f 531//1215 536//1215 535//1215
f 621//1216 537//1216 530//1216
f 530//1217 537//1217 536//1217
f 587//1218 586//1218 588//1218
f 588//1219 586//1219 589//1219
f 590//1220 585//1220 592//1220
f 589//1221 585//1221 590//1221
f 586//1222 585//1222 589//1222
f 537//1223 540//1223 538//1223
f 538//1224 540//1224 539//1224
f 621//1225 540//1225 537//1225
f 617//1226 540//1226 621//1226
f 585//1227 584//1227 592//1227
f 540//1228 542//1228 541//1228
f 582//1229 581//1229 583//1229
f 583//1230 581//1230 584//1230
f 542//1231 544//1231 543//1231
f 540//1232 544//1232 542//1232
f 540//1233 546//1233 544//1233
f 544//1234 546//1234 545//1234
f 617//1235 546//1235 540//1235
f 579//1236 578//1236 580//1236
f 580//1237 578//1237 581//1237
f 617//1238 547//1238 546//1238
f 603//1239 547//1239 606//1239
f 606//1240 547//1240 611//1240
f 611//1241 547//1241 617//1241
f 575//1242 574//1242 576//1242
f 576//1243 574//1243 577//1243
f 577//1244 574//1244 578//1244
f 547//1245 551//1245 548//1245
f 548//1246 551//1246 549//1246
f 549//1247 551//1247 550//1247
f 547//1248 552//1248 551//1248
f 574//1249 572//1249 578//1249
f 573//1250 572//1250 574//1250
f 578//1251 572//1251 581//1251
f 547//1252 553//1252 552//1252
f 553//1253 555//1253 554//1253
f 570//1254 569//1254 571//1254
f 553//1255 556//1255 555//1255
f 569//1256 568//1256 571//1256
f 553//1257 557//1257 556//1257
f 581//1258 567//1258 584//1258
f 572//1259 567//1259 581//1259
f 568//1260 567//1260 571//1260
f 571//1261 567//1261 572//1261
f 592//1262 567//1262 596//1262
f 584//1263 567//1263 592//1263
f 557//1264 559//1264 558//1264
f 553//1265 559//1265 557//1265
f 566//1266 565//1266 567//1266
f 553//1267 560//1267 559//1267
f 564//1268 563//1268 565//1268
f 603//1269 562//1269 547//1269
f 596//1270 562//1270 603//1270
f 560//1271 562//1271 561//1271
f 567//1272 562//1272 596//1272
f 563//1273 562//1273 565//1273
f 553//1274 562//1274 560//1274
f 565//1275 562//1275 567//1275
f 547//1276 562//1276 553//1276
