# Created by FreeCAD <https://www.freecad.org>
v -12.715714 -190.000000 112.684265
v -5.513607 -182.401291 112.693184
v -5.252494 -182.669006 112.693504
v -4.978362 -182.923355 112.693848
v -5.761050 -182.120911 112.692879
v -4.691892 -183.163742 112.694199
v -5.994210 -181.828537 112.692589
v -4.393796 -183.389542 112.694565
v -6.212507 -181.524902 112.692314
v -4.084816 -183.600189 112.694954
v -6.415398 -181.210770 112.692062
v -3.765719 -183.795197 112.695343
v -6.602378 -180.886902 112.691833
v -3.437299 -183.974045 112.695755
v -6.772982 -180.554123 112.691620
v -3.100373 -184.136292 112.696167
v -6.926787 -180.213257 112.691429
v -2.755778 -184.281555 112.696594
v -7.063410 -179.865158 112.691261
v -2.404370 -184.409454 112.697029
v -7.182511 -179.510666 112.691116
v -2.047024 -184.519684 112.697472
v -7.283795 -179.150681 112.690994
v -1.684628 -184.611954 112.697922
v -7.367008 -178.786102 112.690887
v -1.318083 -184.686066 112.698372
v -7.431946 -178.417816 112.690811
v -0.948299 -184.741791 112.698830
v -7.478446 -178.046753 112.690750
v -0.576197 -184.779022 112.699295
v -7.506391 -177.673843 112.690712
v -0.202702 -184.797668 112.699753
v -7.515714 -177.300003 112.690704
v 0.916855 -184.741791 112.701141
v 12.684266 -190.000000 112.715706
v 0.544753 -184.779022 112.700684
v 1.286638 -184.686066 112.701599
v 1.653184 -184.611954 112.702049
v 2.015580 -184.519684 112.702499
v 2.372926 -184.409454 112.702942
v 2.724334 -184.281555 112.703377
v 3.068929 -184.136292 112.703804
v 3.405855 -183.974045 112.704224
v 3.734275 -183.795197 112.704628
v 4.053372 -183.600189 112.705025
v 4.362352 -183.389542 112.705406
v 4.660449 -183.163742 112.705772
v 4.946918 -182.923355 112.706131
v 5.221051 -182.669006 112.706467
v 0.171258 -184.797668 112.700218
v -5.761047 -172.479095 112.692879
v -12.715706 -164.600006 112.684265
v -5.513603 -172.198700 112.693184
v -5.994208 -172.771469 112.692589
v -6.212505 -173.075104 112.692314
v -6.415396 -173.389236 112.692062
v -6.602376 -173.713089 112.691833
v -6.772980 -174.045868 112.691620
v -6.926785 -174.386734 112.691429
v -7.063408 -174.734848 112.691261
v -7.182510 -175.089340 112.691116
v -7.283793 -175.449326 112.690994
v -7.367007 -175.813904 112.690887
v -7.431945 -176.182190 112.690811
v -7.478445 -176.553238 112.690750
v -7.506391 -176.926163 112.690712
v -5.252491 -171.931000 112.693504
v 5.482163 -182.401291 112.706795
v -4.978358 -171.676636 112.693848
v 5.729608 -182.120911 112.707100
v -4.691888 -171.436264 112.694199
v 5.962768 -181.828537 112.707390
v -4.393792 -171.210464 112.694565
v 6.181065 -181.524902 112.707657
v -4.084812 -170.999802 112.694954
v 6.383955 -181.210770 112.707909
v -3.765715 -170.804810 112.695343
v 6.570936 -180.886902 112.708138
v -3.437295 -170.625961 112.695755
v 6.741540 -180.554123 112.708351
v -3.100369 -170.463699 112.696167
v 6.895346 -180.213257 112.708542
v -2.755774 -170.318451 112.696594
v 7.031969 -179.865158 112.708710
v -2.404366 -170.190552 112.697029
v 7.151070 -179.510666 112.708855
v -2.047020 -170.080322 112.697472
v 7.252354 -179.150681 112.708984
v -1.684624 -169.988037 112.697922
v 7.335567 -178.786102 112.709084
v -1.318078 -169.913940 112.698372
v 7.400505 -178.417816 112.709167
v -0.948295 -169.858200 112.698830
v 7.447005 -178.046753 112.709221
v -0.576193 -169.820969 112.699295
v 7.474951 -177.673843 112.709259
v 7.484274 -177.300003 112.709274
v 7.474951 -176.926163 112.709259
v 12.684274 -164.600006 112.715706
v 7.447005 -176.553238 112.709221
v 7.400506 -176.182190 112.709167
v 7.335568 -175.813904 112.709084
v 7.252355 -175.449326 112.708984
v 7.151072 -175.089340 112.708855
v 7.031970 -174.734848 112.708710
v 6.895347 -174.386734 112.708542
v 6.741542 -174.045868 112.708351
v 6.570938 -173.713089 112.708138
v 6.383958 -173.389236 112.707909
v 6.181067 -173.075104 112.707657
v 5.962770 -172.771469 112.707390
v 5.729610 -172.479095 112.707100
v 5.482166 -172.198700 112.706795
v 5.221054 -171.931000 112.706467
v 4.946921 -171.676636 112.706131
v 4.660452 -171.436264 112.705772
v 4.362356 -171.210464 112.705406
v 4.053376 -170.999802 112.705025
v 3.734279 -170.804810 112.704628
v 3.405859 -170.625961 112.704224
v 3.068933 -170.463699 112.703804
v 2.724338 -170.318451 112.703377
v 2.372930 -170.190552 112.702942
v 2.015584 -170.080322 112.702499
v 1.653188 -169.988037 112.702049
v 1.286643 -169.913940 112.701599
v 0.916859 -169.858200 112.701141
v 0.544757 -169.820969 112.700684
v -0.202698 -169.802338 112.699753
v 0.171262 -169.802338 112.700218
v -12.730782 -164.600006 175.848816
v -12.792326 -164.600006 174.584229
v -12.777323 -164.600006 175.217285
v -12.403487 -164.600006 177.718536
v -12.652821 -164.600006 176.477234
v -12.543632 -164.600006 177.100983
v -12.232735 -164.600006 178.328308
v -12.031799 -164.600006 178.928818
v -11.541452 -164.600006 180.096100
v -11.801181 -164.600006 179.518585
v -9.412780 -164.600006 183.226608
v -10.594416 -164.600006 181.741119
v -10.225403 -164.600006 182.255722
v -9.831198 -164.600006 182.751297
v -8.971189 -164.600006 183.680466
v -10.937319 -164.600006 181.208755
v -8.022941 -164.600006 184.519394
v -11.253259 -164.600006 180.659958
v -8.507525 -164.600006 184.111755
v -6.455945 -164.600006 185.590607
v -7.518639 -164.600006 184.902359
v -6.995873 -164.600006 185.259735
v -5.330007 -164.600006 186.169586
v -5.900195 -164.600006 185.894135
v -4.746797 -164.600006 186.416290
v -4.152014 -164.600006 186.633606
v -3.547139 -164.600006 186.821014
v -2.933676 -164.600006 186.978012
v -1.687098 -164.600006 187.199417
v -2.313147 -164.600006 187.104263
v 12.607655 -164.600006 174.615662
v 0.841060 -164.600006 187.265610
v -1.057083 -164.600006 187.263260
v -0.424670 -164.600006 187.295593
v 0.208569 -164.600006 187.296371
v 12.463463 -164.600006 176.508331
v 12.542980 -164.600006 175.880096
v 12.591084 -164.600006 175.248688
v 12.352731 -164.600006 177.131805
v 3.332203 -164.600006 186.829529
v 1.471230 -164.600006 187.203323
v 2.097513 -164.600006 187.109726
v 2.718352 -164.600006 186.985016
v 11.604298 -164.600006 179.547546
v 11.836375 -164.600006 178.958359
v 12.038796 -164.600006 178.358353
v 12.211058 -164.600006 177.748993
v 5.116678 -164.600006 186.182510
v 3.937540 -164.600006 186.643616
v 4.532858 -164.600006 186.427780
v 5.687546 -164.600006 185.908478
v 11.053552 -164.600006 180.687576
v 11.343140 -164.600006 180.124420
v 10.736253 -164.600006 181.235580
v 6.784791 -164.600006 185.276794
v 6.244045 -164.600006 185.606323
v 10.392034 -164.600006 181.767090
v 7.308440 -164.600006 184.920715
v 10.021748 -164.600006 182.280777
v 7.813688 -164.600006 184.539001
v 8.299281 -164.600006 184.132553
v 9.206724 -164.600006 183.249649
v 9.626317 -164.600006 182.775375
v 8.764011 -164.600006 183.702423
v -12.792330 -177.300003 174.584229
v -12.855213 -190.000000 225.384171
v -12.855209 -177.300003 225.384171
v 12.544766 -190.000000 225.415619
v 12.607651 -177.300003 174.615662
v 12.544770 -177.300003 225.415619
v 7.452834 -177.300003 138.109253
v 7.443511 -176.926163 138.109253
v 7.415565 -176.553238 138.109207
v 7.369066 -176.182190 138.109161
v 7.304128 -175.813904 138.109070
v 7.220915 -175.449326 138.108978
v 7.119631 -175.089340 138.108841
v 7.000530 -174.734848 138.108704
v 6.863907 -174.386734 138.108536
v 6.710102 -174.045868 138.108337
v 6.539498 -173.713089 138.108124
v 6.352518 -173.389236 138.107895
v 6.149627 -173.075104 138.107651
v 5.931330 -172.771469 138.107376
v 5.698170 -172.479095 138.107086
v 5.450727 -172.198700 138.106781
v 5.189614 -171.931000 138.106461
v 4.915482 -171.676636 138.106125
v 4.629012 -171.436264 138.105759
v 4.330916 -171.210464 138.105392
v 4.021936 -170.999802 138.105011
v 3.702839 -170.804810 138.104614
v 3.374419 -170.625961 138.104218
v 3.037493 -170.463699 138.103790
v 2.692898 -170.318451 138.103363
v 2.341490 -170.190552 138.102936
v 1.984144 -170.080322 138.102493
v 1.621748 -169.988037 138.102036
v 1.255203 -169.913940 138.101593
v 0.885419 -169.858200 138.101135
v 0.513317 -169.820969 138.100677
v 0.139822 -169.802338 138.100204
v -0.234138 -169.802338 138.099747
v -0.607633 -169.820969 138.099289
v -0.979735 -169.858200 138.098816
v -1.349518 -169.913940 138.098358
v -1.716064 -169.988037 138.097916
v -2.078460 -170.080322 138.097458
v -2.435806 -170.190552 138.097015
v -2.787214 -170.318451 138.096588
v -3.131809 -170.463699 138.096161
v -3.468735 -170.625961 138.095749
v -3.797155 -170.804810 138.095337
v -4.116252 -170.999802 138.094940
v -4.425232 -171.210464 138.094559
v -4.723329 -171.436264 138.094193
v -5.009798 -171.676636 138.093842
v -5.283931 -171.931000 138.093491
v -5.545043 -172.198700 138.093170
v -5.792487 -172.479095 138.092865
v -6.025648 -172.771469 138.092575
v -6.243945 -173.075104 138.092300
v -6.446836 -173.389236 138.092056
v -6.633816 -173.713089 138.091827
v -6.804420 -174.045868 138.091614
v -6.958226 -174.386734 138.091415
v -7.094849 -174.734848 138.091248
v -7.213950 -175.089340 138.091110
v -7.315234 -175.449326 138.090973
v -7.398448 -175.813904 138.090881
v -7.463385 -176.182190 138.090790
v -7.509885 -176.553238 138.090744
v -7.537831 -176.926163 138.090698
v -7.547154 -177.300003 138.090698
v -7.537831 -177.673843 138.090698
v -7.509885 -178.046753 138.090744
v -7.463386 -178.417816 138.090790
v -7.398448 -178.786102 138.090881
v -7.315235 -179.150681 138.090973
v -7.213952 -179.510666 138.091110
v -7.094850 -179.865158 138.091248
v -6.958227 -180.213257 138.091415
v -6.804422 -180.554123 138.091614
v -6.633818 -180.886902 138.091827
v -6.446838 -181.210770 138.092056
v -6.243947 -181.524902 138.092300
v -6.025651 -181.828537 138.092575
v -5.792490 -182.120911 138.092865
v -5.545046 -182.401291 138.093170
v -5.283934 -182.669006 138.093491
v -5.009801 -182.923355 138.093842
v -4.723332 -183.163742 138.094193
v -4.425236 -183.389542 138.094559
v -4.116256 -183.600189 138.094940
v -3.797159 -183.795197 138.095337
v -3.468739 -183.974045 138.095749
v -3.131813 -184.136292 138.096161
v -2.787218 -184.281555 138.096588
v -2.435810 -184.409454 138.097015
v -2.078464 -184.519684 138.097458
v -1.716068 -184.611954 138.097916
v -1.349523 -184.686066 138.098358
v -0.979739 -184.741791 138.098816
v -0.607637 -184.779022 138.099289
v -0.234142 -184.797668 138.099747
v 0.139818 -184.797668 138.100204
v 0.513313 -184.779022 138.100677
v 0.885415 -184.741791 138.101135
v 1.255198 -184.686066 138.101593
v 1.621744 -184.611954 138.102036
v 1.984140 -184.519684 138.102493
v 2.341486 -184.409454 138.102936
v 2.692894 -184.281555 138.103363
v 3.037489 -184.136292 138.103790
v 3.374415 -183.974045 138.104218
v 3.702835 -183.795197 138.104614
v 4.021932 -183.600189 138.105011
v 4.330913 -183.389542 138.105392
v 4.629008 -183.163742 138.105759
v 4.915478 -182.923355 138.106125
v 5.189611 -182.669006 138.106461
v 5.450723 -182.401291 138.106781
v 5.698167 -182.120911 138.107086
v 5.931328 -181.828537 138.107376
v 6.149625 -181.524902 138.107651
v 6.352516 -181.210770 138.107895
v 6.539496 -180.886902 138.108124
v 6.710100 -180.554123 138.108337
v 6.863905 -180.213257 138.108536
v 7.000528 -179.865158 138.108704
v 7.119630 -179.510666 138.108841
v 7.220913 -179.150681 138.108978
v 7.304128 -178.786102 138.109070
v 7.369065 -178.417816 138.109161
v 7.415565 -178.046753 138.109207
v 7.443511 -177.673843 138.109253
v -12.777326 -177.300003 175.217285
v -12.730785 -177.300003 175.848816
v -12.652824 -177.300003 176.477234
v -12.543635 -177.300003 177.100983
v -12.403491 -177.300003 177.718536
v -12.232738 -177.300003 178.328308
v -12.031803 -177.300003 178.928818
v -11.801185 -177.300003 179.518585
v -11.541456 -177.300003 180.096100
v -11.253263 -177.300003 180.659958
v -10.937322 -177.300003 181.208755
v -10.594419 -177.300003 181.741119
v -10.225407 -177.300003 182.255722
v -9.831202 -177.300003 182.751297
v -9.412784 -177.300003 183.226608
v -8.971193 -177.300003 183.680466
v -8.507529 -177.300003 184.111755
v -8.022944 -177.300003 184.519394
v -7.518642 -177.300003 184.902359
v -6.995877 -177.300003 185.259735
v -6.455948 -177.300003 185.590607
v -5.900199 -177.300003 185.894135
v -5.330010 -177.300003 186.169586
v -4.746800 -177.300003 186.416290
v -4.152018 -177.300003 186.633606
v -3.547143 -177.300003 186.821014
v -2.933679 -177.300003 186.978012
v -2.313151 -177.300003 187.104263
v -1.687101 -177.300003 187.199417
v -1.057087 -177.300003 187.263260
v -0.424674 -177.300003 187.295593
v 0.208565 -177.300003 187.296371
v 0.841056 -177.300003 187.265610
v 1.471226 -177.300003 187.203323
v 2.097509 -177.300003 187.109726
v 2.718349 -177.300003 186.985016
v 3.332199 -177.300003 186.829529
v 3.937536 -177.300003 186.643616
v 4.532855 -177.300003 186.427780
v 5.116674 -177.300003 186.182510
v 5.687542 -177.300003 185.908478
v 6.244041 -177.300003 185.606323
v 6.784788 -177.300003 185.276794
v 7.308436 -177.300003 184.920715
v 7.813684 -177.300003 184.539001
v 8.299277 -177.300003 184.132553
v 8.764008 -177.300003 183.702423
v 9.206720 -177.300003 183.249649
v 9.626313 -177.300003 182.775375
v 10.021744 -177.300003 182.280777
v 10.392030 -177.300003 181.767090
v 10.736249 -177.300003 181.235580
v 11.053548 -177.300003 180.687576
v 11.343136 -177.300003 180.124420
v 11.604294 -177.300003 179.547546
v 11.836371 -177.300003 178.958359
v 12.038793 -177.300003 178.358353
v 12.211054 -177.300003 177.748993
v 12.352727 -177.300003 177.131805
v 12.463459 -177.300003 176.508331
v 12.542976 -177.300003 175.880096
v 12.591080 -177.300003 175.248688
v -5.369626 -177.300003 207.324432
v -5.631070 -177.300003 207.591827
v -5.095179 -177.300003 207.070419
v -5.878861 -177.300003 207.871902
v -4.808412 -177.300003 206.830383
v -6.112383 -177.300003 208.163986
v -4.510036 -177.300003 206.604950
v -6.331056 -177.300003 208.467346
v -4.200795 -177.300003 206.394699
v -6.534336 -177.300003 208.781219
v -3.881457 -177.300003 206.200073
v -6.721716 -177.300003 209.104858
v -3.552816 -177.300003 206.021637
v -6.892733 -177.300003 209.437424
v -3.215689 -177.300003 205.859802
v -7.046960 -177.300003 209.778107
v -2.870913 -177.300003 205.714966
v -7.184014 -177.300003 210.126038
v -2.519348 -177.300003 205.587509
v -7.303554 -177.300003 210.480377
v -2.161865 -177.300003 205.477722
v -7.405283 -177.300003 210.840240
v -1.799355 -177.300003 205.385895
v -7.488948 -177.300003 211.204712
v -1.432717 -177.300003 205.312241
v -1.062865 -177.300003 205.256973
v -0.690717 -177.300003 205.220200
v -0.317199 -177.300003 205.202026
v 0.056761 -177.300003 205.202484
v 0.430233 -177.300003 205.221588
v 0.802289 -177.300003 205.259277
v 1.172003 -177.300003 205.315460
v 1.538457 -177.300003 205.390030
v 1.900739 -177.300003 205.482742
v 2.257949 -177.300003 205.593414
v 2.609198 -177.300003 205.721756
v 2.953614 -177.300003 205.867447
v 3.290339 -177.300003 206.030106
v 3.618537 -177.300003 206.209366
v 3.937393 -177.300003 206.404770
v 4.246112 -177.300003 206.615799
v 4.543929 -177.300003 206.841965
v 4.830101 -177.300003 207.082703
v 5.103919 -177.300003 207.337387
v -7.630633 -177.300003 213.064484
v -7.639494 -177.300003 212.690628
v -7.603149 -177.300003 213.437439
v -7.557108 -177.300003 213.808548
v -7.492627 -177.300003 214.176910
v -7.409864 -177.300003 214.541595
v -7.309027 -177.300003 214.901703
v -7.190364 -177.300003 215.256348
v -7.054172 -177.300003 215.604630
v -6.900789 -177.300003 215.945679
v -6.730596 -177.300003 216.278671
v -6.544017 -177.300003 216.602753
v -6.341515 -177.300003 216.917130
v -6.123594 -177.300003 217.221039
v -5.890796 -177.300003 217.513702
v -5.643699 -177.300003 217.794403
v -7.554341 -177.300003 211.572922
v -7.601300 -177.300003 211.943924
v -7.629708 -177.300003 212.316803
v -5.382917 -177.300003 218.062424
v 5.364700 -177.300003 207.605438
v -5.109100 -177.300003 218.317123
v 5.611796 -177.300003 207.886124
v -4.822928 -177.300003 218.557861
v 5.844595 -177.300003 208.178787
v -4.525111 -177.300003 218.784027
v 6.062516 -177.300003 208.482681
v -4.216392 -177.300003 218.995071
v 6.265018 -177.300003 208.797073
v -3.897536 -177.300003 219.190460
v 6.451597 -177.300003 209.121170
v -3.569338 -177.300003 219.369705
v 6.621790 -177.300003 209.454163
v -3.232612 -177.300003 219.532394
v 6.775173 -177.300003 209.795212
v -2.888197 -177.300003 219.678070
v -2.536948 -177.300003 219.806396
v -2.179738 -177.300003 219.917068
v -1.817456 -177.300003 220.009811
v -1.451002 -177.300003 220.084351
v -1.081288 -177.300003 220.140549
v -0.709232 -177.300003 220.178253
v -0.335760 -177.300003 220.197342
v 0.038200 -177.300003 220.197800
v 1.153718 -177.300003 220.087585
v 0.783866 -177.300003 220.142868
v 1.520356 -177.300003 220.013931
v 1.882866 -177.300003 219.922104
v 2.240349 -177.300003 219.812317
v 2.591914 -177.300003 219.684845
v 2.936690 -177.300003 219.540024
v 3.273817 -177.300003 219.378189
v 3.602458 -177.300003 219.199738
v 3.921796 -177.300003 219.005142
v 4.231037 -177.300003 218.794861
v 4.529412 -177.300003 218.569427
v 4.816180 -177.300003 218.329422
v 5.090627 -177.300003 218.075394
v 5.352071 -177.300003 217.808014
v 5.599862 -177.300003 217.527924
v 5.833384 -177.300003 217.235840
v 6.052057 -177.300003 216.932480
v 6.255336 -177.300003 216.618591
v 6.442718 -177.300003 216.294968
v 6.613734 -177.300003 215.962402
v 6.767961 -177.300003 215.621735
v 6.905015 -177.300003 215.273788
v 7.024555 -177.300003 214.919449
v 7.126284 -177.300003 214.559586
v 7.209949 -177.300003 214.195114
v 7.275342 -177.300003 213.826904
v 7.322301 -177.300003 213.455917
v 7.350709 -177.300003 213.083023
v 7.360495 -177.300003 212.709198
v 7.351635 -177.300003 212.335342
v 7.324150 -177.300003 211.962402
v 0.411718 -177.300003 220.179626
v 7.278110 -177.300003 211.591278
v 7.213628 -177.300003 211.222916
v 7.130866 -177.300003 210.858231
v 7.030027 -177.300003 210.498123
v 6.911365 -177.300003 210.143478
v -7.630630 -164.600006 213.064484
v -7.639490 -164.600006 212.690628
v -7.603145 -164.600006 213.437439
v -7.557105 -164.600006 213.808548
v -7.492623 -164.600006 214.176910
v -7.409861 -164.600006 214.541595
v -7.309023 -164.600006 214.901703
v -7.190360 -164.600006 215.256348
v -7.054168 -164.600006 215.604630
v -6.900785 -164.600006 215.945679
v -6.730592 -164.600006 216.278671
v -6.544013 -164.600006 216.602753
v -6.341511 -164.600006 216.917130
v -6.123590 -164.600006 217.221039
v -5.890792 -164.600006 217.513702
v -5.643695 -164.600006 217.794403
v -5.382914 -164.600006 218.062424
v -5.109096 -164.600006 218.317123
v -4.822924 -164.600006 218.557861
v -4.525107 -164.600006 218.784027
v -4.216388 -164.600006 218.995071
v -3.897533 -164.600006 219.190460
v -3.569334 -164.600006 219.369705
v -3.232609 -164.600006 219.532394
v -2.888193 -164.600006 219.678070
v -2.536944 -164.600006 219.806396
v -2.179734 -164.600006 219.917068
v -1.817452 -164.600006 220.009811
v -1.450999 -164.600006 220.084351
v -1.081284 -164.600006 220.140549
v -0.709229 -164.600006 220.178253
v -0.335756 -164.600006 220.197342
v 0.038204 -164.600006 220.197800
v 0.411722 -164.600006 220.179626
v 0.783870 -164.600006 220.142868
v 1.153722 -164.600006 220.087585
v 1.520359 -164.600006 220.013931
v 1.882870 -164.600006 219.922104
v 2.240352 -164.600006 219.812317
v 2.591918 -164.600006 219.684845
v 2.936693 -164.600006 219.540024
v 3.273820 -164.600006 219.378189
v 3.602462 -164.600006 219.199738
v 3.921800 -164.600006 219.005142
v 4.231041 -164.600006 218.794861
v 4.529416 -164.600006 218.569427
v 4.816184 -164.600006 218.329422
v 5.090631 -164.600006 218.075394
v 5.352075 -164.600006 217.808014
v 5.599866 -164.600006 217.527924
v 5.833388 -164.600006 217.235840
v 6.052061 -164.600006 216.932480
v 6.255340 -164.600006 216.618591
v 6.442721 -164.600006 216.294968
v 6.613738 -164.600006 215.962402
v 6.767965 -164.600006 215.621735
v 6.905018 -164.600006 215.273788
v 7.024559 -164.600006 214.919449
v 7.126287 -164.600006 214.559586
v 7.209953 -164.600006 214.195114
v 7.275346 -164.600006 213.826904
v 7.322305 -164.600006 213.455917
v 7.350713 -164.600006 213.083023
v 7.360498 -164.600006 212.709198
v 7.351638 -164.600006 212.335342
v 7.324154 -164.600006 211.962402
v 7.278113 -164.600006 211.591278
v 7.213632 -164.600006 211.222916
v 7.130869 -164.600006 210.858231
v 7.030031 -164.600006 210.498123
v 6.911369 -164.600006 210.143478
v 6.775177 -164.600006 209.795212
v 6.621793 -164.600006 209.454163
v 6.451601 -164.600006 209.121170
v 6.265022 -164.600006 208.797073
v 6.062520 -164.600006 208.482681
v 5.844599 -164.600006 208.178787
v 5.611800 -164.600006 207.886124
v 5.364703 -164.600006 207.605438
v 5.103922 -164.600006 207.337387
v 4.830105 -164.600006 207.082703
v 4.543932 -164.600006 206.841965
v 4.246116 -164.600006 206.615799
v 3.937397 -164.600006 206.404770
v 3.618541 -164.600006 206.209366
v 3.290343 -164.600006 206.030106
v 2.953617 -164.600006 205.867447
v 2.609202 -164.600006 205.721756
v 2.257952 -164.600006 205.593414
v 1.900743 -164.600006 205.482742
v 1.538461 -164.600006 205.390030
v 1.172007 -164.600006 205.315460
v 0.802293 -164.600006 205.259277
v 0.430237 -164.600006 205.221588
v 0.056765 -164.600006 205.202484
v -0.317195 -164.600006 205.202026
v -0.690714 -164.600006 205.220200
v -1.062861 -164.600006 205.256973
v -1.432714 -164.600006 205.312241
v -1.799351 -164.600006 205.385895
v -2.161861 -164.600006 205.477722
v -2.519344 -164.600006 205.587509
v -2.870910 -164.600006 205.714966
v -3.215685 -164.600006 205.859802
v -3.552812 -164.600006 206.021637
v -3.881453 -164.600006 206.200073
v -4.200791 -164.600006 206.394699
v -4.510032 -164.600006 206.604950
v -4.808408 -164.600006 206.830383
v -5.095175 -164.600006 207.070419
v -5.369622 -164.600006 207.324432
v -5.631066 -164.600006 207.591827
v -5.878857 -164.600006 207.871902
v -6.112380 -164.600006 208.163986
v -6.331052 -164.600006 208.467346
v -6.534332 -164.600006 208.781219
v -6.721713 -164.600006 209.104858
v -6.892729 -164.600006 209.437424
v -7.046956 -164.600006 209.778107
v -7.184010 -164.600006 210.126038
v -7.303550 -164.600006 210.480377
v -7.405279 -164.600006 210.840240
v -7.488944 -164.600006 211.204712
v -7.554338 -164.600006 211.572922
v -7.601296 -164.600006 211.943924
v -7.629704 -164.600006 212.316803
vn 0.001233 0.000005 -0.999999
vn 0.001245 -0.000008 -0.999999
vn 0.001236 0.000002 -0.999999
vn 0.001231 0.000008 -0.999999
vn 0.001241 -0.000002 -0.999999
vn 0.001233 0.000006 -0.999999
vn 0.001248 -0.000008 -0.999999
vn 0.001249 -0.000015 -0.999999
vn 0.001239 -0.000001 -0.999999
vn 0.001228 0.000014 -0.999999
vn 0.001232 0.000004 -0.999999
vn 0.001247 -0.000013 -0.999999
vn 0.001244 -0.000004 -0.999999
vn 0.001229 0.000014 -0.999999
vn 0.001239 -0.000001 -0.999999
vn 0.001239 -0.000002 -0.999999
vn 0.001234 0.000002 -0.999999
vn 0.001238 0.000000 -0.999999
vn 0.001230 0.000004 -0.999999
vn 0.001238 -0.000001 -0.999999
vn 0.001227 0.000006 -0.999999
vn 0.001241 -0.000006 -0.999999
vn 0.001253 -0.000007 -0.999999
vn 0.001231 0.000014 -0.999999
vn 0.001221 0.000008 -0.999999
vn 0.001238 -0.000000 -0.999999
vn 0.001255 -0.000007 -0.999999
vn 0.001248 -0.000024 -0.999999
vn 0.001257 -0.000008 -0.999999
vn 0.001227 0.000026 -0.999999
vn 0.001214 0.000010 -0.999999
vn 0.001232 -0.000014 -0.999999
vn 0.001238 0.000000 -0.999999
vn 0.001231 -0.000014 -0.999999
vn 0.001241 0.000006 -0.999999
vn 0.001238 0.000001 -0.999999
vn 0.001238 -0.000000 -0.999999
vn 0.001239 0.000002 -0.999999
vn 0.001242 0.000007 -0.999999
vn 0.001234 -0.000005 -0.999999
vn 0.001241 0.000004 -0.999999
vn 0.001236 -0.000002 -0.999999
vn 0.001233 -0.000006 -0.999999
vn 0.001245 0.000008 -0.999999
vn 0.001231 -0.000007 -0.999999
vn 0.001238 -0.000000 -0.999999
vn 0.001244 0.000016 -0.999999
vn 0.001245 0.000018 -0.999999
vn 0.001236 -0.000002 -0.999999
vn 0.001241 0.000002 -0.999999
vn 0.001248 0.000008 -0.999999
vn 0.001239 0.000001 -0.999999
vn 0.001232 -0.000004 -0.999999
vn 0.001244 0.000004 -0.999999
vn 0.001239 0.000001 -0.999999
vn 0.001234 -0.000002 -0.999999
vn 0.001230 -0.000004 -0.999999
vn 0.001227 -0.000006 -0.999999
vn 0.001253 0.000007 -0.999999
vn 0.001221 -0.000008 -0.999999
vn 0.001255 0.000007 -0.999999
vn 0.001257 0.000008 -0.999999
vn 0.001214 -0.000010 -0.999999
vn 0.001238 -0.000000 -0.999999
vn 0.001233 -0.000005 -0.999999
vn 0.001247 0.000009 -0.999999
vn 0.001245 0.000008 -0.999999
vn 0.001235 -0.000002 -0.999999
vn 0.001231 -0.000008 -0.999999
vn 0.001240 0.000003 -0.999999
vn 0.001233 -0.000006 -0.999999
vn 0.001231 -0.000005 -0.999999
vn 0.001249 0.000015 -0.999999
vn 0.001239 0.000001 -0.999999
vn 0.001228 -0.000014 -0.999999
vn 0.001232 -0.000004 -0.999999
vn 0.001247 0.000013 -0.999999
vn 0.001244 0.000004 -0.999999
vn 0.001229 -0.000014 -0.999999
vn 0.001239 0.000001 -0.999999
vn 0.001239 0.000002 -0.999999
vn 0.001234 -0.000002 -0.999999
vn 0.001238 -0.000000 -0.999999
vn 0.001230 -0.000004 -0.999999
vn 0.001238 0.000001 -0.999999
vn 0.001253 0.000008 -0.999999
vn 0.001241 0.000006 -0.999999
vn 0.001223 -0.000007 -0.999999
vn 0.001231 -0.000014 -0.999999
vn 0.001253 0.000007 -0.999999
vn 0.001238 0.000000 -0.999999
vn 0.001218 -0.000009 -0.999999
vn 0.001248 0.000024 -0.999999
vn 0.001257 0.000008 -0.999999
vn 0.001260 0.000009 -0.999999
vn 0.001260 -0.000009 -0.999999
vn 0.001257 -0.000008 -0.999999
vn 0.001218 0.000009 -0.999999
vn 0.001253 -0.000007 -0.999999
vn 0.001223 0.000007 -0.999999
vn 0.001253 -0.000008 -0.999999
vn 0.001230 0.000004 -0.999999
vn 0.001234 0.000002 -0.999999
vn 0.001239 -0.000001 -0.999999
vn 0.001244 -0.000004 -0.999999
vn 0.001232 0.000004 -0.999999
vn 0.001239 -0.000001 -0.999999
vn 0.001231 0.000005 -0.999999
vn 0.001240 -0.000003 -0.999999
vn 0.001235 0.000002 -0.999999
vn 0.001247 -0.000009 -0.999999
vn 0.001231 0.000007 -0.999999
vn 0.001245 -0.000008 -0.999999
vn 0.001233 0.000006 -0.999999
vn 0.001236 0.000002 -0.999999
vn 0.001237 -0.000000 -0.999999
vn 0.001241 -0.000004 -0.999999
vn 0.001234 0.000005 -0.999999
vn 0.001242 -0.000007 -0.999999
vn 0.001239 -0.000002 -0.999999
vn 0.001238 0.000000 -0.999999
vn 0.001238 -0.000001 -0.999999
vn 0.001241 -0.000006 -0.999999
vn 0.001231 0.000014 -0.999999
vn 0.001238 -0.000000 -0.999999
vn 0.001232 0.000014 -0.999999
vn 0.001238 0.000000 -0.999999
vn 0.001227 -0.000026 -0.999999
vn 0.001244 -0.000016 -0.999999
vn 0.001245 -0.000018 -0.999999
vn 0.000000 1.000000 0.000000
vn 0.000000 1.000000 0.000000
vn 0.000000 1.000000 0.000000
vn 0.000000 1.000000 0.000000
vn 0.000000 1.000000 0.000000
vn 0.000000 1.000000 0.000000
vn 0.000000 1.000000 0.000000
vn 0.000000 1.000000 0.000000
vn 0.000000 1.000000 0.000000
vn 0.000000 1.000000 0.000000
vn 0.000000 1.000000 0.000000
vn 0.000000 1.000000 0.000000
vn 0.000000 1.000000 0.000000
vn 0.000000 1.000000 0.000000
vn 0.000000 1.000000 0.000000
vn 0.000000 1.000000 0.000000
vn 0.000000 1.000000 0.000000
vn 0.000000 1.000000 0.000000
vn 0.000000 1.000000 0.000000
vn 0.000000 1.000000 0.000000
vn 0.000000 1.000000 0.000000
vn 0.000000 1.000000 0.000000
vn 0.000000 1.000000 0.000000
vn 0.000000 1.000000 0.000000
vn 0.000000 1.000000 0.000000
vn 0.000000 1.000000 0.000000
vn 0.000000 1.000000 0.000000
vn 0.000000 1.000000 0.000000
vn 0.000000 1.000000 0.000000
vn 0.000000 1.000000 0.000000
vn 0.000000 1.000000 0.000000
vn 0.000000 1.000000 0.000000
vn 0.000000 1.000000 0.000000
vn 0.000000 1.000000 0.000000
vn 0.000000 1.000000 0.000000
vn 0.000000 1.000000 0.000000
vn 0.000000 1.000000 0.000000
vn 0.000000 1.000000 0.000000
vn 0.000000 1.000000 0.000000
vn 0.000000 1.000000 0.000000
vn 0.000000 1.000000 0.000000
vn 0.000000 1.000000 0.000000
vn 0.000000 1.000000 0.000000
vn 0.000000 1.000000 0.000000
vn 0.000000 1.000000 0.000000
vn 0.000000 1.000000 0.000000
vn 0.000000 1.000000 0.000000
vn 0.000000 1.000000 0.000000
vn 0.000000 1.000000 0.000000
vn 0.000000 1.000000 0.000000
vn 0.000000 1.000000 0.000000
vn 0.000000 1.000000 0.000000
vn 0.000000 1.000000 0.000000
vn 0.000000 1.000000 0.000000
vn 0.000000 1.000000 0.000000
vn 0.000000 1.000000 0.000000
vn 0.000000 1.000000 0.000000
vn 0.000000 1.000000 0.000000
vn 0.000000 1.000000 0.000000
vn 0.000000 1.000000 0.000000
vn 0.000000 1.000000 0.000000
vn 0.000000 1.000000 0.000000
vn 0.000000 1.000000 0.000000
vn 0.000000 1.000000 0.000000
vn -0.999999 0.000000 -0.001238
vn -0.999999 0.000000 -0.001238
vn -0.999999 0.000000 -0.001238
vn -0.999999 0.000000 -0.001238
vn 0.000000 -1.000000 0.000000
vn -0.000000 -1.000000 0.000000
vn 0.999999 -0.000000 0.001238
vn 0.999999 -0.000000 0.001238
vn 0.999999 -0.000000 0.001238
vn 0.999999 -0.000000 0.001238
vn -0.999688 -0.024931 -0.001237
vn -0.999688 -0.024930 -0.001237
vn -0.997203 -0.074728 -0.001234
vn -0.997203 -0.074728 -0.001234
vn -0.992238 -0.124347 -0.001228
vn -0.992238 -0.124346 -0.001228
vn -0.984807 -0.173645 -0.001219
vn -0.984807 -0.173645 -0.001219
vn -0.974927 -0.222523 -0.001207
vn -0.962624 -0.270839 -0.001192
vn -0.974926 -0.222524 -0.001207
vn -0.947928 -0.318482 -0.001173
vn -0.962624 -0.270838 -0.001192
vn -0.930875 -0.365337 -0.001152
vn -0.947928 -0.318483 -0.001173
vn -0.930875 -0.365337 -0.001152
vn -0.911504 -0.411289 -0.001128
vn -0.911505 -0.411288 -0.001128
vn -0.889873 -0.456208 -0.001101
vn -0.889872 -0.456209 -0.001101
vn -0.866021 -0.500007 -0.001072
vn -0.866020 -0.500008 -0.001072
vn -0.840022 -0.542551 -0.001040
vn -0.840023 -0.542550 -0.001040
vn -0.811940 -0.583741 -0.001005
vn -0.811939 -0.583741 -0.001005
vn -0.781831 -0.623490 -0.000968
vn -0.781831 -0.623490 -0.000968
vn -0.749789 -0.661676 -0.000928
vn -0.749789 -0.661677 -0.000928
vn -0.715860 -0.698244 -0.000886
vn -0.715859 -0.698244 -0.000886
vn -0.680181 -0.733044 -0.000842
vn -0.680181 -0.733044 -0.000842
vn -0.642779 -0.766051 -0.000796
vn -0.642779 -0.766051 -0.000796
vn -0.603805 -0.797132 -0.000747
vn -0.603805 -0.797132 -0.000747
vn -0.563326 -0.826234 -0.000697
vn -0.563326 -0.826235 -0.000697
vn -0.521427 -0.853296 -0.000645
vn -0.521427 -0.853296 -0.000645
vn -0.478254 -0.878221 -0.000592
vn -0.478254 -0.878221 -0.000592
vn -0.433898 -0.900962 -0.000537
vn -0.388410 -0.921487 -0.000481
vn -0.433898 -0.900962 -0.000537
vn -0.388410 -0.921487 -0.000481
vn -0.342013 -0.939695 -0.000423
vn -0.342013 -0.939695 -0.000423
vn -0.294761 -0.955571 -0.000365
vn -0.294761 -0.955571 -0.000365
vn -0.246777 -0.969072 -0.000305
vn -0.246777 -0.969072 -0.000305
vn -0.198140 -0.980174 -0.000245
vn -0.198141 -0.980174 -0.000245
vn -0.149054 -0.988829 -0.000184
vn -0.149054 -0.988829 -0.000184
vn -0.099560 -0.995032 -0.000123
vn -0.099560 -0.995032 -0.000123
vn -0.049821 -0.998758 -0.000062
vn -0.049821 -0.998758 -0.000062
vn 0.000000 -1.000000 0.000000
vn 0.000000 -1.000000 0.000000
vn 0.049821 -0.998758 0.000062
vn 0.049821 -0.998758 0.000062
vn 0.099560 -0.995032 0.000123
vn 0.099560 -0.995032 0.000123
vn 0.149054 -0.988829 0.000184
vn 0.149054 -0.988829 0.000184
vn 0.198140 -0.980174 0.000245
vn 0.246777 -0.969072 0.000305
vn 0.198140 -0.980174 0.000245
vn 0.246777 -0.969072 0.000305
vn 0.294761 -0.955571 0.000365
vn 0.294761 -0.955571 0.000365
vn 0.342013 -0.939695 0.000423
vn 0.342013 -0.939695 0.000423
vn 0.388410 -0.921487 0.000481
vn 0.388410 -0.921487 0.000481
vn 0.433898 -0.900962 0.000537
vn 0.433898 -0.900962 0.000537
vn 0.478254 -0.878221 0.000592
vn 0.478254 -0.878221 0.000592
vn 0.521427 -0.853296 0.000645
vn 0.521427 -0.853296 0.000645
vn 0.563326 -0.826234 0.000697
vn 0.563326 -0.826235 0.000697
vn 0.603804 -0.797132 0.000747
vn 0.603804 -0.797132 0.000747
vn 0.642779 -0.766051 0.000796
vn 0.642779 -0.766051 0.000796
vn 0.680181 -0.733044 0.000842
vn 0.680181 -0.733044 0.000842
vn 0.715859 -0.698244 0.000886
vn 0.715859 -0.698244 0.000886
vn 0.749789 -0.661676 0.000928
vn 0.749789 -0.661677 0.000928
vn 0.781830 -0.623491 0.000968
vn 0.781830 -0.623491 0.000968
vn 0.811939 -0.583741 0.001005
vn 0.811939 -0.583741 0.001005
vn 0.840022 -0.542551 0.001040
vn 0.866020 -0.500008 0.001072
vn 0.840022 -0.542551 0.001040
vn 0.866021 -0.500007 0.001072
vn 0.889872 -0.456209 0.001101
vn 0.889872 -0.456209 0.001101
vn 0.911504 -0.411289 0.001128
vn 0.930875 -0.365337 0.001152
vn 0.911504 -0.411289 0.001128
vn 0.947928 -0.318483 0.001173
vn 0.930875 -0.365337 0.001152
vn 0.947928 -0.318483 0.001173
vn 0.962624 -0.270839 0.001192
vn 0.962624 -0.270839 0.001192
vn 0.974926 -0.222524 0.001207
vn 0.974926 -0.222524 0.001207
vn 0.984807 -0.173645 0.001219
vn 0.984807 -0.173646 0.001219
vn 0.992238 -0.124347 0.001228
vn 0.992238 -0.124347 0.001228
vn 0.997203 -0.074728 0.001234
vn 0.997203 -0.074728 0.001234
vn 0.999688 -0.024931 0.001237
vn 0.999688 -0.024932 0.001237
vn 0.999688 0.024931 0.001237
vn 0.999688 0.024931 0.001237
vn 0.997203 0.074730 0.001234
vn 0.997203 0.074731 0.001234
vn 0.992239 0.124342 0.001228
vn 0.992239 0.124342 0.001228
vn 0.984807 0.173645 0.001219
vn 0.984808 0.173644 0.001219
vn 0.974927 0.222523 0.001207
vn 0.974926 0.222524 0.001207
vn 0.962624 0.270838 0.001192
vn 0.962624 0.270839 0.001192
vn 0.947928 0.318483 0.001173
vn 0.947928 0.318483 0.001173
vn 0.930870 0.365350 0.001152
vn 0.930869 0.365351 0.001152
vn 0.911504 0.411289 0.001128
vn 0.911505 0.411288 0.001128
vn 0.889873 0.456208 0.001101
vn 0.889872 0.456209 0.001101
vn 0.866030 0.499990 0.001072
vn 0.866031 0.499989 0.001072
vn 0.840022 0.542551 0.001040
vn 0.840023 0.542550 0.001040
vn 0.811939 0.583741 0.001005
vn 0.811940 0.583741 0.001005
vn 0.781831 0.623490 0.000968
vn 0.781830 0.623491 0.000968
vn 0.749772 0.661696 0.000928
vn 0.749772 0.661696 0.000928
vn 0.715879 0.698224 0.000886
vn 0.715880 0.698223 0.000886
vn 0.680159 0.733064 0.000842
vn 0.680159 0.733064 0.000842
vn 0.642803 0.766031 0.000796
vn 0.642803 0.766031 0.000796
vn 0.603805 0.797132 0.000747
vn 0.603804 0.797132 0.000747
vn 0.563299 0.826253 0.000697
vn 0.563299 0.826253 0.000697
vn 0.521457 0.853278 0.000645
vn 0.478254 0.878221 0.000592
vn 0.521456 0.853278 0.000645
vn 0.478254 0.878221 0.000592
vn 0.433865 0.900978 0.000537
vn 0.388444 0.921472 0.000481
vn 0.433865 0.900978 0.000537
vn 0.388444 0.921472 0.000481
vn 0.342013 0.939695 0.000423
vn 0.342013 0.939695 0.000423
vn 0.294761 0.955571 0.000365
vn 0.294762 0.955571 0.000365
vn 0.246738 0.969082 0.000305
vn 0.246738 0.969082 0.000305
vn 0.198180 0.980166 0.000245
vn 0.198180 0.980166 0.000245
vn 0.149014 0.988835 0.000184
vn 0.149014 0.988835 0.000184
vn 0.099560 0.995032 0.000123
vn 0.099560 0.995032 0.000123
vn 0.049861 0.998756 0.000062
vn 0.049861 0.998756 0.000062
vn 0.000000 1.000000 -0.000000
vn 0.000000 1.000000 0.000000
vn -0.049861 0.998756 -0.000062
vn -0.049861 0.998756 -0.000062
vn -0.099560 0.995032 -0.000123
vn -0.099560 0.995032 -0.000123
vn -0.149014 0.988835 -0.000184
vn -0.149014 0.988835 -0.000184
vn -0.198180 0.980166 -0.000245
vn -0.198180 0.980166 -0.000245
vn -0.246738 0.969082 -0.000305
vn -0.294761 0.955571 -0.000365
vn -0.246738 0.969082 -0.000305
vn -0.294761 0.955571 -0.000365
vn -0.342013 0.939695 -0.000423
vn -0.342013 0.939695 -0.000423
vn -0.388445 0.921472 -0.000481
vn -0.433865 0.900978 -0.000537
vn -0.388445 0.921472 -0.000481
vn -0.433865 0.900978 -0.000537
vn -0.478254 0.878222 -0.000592
vn -0.478254 0.878221 -0.000592
vn -0.521457 0.853278 -0.000645
vn -0.563298 0.826254 -0.000697
vn -0.521457 0.853278 -0.000645
vn -0.563298 0.826254 -0.000697
vn -0.603805 0.797132 -0.000747
vn -0.603804 0.797132 -0.000747
vn -0.642803 0.766031 -0.000796
vn -0.680159 0.733064 -0.000842
vn -0.642803 0.766031 -0.000796
vn -0.715880 0.698223 -0.000886
vn -0.680159 0.733065 -0.000842
vn -0.749771 0.661697 -0.000928
vn -0.715879 0.698224 -0.000886
vn -0.749771 0.661697 -0.000928
vn -0.781830 0.623491 -0.000968
vn -0.781831 0.623490 -0.000968
vn -0.811939 0.583741 -0.001005
vn -0.811939 0.583741 -0.001005
vn -0.840022 0.542551 -0.001040
vn -0.840022 0.542551 -0.001040
vn -0.866030 0.499990 -0.001072
vn -0.866030 0.499990 -0.001072
vn -0.889873 0.456208 -0.001101
vn -0.889872 0.456209 -0.001101
vn -0.911504 0.411289 -0.001128
vn -0.911504 0.411289 -0.001128
vn -0.930869 0.365351 -0.001152
vn -0.930869 0.365351 -0.001152
vn -0.947928 0.318483 -0.001173
vn -0.962624 0.270839 -0.001192
vn -0.947928 0.318483 -0.001173
vn -0.962624 0.270839 -0.001192
vn -0.974926 0.222525 -0.001207
vn -0.984807 0.173645 -0.001219
vn -0.974926 0.222524 -0.001207
vn -0.984807 0.173645 -0.001219
vn -0.992239 0.124342 -0.001228
vn -0.992239 0.124342 -0.001228
vn -0.997203 0.074731 -0.001234
vn -0.997203 0.074732 -0.001234
vn -0.999688 0.024931 -0.001237
vn -0.999688 0.024931 -0.001237
vn -0.999719 0.000000 0.023693
vn -0.999719 0.000000 0.023694
vn -0.997296 0.000000 0.073495
vn -0.997295 0.000000 0.073497
vn -0.992392 0.000000 0.123115
vn -0.992392 0.000000 0.123115
vn -0.985022 0.000000 0.172431
vn -0.985022 0.000000 0.172431
vn -0.975204 0.000000 0.221308
vn -0.962957 0.000000 0.269654
vn -0.975204 0.000000 0.221308
vn -0.962957 0.000000 0.269654
vn -0.948320 0.000000 0.317316
vn -0.948320 0.000000 0.317316
vn -0.931329 0.000000 0.364180
vn -0.931329 0.000000 0.364180
vn -0.912012 0.000000 0.410164
vn -0.890435 0.000000 0.455111
vn -0.912012 0.000000 0.410164
vn -0.890435 0.000000 0.455111
vn -0.866645 0.000000 0.498925
vn -0.866646 0.000000 0.498924
vn -0.840698 0.000000 0.541504
vn -0.840697 0.000000 0.541505
vn -0.812657 0.000000 0.582742
vn -0.812657 0.000000 0.582742
vn -0.782603 0.000000 0.622521
vn -0.782603 0.000000 0.622521
vn -0.750601 0.000000 0.660756
vn -0.750601 0.000000 0.660756
vn -0.716726 0.000000 0.697354
vn -0.716726 0.000000 0.697354
vn -0.681082 0.000000 0.732207
vn -0.681082 0.000000 0.732207
vn -0.643736 0.000000 0.765248
vn -0.643736 0.000000 0.765248
vn -0.604778 0.000000 0.796394
vn -0.604778 0.000000 0.796394
vn -0.564355 0.000000 0.825532
vn -0.564355 0.000000 0.825532
vn -0.522502 0.000000 0.852638
vn -0.522502 0.000000 0.852638
vn -0.479329 0.000000 0.877635
vn -0.479329 0.000000 0.877635
vn -0.434990 0.000000 0.900435
vn -0.434990 0.000000 0.900435
vn -0.389588 0.000000 0.920989
vn -0.389588 0.000000 0.920989
vn -0.343181 0.000000 0.939269
vn -0.343181 0.000000 0.939269
vn -0.295951 0.000000 0.955203
vn -0.295951 0.000000 0.955203
vn -0.247930 0.000000 0.968778
vn -0.247930 0.000000 0.968778
vn -0.199373 0.000000 0.979924
vn -0.199373 0.000000 0.979924
vn -0.150265 0.000000 0.988646
vn -0.150265 0.000000 0.988646
vn -0.100819 0.000000 0.994905
vn -0.100819 0.000000 0.994905
vn -0.051060 0.000000 0.998696
vn -0.051060 0.000000 0.998696
vn -0.001229 0.000000 0.999999
vn -0.001229 0.000000 0.999999
vn 0.048578 -0.000000 0.998819
vn 0.048578 -0.000000 0.998819
vn 0.098361 -0.000000 0.995151
vn 0.098361 -0.000000 0.995151
vn 0.147808 -0.000000 0.989016
vn 0.196939 -0.000000 0.980416
vn 0.147808 -0.000000 0.989016
vn 0.196940 -0.000000 0.980416
vn 0.245543 -0.000000 0.969386
vn 0.245543 -0.000000 0.969386
vn 0.293589 -0.000000 0.955932
vn 0.293589 -0.000000 0.955932
vn 0.340845 -0.000000 0.940120
vn 0.340845 -0.000000 0.940120
vn 0.387321 -0.000000 0.921945
vn 0.387321 -0.000000 0.921945
vn 0.432751 -0.000000 0.901513
vn 0.432751 -0.000000 0.901513
vn 0.477159 -0.000000 0.878817
vn 0.520383 -0.000000 0.853933
vn 0.477159 -0.000000 0.878817
vn 0.520384 -0.000000 0.853932
vn 0.562308 -0.000000 0.826928
vn 0.562308 -0.000000 0.826928
vn 0.602803 -0.000000 0.797890
vn 0.602803 -0.000000 0.797890
vn 0.641849 -0.000000 0.766831
vn 0.641849 -0.000000 0.766831
vn 0.679259 -0.000000 0.733899
vn 0.679259 -0.000000 0.733899
vn 0.715006 -0.000000 0.699118
vn 0.715006 -0.000000 0.699118
vn 0.748963 -0.000000 0.662612
vn 0.748963 -0.000000 0.662612
vn 0.781060 -0.000000 0.624456
vn 0.781060 -0.000000 0.624456
vn 0.811211 -0.000000 0.584753
vn 0.811211 -0.000000 0.584753
vn 0.839353 -0.000000 0.543587
vn 0.839353 -0.000000 0.543587
vn 0.865403 -0.000000 0.501076
vn 0.865404 -0.000000 0.501076
vn 0.889310 -0.000000 0.457304
vn 0.889310 -0.000000 0.457304
vn 0.910994 -0.000000 0.412419
vn 0.910994 -0.000000 0.412419
vn 0.930423 -0.000000 0.366488
vn 0.930423 -0.000000 0.366488
vn 0.947531 -0.000000 0.319664
vn 0.962288 -0.000000 0.272031
vn 0.947531 -0.000000 0.319664
vn 0.962288 -0.000000 0.272031
vn 0.974652 -0.000000 0.223728
vn 0.974652 -0.000000 0.223728
vn 0.984592 -0.000000 0.174868
vn 0.984592 -0.000000 0.174868
vn 0.992085 -0.000000 0.125571
vn 0.992085 -0.000000 0.125571
vn 0.997111 -0.000000 0.075964
vn 0.997111 -0.000000 0.075964
vn 0.999658 -0.000000 0.026169
vn 0.999658 -0.000000 0.026169
vn 0.000000 1.000000 0.000000
vn 0.000000 1.000000 0.000000
vn 0.000000 1.000000 0.000000
vn 0.000000 1.000000 0.000000
vn 0.000000 1.000000 0.000000
vn 0.000000 1.000000 0.000000
vn 0.000000 1.000000 0.000000
vn 0.000000 1.000000 0.000000
vn 0.000000 1.000000 0.000000
vn 0.000000 1.000000 0.000000
vn 0.000000 1.000000 0.000000
vn 0.000000 1.000000 0.000000
vn 0.000000 1.000000 0.000000
vn 0.000000 1.000000 0.000000
vn 0.000000 1.000000 0.000000
vn 0.000000 1.000000 0.000000
vn 0.000000 1.000000 0.000000
vn 0.000000 1.000000 0.000000
vn 0.000000 1.000000 0.000000
vn 0.000000 1.000000 0.000000
vn 0.000000 1.000000 0.000000
vn 0.000000 1.000000 0.000000
vn 0.000000 1.000000 0.000000
vn 0.000000 1.000000 0.000000
vn 0.000000 1.000000 0.000000
vn 0.000000 1.000000 0.000000
vn 0.000000 1.000000 0.000000
vn 0.000000 1.000000 0.000000
vn 0.000000 1.000000 0.000000
vn 0.000000 1.000000 0.000000
vn 0.000000 1.000000 0.000000
vn 0.000000 1.000000 0.000000
vn 0.000000 1.000000 0.000000
vn 0.000000 1.000000 0.000000
vn 0.000000 1.000000 0.000000
vn 0.000000 1.000000 0.000000
vn 0.000000 1.000000 0.000000
vn 0.000000 1.000000 0.000000
vn 0.000000 1.000000 0.000000
vn 0.000000 1.000000 0.000000
vn 0.000000 1.000000 0.000000
vn 0.000000 1.000000 0.000000
vn 0.000000 1.000000 0.000000
vn 0.000000 1.000000 0.000000
vn 0.000000 1.000000 0.000000
vn 0.000000 1.000000 0.000000
vn 0.000000 1.000000 0.000000
vn 0.000000 1.000000 0.000000
vn 0.000000 1.000000 0.000000
vn 0.000000 1.000000 0.000000
vn 0.000000 1.000000 0.000000
vn 0.000000 1.000000 0.000000
vn 0.000000 1.000000 0.000000
vn 0.000000 1.000000 0.000000
vn 0.000000 1.000000 0.000000
vn 0.000000 1.000000 0.000000
vn 0.000000 1.000000 0.000000
vn 0.000000 1.000000 0.000000
vn 0.000000 1.000000 0.000000
vn 0.000000 1.000000 0.000000
vn 0.000000 1.000000 0.000000
vn 0.000000 1.000000 0.000000
vn 0.000000 1.000000 0.000000
vn 0.000000 1.000000 0.000000
vn 0.000000 1.000000 0.000000
vn 0.000000 1.000000 0.000000
vn 0.000000 1.000000 0.000000
vn 0.000000 1.000000 0.000000
vn 0.000000 1.000000 0.000000
vn 0.000000 1.000000 0.000000
vn 0.000000 1.000000 0.000000
vn 0.000000 1.000000 0.000000
vn 0.000000 1.000000 0.000000
vn 0.000000 1.000000 0.000000
vn 0.000000 1.000000 0.000000
vn 0.000000 1.000000 0.000000
vn 0.000000 1.000000 0.000000
vn 0.000000 1.000000 0.000000
vn 0.000000 1.000000 0.000000
vn 0.000000 1.000000 0.000000
vn 0.000000 1.000000 0.000000
vn 0.000000 1.000000 0.000000
vn 0.000000 1.000000 0.000000
vn 0.000000 1.000000 0.000000
vn 0.000000 1.000000 0.000000
vn 0.000000 1.000000 0.000000
vn 0.000000 1.000000 0.000000
vn 0.000000 1.000000 0.000000
vn 0.000000 1.000000 0.000000
vn 0.000000 1.000000 0.000000
vn 0.000000 1.000000 0.000000
vn 0.000000 1.000000 0.000000
vn 0.000000 1.000000 0.000000
vn 0.000000 1.000000 0.000000
vn 0.000000 1.000000 0.000000
vn 0.000000 1.000000 0.000000
vn 0.000000 1.000000 0.000000
vn 0.000000 1.000000 0.000000
vn 0.000000 1.000000 0.000000
vn 0.000000 1.000000 0.000000
vn 0.000000 1.000000 0.000000
vn 0.000000 1.000000 0.000000
vn 0.000000 1.000000 0.000000
vn 0.000000 1.000000 0.000000
vn 0.000000 1.000000 0.000000
vn 0.000000 1.000000 0.000000
vn 0.000000 1.000000 0.000000
vn 0.000000 1.000000 0.000000
vn 0.000000 1.000000 0.000000
vn 0.000000 1.000000 0.000000
vn 0.000000 1.000000 0.000000
vn 0.000000 1.000000 0.000000
vn 0.000000 1.000000 0.000000
vn 0.000000 1.000000 0.000000
vn 0.000000 1.000000 0.000000
vn 0.000000 1.000000 0.000000
vn 0.000000 1.000000 0.000000
vn 0.000000 1.000000 0.000000
vn 0.000000 1.000000 0.000000
vn 0.000000 1.000000 0.000000
vn 0.000000 1.000000 0.000000
vn 0.000000 1.000000 0.000000
vn 0.000000 1.000000 0.000000
vn 0.000000 1.000000 0.000000
vn 0.000000 1.000000 0.000000
vn 0.000000 1.000000 0.000000
vn 0.000000 1.000000 0.000000
vn 0.000000 1.000000 0.000000
vn 0.000000 1.000000 0.000000
vn 0.000000 1.000000 0.000000
vn 0.000000 1.000000 0.000000
vn 0.000000 1.000000 0.000000
vn 0.000000 1.000000 0.000000
vn 0.000000 1.000000 0.000000
vn 0.000000 1.000000 0.000000
vn 0.000000 1.000000 0.000000
vn 0.000000 1.000000 0.000000
vn 0.000000 1.000000 0.000000
vn 0.000000 1.000000 0.000000
vn 0.000000 1.000000 0.000000
vn 0.000000 1.000000 0.000000
vn 0.000000 1.000000 0.000000
vn 0.000000 1.000000 0.000000
vn 0.000000 1.000000 0.000000
vn 0.000000 1.000000 0.000000
vn 0.000000 1.000000 0.000000
vn 0.000000 1.000000 0.000000
vn 0.000000 1.000000 0.000000
vn 0.000000 1.000000 0.000000
vn 0.000000 1.000000 0.000000
vn 0.000000 1.000000 0.000000
vn 0.000000 1.000000 0.000000
vn 0.000000 1.000000 0.000000
vn 0.000000 1.000000 0.000000
vn 0.000000 1.000000 0.000000
vn 0.000000 1.000000 0.000000
vn 0.000000 1.000000 0.000000
vn 0.000000 1.000000 0.000000
vn 0.000000 1.000000 0.000000
vn 0.000000 1.000000 0.000000
vn 0.000000 1.000000 0.000000
vn 0.000000 1.000000 0.000000
vn 0.000000 1.000000 0.000000
vn 0.000000 1.000000 0.000000
vn 0.000000 1.000000 0.000000
vn 0.000000 1.000000 0.000000
vn 0.000000 1.000000 0.000000
vn 0.000000 1.000000 0.000000
vn 0.000000 1.000000 0.000000
vn 0.000000 1.000000 0.000000
vn 0.000000 1.000000 0.000000
vn 0.000000 1.000000 -0.000000
vn 0.000000 1.000000 -0.000000
vn 0.000000 1.000000 0.000000
vn 0.000000 1.000000 0.000000
vn 0.000000 1.000000 0.000000
vn 0.000000 1.000000 0.000000
vn 0.000000 1.000000 0.000000
vn 0.000000 1.000000 0.000000
vn 0.000000 1.000000 0.000000
vn 0.000000 1.000000 0.000000
vn 0.000000 1.000000 0.000000
vn 0.000000 1.000000 0.000000
vn 0.000000 1.000000 0.000000
vn 0.000000 1.000000 0.000000
vn 0.000000 1.000000 0.000000
vn 0.000000 1.000000 0.000000
vn 0.000000 1.000000 0.000000
vn 0.000000 1.000000 0.000000
vn 0.000000 1.000000 0.000000
vn 0.000000 1.000000 0.000000
vn 0.000000 1.000000 0.000000
vn -0.001238 0.000000 0.999999
vn -0.001238 0.000000 0.999999
vn 0.001319 0.000090 -0.999999
vn 0.000900 -0.000410 -0.999999
vn 0.001260 0.000042 -0.999999
vn 0.001108 -0.000108 -0.999999
vn 0.001129 -0.000092 -0.999999
vn 0.000981 -0.000503 -0.999999
vn 0.000976 -0.000141 -1.000000
vn 0.000993 -0.000133 -0.999999
vn 0.001011 -0.000124 -0.999999
vn 0.001064 -0.000417 -0.999999
vn 0.001677 0.000176 -0.999999
vn 0.001277 0.000126 -0.999999
vn 0.001238 -0.000002 -0.999999
vn 0.001241 0.000006 -0.999999
vn 0.001337 0.000291 -0.999999
vn 0.001248 0.000019 -0.999999
vn 0.001232 -0.000019 -0.999999
vn 0.002455 0.000309 -0.999997
vn 0.001332 0.000616 -0.999999
vn 0.001337 0.000657 -0.999999
vn 0.002455 0.000061 -0.999997
vn 0.000823 -0.000020 -1.000000
vn 0.001644 0.000041 -0.999999
vn 0.001247 0.000002 -0.999999
vn 0.001303 -0.000723 -0.999999
vn 0.001189 -0.000007 -0.999999
vn 0.000012 0.000122 -1.000000
vn 0.001638 -0.000041 -0.999999
vn 0.000992 0.001067 -0.999999
vn 0.001246 0.000001 -0.999999
vn 0.001240 0.000000 -0.999999
vn 0.000108 0.000351 -1.000000
vn 0.001662 -0.000128 -0.999999
vn 0.000864 0.000096 -1.000000
vn 0.001191 -0.000001 -0.999999
vn 0.001252 -0.000002 -0.999999
vn 0.001363 -0.000405 -0.999999
vn 0.001255 -0.000088 -0.999999
vn 0.001252 -0.000073 -0.999999
vn 0.001224 0.000065 -0.999999
vn 0.001246 -0.000052 -0.999999
vn 0.001042 0.000470 -0.999999
vn 0.000976 0.000141 -1.000000
vn 0.000919 0.000530 -0.999999
vn 0.001238 -0.000000 -0.999999
vn 0.001003 0.000129 -0.999999
vn 0.001028 0.000113 -0.999999
vn 0.001266 -0.000015 -0.999999
vn 0.001239 -0.000000 -0.999999
vn 0.001239 -0.000000 -0.999999
vn 0.001225 -0.000007 -0.999999
vn 0.001326 -0.000159 -0.999999
vn 0.001174 0.000088 -0.999999
vn 0.001108 0.000108 -0.999999
vn 0.000766 0.000611 -1.000000
vn 0.001230 0.000017 -0.999999
vn 0.001427 -0.000218 -0.999999
vn 0.001169 0.000057 -0.999999
vn 0.000704 0.000621 -1.000000
vn 0.001211 0.000030 -0.999999
vn 0.001292 -0.000057 -0.999999
vn 0.001086 0.000188 -0.999999
vn 0.001346 -0.000168 -0.999999
vn 0.001328 -0.000137 -0.999999
vn 0.001020 0.000119 -0.999999
vn 0.001002 0.000128 -0.999999
vn 0.001143 0.000166 -0.999999
vn 0.001318 -0.000043 -0.999999
vn 0.000994 0.000133 -1.000000
vn 0.001240 0.000000 -0.999999
vn 0.001236 -0.000000 -0.999999
vn 0.001240 0.000001 -0.999999
vn 0.001236 0.000006 -0.999999
vn 0.001243 -0.000007 -0.999999
vn 0.001232 -0.000004 -0.999999
vn 0.001235 -0.000002 -0.999999
vn 0.001241 0.000002 -0.999999
vn 0.001220 -0.000011 -0.999999
vn 0.001677 -0.000176 -0.999999
vn 0.001329 -0.000049 -0.999999
vn 0.001238 0.000000 -0.999999
vn 0.001083 0.000077 -0.999999
vn 0.001371 -0.000062 -0.999999
vn 0.001121 0.000051 -0.999999
vn 0.001351 -0.000046 -0.999999
vn 0.001337 -0.000657 -0.999999
vn 0.001206 0.000384 -0.999999
vn 0.001282 -0.000369 -0.999999
vn 0.001209 0.000213 -0.999999
vn 0.002455 0.000061 -0.999997
vn 0.000819 -0.000020 -1.000000
vn 0.001303 0.000723 -0.999999
vn 0.001224 -0.000324 -0.999999
vn 0.000822 -0.000020 -1.000000
vn 0.001475 0.000012 -0.999999
vn 0.001328 0.000597 -0.999999
vn 0.000859 -0.000097 -1.000000
vn 0.002455 0.000309 -0.999997
vn 0.001321 0.000008 -0.999999
vn 0.001381 0.000462 -0.999999
vn 0.001229 0.000002 -0.999999
vn 0.001117 -0.000012 -0.999999
vn 0.001242 0.000038 -0.999999
vn 0.001200 -0.000126 -0.999999
vn 0.001370 0.000424 -0.999999
vn 0.001232 -0.000018 -0.999999
vn 0.001213 -0.000115 -0.999999
vn 0.000976 -0.000141 -1.000000
vn 0.001334 0.000041 -0.999999
vn 0.001246 -0.000001 -0.999999
vn 0.000994 -0.000133 -0.999999
vn 0.001318 0.000123 -0.999999
vn 0.001041 -0.000306 -0.999999
vn 0.000766 -0.000611 -0.999999
vn 0.001148 -0.000132 -0.999999
vn 0.001138 -0.000084 -0.999999
vn 0.001362 0.000102 -0.999999
vn 0.001129 -0.000093 -0.999999
vn 0.001240 0.000006 -0.999999
vn 0.001240 0.000007 -0.999999
vn 0.001233 -0.000000 -0.999999
vn 0.001274 0.000053 -0.999999
vn 0.001159 -0.000066 -0.999999
vn 0.001239 0.000000 -0.999999
vn -0.999719 0.000000 0.023694
vn -0.999719 0.000000 0.023694
vn -0.997296 0.000000 0.073494
vn -0.997296 0.000000 0.073494
vn -0.992392 0.000000 0.123118
vn -0.992392 0.000000 0.123117
vn -0.985022 0.000000 0.172427
vn -0.985022 0.000000 0.172428
vn -0.975202 0.000000 0.221315
vn -0.962959 0.000000 0.269649
vn -0.975202 0.000000 0.221315
vn -0.962959 0.000000 0.269649
vn -0.948323 0.000000 0.317306
vn -0.948323 0.000000 0.317305
vn -0.931327 0.000000 0.364185
vn -0.931327 0.000000 0.364185
vn -0.912010 0.000000 0.410167
vn -0.890438 0.000000 0.455104
vn -0.912010 0.000000 0.410167
vn -0.890438 0.000000 0.455104
vn -0.866638 0.000000 0.498938
vn -0.866638 0.000000 0.498938
vn -0.840689 0.000000 0.541519
vn -0.840689 0.000000 0.541519
vn -0.812666 0.000000 0.582729
vn -0.812666 0.000000 0.582730
vn -0.782604 0.000000 0.622520
vn -0.782604 0.000000 0.622520
vn -0.750607 0.000000 0.660749
vn -0.750607 0.000000 0.660749
vn -0.716720 0.000000 0.697361
vn -0.716721 0.000000 0.697360
vn -0.681083 0.000000 0.732206
vn -0.681083 0.000000 0.732206
vn -0.643746 0.000000 0.765239
vn -0.643746 0.000000 0.765239
vn -0.604787 0.000000 0.796387
vn -0.604787 0.000000 0.796387
vn -0.564347 0.000000 0.825538
vn -0.564348 0.000000 0.825537
vn -0.522487 0.000000 0.852647
vn -0.522487 0.000000 0.852647
vn -0.479321 0.000000 0.877640
vn -0.479321 0.000000 0.877640
vn -0.435036 0.000000 0.900413
vn -0.435036 0.000000 0.900413
vn -0.389553 0.000000 0.921004
vn -0.343158 0.000000 0.939278
vn -0.389552 0.000000 0.921004
vn -0.343158 0.000000 0.939278
vn -0.295945 0.000000 0.955205
vn -0.295945 0.000000 0.955205
vn -0.247999 0.000000 0.968760
vn -0.247999 0.000000 0.968760
vn -0.199325 0.000000 0.979933
vn -0.199325 0.000000 0.979933
vn -0.150278 0.000000 0.988644
vn -0.150278 0.000000 0.988644
vn -0.100825 0.000000 0.994904
vn -0.100825 0.000000 0.994904
vn -0.051045 0.000000 0.998696
vn -0.051045 0.000000 0.998696
vn -0.001224 0.000000 0.999999
vn -0.001224 0.000000 0.999999
vn 0.048597 -0.000000 0.998818
vn 0.048597 -0.000000 0.998818
vn 0.098295 -0.000000 0.995157
vn 0.098295 -0.000000 0.995157
vn 0.147830 -0.000000 0.989013
vn 0.196956 -0.000000 0.980412
vn 0.147830 -0.000000 0.989013
vn 0.196956 -0.000000 0.980412
vn 0.245554 -0.000000 0.969383
vn 0.245554 -0.000000 0.969383
vn 0.293578 -0.000000 0.955935
vn 0.293578 -0.000000 0.955935
vn 0.340869 -0.000000 0.940111
vn 0.340869 -0.000000 0.940111
vn 0.387268 -0.000000 0.921967
vn 0.387268 -0.000000 0.921967
vn 0.432761 -0.000000 0.901509
vn 0.432761 -0.000000 0.901509
vn 0.477188 -0.000000 0.878802
vn 0.477187 -0.000000 0.878802
vn 0.520368 -0.000000 0.853942
vn 0.520367 -0.000000 0.853943
vn 0.562305 -0.000000 0.826930
vn 0.562305 -0.000000 0.826930
vn 0.602823 -0.000000 0.797875
vn 0.602823 -0.000000 0.797875
vn 0.641813 -0.000000 0.766861
vn 0.641813 -0.000000 0.766862
vn 0.679279 -0.000000 0.733880
vn 0.679279 -0.000000 0.733880
vn 0.714999 -0.000000 0.699125
vn 0.714999 -0.000000 0.699125
vn 0.748971 -0.000000 0.662602
vn 0.748971 -0.000000 0.662602
vn 0.781058 -0.000000 0.624458
vn 0.781058 -0.000000 0.624458
vn 0.811213 -0.000000 0.584751
vn 0.811213 -0.000000 0.584751
vn 0.839356 -0.000000 0.543581
vn 0.839356 -0.000000 0.543581
vn 0.865403 -0.000000 0.501077
vn 0.865403 -0.000000 0.501077
vn 0.889307 -0.000000 0.457311
vn 0.910992 -0.000000 0.412425
vn 0.889307 -0.000000 0.457311
vn 0.910992 -0.000000 0.412425
vn 0.930423 -0.000000 0.366487
vn 0.930423 -0.000000 0.366487
vn 0.947532 -0.000000 0.319660
vn 0.962289 -0.000000 0.272029
vn 0.947532 -0.000000 0.319660
vn 0.962289 -0.000000 0.272027
vn 0.974651 -0.000000 0.223732
vn 0.974650 -0.000000 0.223734
vn 0.984593 -0.000000 0.174862
vn 0.984593 -0.000000 0.174862
vn 0.992084 -0.000000 0.125576
vn 0.992084 -0.000000 0.125576
vn 0.997111 -0.000000 0.075961
vn 0.997111 -0.000000 0.075961
vn 0.999658 -0.000000 0.026168
vn 0.999658 -0.000000 0.026168
vn 0.999719 -0.000000 -0.023693
vn 0.999719 -0.000000 -0.023693
vn 0.997295 -0.000000 -0.073497
vn 0.997295 -0.000000 -0.073497
vn 0.992393 -0.000000 -0.123113
vn 0.992393 -0.000000 -0.123113
vn 0.985022 -0.000000 -0.172428
vn 0.985022 -0.000000 -0.172428
vn 0.975203 -0.000000 -0.221314
vn 0.975203 -0.000000 -0.221314
vn 0.962958 -0.000000 -0.269650
vn 0.962958 -0.000000 -0.269650
vn 0.948324 -0.000000 -0.317304
vn 0.948324 -0.000000 -0.317304
vn 0.931321 -0.000000 -0.364200
vn 0.931321 -0.000000 -0.364199
vn 0.912010 -0.000000 -0.410167
vn 0.912010 -0.000000 -0.410167
vn 0.890438 -0.000000 -0.455104
vn 0.890439 -0.000000 -0.455103
vn 0.866648 -0.000000 -0.498921
vn 0.866648 -0.000000 -0.498921
vn 0.840700 -0.000000 -0.541501
vn 0.840701 -0.000000 -0.541500
vn 0.812652 -0.000000 -0.582749
vn 0.812652 -0.000000 -0.582750
vn 0.782604 -0.000000 -0.622520
vn 0.782604 -0.000000 -0.622520
vn 0.750589 -0.000000 -0.660769
vn 0.750590 -0.000000 -0.660769
vn 0.716760 -0.000000 -0.697320
vn 0.716760 -0.000000 -0.697320
vn 0.681062 -0.000000 -0.732226
vn 0.681062 -0.000000 -0.732226
vn 0.643745 -0.000000 -0.765240
vn 0.643745 -0.000000 -0.765240
vn 0.604787 -0.000000 -0.796387
vn 0.604787 -0.000000 -0.796387
vn 0.564319 -0.000000 -0.825557
vn 0.564319 -0.000000 -0.825557
vn 0.522517 -0.000000 -0.852629
vn 0.522516 -0.000000 -0.852629
vn 0.479352 -0.000000 -0.877622
vn 0.434970 -0.000000 -0.900445
vn 0.479353 -0.000000 -0.877622
vn 0.434969 -0.000000 -0.900445
vn 0.389587 -0.000000 -0.920990
vn 0.343194 -0.000000 -0.939264
vn 0.389587 -0.000000 -0.920990
vn 0.343194 -0.000000 -0.939264
vn 0.295945 -0.000000 -0.955205
vn 0.295945 -0.000000 -0.955205
vn 0.247923 -0.000000 -0.968780
vn 0.247923 -0.000000 -0.968780
vn 0.199404 -0.000000 -0.979917
vn 0.199404 -0.000000 -0.979917
vn 0.150238 -0.000000 -0.988650
vn 0.150238 -0.000000 -0.988650
vn 0.100784 -0.000000 -0.994908
vn 0.100784 -0.000000 -0.994908
vn 0.051086 -0.000000 -0.998694
vn 0.051086 -0.000000 -0.998694
vn 0.001224 -0.000000 -0.999999
vn 0.001224 -0.000000 -0.999999
vn -0.048597 0.000000 -0.998818
vn -0.048597 0.000000 -0.998818
vn -0.098336 0.000000 -0.995153
vn -0.098336 0.000000 -0.995153
vn -0.147790 0.000000 -0.989019
vn -0.147790 0.000000 -0.989019
vn -0.196956 0.000000 -0.980412
vn -0.245554 0.000000 -0.969383
vn -0.196956 0.000000 -0.980412
vn -0.245554 0.000000 -0.969383
vn -0.293578 0.000000 -0.955935
vn -0.340833 0.000000 -0.940124
vn -0.293578 0.000000 -0.955935
vn -0.340833 0.000000 -0.940124
vn -0.387302 0.000000 -0.921953
vn -0.432761 0.000000 -0.901509
vn -0.387303 0.000000 -0.921953
vn -0.432761 0.000000 -0.901509
vn -0.477156 0.000000 -0.878819
vn -0.477156 0.000000 -0.878819
vn -0.520427 0.000000 -0.853906
vn -0.520427 0.000000 -0.853906
vn -0.562250 0.000000 -0.826967
vn -0.602823 0.000000 -0.797875
vn -0.562250 0.000000 -0.826967
vn -0.602823 0.000000 -0.797875
vn -0.641861 0.000000 -0.766821
vn -0.641861 0.000000 -0.766821
vn -0.679257 0.000000 -0.733901
vn -0.715018 0.000000 -0.699106
vn -0.679258 0.000000 -0.733900
vn -0.715018 0.000000 -0.699106
vn -0.748954 0.000000 -0.662622
vn -0.748954 0.000000 -0.662622
vn -0.781057 0.000000 -0.624459
vn -0.781057 0.000000 -0.624459
vn -0.811213 0.000000 -0.584751
vn -0.811213 0.000000 -0.584751
vn -0.839345 0.000000 -0.543600
vn -0.839345 0.000000 -0.543600
vn -0.865414 0.000000 -0.501058
vn -0.865414 0.000000 -0.501058
vn -0.889306 0.000000 -0.457312
vn -0.889306 0.000000 -0.457312
vn -0.910999 0.000000 -0.412408
vn -0.910999 0.000000 -0.412408
vn -0.930417 0.000000 -0.366502
vn -0.930417 0.000000 -0.366502
vn -0.947532 0.000000 -0.319660
vn -0.947532 0.000000 -0.319660
vn -0.962289 0.000000 -0.272027
vn -0.974651 0.000000 -0.223732
vn -0.962289 0.000000 -0.272027
vn -0.974651 0.000000 -0.223732
vn -0.984593 0.000000 -0.174862
vn -0.984593 0.000000 -0.174862
vn -0.992085 0.000000 -0.125571
vn -0.992085 0.000000 -0.125571
vn -0.997111 0.000000 -0.075964
vn -0.997111 0.000000 -0.075964
vn -0.999658 0.000000 -0.026169
vn -0.999658 0.000000 -0.026169
vn 0.000000 1.000000 0.000000
vn 0.000000 1.000000 0.000000
vn 0.000000 1.000000 0.000000
vn 0.000000 1.000000 0.000000
vn 0.000000 1.000000 0.000000
vn 0.000000 1.000000 0.000000
vn 0.000000 1.000000 0.000000
vn 0.000000 1.000000 0.000000
vn 0.000000 1.000000 0.000000
vn 0.000000 1.000000 0.000000
vn 0.000000 1.000000 0.000000
vn 0.000000 1.000000 0.000000
vn 0.000000 1.000000 0.000000
vn 0.000000 1.000000 0.000000
vn 0.000000 1.000000 0.000000
vn 0.000000 1.000000 0.000000
vn 0.000000 1.000000 0.000000
vn 0.000000 1.000000 0.000000
vn 0.000000 1.000000 0.000000
vn 0.000000 1.000000 0.000000
vn 0.000000 1.000000 0.000000
vn 0.000000 1.000000 0.000000
vn 0.000000 1.000000 0.000000
vn 0.000000 1.000000 0.000000
vn 0.000000 1.000000 0.000000
vn 0.000000 1.000000 0.000000
vn 0.000000 1.000000 0.000000
vn 0.000000 1.000000 0.000000
vn 0.000000 1.000000 0.000000
vn 0.000000 1.000000 0.000000
vn 0.000000 1.000000 0.000000
vn 0.000000 1.000000 0.000000
vn 0.000000 1.000000 0.000000
vn 0.000000 1.000000 0.000000
vn 0.000000 1.000000 0.000000
vn 0.000000 1.000000 0.000000
vn 0.000000 1.000000 0.000000
vn 0.000000 1.000000 0.000000
vn 0.000000 1.000000 0.000000
vn 0.000000 1.000000 0.000000
vn 0.000000 1.000000 0.000000
vn 0.000000 1.000000 0.000000
vn 0.000000 1.000000 0.000000
vn 0.000000 1.000000 0.000000
vn 0.000000 1.000000 0.000000
vn 0.000000 1.000000 0.000000
vn 0.000000 1.000000 0.000000
vn 0.000000 1.000000 0.000000
vn 0.000000 1.000000 0.000000
vn 0.000000 1.000000 0.000000
vn 0.000000 1.000000 0.000000
vn 0.000000 1.000000 0.000000
vn 0.000000 1.000000 0.000000
vn 0.000000 1.000000 0.000000
vn 0.000000 1.000000 0.000000
vn 0.000000 1.000000 0.000000
vn 0.000000 1.000000 0.000000
vn 0.000000 1.000000 0.000000
vn 0.000000 1.000000 0.000000
vn 0.000000 1.000000 0.000000
vn 0.000000 1.000000 0.000000
vn 0.000000 1.000000 0.000000
vn 0.000000 1.000000 0.000000
vn 0.000000 1.000000 0.000000
vn 0.000000 1.000000 0.000000
vn 0.000000 1.000000 0.000000
vn 0.000000 1.000000 0.000000
vn 0.000000 1.000000 0.000000
vn 0.000000 1.000000 0.000000
vn 0.000000 1.000000 0.000000
vn 0.000000 1.000000 0.000000
vn 0.000000 1.000000 0.000000
vn 0.000000 1.000000 0.000000
vn 0.000000 1.000000 0.000000
vn 0.000000 1.000000 0.000000
vn 0.000000 1.000000 0.000000
vn 0.000000 1.000000 0.000000
vn 0.000000 1.000000 0.000000
vn 0.000000 1.000000 0.000000
vn 0.000000 1.000000 0.000000
vn 0.000000 1.000000 0.000000
vn 0.000000 1.000000 0.000000
vn 0.000000 1.000000 0.000000
vn 0.000000 1.000000 0.000000
vn 0.000000 1.000000 0.000000
vn 0.000000 1.000000 0.000000
vn 0.000000 1.000000 0.000000
vn 0.000000 1.000000 0.000000
vn 0.000000 1.000000 0.000000
vn 0.000000 1.000000 0.000000
vn 0.000000 1.000000 0.000000
vn 0.000000 1.000000 0.000000
vn 0.000000 1.000000 0.000000
vn 0.000000 1.000000 0.000000
vn 0.000000 1.000000 0.000000
vn 0.000000 1.000000 0.000000
vn 0.000000 1.000000 0.000000
vn 0.000000 1.000000 0.000000
vn 0.000000 1.000000 0.000000
vn 0.000000 1.000000 0.000000
vn 0.000000 1.000000 0.000000
vn 0.000000 1.000000 0.000000
vn 0.000000 1.000000 0.000000
vn 0.000000 1.000000 0.000000
vn 0.000000 1.000000 0.000000
vn 0.000000 1.000000 0.000000
vn 0.000000 1.000000 0.000000
vn 0.000000 1.000000 0.000000
vn 0.000000 1.000000 0.000000
vn 0.000000 1.000000 0.000000
vn 0.000000 1.000000 0.000000
vn 0.000000 1.000000 0.000000
vn 0.000000 1.000000 0.000000
vn 0.000000 1.000000 0.000000
vn 0.000000 1.000000 0.000000
vn 0.000000 1.000000 0.000000
vn 0.000000 1.000000 0.000000
vn 0.000000 1.000000 0.000000
vn 0.000000 1.000000 0.000000
vn 0.000000 1.000000 0.000000
vn 0.000000 1.000000 0.000000
vn 0.000000 1.000000 0.000000
vn 0.000000 1.000000 0.000000
vn 0.000000 1.000000 0.000000
f 1//1 2//1 3//1
f 3//2 4//2 1//2
f 1//3 5//3 2//3
f 4//4 6//4 1//4
f 1//5 7//5 5//5
f 6//6 8//6 1//6
f 1//7 9//7 7//7
f 8//8 10//8 1//8
f 1//9 11//9 9//9
f 10//10 12//10 1//10
f 1//11 13//11 11//11
f 12//12 14//12 1//12
f 1//13 15//13 13//13
f 14//14 16//14 1//14
f 1//15 17//15 15//15
f 16//16 18//16 1//16
f 1//17 19//17 17//17
f 18//18 20//18 1//18
f 1//19 21//19 19//19
f 20//20 22//20 1//20
f 1//21 23//21 21//21
f 22//22 24//22 1//22
f 1//23 25//23 23//23
f 24//24 26//24 1//24
f 1//25 27//25 25//25
f 26//26 28//26 1//26
f 1//27 29//27 27//27
f 28//28 30//28 1//28
f 1//29 31//29 29//29
f 30//30 32//30 1//30
f 1//31 33//31 31//31
f 34//32 35//32 36//32
f 37//33 35//33 34//33
f 38//34 35//34 37//34
f 39//35 35//35 38//35
f 40//36 35//36 39//36
f 41//37 35//37 40//37
f 42//38 35//38 41//38
f 43//39 35//39 42//39
f 44//40 35//40 43//40
f 45//41 35//41 44//41
f 46//42 35//42 45//42
f 47//43 35//43 46//43
f 48//44 35//44 47//44
f 49//45 35//45 48//45
f 32//46 35//46 1//46
f 50//47 35//47 32//47
f 36//48 35//48 50//48
f 51//49 52//49 53//49
f 54//50 52//50 51//50
f 55//51 52//51 54//51
f 56//52 52//52 55//52
f 57//53 52//53 56//53
f 58//54 52//54 57//54
f 59//55 52//55 58//55
f 60//56 52//56 59//56
f 61//57 52//57 60//57
f 62//58 52//58 61//58
f 63//59 52//59 62//59
f 64//60 52//60 63//60
f 65//61 52//61 64//61
f 66//62 52//62 65//62
f 33//63 52//63 66//63
f 1//64 52//64 33//64
f 52//65 67//65 53//65
f 49//66 68//66 35//66
f 52//67 69//67 67//67
f 68//68 70//68 35//68
f 52//69 71//69 69//69
f 70//70 72//70 35//70
f 52//71 73//71 71//71
f 72//72 74//72 35//72
f 52//73 75//73 73//73
f 74//74 76//74 35//74
f 52//75 77//75 75//75
f 76//76 78//76 35//76
f 52//77 79//77 77//77
f 78//78 80//78 35//78
f 52//79 81//79 79//79
f 80//80 82//80 35//80
f 52//81 83//81 81//81
f 82//82 84//82 35//82
f 52//83 85//83 83//83
f 84//84 86//84 35//84
f 52//85 87//85 85//85
f 86//86 88//86 35//86
f 52//87 89//87 87//87
f 88//88 90//88 35//88
f 52//89 91//89 89//89
f 90//90 92//90 35//90
f 52//91 93//91 91//91
f 92//92 94//92 35//92
f 52//93 95//93 93//93
f 94//94 96//94 35//94
f 96//95 97//95 35//95
f 98//96 99//96 97//96
f 100//97 99//97 98//97
f 101//98 99//98 100//98
f 102//99 99//99 101//99
f 103//100 99//100 102//100
f 104//101 99//101 103//101
f 105//102 99//102 104//102
f 106//103 99//103 105//103
f 107//104 99//104 106//104
f 108//105 99//105 107//105
f 109//106 99//106 108//106
f 110//107 99//107 109//107
f 111//108 99//108 110//108
f 112//109 99//109 111//109
f 113//110 99//110 112//110
f 114//111 99//111 113//111
f 115//112 99//112 114//112
f 116//113 99//113 115//113
f 117//114 99//114 116//114
f 118//115 99//115 117//115
f 97//116 99//116 35//116
f 119//117 99//117 118//117
f 120//118 99//118 119//118
f 121//119 99//119 120//119
f 122//120 99//120 121//120
f 123//121 99//121 122//121
f 124//122 99//122 123//122
f 125//123 99//123 124//123
f 126//124 99//124 125//124
f 127//125 99//125 126//125
f 128//126 99//126 127//126
f 52//127 99//127 129//127
f 52//128 129//128 95//128
f 129//129 99//129 130//129
f 130//130 99//130 128//130
f 131//131 132//131 133//131
f 134//132 135//132 136//132
f 137//133 131//133 135//133
f 137//134 135//134 134//134
f 138//135 132//135 131//135
f 138//136 131//136 137//136
f 139//137 138//137 140//137
f 141//138 142//138 143//138
f 141//139 143//139 144//139
f 145//140 142//140 141//140
f 145//141 146//141 142//141
f 147//142 146//142 145//142
f 147//143 139//143 148//143
f 147//144 148//144 146//144
f 147//145 145//145 149//145
f 147//146 132//146 138//146
f 147//147 138//147 139//147
f 150//148 132//148 147//148
f 150//149 147//149 151//149
f 150//150 151//150 152//150
f 153//151 150//151 154//151
f 155//152 150//152 153//152
f 156//153 132//153 150//153
f 156//154 150//154 155//154
f 157//155 132//155 156//155
f 158//156 132//156 157//156
f 159//157 158//157 160//157
f 161//158 99//158 52//158
f 161//159 52//159 132//159
f 162//160 132//160 158//160
f 162//161 158//161 159//161
f 162//162 159//162 163//162
f 162//163 163//163 164//163
f 162//164 164//164 165//164
f 166//165 167//165 168//165
f 166//166 168//166 161//166
f 169//167 161//167 132//167
f 169//168 166//168 161//168
f 170//169 162//169 171//169
f 170//170 171//170 172//170
f 170//171 172//171 173//171
f 174//172 169//172 132//172
f 174//173 175//173 176//173
f 174//174 176//174 177//174
f 174//175 177//175 169//175
f 178//176 170//176 179//176
f 178//177 132//177 162//177
f 178//178 179//178 180//178
f 178//179 162//179 170//179
f 181//180 132//180 178//180
f 182//181 183//181 174//181
f 182//182 174//182 132//182
f 184//183 182//183 132//183
f 185//184 181//184 186//184
f 187//185 184//185 132//185
f 188//186 181//186 185//186
f 189//187 187//187 132//187
f 190//188 181//188 188//188
f 191//189 181//189 190//189
f 192//190 193//190 189//190
f 194//191 132//191 181//191
f 194//192 189//192 132//192
f 194//193 192//193 189//193
f 194//194 181//194 191//194
f 195//195 196//195 197//195
f 52//196 195//196 132//196
f 1//197 195//197 52//197
f 1//198 196//198 195//198
f 1//199 198//199 196//199
f 35//200 198//200 1//200
f 199//201 35//201 99//201
f 199//202 99//202 161//202
f 198//203 199//203 200//203
f 198//204 35//204 199//204
f 98//205 97//205 201//205
f 98//206 201//206 202//206
f 100//207 202//207 203//207
f 100//208 98//208 202//208
f 101//209 203//209 204//209
f 101//210 100//210 203//210
f 102//211 204//211 205//211
f 102//212 101//212 204//212
f 103//213 205//213 206//213
f 103//214 206//214 207//214
f 103//215 102//215 205//215
f 104//216 207//216 208//216
f 104//217 103//217 207//217
f 105//218 208//218 209//218
f 105//219 104//219 208//219
f 106//220 105//220 209//220
f 107//221 209//221 210//221
f 107//222 106//222 209//222
f 108//223 210//223 211//223
f 108//224 107//224 210//224
f 109//225 108//225 211//225
f 109//226 211//226 212//226
f 110//227 109//227 212//227
f 110//228 212//228 213//228
f 111//229 110//229 213//229
f 111//230 213//230 214//230
f 112//231 111//231 214//231
f 112//232 214//232 215//232
f 112//233 215//233 216//233
f 113//234 112//234 216//234
f 114//235 113//235 216//235
f 114//236 216//236 217//236
f 115//237 217//237 218//237
f 115//238 114//238 217//238
f 116//239 218//239 219//239
f 116//240 115//240 218//240
f 117//241 219//241 220//241
f 117//242 116//242 219//242
f 118//243 220//243 221//243
f 118//244 117//244 220//244
f 119//245 221//245 222//245
f 119//246 118//246 221//246
f 120//247 222//247 223//247
f 120//248 119//248 222//248
f 121//249 223//249 224//249
f 121//250 224//250 225//250
f 121//251 120//251 223//251
f 122//252 121//252 225//252
f 123//253 225//253 226//253
f 123//254 122//254 225//254
f 124//255 226//255 227//255
f 124//256 123//256 226//256
f 125//257 227//257 228//257
f 125//258 124//258 227//258
f 126//259 228//259 229//259
f 126//260 125//260 228//260
f 127//261 229//261 230//261
f 127//262 126//262 229//262
f 128//263 230//263 231//263
f 128//264 127//264 230//264
f 130//265 231//265 232//265
f 130//266 128//266 231//266
f 129//267 232//267 233//267
f 129//268 130//268 232//268
f 95//269 233//269 234//269
f 95//270 129//270 233//270
f 93//271 234//271 235//271
f 93//272 95//272 234//272
f 91//273 235//273 236//273
f 91//274 93//274 235//274
f 89//275 236//275 237//275
f 89//276 237//276 238//276
f 89//277 91//277 236//277
f 87//278 89//278 238//278
f 85//279 87//279 238//279
f 85//280 238//280 239//280
f 85//281 239//281 240//281
f 83//282 85//282 240//282
f 81//283 83//283 240//283
f 81//284 240//284 241//284
f 79//285 81//285 241//285
f 79//286 241//286 242//286
f 79//287 242//287 243//287
f 77//288 79//288 243//288
f 77//289 243//289 244//289
f 75//290 77//290 244//290
f 73//291 75//291 244//291
f 73//292 244//292 245//292
f 73//293 245//293 246//293
f 71//294 73//294 246//294
f 71//295 246//295 247//295
f 69//296 71//296 247//296
f 69//297 247//297 248//297
f 67//298 69//298 248//298
f 53//299 248//299 249//299
f 53//300 67//300 248//300
f 53//301 249//301 250//301
f 51//302 53//302 250//302
f 54//303 51//303 250//303
f 54//304 250//304 251//304
f 55//305 251//305 252//305
f 55//306 54//306 251//306
f 56//307 252//307 253//307
f 56//308 253//308 254//308
f 56//309 55//309 252//309
f 57//310 56//310 254//310
f 58//311 254//311 255//311
f 58//312 57//312 254//312
f 59//313 255//313 256//313
f 59//314 256//314 257//314
f 59//315 58//315 255//315
f 60//316 257//316 258//316
f 60//317 59//317 257//317
f 61//318 60//318 258//318
f 62//319 258//319 259//319
f 62//320 61//320 258//320
f 63//321 259//321 260//321
f 63//322 62//322 259//322
f 64//323 260//323 261//323
f 64//324 63//324 260//324
f 65//325 261//325 262//325
f 65//326 64//326 261//326
f 66//327 65//327 262//327
f 66//328 262//328 263//328
f 33//329 66//329 263//329
f 33//330 263//330 264//330
f 31//331 33//331 264//331
f 31//332 264//332 265//332
f 29//333 31//333 265//333
f 29//334 265//334 266//334
f 27//335 29//335 266//335
f 27//336 266//336 267//336
f 25//337 27//337 267//337
f 25//338 267//338 268//338
f 23//339 25//339 268//339
f 23//340 268//340 269//340
f 23//341 269//341 270//341
f 21//342 23//342 270//342
f 19//343 21//343 270//343
f 19//344 270//344 271//344
f 17//345 19//345 271//345
f 17//346 271//346 272//346
f 15//347 17//347 272//347
f 15//348 272//348 273//348
f 13//349 15//349 273//349
f 13//350 273//350 274//350
f 11//351 13//351 274//351
f 11//352 274//352 275//352
f 11//353 275//353 276//353
f 9//354 11//354 276//354
f 7//355 9//355 276//355
f 7//356 276//356 277//356
f 5//357 7//357 277//357
f 5//358 277//358 278//358
f 5//359 278//359 279//359
f 2//360 5//360 279//360
f 3//361 2//361 279//361
f 3//362 279//362 280//362
f 3//363 280//363 281//363
f 4//364 3//364 281//364
f 6//365 4//365 281//365
f 6//366 281//366 282//366
f 8//367 6//367 282//367
f 8//368 282//368 283//368
f 8//369 283//369 284//369
f 10//370 8//370 284//370
f 12//371 284//371 285//371
f 12//372 285//372 286//372
f 12//373 10//373 284//373
f 14//374 12//374 286//374
f 16//375 286//375 287//375
f 16//376 287//376 288//376
f 16//377 14//377 286//377
f 18//378 16//378 288//378
f 20//379 18//379 288//379
f 20//380 288//380 289//380
f 22//381 20//381 289//381
f 22//382 289//382 290//382
f 22//383 290//383 291//383
f 24//384 22//384 291//384
f 26//385 24//385 291//385
f 26//386 291//386 292//386
f 28//387 26//387 292//387
f 28//388 292//388 293//388
f 28//389 293//389 294//389
f 30//390 28//390 294//390
f 32//391 30//391 294//391
f 32//392 294//392 295//392
f 32//393 295//393 296//393
f 50//394 32//394 296//394
f 36//395 50//395 296//395
f 36//396 296//396 297//396
f 36//397 297//397 298//397
f 34//398 36//398 298//398
f 34//399 298//399 299//399
f 37//400 34//400 299//400
f 37//401 299//401 300//401
f 38//402 37//402 300//402
f 39//403 300//403 301//403
f 39//404 301//404 302//404
f 39//405 38//405 300//405
f 40//406 39//406 302//406
f 41//407 302//407 303//407
f 41//408 40//408 302//408
f 42//409 303//409 304//409
f 42//410 304//410 305//410
f 42//411 41//411 303//411
f 43//412 42//412 305//412
f 44//413 305//413 306//413
f 44//414 43//414 305//414
f 45//415 306//415 307//415
f 45//416 307//416 308//416
f 45//417 44//417 306//417
f 46//418 45//418 308//418
f 47//419 308//419 309//419
f 47//420 46//420 308//420
f 48//421 309//421 310//421
f 48//422 310//422 311//422
f 48//423 47//423 309//423
f 49//424 311//424 312//424
f 49//425 48//425 311//425
f 68//426 312//426 313//426
f 68//427 49//427 312//427
f 70//428 68//428 313//428
f 70//429 313//429 314//429
f 72//430 70//430 314//430
f 72//431 314//431 315//431
f 74//432 72//432 315//432
f 76//433 74//433 315//433
f 76//434 315//434 316//434
f 78//435 76//435 316//435
f 78//436 316//436 317//436
f 80//437 317//437 318//437
f 80//438 78//438 317//438
f 82//439 318//439 319//439
f 82//440 80//440 318//440
f 84//441 319//441 320//441
f 84//442 82//442 319//442
f 86//443 320//443 321//443
f 86//444 321//444 322//444
f 86//445 84//445 320//445
f 88//446 86//446 322//446
f 90//447 322//447 323//447
f 90//448 323//448 324//448
f 90//449 88//449 322//449
f 92//450 90//450 324//450
f 94//451 324//451 325//451
f 94//452 92//452 324//452
f 96//453 325//453 326//453
f 96//454 94//454 325//454
f 97//455 326//455 201//455
f 97//456 96//456 326//456
f 133//457 132//457 195//457
f 133//458 195//458 327//458
f 131//459 327//459 328//459
f 131//460 133//460 327//460
f 135//461 328//461 329//461
f 135//462 131//462 328//462
f 136//463 329//463 330//463
f 136//464 135//464 329//464
f 134//465 330//465 331//465
f 134//466 331//466 332//466
f 134//467 136//467 330//467
f 137//468 134//468 332//468
f 138//469 332//469 333//469
f 138//470 137//470 332//470
f 140//471 333//471 334//471
f 140//472 138//472 333//472
f 139//473 334//473 335//473
f 139//474 335//474 336//474
f 139//475 140//475 334//475
f 148//476 139//476 336//476
f 146//477 336//477 337//477
f 146//478 148//478 336//478
f 142//479 337//479 338//479
f 142//480 146//480 337//480
f 143//481 338//481 339//481
f 143//482 142//482 338//482
f 144//483 339//483 340//483
f 144//484 143//484 339//484
f 141//485 340//485 341//485
f 141//486 144//486 340//486
f 145//487 341//487 342//487
f 145//488 141//488 341//488
f 149//489 342//489 343//489
f 149//490 145//490 342//490
f 147//491 343//491 344//491
f 147//492 149//492 343//492
f 151//493 147//493 344//493
f 151//494 344//494 345//494
f 152//495 151//495 345//495
f 152//496 345//496 346//496
f 150//497 152//497 346//497
f 150//498 346//498 347//498
f 154//499 150//499 347//499
f 154//500 347//500 348//500
f 153//501 348//501 349//501
f 153//502 154//502 348//502
f 155//503 349//503 350//503
f 155//504 153//504 349//504
f 155//505 350//505 351//505
f 156//506 155//506 351//506
f 157//507 351//507 352//507
f 157//508 156//508 351//508
f 158//509 352//509 353//509
f 158//510 157//510 352//510
f 160//511 353//511 354//511
f 160//512 158//512 353//512
f 159//513 354//513 355//513
f 159//514 160//514 354//514
f 163//515 355//515 356//515
f 163//516 159//516 355//516
f 164//517 356//517 357//517
f 164//518 163//518 356//518
f 165//519 357//519 358//519
f 165//520 164//520 357//520
f 162//521 358//521 359//521
f 162//522 165//522 358//522
f 171//523 359//523 360//523
f 171//524 162//524 359//524
f 172//525 360//525 361//525
f 172//526 361//526 362//526
f 172//527 171//527 360//527
f 173//528 172//528 362//528
f 170//529 362//529 363//529
f 170//530 173//530 362//530
f 179//531 363//531 364//531
f 179//532 170//532 363//532
f 180//533 364//533 365//533
f 180//534 179//534 364//534
f 178//535 365//535 366//535
f 178//536 180//536 365//536
f 181//537 366//537 367//537
f 181//538 178//538 366//538
f 186//539 367//539 368//539
f 186//540 368//540 369//540
f 186//541 181//541 367//541
f 185//542 186//542 369//542
f 188//543 185//543 369//543
f 188//544 369//544 370//544
f 188//545 370//545 371//545
f 190//546 188//546 371//546
f 191//547 190//547 371//547
f 191//548 371//548 372//548
f 191//549 372//549 373//549
f 194//550 191//550 373//550
f 194//551 373//551 374//551
f 192//552 194//552 374//552
f 193//553 192//553 374//553
f 193//554 374//554 375//554
f 189//555 193//555 375//555
f 189//556 375//556 376//556
f 187//557 189//557 376//557
f 187//558 376//558 377//558
f 184//559 187//559 377//559
f 184//560 377//560 378//560
f 182//561 184//561 378//561
f 182//562 378//562 379//562
f 183//563 182//563 379//563
f 183//564 379//564 380//564
f 183//565 380//565 381//565
f 174//566 183//566 381//566
f 175//567 174//567 381//567
f 175//568 381//568 382//568
f 176//569 382//569 383//569
f 176//570 383//570 384//570
f 176//571 175//571 382//571
f 177//572 176//572 384//572
f 169//573 384//573 385//573
f 169//574 177//574 384//574
f 166//575 385//575 386//575
f 166//576 169//576 385//576
f 167//577 386//577 387//577
f 167//578 166//578 386//578
f 168//579 387//579 388//579
f 168//580 167//580 387//580
f 161//581 388//581 199//581
f 161//582 168//582 388//582
f 389//583 346//583 345//583
f 390//584 345//584 344//584
f 390//585 389//585 345//585
f 391//586 347//586 346//586
f 391//587 346//587 389//587
f 392//588 344//588 343//588
f 392//589 390//589 344//589
f 393//590 347//590 391//590
f 394//591 392//591 343//591
f 395//592 348//592 347//592
f 395//593 347//593 393//593
f 396//594 394//594 343//594
f 396//595 343//595 342//595
f 397//596 349//596 348//596
f 397//597 348//597 395//597
f 398//598 342//598 341//598
f 398//599 396//599 342//599
f 399//600 350//600 349//600
f 399//601 349//601 397//601
f 400//602 341//602 340//602
f 400//603 398//603 341//603
f 401//604 351//604 350//604
f 401//605 350//605 399//605
f 402//606 340//606 339//606
f 402//607 400//607 340//607
f 403//608 351//608 401//608
f 404//609 339//609 338//609
f 404//610 402//610 339//610
f 405//611 352//611 351//611
f 405//612 351//612 403//612
f 406//613 338//613 337//613
f 406//614 404//614 338//614
f 407//615 353//615 352//615
f 407//616 352//616 405//616
f 408//617 406//617 337//617
f 409//618 354//618 353//618
f 409//619 353//619 407//619
f 410//620 337//620 336//620
f 410//621 408//621 337//621
f 411//622 354//622 409//622
f 412//623 336//623 335//623
f 412//624 410//624 336//624
f 413//625 354//625 411//625
f 413//626 355//626 354//626
f 414//627 356//627 355//627
f 414//628 355//628 413//628
f 415//629 356//629 414//629
f 415//630 357//630 356//630
f 416//631 357//631 415//631
f 417//632 358//632 357//632
f 417//633 357//633 416//633
f 418//634 359//634 358//634
f 418//635 358//635 417//635
f 419//636 360//636 359//636
f 419//637 359//637 418//637
f 420//638 361//638 360//638
f 420//639 360//639 419//639
f 421//640 361//640 420//640
f 422//641 362//641 361//641
f 422//642 361//642 421//642
f 423//643 363//643 362//643
f 423//644 362//644 422//644
f 424//645 364//645 363//645
f 424//646 363//646 423//646
f 425//647 364//647 424//647
f 426//648 364//648 425//648
f 426//649 365//649 364//649
f 427//650 365//650 426//650
f 427//651 366//651 365//651
f 428//652 366//652 427//652
f 428//653 367//653 366//653
f 429//654 367//654 428//654
f 429//655 368//655 367//655
f 430//656 368//656 429//656
f 431//657 368//657 430//657
f 431//658 369//658 368//658
f 432//659 369//659 431//659
f 432//660 370//660 369//660
f 197//661 329//661 328//661
f 197//662 330//662 329//662
f 197//663 331//663 330//663
f 197//664 332//664 331//664
f 197//665 333//665 332//665
f 197//666 334//666 333//666
f 197//667 335//667 334//667
f 197//668 412//668 335//668
f 197//669 433//669 434//669
f 197//670 435//670 433//670
f 197//671 436//671 435//671
f 197//672 437//672 436//672
f 197//673 438//673 437//673
f 197//674 439//674 438//674
f 197//675 440//675 439//675
f 197//676 441//676 440//676
f 197//677 442//677 441//677
f 197//678 443//678 442//678
f 197//679 444//679 443//679
f 197//680 445//680 444//680
f 197//681 446//681 445//681
f 197//682 447//682 446//682
f 197//683 448//683 447//683
f 197//684 449//684 412//684
f 197//685 450//685 449//685
f 197//686 451//686 450//686
f 197//687 434//687 451//687
f 452//688 448//688 197//688
f 453//689 370//689 432//689
f 453//690 371//690 370//690
f 454//691 452//691 197//691
f 455//692 371//692 453//692
f 455//693 372//693 371//693
f 456//694 454//694 197//694
f 457//695 372//695 455//695
f 458//696 456//696 197//696
f 459//697 372//697 457//697
f 459//698 373//698 372//698
f 460//699 458//699 197//699
f 461//700 374//700 373//700
f 461//701 373//701 459//701
f 462//702 460//702 197//702
f 463//703 375//703 374//703
f 463//704 374//704 461//704
f 464//705 462//705 197//705
f 465//706 376//706 375//706
f 465//707 375//707 463//707
f 466//708 464//708 197//708
f 467//709 377//709 376//709
f 467//710 376//710 465//710
f 468//711 466//711 197//711
f 469//712 468//712 197//712
f 470//713 469//713 197//713
f 471//714 470//714 197//714
f 472//715 471//715 197//715
f 473//716 472//716 197//716
f 474//717 473//717 197//717
f 475//718 474//718 197//718
f 476//719 475//719 197//719
f 200//720 477//720 478//720
f 200//721 479//721 477//721
f 200//722 480//722 479//722
f 200//723 481//723 480//723
f 200//724 482//724 481//724
f 200//725 483//725 482//725
f 200//726 484//726 483//726
f 200//727 476//727 197//727
f 200//728 485//728 484//728
f 200//729 486//729 485//729
f 200//730 487//730 486//730
f 200//731 488//731 487//731
f 200//732 489//732 488//732
f 200//733 490//733 489//733
f 200//734 491//734 490//734
f 200//735 492//735 491//735
f 200//736 493//736 492//736
f 200//737 494//737 493//737
f 200//738 495//738 494//738
f 200//739 496//739 495//739
f 200//740 497//740 496//740
f 200//741 498//741 497//741
f 200//742 499//742 498//742
f 200//743 500//743 499//743
f 200//744 501//744 500//744
f 200//745 502//745 501//745
f 200//746 503//746 502//746
f 200//747 504//747 503//747
f 200//748 505//748 504//748
f 200//749 506//749 505//749
f 200//750 507//750 506//750
f 200//751 508//751 507//751
f 200//752 509//752 476//752
f 200//753 478//753 509//753
f 195//754 197//754 327//754
f 327//755 197//755 328//755
f 200//756 199//756 388//756
f 200//757 388//757 387//757
f 200//758 387//758 386//758
f 200//759 386//759 385//759
f 200//760 385//760 384//760
f 200//761 384//761 383//761
f 200//762 383//762 382//762
f 200//763 382//763 381//763
f 200//764 381//764 380//764
f 200//765 380//765 379//765
f 200//766 379//766 378//766
f 200//767 378//767 377//767
f 200//768 377//768 508//768
f 508//769 377//769 510//769
f 510//770 377//770 511//770
f 511//771 377//771 512//771
f 512//772 377//772 513//772
f 513//773 377//773 514//773
f 514//774 377//774 467//774
f 200//775 197//775 196//775
f 200//776 196//776 198//776
f 279//777 283//777 280//777
f 280//778 283//778 281//778
f 281//779 283//779 282//779
f 277//780 276//780 278//780
f 278//781 276//781 279//781
f 285//782 287//782 286//782
f 273//783 272//783 274//783
f 274//784 272//784 275//784
f 275//785 272//785 276//785
f 287//786 289//786 288//786
f 271//787 270//787 272//787
f 287//788 290//788 289//788
f 279//789 291//789 283//789
f 285//790 291//790 287//790
f 287//791 291//791 290//791
f 283//792 291//792 284//792
f 284//793 291//793 285//793
f 269//794 268//794 270//794
f 291//795 294//795 292//795
f 292//796 294//796 293//796
f 265//797 264//797 266//797
f 266//798 264//798 267//798
f 267//799 264//799 268//799
f 268//800 264//800 270//800
f 296//801 298//801 297//801
f 264//802 261//802 270//802
f 262//803 261//803 263//803
f 263//804 261//804 264//804
f 299//805 301//805 300//805
f 276//806 257//806 279//806
f 272//807 257//807 276//807
f 258//808 257//808 259//808
f 259//809 257//809 260//809
f 260//810 257//810 261//810
f 270//811 257//811 272//811
f 261//812 257//812 270//812
f 301//813 303//813 302//813
f 296//814 303//814 298//814
f 299//815 303//815 301//815
f 295//816 303//816 296//816
f 298//817 303//817 299//817
f 303//818 305//818 304//818
f 255//819 254//819 256//819
f 305//820 307//820 306//820
f 257//821 252//821 279//821
f 254//822 252//822 256//822
f 253//823 252//823 254//823
f 256//824 252//824 257//824
f 279//825 252//825 291//825
f 291//826 252//826 294//826
f 294//827 252//827 295//827
f 303//828 308//828 305//828
f 305//829 308//829 307//829
f 251//830 250//830 252//830
f 308//831 310//831 309//831
f 303//832 311//832 308//832
f 308//833 311//833 310//833
f 249//834 248//834 250//834
f 247//835 246//835 248//835
f 250//836 245//836 252//836
f 248//837 245//837 250//837
f 246//838 245//838 248//838
f 243//839 242//839 244//839
f 244//840 242//840 245//840
f 315//841 318//841 316//841
f 316//842 318//842 317//842
f 242//843 241//843 245//843
f 314//844 319//844 315//844
f 315//845 319//845 318//845
f 252//846 240//846 295//846
f 295//847 240//847 303//847
f 303//848 240//848 311//848
f 245//849 240//849 252//849
f 241//850 240//850 245//850
f 311//851 239//851 312//851
f 312//852 239//852 313//852
f 313//853 239//853 314//853
f 240//854 239//854 311//854
f 319//855 321//855 320//855
f 314//856 321//856 319//856
f 239//857 238//857 314//857
f 314//858 322//858 321//858
f 314//859 323//859 322//859
f 314//860 324//860 323//860
f 314//861 325//861 324//861
f 235//862 234//862 236//862
f 234//863 233//863 236//863
f 236//864 233//864 237//864
f 237//865 233//865 238//865
f 201//866 203//866 202//866
f 326//867 203//867 201//867
f 231//868 230//868 232//868
f 232//869 230//869 233//869
f 326//870 204//870 203//870
f 325//871 204//871 326//871
f 229//872 228//872 230//872
f 204//873 207//873 205//873
f 205//874 207//874 206//874
f 325//875 207//875 204//875
f 227//876 226//876 228//876
f 314//877 208//877 325//877
f 325//878 208//878 207//878
f 230//879 225//879 233//879
f 228//880 225//880 230//880
f 226//881 225//881 228//881
f 225//882 224//882 233//882
f 224//883 223//883 233//883
f 209//884 211//884 210//884
f 208//885 212//885 209//885
f 314//886 212//886 208//886
f 209//887 212//887 211//887
f 221//888 220//888 222//888
f 222//889 220//889 223//889
f 219//890 218//890 220//890
f 220//891 218//891 223//891
f 214//892 216//892 215//892
f 212//893 217//893 213//893
f 213//894 217//894 214//894
f 233//895 217//895 238//895
f 223//896 217//896 233//896
f 314//897 217//897 212//897
f 218//898 217//898 223//898
f 214//899 217//899 216//899
f 238//900 217//900 314//900
f 515//901 516//901 434//901
f 515//902 434//902 433//902
f 517//903 433//903 435//903
f 517//904 515//904 433//904
f 518//905 435//905 436//905
f 518//906 517//906 435//906
f 519//907 436//907 437//907
f 519//908 518//908 436//908
f 520//909 437//909 438//909
f 520//910 438//910 439//910
f 520//911 519//911 437//911
f 521//912 520//912 439//912
f 522//913 439//913 440//913
f 522//914 521//914 439//914
f 523//915 440//915 441//915
f 523//916 522//916 440//916
f 524//917 441//917 442//917
f 524//918 442//918 443//918
f 524//919 523//919 441//919
f 525//920 524//920 443//920
f 526//921 525//921 443//921
f 526//922 443//922 444//922
f 527//923 526//923 444//923
f 527//924 444//924 445//924
f 528//925 527//925 445//925
f 528//926 445//926 446//926
f 529//927 528//927 446//927
f 529//928 446//928 447//928
f 530//929 447//929 448//929
f 530//930 529//930 447//930
f 531//931 448//931 452//931
f 531//932 530//932 448//932
f 532//933 452//933 454//933
f 532//934 531//934 452//934
f 533//935 454//935 456//935
f 533//936 532//936 454//936
f 534//937 456//937 458//937
f 534//938 533//938 456//938
f 535//939 458//939 460//939
f 535//940 534//940 458//940
f 536//941 460//941 462//941
f 536//942 535//942 460//942
f 537//943 462//943 464//943
f 537//944 536//944 462//944
f 538//945 464//945 466//945
f 538//946 537//946 464//946
f 539//947 466//947 468//947
f 539//948 468//948 469//948
f 539//949 538//949 466//949
f 540//950 539//950 469//950
f 541//951 469//951 470//951
f 541//952 540//952 469//952
f 542//953 470//953 471//953
f 542//954 541//954 470//954
f 543//955 471//955 472//955
f 543//956 542//956 471//956
f 544//957 472//957 473//957
f 544//958 543//958 472//958
f 545//959 473//959 474//959
f 545//960 544//960 473//960
f 546//961 474//961 475//961
f 546//962 545//962 474//962
f 547//963 475//963 476//963
f 547//964 546//964 475//964
f 548//965 476//965 509//965
f 548//966 547//966 476//966
f 549//967 509//967 478//967
f 549//968 548//968 509//968
f 550//969 478//969 477//969
f 550//970 477//970 479//970
f 550//971 549//971 478//971
f 551//972 550//972 479//972
f 552//973 551//973 479//973
f 552//974 479//974 480//974
f 553//975 552//975 480//975
f 553//976 480//976 481//976
f 554//977 553//977 481//977
f 554//978 481//978 482//978
f 555//979 554//979 482//979
f 555//980 482//980 483//980
f 556//981 555//981 483//981
f 556//982 483//982 484//982
f 557//983 556//983 484//983
f 557//984 484//984 485//984
f 557//985 485//985 486//985
f 558//986 557//986 486//986
f 559//987 558//987 486//987
f 559//988 486//988 487//988
f 559//989 487//989 488//989
f 560//990 559//990 488//990
f 561//991 560//991 488//991
f 561//992 488//992 489//992
f 561//993 489//993 490//993
f 562//994 561//994 490//994
f 562//995 490//995 491//995
f 563//996 562//996 491//996
f 564//997 491//997 492//997
f 564//998 563//998 491//998
f 565//999 492//999 493//999
f 565//1000 564//1000 492//1000
f 566//1001 493//1001 494//1001
f 566//1002 565//1002 493//1002
f 567//1003 494//1003 495//1003
f 567//1004 566//1004 494//1004
f 568//1005 495//1005 496//1005
f 568//1006 567//1006 495//1006
f 569//1007 496//1007 497//1007
f 569//1008 497//1008 498//1008
f 569//1009 568//1009 496//1009
f 570//1010 569//1010 498//1010
f 571//1011 498//1011 499//1011
f 571//1012 570//1012 498//1012
f 572//1013 499//1013 500//1013
f 572//1014 500//1014 501//1014
f 572//1015 571//1015 499//1015
f 573//1016 572//1016 501//1016
f 574//1017 501//1017 502//1017
f 574//1018 573//1018 501//1018
f 575//1019 502//1019 503//1019
f 575//1020 574//1020 502//1020
f 576//1021 503//1021 504//1021
f 576//1022 575//1022 503//1022
f 577//1023 576//1023 504//1023
f 577//1024 504//1024 505//1024
f 578//1025 577//1025 505//1025
f 578//1026 505//1026 506//1026
f 579//1027 578//1027 506//1027
f 579//1028 506//1028 507//1028
f 580//1029 579//1029 507//1029
f 580//1030 507//1030 508//1030
f 580//1031 508//1031 510//1031
f 581//1032 580//1032 510//1032
f 582//1033 581//1033 510//1033
f 582//1034 510//1034 511//1034
f 583//1035 582//1035 511//1035
f 583//1036 511//1036 512//1036
f 583//1037 512//1037 513//1037
f 584//1038 583//1038 513//1038
f 585//1039 584//1039 513//1039
f 585//1040 513//1040 514//1040
f 586//1041 585//1041 514//1041
f 586//1042 514//1042 467//1042
f 586//1043 467//1043 465//1043
f 587//1044 586//1044 465//1044
f 587//1045 465//1045 463//1045
f 588//1046 587//1046 463//1046
f 588//1047 463//1047 461//1047
f 589//1048 588//1048 461//1048
f 590//1049 589//1049 461//1049
f 590//1050 461//1050 459//1050
f 591//1051 590//1051 459//1051
f 591//1052 459//1052 457//1052
f 592//1053 591//1053 457//1053
f 592//1054 457//1054 455//1054
f 593//1055 592//1055 455//1055
f 593//1056 455//1056 453//1056
f 594//1057 593//1057 453//1057
f 594//1058 453//1058 432//1058
f 595//1059 594//1059 432//1059
f 595//1060 432//1060 431//1060
f 596//1061 595//1061 431//1061
f 596//1062 431//1062 430//1062
f 597//1063 596//1063 430//1063
f 597//1064 430//1064 429//1064
f 598//1065 429//1065 428//1065
f 598//1066 597//1066 429//1066
f 598//1067 428//1067 427//1067
f 599//1068 598//1068 427//1068
f 600//1069 427//1069 426//1069
f 600//1070 426//1070 425//1070
f 600//1071 599//1071 427//1071
f 601//1072 600//1072 425//1072
f 602//1073 425//1073 424//1073
f 602//1074 424//1074 423//1074
f 602//1075 601//1075 425//1075
f 603//1076 602//1076 423//1076
f 604//1077 603//1077 423//1077
f 604//1078 423//1078 422//1078
f 605//1079 604//1079 422//1079
f 605//1080 422//1080 421//1080
f 605//1081 421//1081 420//1081
f 606//1082 605//1082 420//1082
f 607//1083 606//1083 420//1083
f 607//1084 420//1084 419//1084
f 607//1085 419//1085 418//1085
f 608//1086 607//1086 418//1086
f 609//1087 608//1087 418//1087
f 609//1088 418//1088 417//1088
f 610//1089 609//1089 417//1089
f 610//1090 417//1090 416//1090
f 611//1091 610//1091 416//1091
f 611//1092 416//1092 415//1092
f 611//1093 415//1093 414//1093
f 612//1094 611//1094 414//1094
f 612//1095 414//1095 413//1095
f 613//1096 612//1096 413//1096
f 613//1097 413//1097 411//1097
f 614//1098 411//1098 409//1098
f 614//1099 613//1099 411//1099
f 615//1100 614//1100 409//1100
f 616//1101 409//1101 407//1101
f 616//1102 407//1102 405//1102
f 616//1103 615//1103 409//1103
f 617//1104 616//1104 405//1104
f 618//1105 405//1105 403//1105
f 618//1106 403//1106 401//1106
f 618//1107 617//1107 405//1107
f 619//1108 618//1108 401//1108
f 620//1109 401//1109 399//1109
f 620//1110 619//1110 401//1110
f 621//1111 399//1111 397//1111
f 621//1112 620//1112 399//1112
f 622//1113 397//1113 395//1113
f 622//1114 395//1114 393//1114
f 622//1115 621//1115 397//1115
f 623//1116 622//1116 393//1116
f 624//1117 393//1117 391//1117
f 624//1118 623//1118 393//1118
f 625//1119 391//1119 389//1119
f 625//1120 389//1120 390//1120
f 625//1121 624//1121 391//1121
f 626//1122 625//1122 390//1122
f 627//1123 626//1123 390//1123
f 627//1124 390//1124 392//1124
f 627//1125 392//1125 394//1125
f 628//1126 627//1126 394//1126
f 629//1127 628//1127 394//1127
f 629//1128 394//1128 396//1128
f 629//1129 396//1129 398//1129
f 630//1130 629//1130 398//1130
f 631//1131 630//1131 398//1131
f 631//1132 398//1132 400//1132
f 631//1133 400//1133 402//1133
f 632//1134 631//1134 402//1134
f 633//1135 402//1135 404//1135
f 633//1136 632//1136 402//1136
f 634//1137 404//1137 406//1137
f 634//1138 633//1138 404//1138
f 635//1139 406//1139 408//1139
f 635//1140 634//1140 406//1140
f 636//1141 408//1141 410//1141
f 636//1142 410//1142 412//1142
f 636//1143 635//1143 408//1143
f 637//1144 636//1144 412//1144
f 638//1145 412//1145 449//1145
f 638//1146 637//1146 412//1146
f 639//1147 449//1147 450//1147
f 639//1148 638//1148 449//1148
f 640//1149 450//1149 451//1149
f 640//1150 639//1150 450//1150
f 516//1151 451//1151 434//1151
f 516//1152 640//1152 451//1152
f 627//1153 625//1153 626//1153
f 629//1154 627//1154 628//1154
f 621//1155 622//1155 623//1155
f 621//1156 623//1156 624//1156
f 630//1157 625//1157 627//1157
f 630//1158 627//1158 629//1158
f 631//1159 624//1159 625//1159
f 631//1160 625//1160 630//1160
f 619//1161 620//1161 621//1161
f 617//1162 618//1162 619//1162
f 617//1163 619//1163 621//1163
f 634//1164 632//1164 633//1164
f 635//1165 632//1165 634//1165
f 614//1166 615//1166 616//1166
f 614//1167 616//1167 617//1167
f 637//1168 635//1168 636//1168
f 639//1169 637//1169 638//1169
f 611//1170 614//1170 617//1170
f 611//1171 612//1171 613//1171
f 611//1172 613//1172 614//1172
f 608//1173 609//1173 610//1173
f 517//1174 516//1174 515//1174
f 517//1175 639//1175 640//1175
f 517//1176 640//1176 516//1176
f 517//1177 635//1177 637//1177
f 517//1178 637//1178 639//1178
f 607//1179 608//1179 610//1179
f 606//1180 607//1180 610//1180
f 606//1181 610//1181 611//1181
f 519//1182 517//1182 518//1182
f 520//1183 517//1183 519//1183
f 521//1184 517//1184 520//1184
f 603//1185 604//1185 605//1185
f 603//1186 605//1186 606//1186
f 522//1187 517//1187 521//1187
f 523//1188 517//1188 522//1188
f 523//1189 631//1189 632//1189
f 523//1190 632//1190 635//1190
f 523//1191 635//1191 517//1191
f 601//1192 602//1192 603//1192
f 526//1193 524//1193 525//1193
f 598//1194 599//1194 600//1194
f 598//1195 600//1195 601//1195
f 596//1196 601//1196 603//1196
f 596//1197 598//1197 601//1197
f 596//1198 597//1198 598//1198
f 530//1199 631//1199 523//1199
f 530//1200 523//1200 524//1200
f 530//1201 526//1201 527//1201
f 530//1202 527//1202 528//1202
f 530//1203 528//1203 529//1203
f 530//1204 524//1204 526//1204
f 530//1205 621//1205 624//1205
f 530//1206 624//1206 631//1206
f 593//1207 594//1207 595//1207
f 592//1208 593//1208 595//1208
f 592//1209 595//1209 596//1209
f 533//1210 531//1210 532//1210
f 590//1211 591//1211 592//1211
f 535//1212 533//1212 534//1212
f 535//1213 531//1213 533//1213
f 536//1214 530//1214 531//1214
f 536//1215 531//1215 535//1215
f 537//1216 621//1216 530//1216
f 537//1217 530//1217 536//1217
f 586//1218 587//1218 588//1218
f 586//1219 588//1219 589//1219
f 585//1220 590//1220 592//1220
f 585//1221 589//1221 590//1221
f 585//1222 586//1222 589//1222
f 540//1223 537//1223 538//1223
f 540//1224 538//1224 539//1224
f 540//1225 621//1225 537//1225
f 540//1226 617//1226 621//1226
f 584//1227 585//1227 592//1227
f 542//1228 540//1228 541//1228
f 581//1229 582//1229 583//1229
f 581//1230 583//1230 584//1230
f 544//1231 542//1231 543//1231
f 544//1232 540//1232 542//1232
f 546//1233 540//1233 544//1233
f 546//1234 544//1234 545//1234
f 546//1235 617//1235 540//1235
f 578//1236 579//1236 580//1236
f 578//1237 580//1237 581//1237
f 547//1238 617//1238 546//1238
f 547//1239 603//1239 606//1239
f 547//1240 606//1240 611//1240
f 547//1241 611//1241 617//1241
f 574//1242 575//1242 576//1242
f 574//1243 576//1243 577//1243
f 574//1244 577//1244 578//1244
f 551//1245 547//1245 548//1245
f 551//1246 548//1246 549//1246
f 551//1247 549//1247 550//1247
f 552//1248 547//1248 551//1248
f 572//1249 574//1249 578//1249
f 572//1250 573//1250 574//1250
f 572//1251 578//1251 581//1251
f 553//1252 547//1252 552//1252
f 555//1253 553//1253 554//1253
f 569//1254 570//1254 571//1254
f 556//1255 553//1255 555//1255
f 568//1256 569//1256 571//1256
f 557//1257 553//1257 556//1257
f 567//1258 581//1258 584//1258
f 567//1259 572//1259 581//1259
f 567//1260 568//1260 571//1260
f 567//1261 571//1261 572//1261
f 567//1262 592//1262 596//1262
f 567//1263 584//1263 592//1263
f 559//1264 557//1264 558//1264
f 559//1265 553//1265 557//1265
f 565//1266 566//1266 567//1266
f 560//1267 553//1267 559//1267
f 563//1268 564//1268 565//1268
f 562//1269 603//1269 547//1269
f 562//1270 596//1270 603//1270
f 562//1271 560//1271 561//1271
f 562//1272 567//1272 596//1272
f 562//1273 563//1273 565//1273
f 562//1274 553//1274 560//1274
f 562//1275 565//1275 567//1275
f 562//1276 547//1276 553//1276
