# Created by FreeCAD <https://www.freecad.org>
v -299.812805 -189.954971 -87.671257
v -299.722900 -164.555130 -87.671143
v -299.781372 -189.954971 -113.071228
v -299.691467 -164.555130 -113.071114
v -292.588715 -189.980453 -105.463615
v -292.327271 -189.981384 -105.731003
v -292.052826 -189.982361 -105.985016
v -292.836487 -189.979584 -105.183533
v -291.766052 -189.983368 -106.225044
v -293.070038 -189.978760 -104.891449
v -291.467682 -189.984421 -106.450478
v -293.288696 -189.977982 -104.588089
v -291.158447 -189.985519 -106.660744
v -293.491974 -189.977264 -104.274208
v -290.839111 -189.986649 -106.855354
v -293.679352 -189.976608 -103.950577
v -290.510468 -189.987808 -107.033791
v -293.850372 -189.975998 -103.618011
v -290.173340 -189.988998 -107.195633
v -294.004578 -189.975464 -103.277336
v -289.828583 -189.990219 -107.340462
v -294.141632 -189.974976 -102.929390
v -289.477020 -189.991470 -107.467926
v -294.261200 -189.974548 -102.575050
v -289.119537 -189.992737 -107.577713
v -294.362915 -189.974197 -102.215195
v -288.757019 -189.994019 -107.669540
v -294.446594 -189.973892 -101.850716
v -288.390381 -189.995316 -107.743179
v -294.511963 -189.973663 -101.482521
v -288.020538 -189.996613 -107.798462
v -294.558929 -189.973511 -101.111519
v -287.648376 -189.997940 -107.835236
v -294.587341 -189.973404 -100.738632
v -287.274872 -189.999252 -107.853409
v -294.597107 -189.973373 -100.364807
v -292.848419 -189.979584 -95.541725
v -292.601349 -189.980453 -95.261032
v -293.081238 -189.978760 -95.834389
v -293.299164 -189.977982 -96.138298
v -293.501648 -189.977264 -96.452682
v -293.688232 -189.976608 -96.776772
v -293.858429 -189.975998 -97.109756
v -294.011780 -189.975464 -97.450813
v -294.147980 -189.974976 -97.799103
v -294.266663 -189.974548 -98.153732
v -294.367493 -189.974197 -98.513840
v -294.450256 -189.973892 -98.878525
v -294.514709 -189.973663 -99.246880
v -294.560760 -189.973511 -99.618004
v -294.588257 -189.973404 -99.990952
v -274.381561 -190.044876 -113.039787
v -286.155396 -190.003220 -107.796158
v -286.527466 -190.001907 -107.833847
v -285.785706 -190.004532 -107.739960
v -285.419250 -190.005829 -107.665405
v -285.056946 -190.007111 -107.572685
v -284.699738 -190.008377 -107.462013
v -284.348480 -190.009613 -107.333679
v -284.004059 -190.010834 -107.187996
v -283.667358 -190.012039 -107.025322
v -283.339142 -190.013199 -106.846069
v -283.020294 -190.014328 -106.650673
v -282.711609 -190.015411 -106.439636
v -282.413788 -190.016479 -106.213470
v -282.127594 -190.017487 -105.972733
v -281.853790 -190.018463 -105.718040
v -286.900909 -190.000580 -107.852951
v -292.340546 -189.981384 -94.993004
v -281.593018 -190.019379 -105.450005
v -292.066742 -189.982361 -94.738312
v -281.345917 -190.020264 -105.169312
v -291.780579 -189.983368 -94.497574
v -281.113129 -190.021088 -104.876648
v -291.482758 -189.984421 -94.271408
v -280.895203 -190.021851 -104.572746
v -291.174042 -189.985519 -94.060371
v -280.692719 -190.022568 -104.258362
v -290.855164 -189.986649 -93.864975
v -280.506134 -190.023239 -103.934273
v -290.527008 -189.987808 -93.685722
v -280.335907 -190.023834 -103.601280
v -290.190247 -189.988998 -93.523048
v -280.182526 -190.024384 -103.260223
v -289.845856 -189.990219 -93.377365
v -280.046356 -190.024872 -102.911942
v -289.494629 -189.991470 -93.249031
v -279.927704 -190.025284 -102.557312
v -289.137390 -189.992737 -93.138359
v -279.826843 -190.025650 -102.197197
v -288.775116 -189.994019 -93.045631
v -279.744080 -190.025940 -101.832520
v -288.408661 -189.995316 -92.971085
v -279.679596 -190.026169 -101.464165
v -288.038940 -189.996613 -92.914886
v -279.633575 -190.026337 -101.093040
v -287.666901 -189.997940 -92.877197
v -279.606079 -190.026428 -100.720093
v -279.597229 -190.026474 -100.346237
v -274.412994 -190.044876 -87.639816
v -279.607025 -190.026428 -99.972412
v -279.635437 -190.026337 -99.599525
v -279.682373 -190.026169 -99.228523
v -279.747772 -190.025940 -98.860321
v -279.831451 -190.025650 -98.495850
v -279.933167 -190.025284 -98.135986
v -280.052734 -190.024872 -97.781654
v -280.189758 -190.024384 -97.433708
v -280.343964 -190.023834 -97.093033
v -280.515015 -190.023239 -96.760468
v -280.702393 -190.022568 -96.436836
v -280.905670 -190.021851 -96.122955
v -281.124329 -190.021088 -95.819588
v -281.357849 -190.020264 -95.527504
v -281.605652 -190.019379 -95.247421
v -281.867096 -190.018463 -94.980042
v -282.141510 -190.017487 -94.726021
v -282.428314 -190.016479 -94.486000
v -282.726685 -190.015411 -94.260567
v -283.035889 -190.014328 -94.050293
v -283.355225 -190.013199 -93.855690
v -283.683868 -190.012039 -93.677246
v -284.020996 -190.010834 -93.515411
v -284.365784 -190.009613 -93.370583
v -284.717346 -190.008377 -93.243118
v -285.074829 -190.007111 -93.133331
v -285.437347 -190.005829 -93.041504
v -285.803986 -190.004532 -92.967857
v -286.173828 -190.003220 -92.912575
v -286.545959 -190.001907 -92.875809
v -287.293427 -189.999252 -92.858093
v -286.919464 -190.000580 -92.857628
v -274.323090 -164.645035 -87.639702
v -274.291656 -164.645035 -113.039680
v -292.547729 -172.179276 -87.662262
v -292.285675 -171.912491 -87.661934
v -292.010620 -171.659103 -87.661598
v -292.796143 -172.458786 -87.662567
v -291.723328 -171.419754 -87.661240
v -293.030365 -172.750336 -87.662857
v -291.424438 -171.195007 -87.660873
v -293.249725 -173.053192 -87.663132
v -291.114716 -170.985443 -87.660484
v -293.453735 -173.366608 -87.663383
v -290.794922 -170.791580 -87.660088
v -293.641846 -173.689789 -87.663612
v -290.465881 -170.613892 -87.659683
v -293.813660 -174.021973 -87.663826
v -290.128357 -170.452820 -87.659264
v -293.968628 -174.362289 -87.664017
v -289.783264 -170.308792 -87.658836
v -294.106506 -174.709915 -87.664192
v -289.431427 -170.182144 -87.658401
v -294.226868 -175.063980 -87.664337
v -289.073669 -170.073181 -87.657959
v -294.329437 -175.423615 -87.664467
v -288.710938 -169.982178 -87.657509
v -294.413940 -175.787888 -87.664574
v -288.344147 -169.909378 -87.657059
v -294.480164 -176.155945 -87.664650
v -287.974152 -169.854950 -87.656601
v -294.527985 -176.526825 -87.664711
v -287.601929 -169.819031 -87.656136
v -294.557251 -176.899643 -87.664749
v -287.228363 -169.801727 -87.655678
v -294.567871 -177.273453 -87.664764
v -292.830292 -182.100540 -87.662613
v -292.583832 -182.381790 -87.662308
v -293.062439 -181.807343 -87.662895
v -293.279663 -181.502945 -87.663170
v -293.481415 -181.188095 -87.663414
v -293.667236 -180.863571 -87.663651
v -293.836700 -180.530182 -87.663857
v -293.989258 -180.188782 -87.664047
v -294.124664 -179.840195 -87.664215
v -294.242523 -179.485291 -87.664360
v -294.342529 -179.124939 -87.664482
v -294.424469 -178.760071 -87.664581
v -294.488068 -178.391556 -87.664665
v -294.533264 -178.020325 -87.664719
v -294.559906 -177.647324 -87.664749
v -286.109039 -169.861542 -87.654289
v -286.481018 -169.822998 -87.654755
v -285.739441 -169.918594 -87.653831
v -285.373169 -169.993988 -87.653381
v -285.011108 -170.087555 -87.652931
v -284.654144 -170.199051 -87.652489
v -284.303192 -170.328201 -87.652054
v -283.959106 -170.474655 -87.651627
v -283.622772 -170.638107 -87.651215
v -283.294952 -170.818130 -87.650810
v -282.976562 -171.014252 -87.650414
v -282.668365 -171.225998 -87.650032
v -282.371063 -171.452850 -87.649666
v -282.085419 -171.694244 -87.649307
v -281.812195 -171.949570 -87.648972
v -286.854401 -169.803040 -87.655212
v -292.323669 -182.650436 -87.661987
v -281.552032 -172.218201 -87.648651
v -292.050446 -182.905746 -87.661644
v -281.305573 -172.499466 -87.648346
v -291.764832 -183.147156 -87.661293
v -281.073456 -172.792664 -87.648056
v -291.467529 -183.374008 -87.660927
v -280.856232 -173.097061 -87.647789
v -291.159332 -183.585739 -87.660545
v -280.654480 -173.411911 -87.647537
v -290.840881 -183.781876 -87.660149
v -280.468628 -173.736420 -87.647308
v -290.513123 -183.961899 -87.659744
v -280.299194 -174.069809 -87.647102
v -290.176758 -184.125336 -87.659325
v -280.146606 -174.411209 -87.646912
v -289.832703 -184.271805 -87.658897
v -280.011230 -174.759811 -87.646744
v -289.481750 -184.400955 -87.658463
v -279.893372 -175.114716 -87.646599
v -289.124786 -184.512451 -87.658028
v -279.793365 -175.475067 -87.646477
v -288.762726 -184.606003 -87.657578
v -279.711426 -175.839935 -87.646370
v -288.396423 -184.681412 -87.657120
v -279.647797 -176.208450 -87.646294
v -288.026855 -184.738449 -87.656662
v -279.602631 -176.579666 -87.646240
v -287.654877 -184.776993 -87.656204
v -279.575989 -176.952682 -87.646202
v -279.567993 -177.326553 -87.646194
v -279.578644 -177.700363 -87.646210
v -279.607910 -178.073166 -87.646248
v -279.655701 -178.444061 -87.646301
v -279.721954 -178.812119 -87.646385
v -279.806458 -179.176392 -87.646492
v -279.909027 -179.536026 -87.646614
v -280.029388 -179.890091 -87.646767
v -280.167206 -180.237701 -87.646935
v -280.322235 -180.578018 -87.647125
v -280.494019 -180.910202 -87.647339
v -280.682159 -181.233398 -87.647575
v -280.886139 -181.546814 -87.647827
v -281.105530 -181.849670 -87.648094
v -281.339691 -182.141220 -87.648384
v -281.588165 -182.420715 -87.648697
v -281.850220 -182.687515 -87.649017
v -282.125214 -182.940887 -87.649361
v -282.412567 -183.180252 -87.649719
v -282.711456 -183.404999 -87.650085
v -283.021179 -183.614548 -87.650467
v -283.340942 -183.808426 -87.650864
v -283.670013 -183.986115 -87.651276
v -284.007507 -184.147171 -87.651688
v -284.352600 -184.291214 -87.652115
v -284.704468 -184.417862 -87.652550
v -285.062225 -184.526825 -87.652992
v -285.424927 -184.617813 -87.653442
v -285.791748 -184.690628 -87.653900
v -286.161713 -184.745041 -87.654358
v -286.533966 -184.780960 -87.654816
v -287.281464 -184.796967 -87.655739
v -286.907501 -184.798279 -87.655281
v -292.516296 -172.179276 -113.062233
v -292.254242 -171.912491 -113.061913
v -291.979187 -171.659103 -113.061569
v -292.764709 -172.458786 -113.062546
v -291.691864 -171.419754 -113.061218
v -292.998932 -172.750336 -113.062836
v -291.392975 -171.195007 -113.060844
v -293.218292 -173.053192 -113.063103
v -291.083282 -170.985443 -113.060463
v -293.422302 -173.366608 -113.063354
v -290.763458 -170.791580 -113.060066
v -293.610413 -173.689789 -113.063591
v -290.434448 -170.613892 -113.059662
v -293.782227 -174.021973 -113.063805
v -290.096924 -170.452820 -113.059242
v -293.937195 -174.362289 -113.063995
v -289.751831 -170.308792 -113.058815
v -294.075073 -174.709915 -113.064163
v -289.399963 -170.182144 -113.058380
v -294.195435 -175.063980 -113.064316
v -289.042236 -170.073181 -113.057938
v -294.297974 -175.423615 -113.064438
v -288.679504 -169.982178 -113.057487
v -294.382507 -175.787888 -113.064545
v -288.312714 -169.909378 -113.057030
v -294.448700 -176.155945 -113.064629
v -287.942719 -169.854950 -113.056572
v -294.496521 -176.526825 -113.064690
v -287.570496 -169.819031 -113.056114
v -294.525818 -176.899643 -113.064720
v -287.196930 -169.801727 -113.055649
v -294.536438 -177.273453 -113.064735
v -292.798859 -182.100540 -113.062584
v -292.552399 -182.381790 -113.062279
v -293.031006 -181.807343 -113.062874
v -293.248199 -181.502945 -113.063141
v -293.449982 -181.188095 -113.063393
v -293.635803 -180.863571 -113.063622
v -293.805267 -180.530182 -113.063828
v -293.957825 -180.188782 -113.064018
v -294.093231 -179.840195 -113.064186
v -294.211060 -179.485291 -113.064331
v -294.311096 -179.124939 -113.064461
v -294.393005 -178.760071 -113.064560
v -294.456635 -178.391556 -113.064636
v -294.501831 -178.020325 -113.064690
v -294.528442 -177.647324 -113.064728
v -286.077606 -169.861542 -113.054268
v -286.449554 -169.822998 -113.054726
v -285.708008 -169.918594 -113.053810
v -285.341736 -169.993988 -113.053352
v -284.979675 -170.087555 -113.052910
v -284.622711 -170.199051 -113.052467
v -284.271729 -170.328201 -113.052032
v -283.927643 -170.474655 -113.051605
v -283.591309 -170.638107 -113.051186
v -283.263519 -170.818130 -113.050781
v -282.945129 -171.014252 -113.050385
v -282.636902 -171.225998 -113.050003
v -282.339630 -171.452850 -113.049637
v -282.053986 -171.694244 -113.049286
v -281.780762 -171.949570 -113.048950
v -286.822968 -169.803040 -113.055191
v -292.292236 -182.650436 -113.061958
v -281.520599 -172.218201 -113.048622
v -292.019012 -182.905746 -113.061623
v -281.274139 -172.499466 -113.048317
v -291.733398 -183.147156 -113.061264
v -281.042023 -172.792664 -113.048035
v -291.436096 -183.374008 -113.060898
v -280.824799 -173.097061 -113.047760
v -291.127869 -183.585739 -113.060516
v -280.623047 -173.411911 -113.047516
v -290.809448 -183.781876 -113.060120
v -280.437195 -173.736420 -113.047287
v -290.481689 -183.961899 -113.059715
v -280.267761 -174.069809 -113.047073
v -290.145325 -184.125336 -113.059303
v -280.115143 -174.411209 -113.046883
v -289.801270 -184.271805 -113.058876
v -279.979797 -174.759811 -113.046715
v -289.450317 -184.400955 -113.058441
v -279.861938 -175.114716 -113.046570
v -289.093353 -184.512451 -113.057999
v -279.761932 -175.475067 -113.046448
v -288.731262 -184.606003 -113.057549
v -279.679993 -175.839935 -113.046349
v -288.364990 -184.681412 -113.057098
v -279.616364 -176.208450 -113.046265
v -287.995422 -184.738449 -113.056641
v -279.571198 -176.579666 -113.046211
v -287.623444 -184.776993 -113.056183
v -279.544556 -176.952682 -113.046181
v -279.536530 -177.326553 -113.046165
v -279.547211 -177.700363 -113.046181
v -279.576477 -178.073166 -113.046219
v -279.624268 -178.444061 -113.046280
v -279.690521 -178.812119 -113.046356
v -279.775024 -179.176392 -113.046463
v -279.877594 -179.536026 -113.046593
v -279.997955 -179.890091 -113.046738
v -280.135773 -180.237701 -113.046913
v -280.290802 -180.578018 -113.047104
v -280.462585 -180.910202 -113.047318
v -280.650726 -181.233398 -113.047546
v -280.854706 -181.546814 -113.047798
v -281.074066 -181.849670 -113.048073
v -281.308258 -182.141220 -113.048363
v -281.556732 -182.420715 -113.048668
v -281.818787 -182.687515 -113.048996
v -282.093781 -182.940887 -113.049332
v -282.381134 -183.180252 -113.049690
v -282.680023 -183.404999 -113.050056
v -282.989716 -183.614548 -113.050446
v -283.309509 -183.808426 -113.050842
v -283.638580 -183.986115 -113.051247
v -283.976044 -184.147171 -113.051666
v -284.321167 -184.291214 -113.052094
v -284.673035 -184.417862 -113.052528
v -285.030792 -184.526825 -113.052971
v -285.393494 -184.617813 -113.053421
v -285.760315 -184.690628 -113.053871
v -286.130280 -184.745041 -113.054329
v -286.502502 -184.780960 -113.054794
v -287.250000 -184.796967 -113.055717
v -286.876038 -184.798279 -113.055252
v -279.880402 -270.025970 -100.346588
v -279.890198 -270.025940 -99.972763
v -279.918610 -270.025848 -99.599876
v -279.965546 -270.025665 -99.228874
v -280.030945 -270.025452 -98.860672
v -280.114624 -270.025146 -98.496201
v -280.216339 -270.024780 -98.136337
v -280.335907 -270.024353 -97.782005
v -280.472931 -270.023895 -97.434059
v -280.627167 -270.023346 -97.093384
v -280.798187 -270.022736 -96.760818
v -280.985565 -270.022064 -96.437187
v -281.188843 -270.021362 -96.123306
v -281.407501 -270.020569 -95.819939
v -281.641022 -270.019745 -95.527855
v -281.888824 -270.018890 -95.247772
v -282.150269 -270.017944 -94.980392
v -282.424683 -270.016998 -94.726372
v -282.711487 -270.015961 -94.486351
v -283.009857 -270.014923 -94.260918
v -283.319092 -270.013824 -94.050644
v -283.638397 -270.012695 -93.856041
v -283.967072 -270.011536 -93.677597
v -284.304169 -270.010345 -93.515762
v -284.648956 -270.009125 -93.370934
v -285.000519 -270.007874 -93.243469
v -285.358002 -270.006622 -93.133682
v -285.720520 -270.005341 -93.041855
v -286.087158 -270.004028 -92.968208
v -286.457001 -270.002716 -92.912926
v -286.829163 -270.001404 -92.876160
v -287.202637 -270.000092 -92.857979
v -287.576599 -269.998749 -92.858444
v -287.950073 -269.997437 -92.877541
v -288.322144 -269.996124 -92.915237
v -288.691833 -269.994812 -92.971436
v -289.058289 -269.993500 -93.045982
v -289.420593 -269.992218 -93.138710
v -289.777802 -269.990967 -93.249382
v -290.129059 -269.989716 -93.377716
v -290.473450 -269.988495 -93.523399
v -290.810181 -269.987305 -93.686073
v -291.138367 -269.986145 -93.865326
v -291.457245 -269.985016 -94.060722
v -291.765930 -269.983917 -94.271759
v -292.063751 -269.982880 -94.497925
v -292.349915 -269.981842 -94.738655
v -292.623749 -269.980896 -94.993355
v -292.884521 -269.979950 -95.261383
v -293.131592 -269.979095 -95.542076
v -293.364410 -269.978271 -95.834740
v -293.582336 -269.977478 -96.138649
v -293.784821 -269.976776 -96.453026
v -293.971405 -269.976105 -96.777122
v -294.141632 -269.975494 -97.110107
v -294.294983 -269.974945 -97.451164
v -294.431183 -269.974487 -97.799446
v -294.549835 -269.974060 -98.154083
v -294.650696 -269.973694 -98.514191
v -294.733459 -269.973389 -98.878876
v -294.797913 -269.973175 -99.247231
v -294.843964 -269.972992 -99.618355
v -294.871460 -269.972900 -99.991302
v -294.880280 -269.972870 -100.365158
v -294.870514 -269.972900 -100.738983
v -294.842102 -269.972992 -101.111862
v -294.795135 -269.973175 -101.482872
v -294.729767 -269.973389 -101.851067
v -294.646088 -269.973694 -102.215546
v -294.544373 -269.974060 -102.575401
v -294.424805 -269.974487 -102.929741
v -294.287750 -269.974945 -103.277687
v -294.133575 -269.975494 -103.618362
v -293.962524 -269.976105 -103.950928
v -293.775146 -269.976776 -104.274559
v -293.571869 -269.977478 -104.588440
v -293.353210 -269.978271 -104.891800
v -293.119659 -269.979095 -105.183884
v -292.871887 -269.979950 -105.463966
v -292.610443 -269.980896 -105.731354
v -292.335999 -269.981842 -105.985367
v -292.049225 -269.982880 -106.225395
v -291.750854 -269.983917 -106.450821
v -291.441650 -269.985016 -106.661095
v -291.122284 -269.986145 -106.855705
v -290.793671 -269.987305 -107.034142
v -290.456512 -269.988495 -107.195984
v -290.111755 -269.989716 -107.340813
v -289.760193 -269.990967 -107.468277
v -289.402710 -269.992218 -107.578064
v -289.040192 -269.993500 -107.669891
v -288.673553 -269.994812 -107.743530
v -288.303711 -269.996124 -107.798813
v -287.931580 -269.997437 -107.835587
v -287.558044 -269.998749 -107.853760
v -287.184082 -270.000092 -107.853302
v -286.810638 -270.001404 -107.834198
v -286.438599 -270.002716 -107.796509
v -286.068878 -270.004028 -107.740311
v -285.702423 -270.005341 -107.665756
v -285.340149 -270.006622 -107.573036
v -284.982910 -270.007874 -107.462364
v -284.631683 -270.009125 -107.334030
v -284.287262 -270.010345 -107.188347
v -283.950531 -270.011536 -107.025673
v -283.622345 -270.012695 -106.846420
v -283.303497 -270.013824 -106.651024
v -282.994781 -270.014923 -106.439987
v -282.696960 -270.015961 -106.213821
v -282.410767 -270.016998 -105.973083
v -282.136993 -270.017944 -105.718391
v -281.876221 -270.018890 -105.450356
v -281.629089 -270.019745 -105.169662
v -281.396301 -270.020569 -104.876999
v -281.178375 -270.021362 -104.573097
v -280.975891 -270.022064 -104.258713
v -280.789307 -270.022736 -103.934624
v -280.619110 -270.023346 -103.601631
v -280.465729 -270.023895 -103.260574
v -280.329559 -270.024353 -102.912292
v -280.210876 -270.024780 -102.557663
v -280.110046 -270.025146 -102.197548
v -280.027283 -270.025452 -101.832870
v -279.962799 -270.025665 -101.464508
v -279.916779 -270.025848 -101.093391
v -279.889282 -270.025940 -100.720436
vn -0.999993 0.003540 -0.001238
vn -0.999993 0.003540 -0.001238
vn -0.003552 -0.999994 0.000008
vn -0.003551 -0.999994 0.000008
vn -0.003527 -0.999994 -0.000015
vn -0.003527 -0.999994 -0.000018
vn -0.003536 -0.999994 -0.000007
vn -0.003535 -0.999994 -0.000009
vn -0.003551 -0.999994 0.000006
vn -0.003548 -0.999994 0.000007
vn -0.003537 -0.999994 -0.000006
vn -0.003539 -0.999994 -0.000005
vn -0.003525 -0.999994 -0.000014
vn -0.003535 -0.999994 -0.000011
vn -0.003556 -0.999994 0.000007
vn -0.003535 -0.999994 -0.000010
vn -0.003511 -0.999994 -0.000022
vn -0.003541 -0.999994 -0.000001
vn -0.003553 -0.999994 0.000004
vn -0.003552 -0.999994 0.000019
vn -0.003557 -0.999994 0.000006
vn -0.003543 -0.999994 0.000001
vn -0.003513 -0.999994 -0.000018
vn -0.003538 -0.999994 -0.000008
vn -0.003579 -0.999994 0.000016
vn -0.003539 -0.999994 -0.000006
vn -0.003534 -0.999994 -0.000006
vn -0.003515 -0.999994 -0.000057
vn -0.003482 -0.999994 -0.000030
vn -0.003562 -0.999994 0.000048
vn -0.003581 -0.999994 0.000014
vn -0.003516 -0.999994 -0.000059
vn -0.003524 -0.999994 -0.000010
vn -0.003527 -0.999994 0.000006
vn -0.003536 -0.999994 -0.000002
vn -0.003551 -0.999994 -0.000014
vn -0.003537 -0.999994 -0.000003
vn -0.003525 -0.999994 0.000005
vn -0.003556 -0.999994 -0.000015
vn -0.003511 -0.999994 0.000013
vn -0.003553 -0.999994 -0.000012
vn -0.003557 -0.999994 -0.000014
vn -0.003513 -0.999994 0.000009
vn -0.003579 -0.999994 -0.000024
vn -0.003534 -0.999994 -0.000003
vn -0.003482 -0.999994 0.000021
vn -0.003581 -0.999994 -0.000022
vn -0.003524 -0.999994 0.000002
vn -0.003539 -0.999994 -0.000004
vn -0.003529 -0.999994 0.000020
vn -0.003547 -0.999994 -0.000019
vn -0.003539 -0.999994 -0.000002
vn -0.003538 -0.999994 -0.000000
vn -0.003543 -0.999994 -0.000010
vn -0.003526 -0.999994 0.000021
vn -0.003542 -0.999994 -0.000006
vn -0.003561 -0.999994 -0.000039
vn -0.003535 -0.999994 0.000003
vn -0.003539 -0.999994 -0.000004
vn -0.003522 -0.999994 0.000019
vn -0.003562 -0.999994 -0.000032
vn -0.003527 -0.999994 0.000010
vn -0.003551 -0.999994 -0.000017
vn -0.003540 -0.999994 -0.000003
vn -0.003550 -0.999994 -0.000028
vn -0.003553 -0.999994 -0.000036
vn -0.003551 -0.999994 -0.000017
vn -0.003523 -0.999994 0.000012
vn -0.003551 -0.999994 -0.000017
vn -0.003558 -0.999994 -0.000021
vn -0.003527 -0.999994 0.000010
vn -0.003537 -0.999994 -0.000002
vn -0.003535 -0.999994 0.000000
vn -0.003519 -0.999994 0.000013
vn -0.003548 -0.999994 -0.000016
vn -0.003538 -0.999994 -0.000002
vn -0.003539 -0.999994 -0.000004
vn -0.003563 -0.999994 -0.000020
vn -0.003535 -0.999994 0.000002
vn -0.003517 -0.999994 0.000011
vn -0.003535 -0.999994 0.000002
vn -0.003554 -0.999994 -0.000012
vn -0.003541 -0.999994 -0.000008
vn -0.003554 -0.999994 -0.000013
vn -0.003552 -0.999994 -0.000028
vn -0.003509 -0.999994 0.000012
vn -0.003542 -0.999994 -0.000009
vn -0.003567 -0.999994 -0.000018
vn -0.003538 -0.999994 -0.000001
vn -0.003522 -0.999994 0.000004
vn -0.003539 -0.999994 -0.000002
vn -0.003536 -0.999994 -0.000002
vn -0.003515 -0.999994 0.000048
vn -0.003556 -0.999994 -0.000011
vn -0.003562 -0.999994 -0.000058
vn -0.003501 -0.999994 0.000013
vn -0.003618 -0.999993 -0.000037
vn -0.003617 -0.999993 0.000028
vn -0.003501 -0.999994 -0.000021
vn -0.003556 -0.999994 0.000003
vn -0.003536 -0.999994 -0.000006
vn -0.003522 -0.999994 -0.000013
vn -0.003567 -0.999994 0.000009
vn -0.003509 -0.999994 -0.000021
vn -0.003554 -0.999994 0.000004
vn -0.003554 -0.999994 0.000004
vn -0.003517 -0.999994 -0.000019
vn -0.003563 -0.999994 0.000012
vn -0.003538 -0.999994 -0.000006
vn -0.003519 -0.999994 -0.000021
vn -0.003537 -0.999994 -0.000006
vn -0.003558 -0.999994 0.000012
vn -0.003523 -0.999994 -0.000021
vn -0.003551 -0.999994 0.000008
vn -0.003527 -0.999994 -0.000019
vn -0.003562 -0.999994 0.000023
vn -0.003522 -0.999994 -0.000027
vn -0.003539 -0.999994 -0.000004
vn -0.003539 -0.999994 -0.000005
vn -0.003535 -0.999994 -0.000011
vn -0.003561 -0.999994 0.000030
vn -0.003542 -0.999994 -0.000003
vn -0.003526 -0.999994 -0.000029
vn -0.003543 -0.999994 0.000001
vn -0.003538 -0.999994 -0.000008
vn -0.003539 -0.999994 -0.000006
vn -0.003547 -0.999994 0.000010
vn -0.003529 -0.999994 -0.000029
vn -0.003540 -0.999994 -0.000006
vn -0.003516 -0.999994 0.000050
vn -0.003550 -0.999994 0.000019
vn -0.003553 -0.999994 0.000026
vn 0.003540 0.999994 0.000004
vn 0.003540 0.999994 0.000004
vn -0.001245 -0.000007 0.999999
vn -0.001229 0.000009 0.999999
vn -0.001233 0.000004 0.999999
vn -0.001243 -0.000006 0.999999
vn -0.001238 0.000000 0.999999
vn -0.001231 0.000008 0.999999
vn -0.001245 -0.000005 0.999999
vn -0.001248 -0.000013 0.999999
vn -0.001236 0.000001 0.999999
vn -0.001239 -0.000002 0.999999
vn -0.001228 0.000007 0.999999
vn -0.001233 0.000008 0.999999
vn -0.001241 -0.000001 0.999999
vn -0.001241 -0.000005 0.999999
vn -0.001235 0.000002 0.999999
vn -0.001238 0.000000 0.999999
vn -0.001252 -0.000008 0.999999
vn -0.001237 0.000002 0.999999
vn -0.001225 0.000007 0.999999
vn -0.001237 0.000001 0.999999
vn -0.001248 -0.000005 0.999999
vn -0.001240 -0.000004 0.999999
vn -0.001246 -0.000004 0.999999
vn -0.001230 0.000016 0.999999
vn -0.001214 0.000011 0.999999
vn -0.001237 0.000001 0.999999
vn -0.001247 -0.000004 0.999999
vn -0.001248 -0.000023 0.999999
vn -0.001248 -0.000004 0.999999
vn -0.001227 0.000026 0.999999
vn -0.001250 -0.000005 0.999999
vn -0.001238 0.000000 0.999999
vn -0.001228 -0.000009 0.999999
vn -0.001251 0.000010 0.999999
vn -0.001225 -0.000010 0.999999
vn -0.001254 0.000011 0.999999
vn -0.001228 -0.000006 0.999999
vn -0.001243 0.000003 0.999999
vn -0.001239 0.000000 0.999999
vn -0.001235 -0.000002 0.999999
vn -0.001232 -0.000003 0.999999
vn -0.001230 -0.000004 0.999999
vn -0.001260 0.000010 0.999999
vn -0.001226 -0.000005 0.999999
vn -0.001226 -0.000006 0.999999
vn -0.001271 0.000014 0.999999
vn -0.001238 -0.000000 0.999999
vn -0.001249 0.000025 0.999999
vn -0.001238 0.000001 0.999999
vn -0.001232 -0.000013 0.999999
vn -0.001241 0.000007 0.999999
vn -0.001239 0.000002 0.999999
vn -0.001239 0.000002 0.999999
vn -0.001240 0.000004 0.999999
vn -0.001231 -0.000012 0.999999
vn -0.001236 -0.000004 0.999999
vn -0.001242 0.000006 0.999999
vn -0.001238 -0.000000 0.999999
vn -0.001235 -0.000004 0.999999
vn -0.001247 0.000010 0.999999
vn -0.001233 -0.000005 0.999999
vn -0.001238 -0.000000 0.999999
vn -0.001244 0.000016 0.999999
vn -0.001227 -0.000025 0.999999
vn -0.001235 -0.000003 0.999999
vn -0.001235 -0.000003 0.999999
vn -0.001247 0.000010 0.999999
vn -0.001238 0.000000 0.999999
vn -0.001233 -0.000006 0.999999
vn -0.001243 0.000005 0.999999
vn -0.001235 -0.000004 0.999999
vn -0.001234 -0.000003 0.999999
vn -0.001238 -0.000000 0.999999
vn -0.001242 0.000004 0.999999
vn -0.001242 0.000006 0.999999
vn -0.001235 -0.000002 0.999999
vn -0.001236 -0.000004 0.999999
vn -0.001228 -0.000006 0.999999
vn -0.001243 0.000008 0.999999
vn -0.001243 0.000003 0.999999
vn -0.001240 0.000003 0.999999
vn -0.001239 0.000000 0.999999
vn -0.001239 0.000001 0.999999
vn -0.001235 -0.000002 0.999999
vn -0.001226 -0.000024 0.999999
vn -0.001232 -0.000003 0.999999
vn -0.001241 0.000007 0.999999
vn -0.001259 0.000010 0.999999
vn -0.001246 0.000017 0.999999
vn -0.001227 -0.000005 0.999999
vn -0.001239 0.000001 0.999999
vn -0.001226 -0.000005 0.999999
vn -0.001232 -0.000014 0.999999
vn -0.001265 0.000012 0.999999
vn -0.001224 -0.000006 0.999999
vn -0.001250 -0.000005 0.999999
vn -0.001248 -0.000004 0.999999
vn -0.001210 0.000012 0.999999
vn -0.001245 -0.000004 0.999999
vn -0.001246 -0.000004 0.999999
vn -0.001220 0.000009 0.999999
vn -0.001249 -0.000006 0.999999
vn -0.001229 0.000005 0.999999
vn -0.001234 0.000002 0.999999
vn -0.001240 -0.000002 0.999999
vn -0.001246 -0.000006 0.999999
vn -0.001236 0.000001 0.999999
vn -0.001228 0.000008 0.999999
vn -0.001237 -0.000000 0.999999
vn -0.001248 -0.000010 0.999999
vn -0.001230 0.000007 0.999999
vn -0.001243 -0.000006 0.999999
vn -0.001243 -0.000006 0.999999
vn -0.001231 0.000008 0.999999
vn -0.001238 -0.000000 0.999999
vn -0.001234 0.000004 0.999999
vn -0.001239 -0.000003 0.999999
vn -0.001246 -0.000012 0.999999
vn -0.001228 0.000015 0.999999
vn -0.001238 -0.000001 0.999999
vn -0.001236 0.000002 0.999999
vn -0.001237 0.000000 0.999999
vn -0.001240 -0.000005 0.999999
vn -0.001245 -0.000015 0.999999
vn -0.001237 0.000001 0.999999
vn -0.001231 0.000015 0.999999
vn -0.001238 -0.000001 0.999999
vn -0.001245 0.000017 0.999999
vn -0.001224 0.000033 0.999999
vn -0.001245 -0.000018 0.999999
vn 0.001230 -0.000007 -0.999999
vn 0.001243 0.000006 -0.999999
vn 0.001248 0.000010 -0.999999
vn 0.001229 -0.000009 -0.999999
vn 0.001237 0.000000 -0.999999
vn 0.001244 0.000009 -0.999999
vn 0.001228 -0.000008 -0.999999
vn 0.001234 -0.000004 -0.999999
vn 0.001236 -0.000001 -0.999999
vn 0.001239 0.000002 -0.999999
vn 0.001246 0.000006 -0.999999
vn 0.001233 -0.000007 -0.999999
vn 0.001240 0.000002 -0.999999
vn 0.001241 0.000005 -0.999999
vn 0.001234 -0.000002 -0.999999
vn 0.001238 0.000001 -0.999999
vn 0.001229 -0.000005 -0.999999
vn 0.001236 -0.000002 -0.999999
vn 0.001249 0.000006 -0.999999
vn 0.001237 -0.000000 -0.999999
vn 0.001220 -0.000009 -0.999999
vn 0.001240 0.000005 -0.999999
vn 0.001246 0.000004 -0.999999
vn 0.001245 0.000015 -0.999999
vn 0.001246 0.000004 -0.999999
vn 0.001237 -0.000001 -0.999999
vn 0.001246 0.000004 -0.999999
vn 0.001231 -0.000014 -0.999999
vn 0.001207 -0.000013 -0.999999
vn 0.001245 0.000017 -0.999999
vn 0.001250 0.000005 -0.999999
vn 0.001238 -0.000000 -0.999999
vn 0.001243 -0.000005 -0.999999
vn 0.001234 0.000003 -0.999999
vn 0.001242 -0.000003 -0.999999
vn 0.001235 0.000002 -0.999999
vn 0.001228 0.000006 -0.999999
vn 0.001243 -0.000003 -0.999999
vn 0.001239 -0.000000 -0.999999
vn 0.001235 0.000002 -0.999999
vn 0.001258 -0.000011 -0.999999
vn 0.001229 0.000004 -0.999999
vn 0.001227 0.000005 -0.999999
vn 0.001226 0.000005 -0.999999
vn 0.001266 -0.000012 -0.999999
vn 0.001224 0.000006 -0.999999
vn 0.001238 0.000000 -0.999999
vn 0.001232 0.000013 -0.999999
vn 0.001238 -0.000001 -0.999999
vn 0.001246 -0.000018 -0.999999
vn 0.001227 0.000020 -0.999999
vn 0.001239 -0.000002 -0.999999
vn 0.001238 -0.000001 -0.999999
vn 0.001240 -0.000004 -0.999999
vn 0.001243 -0.000009 -0.999999
vn 0.001235 0.000003 -0.999999
vn 0.001242 -0.000007 -0.999999
vn 0.001237 -0.000000 -0.999999
vn 0.001234 0.000003 -0.999999
vn 0.001233 0.000005 -0.999999
vn 0.001233 0.000005 -0.999999
vn 0.001238 -0.000000 -0.999999
vn 0.001224 0.000033 -0.999999
vn 0.001245 -0.000018 -0.999999
vn 0.001235 0.000003 -0.999999
vn 0.001249 -0.000012 -0.999999
vn 0.001233 0.000005 -0.999999
vn 0.001238 -0.000001 -0.999999
vn 0.001247 -0.000010 -0.999999
vn 0.001227 0.000009 -0.999999
vn 0.001235 0.000004 -0.999999
vn 0.001250 -0.000010 -0.999999
vn 0.001238 0.000000 -0.999999
vn 0.001225 0.000009 -0.999999
vn 0.001242 -0.000006 -0.999999
vn 0.001235 0.000002 -0.999999
vn 0.001236 0.000004 -0.999999
vn 0.001248 -0.000007 -0.999999
vn 0.001230 0.000012 -0.999999
vn 0.001242 -0.000003 -0.999999
vn 0.001240 -0.000004 -0.999999
vn 0.001238 -0.000001 -0.999999
vn 0.001239 -0.000002 -0.999999
vn 0.001234 0.000001 -0.999999
vn 0.001239 -0.000002 -0.999999
vn 0.001231 0.000003 -0.999999
vn 0.001241 -0.000007 -0.999999
vn 0.001229 0.000004 -0.999999
vn 0.001232 0.000013 -0.999999
vn 0.001259 -0.000010 -0.999999
vn 0.001238 -0.000002 -0.999999
vn 0.001225 0.000005 -0.999999
vn 0.001232 0.000013 -0.999999
vn 0.001224 0.000006 -0.999999
vn 0.001269 -0.000014 -0.999999
vn 0.001250 0.000005 -0.999999
vn 0.001248 0.000004 -0.999999
vn 0.001247 0.000004 -0.999999
vn 0.001214 -0.000011 -0.999999
vn 0.001246 0.000004 -0.999999
vn 0.001248 0.000005 -0.999999
vn 0.001225 -0.000007 -0.999999
vn 0.001252 0.000008 -0.999999
vn 0.001235 -0.000002 -0.999999
vn 0.001241 0.000002 -0.999999
vn 0.001228 -0.000007 -0.999999
vn 0.001236 -0.000001 -0.999999
vn 0.001245 0.000005 -0.999999
vn 0.001238 -0.000000 -0.999999
vn 0.001233 -0.000004 -0.999999
vn 0.001245 0.000007 -0.999999
vn 0.001229 -0.000009 -0.999999
vn 0.001243 0.000006 -0.999999
vn 0.001231 -0.000008 -0.999999
vn 0.001237 -0.000000 -0.999999
vn 0.001248 0.000013 -0.999999
vn 0.001239 0.000002 -0.999999
vn 0.001233 -0.000008 -0.999999
vn 0.001241 0.000005 -0.999999
vn 0.001238 -0.000000 -0.999999
vn 0.001237 -0.000002 -0.999999
vn 0.001237 -0.000001 -0.999999
vn 0.001240 0.000004 -0.999999
vn 0.001230 -0.000016 -0.999999
vn 0.001237 -0.000001 -0.999999
vn 0.001248 0.000023 -0.999999
vn 0.001238 -0.000000 -0.999999
vn 0.001245 -0.000018 -0.999999
vn 0.001245 0.000016 -0.999999
vn 0.001227 -0.000026 -0.999999
vn 0.999993 -0.003540 0.001238
vn 0.999993 -0.003540 0.001238
vn 0.999651 -0.003539 0.026196
vn 0.999651 -0.003539 0.026196
vn 0.997103 -0.003530 0.075975
vn 0.992086 -0.003512 0.125512
vn 0.997103 -0.003530 0.075975
vn 0.992086 -0.003512 0.125512
vn 0.984583 -0.003486 0.174881
vn 0.974636 -0.003451 0.223770
vn 0.984583 -0.003486 0.174881
vn 0.974636 -0.003451 0.223770
vn 0.962293 -0.003407 0.271995
vn 0.962293 -0.003407 0.271995
vn 0.947501 -0.003355 0.319734
vn 0.930444 -0.003295 0.366420
vn 0.947501 -0.003355 0.319734
vn 0.930444 -0.003295 0.366421
vn 0.910980 -0.003227 0.412438
vn 0.911011 -0.003226 0.412370
vn 0.889295 -0.003150 0.457323
vn 0.889262 -0.003150 0.457387
vn 0.865405 -0.003065 0.501064
vn 0.865405 -0.003065 0.501064
vn 0.839346 -0.002973 0.543589
vn 0.839346 -0.002973 0.543589
vn 0.811231 -0.002874 0.584719
vn 0.811231 -0.002874 0.584719
vn 0.781053 -0.002767 0.624458
vn 0.781053 -0.002767 0.624458
vn 0.748940 -0.002654 0.662632
vn 0.714992 -0.002534 0.699128
vn 0.748940 -0.002654 0.662632
vn 0.714992 -0.002534 0.699128
vn 0.679306 -0.002408 0.733851
vn 0.679306 -0.002408 0.733851
vn 0.641782 -0.002275 0.766884
vn 0.602823 -0.002137 0.797872
vn 0.641782 -0.002275 0.766884
vn 0.602823 -0.002137 0.797872
vn 0.562293 -0.001994 0.826935
vn 0.562331 -0.001994 0.826909
vn 0.520416 -0.001846 0.853911
vn 0.520379 -0.001846 0.853933
vn 0.477129 -0.001693 0.878831
vn 0.477164 -0.001693 0.878813
vn 0.432787 -0.001536 0.901495
vn 0.432755 -0.001536 0.901510
vn 0.387269 -0.001375 0.921966
vn 0.387269 -0.001375 0.921966
vn 0.340849 -0.001211 0.940117
vn 0.340849 -0.001211 0.940117
vn 0.293575 -0.001043 0.955936
vn 0.293575 -0.001043 0.955936
vn 0.245546 -0.000873 0.969385
vn 0.245546 -0.000873 0.969385
vn 0.196934 -0.000701 0.980417
vn 0.147832 -0.000528 0.989012
vn 0.196934 -0.000701 0.980417
vn 0.147832 -0.000528 0.989012
vn 0.098311 -0.000352 0.995156
vn 0.098319 -0.000352 0.995155
vn 0.048622 -0.000176 0.998817
vn 0.048618 -0.000176 0.998817
vn -0.001244 0.000000 0.999999
vn -0.001244 0.000000 0.999999
vn -0.051064 0.000176 0.998695
vn -0.051085 0.000176 0.998694
vn -0.100799 0.000352 0.994907
vn -0.100787 0.000352 0.994908
vn -0.150286 0.000528 0.988642
vn -0.150274 0.000528 0.988644
vn -0.199342 0.000701 0.979930
vn -0.199342 0.000701 0.979930
vn -0.247943 0.000873 0.968774
vn -0.295943 0.001043 0.955205
vn -0.247963 0.000873 0.968769
vn -0.295920 0.001043 0.955212
vn -0.343165 0.001211 0.939274
vn -0.343192 0.001211 0.939265
vn -0.389589 0.001375 0.920988
vn -0.389589 0.001375 0.920988
vn -0.434960 0.001536 0.900449
vn -0.434992 0.001536 0.900433
vn -0.479380 0.001693 0.877606
vn -0.479346 0.001693 0.877625
vn -0.522469 0.001846 0.852656
vn -0.522469 0.001846 0.852656
vn -0.564332 0.001994 0.825546
vn -0.564370 0.001994 0.825520
vn -0.604775 0.002137 0.796394
vn -0.604775 0.002137 0.796394
vn -0.643751 0.002275 0.765232
vn -0.643739 0.002275 0.765242
vn -0.681055 0.002408 0.732229
vn -0.681084 0.002408 0.732201
vn -0.716735 0.002534 0.697341
vn -0.716694 0.002534 0.697383
vn -0.750627 0.002654 0.660721
vn -0.750627 0.002654 0.660721
vn -0.782571 0.002767 0.622555
vn -0.812653 0.002874 0.582741
vn -0.782571 0.002767 0.622555
vn -0.812653 0.002874 0.582741
vn -0.840703 0.002973 0.541488
vn -0.866635 0.003065 0.498933
vn -0.840709 0.002973 0.541479
vn -0.866630 0.003065 0.498942
vn -0.890390 0.003150 0.455187
vn -0.912040 0.003227 0.410089
vn -0.890423 0.003150 0.455122
vn -0.912040 0.003227 0.410089
vn -0.931313 0.003295 0.364206
vn -0.931315 0.003295 0.364199
vn -0.948323 0.003355 0.317288
vn -0.962936 0.003407 0.269707
vn -0.948297 0.003356 0.317368
vn -0.962958 0.003408 0.269631
vn -0.975195 0.003451 0.221319
vn -0.975195 0.003451 0.221319
vn -0.985028 0.003486 0.172358
vn -0.985028 0.003486 0.172358
vn -0.992383 0.003513 0.123142
vn -0.992383 0.003513 0.123141
vn -0.997287 0.003530 0.073528
vn -0.997287 0.003530 0.073528
vn -0.999716 0.003539 0.023584
vn -0.999714 0.003539 0.023666
vn -0.999653 0.003539 -0.026115
vn -0.999653 0.003539 -0.026115
vn -0.997103 0.003530 -0.075975
vn -0.997103 0.003530 -0.075976
vn -0.992076 0.003512 -0.125590
vn -0.992076 0.003512 -0.125592
vn -0.984597 0.003486 -0.174806
vn -0.984597 0.003486 -0.174806
vn -0.974637 0.003451 -0.223766
vn -0.974637 0.003451 -0.223766
vn -0.962291 0.003407 -0.272000
vn -0.962291 0.003407 -0.272000
vn -0.947503 0.003355 -0.319728
vn -0.947503 0.003355 -0.319728
vn -0.930416 0.003295 -0.366491
vn -0.930416 0.003295 -0.366491
vn -0.911011 0.003226 -0.412370
vn -0.911041 0.003227 -0.412303
vn -0.889262 0.003150 -0.457387
vn -0.889295 0.003150 -0.457323
vn -0.865405 0.003065 -0.501063
vn -0.865405 0.003065 -0.501064
vn -0.839346 0.002973 -0.543589
vn -0.839346 0.002973 -0.543589
vn -0.811224 0.002874 -0.584728
vn -0.811224 0.002874 -0.584729
vn -0.781013 0.002767 -0.624508
vn -0.781013 0.002767 -0.624508
vn -0.748981 0.002654 -0.662586
vn -0.748981 0.002654 -0.662586
vn -0.715002 0.002534 -0.699118
vn -0.715002 0.002534 -0.699118
vn -0.679254 0.002408 -0.733899
vn -0.679254 0.002408 -0.733899
vn -0.641834 0.002275 -0.766840
vn -0.641834 0.002275 -0.766840
vn -0.602823 0.002137 -0.797872
vn -0.602811 0.002137 -0.797881
vn -0.562331 0.001994 -0.826910
vn -0.562280 0.001994 -0.826945
vn -0.520358 0.001846 -0.853946
vn -0.520394 0.001846 -0.853924
vn -0.477182 0.001693 -0.878803
vn -0.477148 0.001693 -0.878821
vn -0.432740 0.001536 -0.901517
vn -0.432772 0.001536 -0.901502
vn -0.387298 0.001375 -0.921954
vn -0.387298 0.001375 -0.921954
vn -0.340849 0.001211 -0.940117
vn -0.340849 0.001211 -0.940117
vn -0.293575 0.001043 -0.955936
vn -0.293575 0.001043 -0.955935
vn -0.245546 0.000873 -0.969384
vn -0.245546 0.000873 -0.969384
vn -0.196914 0.000701 -0.980420
vn -0.196914 0.000701 -0.980421
vn -0.147832 0.000528 -0.989012
vn -0.147832 0.000528 -0.989012
vn -0.098331 0.000352 -0.995154
vn -0.098339 0.000352 -0.995153
vn -0.048598 0.000176 -0.998818
vn -0.048594 0.000176 -0.998819
vn 0.001224 0.000000 -0.999999
vn 0.001224 0.000000 -0.999999
vn 0.051089 -0.000176 -0.998694
vn 0.051089 -0.000176 -0.998694
vn 0.100779 -0.000352 -0.994909
vn 0.100787 -0.000352 -0.994908
vn 0.150286 -0.000528 -0.988642
vn 0.150274 -0.000528 -0.988644
vn 0.199361 -0.000701 -0.979926
vn 0.199361 -0.000701 -0.979926
vn 0.247944 -0.000873 -0.968774
vn 0.247924 -0.000873 -0.968779
vn 0.295920 -0.001043 -0.955212
vn 0.295943 -0.001043 -0.955205
vn 0.343192 -0.001211 -0.939265
vn 0.343165 -0.001211 -0.939274
vn 0.389560 -0.001375 -0.921000
vn 0.389560 -0.001375 -0.921000
vn 0.434992 -0.001536 -0.900433
vn 0.479346 -0.001693 -0.877625
vn 0.435024 -0.001536 -0.900418
vn 0.479311 -0.001693 -0.877643
vn 0.522505 -0.001846 -0.852634
vn 0.522505 -0.001846 -0.852634
vn 0.564332 -0.001994 -0.825546
vn 0.564370 -0.001994 -0.825520
vn 0.604775 -0.002137 -0.796394
vn 0.604775 -0.002137 -0.796394
vn 0.643711 -0.002275 -0.765266
vn 0.643711 -0.002275 -0.765265
vn 0.681125 -0.002408 -0.732163
vn 0.681084 -0.002408 -0.732201
vn 0.716744 -0.002534 -0.697331
vn 0.716745 -0.002534 -0.697331
vn 0.750586 -0.002654 -0.660767
vn 0.750546 -0.002654 -0.660813
vn 0.782611 -0.002767 -0.622506
vn 0.782611 -0.002767 -0.622506
vn 0.812646 -0.002874 -0.582751
vn 0.812646 -0.002874 -0.582751
vn 0.840709 -0.002973 -0.541479
vn 0.840709 -0.002973 -0.541478
vn 0.866630 -0.003065 -0.498942
vn 0.866630 -0.003065 -0.498942
vn 0.890428 -0.003150 -0.455114
vn 0.890395 -0.003150 -0.455179
vn 0.912009 -0.003227 -0.410157
vn 0.912009 -0.003227 -0.410157
vn 0.931340 -0.003295 -0.364135
vn 0.948297 -0.003356 -0.317368
vn 0.931340 -0.003295 -0.364135
vn 0.948321 -0.003355 -0.317294
vn 0.962959 -0.003408 -0.269626
vn 0.962938 -0.003407 -0.269702
vn 0.975194 -0.003451 -0.221324
vn 0.975194 -0.003451 -0.221323
vn 0.985015 -0.003486 -0.172434
vn 0.985014 -0.003486 -0.172437
vn 0.992393 -0.003513 -0.123064
vn 0.992393 -0.003513 -0.123061
vn 0.997287 -0.003530 -0.073526
vn 0.999712 -0.003539 -0.023748
vn 0.997287 -0.003530 -0.073528
vn 0.999714 -0.003539 -0.023666
vn -0.999594 0.028481 -0.001238
vn -0.999591 0.028562 -0.001237
vn -0.996932 0.078263 -0.001234
vn -0.996932 0.078263 -0.001234
vn -0.991800 0.127795 -0.001227
vn -0.991800 0.127795 -0.001227
vn -0.984181 0.177162 -0.001218
vn -0.984181 0.177162 -0.001218
vn -0.974132 0.225977 -0.001206
vn -0.961652 0.274269 -0.001190
vn -0.974132 0.225977 -0.001206
vn -0.946789 0.321853 -0.001172
vn -0.961652 0.274269 -0.001190
vn -0.929603 0.368561 -0.001150
vn -0.946789 0.321853 -0.001172
vn -0.929603 0.368561 -0.001150
vn -0.910023 0.414556 -0.001126
vn -0.910023 0.414556 -0.001126
vn -0.888256 0.459348 -0.001099
vn -0.888256 0.459348 -0.001099
vn -0.864232 0.503092 -0.001070
vn -0.864232 0.503092 -0.001070
vn -0.838126 0.545476 -0.001037
vn -0.838126 0.545476 -0.001037
vn -0.809838 0.586652 -0.001002
vn -0.809877 0.586599 -0.001003
vn -0.779664 0.626197 -0.000966
vn -0.779624 0.626247 -0.000965
vn -0.747363 0.664415 -0.000925
vn -0.747363 0.664415 -0.000925
vn -0.713422 0.700734 -0.000883
vn -0.713422 0.700734 -0.000883
vn -0.677603 0.735428 -0.000839
vn -0.677603 0.735428 -0.000839
vn -0.640031 0.768349 -0.000792
vn -0.640031 0.768349 -0.000792
vn -0.600991 0.799255 -0.000744
vn -0.600991 0.799255 -0.000744
vn -0.560402 0.828220 -0.000694
vn -0.560365 0.828246 -0.000693
vn -0.518426 0.855122 -0.000642
vn -0.518462 0.855100 -0.000642
vn -0.475128 0.879916 -0.000588
vn -0.475128 0.879916 -0.000588
vn -0.430717 0.902487 -0.000534
vn -0.385165 0.922848 -0.000477
vn -0.430685 0.902502 -0.000533
vn -0.385194 0.922835 -0.000477
vn -0.338661 0.940908 -0.000419
vn -0.338661 0.940908 -0.000419
vn -0.291358 0.956614 -0.000361
vn -0.291358 0.956614 -0.000361
vn -0.243322 0.969945 -0.000301
vn -0.243322 0.969945 -0.000301
vn -0.194703 0.980862 -0.000241
vn -0.194703 0.980862 -0.000241
vn -0.145510 0.989357 -0.000180
vn -0.145510 0.989357 -0.000180
vn -0.096053 0.995376 -0.000119
vn -0.096045 0.995377 -0.000119
vn -0.046315 0.998927 -0.000057
vn -0.046315 0.998927 -0.000057
vn 0.003509 0.999994 0.000004
vn 0.003509 0.999994 0.000004
vn 0.053409 0.998573 0.000066
vn 0.053413 0.998573 0.000066
vn 0.103066 0.994675 0.000128
vn 0.103066 0.994675 0.000128
vn 0.152529 0.988299 0.000189
vn 0.152529 0.988299 0.000189
vn 0.201653 0.979457 0.000250
vn 0.250150 0.968207 0.000310
vn 0.201636 0.979460 0.000250
vn 0.250170 0.968202 0.000310
vn 0.298140 0.954522 0.000369
vn 0.298140 0.954522 0.000369
vn 0.345357 0.938471 0.000427
vn 0.345357 0.938471 0.000427
vn 0.391696 0.920094 0.000485
vn 0.391696 0.920094 0.000485
vn 0.437033 0.899446 0.000541
vn 0.437033 0.899446 0.000541
vn 0.481417 0.876492 0.000596
vn 0.481417 0.876492 0.000596
vn 0.524456 0.851437 0.000649
vn 0.524420 0.851460 0.000650
vn 0.566247 0.824235 0.000701
vn 0.566209 0.824261 0.000701
vn 0.606611 0.794998 0.000751
vn 0.606611 0.794998 0.000751
vn 0.645530 0.763735 0.000799
vn 0.645530 0.763735 0.000799
vn 0.682748 0.730654 0.000845
vn 0.682748 0.730654 0.000845
vn 0.718358 0.695673 0.000889
vn 0.718358 0.695673 0.000889
vn 0.752090 0.659059 0.000931
vn 0.752090 0.659059 0.000931
vn 0.784003 0.620757 0.000970
vn 0.784003 0.620757 0.000970
vn 0.814028 0.580825 0.001008
vn 0.813989 0.580880 0.001007
vn 0.841932 0.539582 0.001042
vn 0.867805 0.496904 0.001074
vn 0.841970 0.539524 0.001043
vn 0.867805 0.496904 0.001074
vn 0.891445 0.453128 0.001103
vn 0.891445 0.453128 0.001103
vn 0.912991 0.407978 0.001130
vn 0.932144 0.362086 0.001154
vn 0.912991 0.407978 0.001130
vn 0.949061 0.315089 0.001174
vn 0.932144 0.362086 0.001154
vn 0.949037 0.315163 0.001176
vn 0.963559 0.267493 0.001192
vn 0.963580 0.267417 0.001194
vn 0.975716 0.219039 0.001209
vn 0.975698 0.219116 0.001207
vn 0.985418 0.170146 0.001219
vn 0.985432 0.170067 0.001221
vn 0.992669 0.120855 0.001228
vn 0.992669 0.120855 0.001228
vn 0.997458 0.071244 0.001234
vn 0.997464 0.071163 0.001236
vn 0.999772 0.021300 0.001238
vn 0.999771 0.021381 0.001237
vn 0.999596 -0.028399 0.001237
vn 0.999596 -0.028399 0.001237
vn 0.996932 -0.078260 0.001234
vn 0.996926 -0.078341 0.001235
vn 0.991789 -0.127881 0.001229
vn 0.991789 -0.127881 0.001229
vn 0.984195 -0.177083 0.001219
vn 0.984209 -0.177004 0.001218
vn 0.974132 -0.225977 0.001206
vn 0.974114 -0.226055 0.001207
vn 0.961674 -0.274193 0.001191
vn 0.961652 -0.274269 0.001190
vn 0.946789 -0.321853 0.001172
vn 0.946789 -0.321853 0.001172
vn 0.929552 -0.368688 0.001150
vn 0.929553 -0.368688 0.001150
vn 0.910085 -0.414421 0.001126
vn 0.910085 -0.414421 0.001126
vn 0.888223 -0.459412 0.001099
vn 0.888223 -0.459412 0.001099
vn 0.864257 -0.503049 0.001070
vn 0.864257 -0.503049 0.001070
vn 0.838088 -0.545534 0.001037
vn 0.838088 -0.545534 0.001037
vn 0.809877 -0.586599 0.001002
vn 0.809877 -0.586599 0.001002
vn 0.779585 -0.626296 0.000965
vn 0.779585 -0.626296 0.000965
vn 0.747463 -0.664303 0.000925
vn 0.747463 -0.664303 0.000925
vn 0.713402 -0.700754 0.000883
vn 0.713402 -0.700754 0.000883
vn 0.677543 -0.735482 0.000838
vn 0.677543 -0.735482 0.000838
vn 0.640087 -0.768302 0.000792
vn 0.640047 -0.768335 0.000793
vn 0.600991 -0.799255 0.000744
vn 0.600991 -0.799255 0.000744
vn 0.560430 -0.828201 0.000694
vn 0.560393 -0.828227 0.000693
vn 0.518360 -0.855162 0.000642
vn 0.475196 -0.879880 0.000589
vn 0.518396 -0.855140 0.000642
vn 0.475162 -0.879898 0.000588
vn 0.430687 -0.902501 0.000533
vn 0.385159 -0.922850 0.000477
vn 0.430687 -0.902501 0.000533
vn 0.385159 -0.922850 0.000477
vn 0.338687 -0.940899 0.000419
vn 0.338661 -0.940908 0.000420
vn 0.291358 -0.956614 0.000361
vn 0.291380 -0.956607 0.000361
vn 0.243342 -0.969941 0.000301
vn 0.243342 -0.969941 0.000301
vn 0.194680 -0.980867 0.000241
vn 0.194680 -0.980867 0.000241
vn 0.145538 -0.989353 0.000180
vn 0.145538 -0.989353 0.000180
vn 0.096053 -0.995376 0.000119
vn 0.096053 -0.995376 0.000119
vn 0.046270 -0.998929 0.000057
vn 0.046270 -0.998929 0.000057
vn -0.003509 -0.999994 -0.000004
vn -0.003509 -0.999994 -0.000004
vn -0.053377 -0.998574 -0.000066
vn -0.053373 -0.998575 -0.000066
vn -0.103074 -0.994674 -0.000128
vn -0.103066 -0.994675 -0.000128
vn -0.152557 -0.988295 -0.000189
vn -0.152557 -0.988295 -0.000189
vn -0.201613 -0.979465 -0.000250
vn -0.201613 -0.979465 -0.000250
vn -0.250208 -0.968192 -0.000310
vn -0.298140 -0.954522 -0.000369
vn -0.250208 -0.968192 -0.000310
vn -0.298140 -0.954522 -0.000369
vn -0.345330 -0.938481 -0.000428
vn -0.345357 -0.938471 -0.000427
vn -0.391633 -0.920122 -0.000485
vn -0.437098 -0.899414 -0.000541
vn -0.391633 -0.920122 -0.000485
vn -0.437098 -0.899414 -0.000541
vn -0.481382 -0.876511 -0.000596
vn -0.481348 -0.876529 -0.000596
vn -0.524463 -0.851433 -0.000649
vn -0.566237 -0.824242 -0.000701
vn -0.524463 -0.851433 -0.000649
vn -0.566275 -0.824216 -0.000701
vn -0.606651 -0.794968 -0.000751
vn -0.606611 -0.794998 -0.000751
vn -0.645466 -0.763789 -0.000799
vn -0.682769 -0.730633 -0.000845
vn -0.645466 -0.763789 -0.000799
vn -0.718338 -0.695694 -0.000889
vn -0.682769 -0.730633 -0.000845
vn -0.752108 -0.659039 -0.000931
vn -0.718338 -0.695694 -0.000889
vn -0.752108 -0.659039 -0.000931
vn -0.784043 -0.620706 -0.000970
vn -0.784043 -0.620706 -0.000970
vn -0.813989 -0.580880 -0.001007
vn -0.813989 -0.580879 -0.001007
vn -0.841970 -0.539524 -0.001042
vn -0.841970 -0.539524 -0.001042
vn -0.867760 -0.496983 -0.001074
vn -0.867760 -0.496983 -0.001074
vn -0.891478 -0.453063 -0.001103
vn -0.891478 -0.453063 -0.001103
vn -0.912930 -0.408114 -0.001131
vn -0.912961 -0.408046 -0.001130
vn -0.932204 -0.361931 -0.001154
vn -0.932177 -0.362001 -0.001155
vn -0.949037 -0.315163 -0.001174
vn -0.963580 -0.267417 -0.001192
vn -0.949037 -0.315163 -0.001174
vn -0.963580 -0.267417 -0.001192
vn -0.975698 -0.219116 -0.001207
vn -0.985418 -0.170146 -0.001219
vn -0.975698 -0.219116 -0.001207
vn -0.985418 -0.170146 -0.001219
vn -0.992679 -0.120780 -0.001228
vn -0.992679 -0.120780 -0.001228
vn -0.997458 -0.071241 -0.001234
vn -0.997458 -0.071241 -0.001234
vn -0.999769 -0.021463 -0.001238
vn -0.999771 -0.021381 -0.001237
vn -0.003015 -0.999995 0.000590
vn -0.005235 -0.999984 -0.001931
vn -0.002607 -0.999996 0.000737
vn -0.002672 -0.999996 0.000687
vn -0.004234 -0.999991 -0.001001
vn -0.003607 -0.999994 -0.000020
vn -0.003670 -0.999993 -0.000051
vn -0.002994 -0.999995 0.000297
vn -0.004051 -0.999992 -0.000280
vn -0.003674 -0.999993 -0.000318
vn -0.003607 -0.999994 -0.000049
vn -0.003498 -0.999994 0.000025
vn -0.003557 -0.999994 -0.000021
vn -0.003379 -0.999994 0.000066
vn -0.003437 -0.999994 0.000288
vn -0.003703 -0.999993 -0.000661
vn -0.003399 -0.999994 0.000057
vn -0.003647 -0.999993 -0.000340
vn -0.003553 -0.999994 -0.000032
vn -0.003559 -0.999994 -0.000055
vn -0.003563 -0.999994 -0.000069
vn -0.004921 -0.999988 -0.000129
vn -0.002768 -0.999996 0.000089
vn -0.003500 -0.999994 0.000264
vn -0.003559 -0.999994 -0.000011
vn -0.003500 -0.999994 -0.000264
vn -0.004923 -0.999988 0.000117
vn -0.003820 -0.999993 0.000008
vn -0.003492 -0.999994 -0.000379
vn -0.003591 -0.999993 0.000605
vn -0.003639 -0.999993 -0.000005
vn -0.003490 -0.999994 -0.000004
vn -0.003030 -0.999995 -0.000050
vn -0.003747 -0.999993 0.000818
vn -0.003547 -0.999994 0.000025
vn -0.003723 -0.999993 0.000712
vn -0.001940 -0.999998 -0.000556
vn -0.003678 -0.999993 0.000316
vn -0.003537 -0.999994 -0.000041
vn -0.003927 -0.999992 0.000165
vn -0.003610 -0.999994 0.000013
vn -0.003343 -0.999994 -0.000081
vn -0.003358 -0.999994 -0.000075
vn -0.003656 -0.999993 0.000033
vn -0.003520 -0.999994 -0.000030
vn -0.003470 -0.999994 -0.000117
vn -0.003305 -0.999995 -0.000104
vn -0.003552 -0.999994 -0.000000
vn -0.002169 -0.999996 -0.001731
vn -0.005236 -0.999985 0.001564
vn -0.003584 -0.999994 0.000036
vn -0.003115 -0.999995 -0.000377
vn -0.003599 -0.999994 0.000059
vn -0.001813 -0.999997 -0.001766
vn -0.003615 -0.999994 0.000077
vn -0.002666 -0.999996 -0.000697
vn -0.002612 -0.999996 -0.000738
vn -0.004237 -0.999991 0.000992
vn -0.003864 -0.999992 0.000256
vn -0.003473 -0.999994 -0.000112
vn -0.003599 -0.999994 0.000106
vn -0.003276 -0.999995 -0.000416
vn -0.003753 -0.999993 0.000321
vn -0.003491 -0.999994 -0.000062
vn -0.003548 -0.999994 0.000028
vn -0.003671 -0.999993 0.000042
vn -0.003621 -0.999993 0.000018
vn -0.004329 -0.999991 0.000378
vn -0.003540 -0.999994 -0.000002
vn -0.003172 -0.999994 -0.001069
vn -0.003484 -0.999994 -0.000144
vn -0.003536 -0.999994 -0.000004
vn -0.003531 -0.999994 -0.000016
vn -0.003748 -0.999993 0.000823
vn -0.003908 -0.999992 0.000077
vn -0.004950 -0.999988 0.000287
vn -0.003481 -0.999994 -0.000448
vn -0.003512 -0.999994 -0.000206
vn -0.003438 -0.999994 -0.000029
vn -0.004931 -0.999988 0.000118
vn -0.003499 -0.999994 -0.000278
vn -0.003551 -0.999994 0.000060
vn -0.003535 -0.999994 -0.000003
vn -0.003545 -0.999994 -0.000005
vn -0.003589 -0.999992 -0.001543
vn -0.003545 -0.999994 -0.000006
vn -0.003544 -0.999994 -0.000003
vn -0.003542 -0.999994 -0.000004
vn -0.003539 -0.999994 -0.000005
vn -0.003520 -0.999994 -0.000006
vn -0.003278 -0.999995 -0.000004
vn -0.004381 -0.999990 -0.000061
vn -0.003549 -0.999994 0.000003
vn -0.004947 -0.999988 -0.000299
vn -0.003439 -0.999994 0.000008
vn -0.003645 -0.999993 -0.000013
vn -0.003703 -0.999993 -0.000661
vn -0.003734 -0.999993 -0.000773
vn -0.003562 -0.999994 -0.000092
vn -0.003590 -0.999994 -0.000006
vn -0.003514 -0.999994 0.000120
vn -0.003511 -0.999994 0.000133
vn -0.003542 -0.999994 -0.000005
vn -0.003542 -0.999994 -0.000005
vn -0.004556 -0.999990 -0.000479
vn -0.003623 -0.999993 -0.000028
vn -0.003885 -0.999992 -0.000175
vn -0.003463 -0.999994 0.000120
vn -0.003523 -0.999994 0.000016
vn -0.005185 -0.999986 -0.001122
vn -0.003594 -0.999994 -0.000034
vn -0.003565 -0.999994 -0.000012
vn -0.004229 -0.999991 -0.000995
vn -0.003581 -0.999994 -0.000091
vn -0.003527 -0.999994 -0.000001
vn -0.003524 -0.999994 -0.000001
vn -0.003535 -0.999994 -0.000003
vn -0.003522 -0.999994 0.000005
vn -0.003550 -0.999994 -0.000010
vn -0.003512 -0.999994 0.000006
vn -0.003650 -0.999993 -0.000038
vn -0.005237 -0.999985 -0.001583
vn -0.003544 -0.999994 -0.000007
vn -0.003321 -0.999994 0.000137
f 1//1 2//1 3//1
f 3//2 2//2 4//2
f 5//3 3//3 6//3
f 7//4 6//4 3//4
f 8//5 3//5 5//5
f 9//6 7//6 3//6
f 10//7 3//7 8//7
f 11//8 9//8 3//8
f 12//9 3//9 10//9
f 13//10 11//10 3//10
f 14//11 3//11 12//11
f 15//12 13//12 3//12
f 16//13 3//13 14//13
f 17//14 15//14 3//14
f 18//15 3//15 16//15
f 19//16 17//16 3//16
f 20//17 3//17 18//17
f 21//18 19//18 3//18
f 22//19 3//19 20//19
f 23//20 21//20 3//20
f 24//21 3//21 22//21
f 25//22 23//22 3//22
f 26//23 3//23 24//23
f 27//24 25//24 3//24
f 28//25 3//25 26//25
f 29//26 27//26 3//26
f 30//27 3//27 28//27
f 31//28 29//28 3//28
f 32//29 3//29 30//29
f 33//30 31//30 3//30
f 34//31 3//31 32//31
f 35//32 33//32 3//32
f 36//33 3//33 34//33
f 1//34 37//34 38//34
f 1//35 39//35 37//35
f 1//36 40//36 39//36
f 1//37 41//37 40//37
f 1//38 42//38 41//38
f 1//39 43//39 42//39
f 1//40 44//40 43//40
f 1//41 45//41 44//41
f 1//42 46//42 45//42
f 1//43 47//43 46//43
f 1//44 48//44 47//44
f 1//45 49//45 48//45
f 1//46 50//46 49//46
f 1//47 51//47 50//47
f 1//48 36//48 51//48
f 1//49 3//49 36//49
f 52//50 53//50 54//50
f 52//51 55//51 53//51
f 52//52 56//52 55//52
f 52//53 57//53 56//53
f 52//54 58//54 57//54
f 52//55 59//55 58//55
f 52//56 60//56 59//56
f 52//57 61//57 60//57
f 52//58 62//58 61//58
f 52//59 63//59 62//59
f 52//60 64//60 63//60
f 52//61 65//61 64//61
f 52//62 66//62 65//62
f 52//63 67//63 66//63
f 52//64 35//64 3//64
f 52//65 68//65 35//65
f 52//66 54//66 68//66
f 69//67 1//67 38//67
f 70//68 67//68 52//68
f 71//69 1//69 69//69
f 72//70 70//70 52//70
f 73//71 1//71 71//71
f 74//72 72//72 52//72
f 75//73 1//73 73//73
f 76//74 74//74 52//74
f 77//75 1//75 75//75
f 78//76 76//76 52//76
f 79//77 1//77 77//77
f 80//78 78//78 52//78
f 81//79 1//79 79//79
f 82//80 80//80 52//80
f 83//81 1//81 81//81
f 84//82 82//82 52//82
f 85//83 1//83 83//83
f 86//84 84//84 52//84
f 87//85 1//85 85//85
f 88//86 86//86 52//86
f 89//87 1//87 87//87
f 90//88 88//88 52//88
f 91//89 1//89 89//89
f 92//90 90//90 52//90
f 93//91 1//91 91//91
f 94//92 92//92 52//92
f 95//93 1//93 93//93
f 96//94 94//94 52//94
f 97//95 1//95 95//95
f 98//96 96//96 52//96
f 99//97 98//97 52//97
f 100//98 101//98 99//98
f 100//99 102//99 101//99
f 100//100 103//100 102//100
f 100//101 104//101 103//101
f 100//102 105//102 104//102
f 100//103 106//103 105//103
f 100//104 107//104 106//104
f 100//105 108//105 107//105
f 100//106 109//106 108//106
f 100//107 110//107 109//107
f 100//108 111//108 110//108
f 100//109 112//109 111//109
f 100//110 113//110 112//110
f 100//111 114//111 113//111
f 100//112 115//112 114//112
f 100//113 116//113 115//113
f 100//114 117//114 116//114
f 100//115 118//115 117//115
f 100//116 119//116 118//116
f 100//117 120//117 119//117
f 100//118 99//118 52//118
f 100//119 121//119 120//119
f 100//120 122//120 121//120
f 100//121 123//121 122//121
f 100//122 124//122 123//122
f 100//123 125//123 124//123
f 100//124 126//124 125//124
f 100//125 127//125 126//125
f 100//126 128//126 127//126
f 100//127 129//127 128//127
f 100//128 130//128 129//128
f 100//129 1//129 131//129
f 131//130 1//130 97//130
f 100//131 131//131 132//131
f 100//132 132//132 130//132
f 2//133 133//133 4//133
f 4//134 133//134 134//134
f 2//135 135//135 136//135
f 136//136 137//136 2//136
f 2//137 138//137 135//137
f 137//138 139//138 2//138
f 2//139 140//139 138//139
f 139//140 141//140 2//140
f 2//141 142//141 140//141
f 141//142 143//142 2//142
f 2//143 144//143 142//143
f 143//144 145//144 2//144
f 2//145 146//145 144//145
f 145//146 147//146 2//146
f 2//147 148//147 146//147
f 147//148 149//148 2//148
f 2//149 150//149 148//149
f 149//150 151//150 2//150
f 2//151 152//151 150//151
f 151//152 153//152 2//152
f 2//153 154//153 152//153
f 153//154 155//154 2//154
f 2//155 156//155 154//155
f 155//156 157//156 2//156
f 2//157 158//157 156//157
f 157//158 159//158 2//158
f 2//159 160//159 158//159
f 159//160 161//160 2//160
f 2//161 162//161 160//161
f 161//162 163//162 2//162
f 2//163 164//163 162//163
f 163//164 165//164 2//164
f 2//165 166//165 164//165
f 167//166 1//166 168//166
f 169//167 1//167 167//167
f 170//168 1//168 169//168
f 171//169 1//169 170//169
f 172//170 1//170 171//170
f 173//171 1//171 172//171
f 174//172 1//172 173//172
f 175//173 1//173 174//173
f 176//174 1//174 175//174
f 177//175 1//175 176//175
f 178//176 1//176 177//176
f 179//177 1//177 178//177
f 180//178 1//178 179//178
f 181//179 1//179 180//179
f 166//180 1//180 181//180
f 2//181 1//181 166//181
f 182//182 133//182 183//182
f 184//183 133//183 182//183
f 185//184 133//184 184//184
f 186//185 133//185 185//185
f 187//186 133//186 186//186
f 188//187 133//187 187//187
f 189//188 133//188 188//188
f 190//189 133//189 189//189
f 191//190 133//190 190//190
f 192//191 133//191 191//191
f 193//192 133//192 192//192
f 194//193 133//193 193//193
f 195//194 133//194 194//194
f 196//195 133//195 195//195
f 165//196 133//196 2//196
f 197//197 133//197 165//197
f 183//198 133//198 197//198
f 1//199 198//199 168//199
f 196//200 199//200 133//200
f 1//201 200//201 198//201
f 199//202 201//202 133//202
f 1//203 202//203 200//203
f 201//204 203//204 133//204
f 1//205 204//205 202//205
f 203//206 205//206 133//206
f 1//207 206//207 204//207
f 205//208 207//208 133//208
f 1//209 208//209 206//209
f 207//210 209//210 133//210
f 1//211 210//211 208//211
f 209//212 211//212 133//212
f 1//213 212//213 210//213
f 211//214 213//214 133//214
f 1//215 214//215 212//215
f 213//216 215//216 133//216
f 1//217 216//217 214//217
f 215//218 217//218 133//218
f 1//219 218//219 216//219
f 217//220 219//220 133//220
f 1//221 220//221 218//221
f 219//222 221//222 133//222
f 1//223 222//223 220//223
f 221//224 223//224 133//224
f 1//225 224//225 222//225
f 223//226 225//226 133//226
f 1//227 226//227 224//227
f 225//228 227//228 133//228
f 227//229 228//229 133//229
f 229//230 100//230 228//230
f 230//231 100//231 229//231
f 231//232 100//232 230//232
f 232//233 100//233 231//233
f 233//234 100//234 232//234
f 234//235 100//235 233//235
f 235//236 100//236 234//236
f 236//237 100//237 235//237
f 237//238 100//238 236//238
f 238//239 100//239 237//239
f 239//240 100//240 238//240
f 240//241 100//241 239//241
f 241//242 100//242 240//242
f 242//243 100//243 241//243
f 243//244 100//244 242//244
f 244//245 100//245 243//245
f 245//246 100//246 244//246
f 246//247 100//247 245//247
f 247//248 100//248 246//248
f 228//249 100//249 133//249
f 248//250 100//250 247//250
f 249//251 100//251 248//251
f 250//252 100//252 249//252
f 251//253 100//253 250//253
f 252//254 100//254 251//254
f 253//255 100//255 252//255
f 254//256 100//256 253//256
f 255//257 100//257 254//257
f 256//258 100//258 255//258
f 257//259 100//259 256//259
f 258//260 100//260 257//260
f 1//261 100//261 259//261
f 1//262 259//262 226//262
f 259//263 100//263 260//263
f 260//264 100//264 258//264
f 261//265 4//265 262//265
f 263//266 262//266 4//266
f 264//267 4//267 261//267
f 265//268 263//268 4//268
f 266//269 4//269 264//269
f 267//270 265//270 4//270
f 268//271 4//271 266//271
f 269//272 267//272 4//272
f 270//273 4//273 268//273
f 271//274 269//274 4//274
f 272//275 4//275 270//275
f 273//276 271//276 4//276
f 274//277 4//277 272//277
f 275//278 273//278 4//278
f 276//279 4//279 274//279
f 277//280 275//280 4//280
f 278//281 4//281 276//281
f 279//282 277//282 4//282
f 280//283 4//283 278//283
f 281//284 279//284 4//284
f 282//285 4//285 280//285
f 283//286 281//286 4//286
f 284//287 4//287 282//287
f 285//288 283//288 4//288
f 286//289 4//289 284//289
f 287//290 285//290 4//290
f 288//291 4//291 286//291
f 289//292 287//292 4//292
f 290//293 4//293 288//293
f 291//294 289//294 4//294
f 292//295 4//295 290//295
f 3//296 293//296 294//296
f 3//297 295//297 293//297
f 3//298 296//298 295//298
f 3//299 297//299 296//299
f 3//300 298//300 297//300
f 3//301 299//301 298//301
f 3//302 300//302 299//302
f 3//303 301//303 300//303
f 3//304 302//304 301//304
f 3//305 303//305 302//305
f 3//306 304//306 303//306
f 3//307 305//307 304//307
f 3//308 306//308 305//308
f 3//309 307//309 306//309
f 3//310 292//310 307//310
f 3//311 4//311 292//311
f 134//312 308//312 309//312
f 134//313 310//313 308//313
f 134//314 311//314 310//314
f 134//315 312//315 311//315
f 134//316 313//316 312//316
f 134//317 314//317 313//317
f 134//318 315//318 314//318
f 134//319 316//319 315//319
f 134//320 317//320 316//320
f 134//321 318//321 317//321
f 134//322 319//322 318//322
f 134//323 320//323 319//323
f 134//324 321//324 320//324
f 134//325 322//325 321//325
f 134//326 291//326 4//326
f 134//327 323//327 291//327
f 134//328 309//328 323//328
f 324//329 3//329 294//329
f 325//330 322//330 134//330
f 326//331 3//331 324//331
f 327//332 325//332 134//332
f 328//333 3//333 326//333
f 329//334 327//334 134//334
f 330//335 3//335 328//335
f 331//336 329//336 134//336
f 332//337 3//337 330//337
f 333//338 331//338 134//338
f 334//339 3//339 332//339
f 335//340 333//340 134//340
f 336//341 3//341 334//341
f 337//342 335//342 134//342
f 338//343 3//343 336//343
f 339//344 337//344 134//344
f 340//345 3//345 338//345
f 341//346 339//346 134//346
f 342//347 3//347 340//347
f 343//348 341//348 134//348
f 344//349 3//349 342//349
f 345//350 343//350 134//350
f 346//351 3//351 344//351
f 347//352 345//352 134//352
f 348//353 3//353 346//353
f 349//354 347//354 134//354
f 350//355 3//355 348//355
f 351//356 349//356 134//356
f 352//357 3//357 350//357
f 353//358 351//358 134//358
f 354//359 353//359 134//359
f 52//360 355//360 354//360
f 52//361 356//361 355//361
f 52//362 357//362 356//362
f 52//363 358//363 357//363
f 52//364 359//364 358//364
f 52//365 360//365 359//365
f 52//366 361//366 360//366
f 52//367 362//367 361//367
f 52//368 363//368 362//368
f 52//369 364//369 363//369
f 52//370 365//370 364//370
f 52//371 366//371 365//371
f 52//372 367//372 366//372
f 52//373 368//373 367//373
f 52//374 369//374 368//374
f 52//375 370//375 369//375
f 52//376 371//376 370//376
f 52//377 372//377 371//377
f 52//378 373//378 372//378
f 52//379 354//379 134//379
f 52//380 374//380 373//380
f 52//381 375//381 374//381
f 52//382 376//382 375//382
f 52//383 377//383 376//383
f 52//384 378//384 377//384
f 52//385 379//385 378//385
f 52//386 380//386 379//386
f 52//387 381//387 380//387
f 52//388 382//388 381//388
f 52//389 383//389 382//389
f 52//390 384//390 383//390
f 52//391 3//391 385//391
f 385//392 3//392 352//392
f 52//393 385//393 386//393
f 52//394 386//394 384//394
f 133//395 100//395 52//395
f 133//396 52//396 134//396
f 99//397 101//397 387//397
f 387//398 101//398 388//398
f 388//399 101//399 389//399
f 389//400 102//400 390//400
f 101//401 102//401 389//401
f 102//402 103//402 390//402
f 390//403 104//403 391//403
f 391//404 104//404 392//404
f 103//405 104//405 390//405
f 104//406 105//406 392//406
f 392//407 106//407 393//407
f 105//408 106//408 392//408
f 393//409 107//409 394//409
f 394//410 107//410 395//410
f 106//411 107//411 393//411
f 107//412 108//412 395//412
f 395//413 109//413 396//413
f 108//414 109//414 395//414
f 396//415 110//415 397//415
f 109//416 110//416 396//416
f 110//417 111//417 397//417
f 397//418 111//418 398//418
f 398//419 111//419 399//419
f 111//420 112//420 399//420
f 112//421 113//421 399//421
f 399//422 113//422 400//422
f 113//423 114//423 400//423
f 400//424 114//424 401//424
f 401//425 115//425 402//425
f 402//426 115//426 403//426
f 114//427 115//427 401//427
f 115//428 116//428 403//428
f 403//429 117//429 404//429
f 116//430 117//430 403//430
f 404//431 118//431 405//431
f 405//432 118//432 406//432
f 117//433 118//433 404//433
f 118//434 119//434 406//434
f 406//435 120//435 407//435
f 119//436 120//436 406//436
f 407//437 121//437 408//437
f 120//438 121//438 407//438
f 408//439 122//439 409//439
f 121//440 122//440 408//440
f 409//441 123//441 410//441
f 122//442 123//442 409//442
f 410//443 124//443 411//443
f 123//444 124//444 410//444
f 411//445 125//445 412//445
f 124//446 125//446 411//446
f 412//447 126//447 413//447
f 125//448 126//448 412//448
f 413//449 127//449 414//449
f 126//450 127//450 413//450
f 414//451 128//451 415//451
f 415//452 128//452 416//452
f 127//453 128//453 414//453
f 128//454 129//454 416//454
f 416//455 130//455 417//455
f 129//456 130//456 416//456
f 417//457 132//457 418//457
f 130//458 132//458 417//458
f 418//459 131//459 419//459
f 132//460 131//460 418//460
f 419//461 97//461 420//461
f 131//462 97//462 419//462
f 420//463 95//463 421//463
f 97//464 95//464 420//464
f 421//465 93//465 422//465
f 95//466 93//466 421//466
f 422//467 91//467 423//467
f 93//468 91//468 422//468
f 423//469 89//469 424//469
f 424//470 89//470 425//470
f 91//471 89//471 423//471
f 89//472 87//472 425//472
f 425//473 87//473 426//473
f 87//474 85//474 426//474
f 85//475 83//475 426//475
f 426//476 83//476 427//476
f 83//477 81//477 427//477
f 427//478 81//478 428//478
f 81//479 79//479 428//479
f 428//480 79//480 429//480
f 79//481 77//481 429//481
f 429//482 77//482 430//482
f 77//483 75//483 430//483
f 430//484 75//484 431//484
f 75//485 73//485 431//485
f 431//486 73//486 432//486
f 73//487 71//487 432//487
f 432//488 71//488 433//488
f 433//489 71//489 434//489
f 71//490 69//490 434//490
f 434//491 38//491 435//491
f 69//492 38//492 434//492
f 435//493 37//493 436//493
f 38//494 37//494 435//494
f 436//495 39//495 437//495
f 437//496 39//496 438//496
f 37//497 39//497 436//497
f 39//498 40//498 438//498
f 438//499 41//499 439//499
f 439//500 41//500 440//500
f 40//501 41//501 438//501
f 41//502 42//502 440//502
f 440//503 43//503 441//503
f 441//504 43//504 442//504
f 42//505 43//505 440//505
f 43//506 44//506 442//506
f 442//507 45//507 443//507
f 44//508 45//508 442//508
f 443//509 46//509 444//509
f 444//510 46//510 445//510
f 45//511 46//511 443//511
f 46//512 47//512 445//512
f 445//513 48//513 446//513
f 47//514 48//514 445//514
f 446//515 49//515 447//515
f 48//516 49//516 446//516
f 447//517 50//517 448//517
f 49//518 50//518 447//518
f 50//519 51//519 448//519
f 448//520 51//520 449//520
f 449//521 51//521 450//521
f 51//522 36//522 450//522
f 450//523 36//523 451//523
f 36//524 34//524 451//524
f 34//525 32//525 451//525
f 451//526 32//526 452//526
f 452//527 32//527 453//527
f 32//528 30//528 453//528
f 453//529 30//529 454//529
f 30//530 28//530 454//530
f 454//531 28//531 455//531
f 28//532 26//532 455//532
f 26//533 24//533 455//533
f 455//534 24//534 456//534
f 456//535 24//535 457//535
f 24//536 22//536 457//536
f 457//537 22//537 458//537
f 22//538 20//538 458//538
f 20//539 18//539 458//539
f 458//540 18//540 459//540
f 459//541 18//541 460//541
f 18//542 16//542 460//542
f 16//543 14//543 460//543
f 460//544 14//544 461//544
f 14//545 12//545 461//545
f 461//546 12//546 462//546
f 12//547 10//547 462//547
f 462//548 10//548 463//548
f 463//549 10//549 464//549
f 10//550 8//550 464//550
f 8//551 5//551 464//551
f 464//552 5//552 465//552
f 5//553 6//553 465//553
f 465//554 6//554 466//554
f 466//555 6//555 467//555
f 6//556 7//556 467//556
f 7//557 9//557 467//557
f 467//558 9//558 468//558
f 9//559 11//559 468//559
f 468//560 11//560 469//560
f 469//561 13//561 470//561
f 11//562 13//562 469//562
f 470//563 13//563 471//563
f 13//564 15//564 471//564
f 471//565 17//565 472//565
f 15//566 17//566 471//566
f 472//567 19//567 473//567
f 17//568 19//568 472//568
f 473//569 21//569 474//569
f 19//570 21//570 473//570
f 21//571 23//571 474//571
f 474//572 23//572 475//572
f 23//573 25//573 475//573
f 475//574 25//574 476//574
f 25//575 27//575 476//575
f 476//576 27//576 477//576
f 27//577 29//577 477//577
f 477//578 29//578 478//578
f 478//579 29//579 479//579
f 29//580 31//580 479//580
f 31//581 33//581 479//581
f 479//582 33//582 480//582
f 33//583 35//583 480//583
f 480//584 35//584 481//584
f 35//585 68//585 481//585
f 481//586 68//586 482//586
f 68//587 54//587 482//587
f 482//588 54//588 483//588
f 54//589 53//589 483//589
f 483//590 53//590 484//590
f 53//591 55//591 484//591
f 484//592 55//592 485//592
f 55//593 56//593 485//593
f 485//594 56//594 486//594
f 486//595 57//595 487//595
f 56//596 57//596 486//596
f 487//597 58//597 488//597
f 57//598 58//598 487//598
f 488//599 59//599 489//599
f 58//600 59//600 488//600
f 489//601 60//601 490//601
f 59//602 60//602 489//602
f 490//603 61//603 491//603
f 491//604 61//604 492//604
f 60//605 61//605 490//605
f 61//606 62//606 492//606
f 492//607 63//607 493//607
f 62//608 63//608 492//608
f 493//609 64//609 494//609
f 63//610 64//610 493//610
f 494//611 65//611 495//611
f 64//612 65//612 494//612
f 495//613 66//613 496//613
f 65//614 66//614 495//614
f 496//615 67//615 497//615
f 66//616 67//616 496//616
f 497//617 70//617 498//617
f 67//618 70//618 497//618
f 70//619 72//619 498//619
f 498//620 72//620 499//620
f 72//621 74//621 499//621
f 499//622 74//622 500//622
f 74//623 76//623 500//623
f 500//624 76//624 501//624
f 76//625 78//625 501//625
f 501//626 78//626 502//626
f 78//627 80//627 502//627
f 502//628 80//628 503//628
f 503//629 82//629 504//629
f 80//630 82//630 503//630
f 504//631 84//631 505//631
f 82//632 84//632 504//632
f 505//633 86//633 506//633
f 506//634 86//634 507//634
f 84//635 86//635 505//635
f 86//636 88//636 507//636
f 507//637 90//637 508//637
f 88//638 90//638 507//638
f 508//639 92//639 509//639
f 90//640 92//640 508//640
f 509//641 94//641 510//641
f 92//642 94//642 509//642
f 510//643 96//643 511//643
f 94//644 96//644 510//644
f 511//645 98//645 512//645
f 512//646 98//646 387//646
f 96//647 98//647 511//647
f 98//648 99//648 387//648
f 229//649 228//649 354//649
f 229//650 354//650 355//650
f 230//651 355//651 356//651
f 230//652 229//652 355//652
f 231//653 356//653 357//653
f 231//654 230//654 356//654
f 232//655 357//655 358//655
f 232//656 231//656 357//656
f 233//657 358//657 359//657
f 233//658 359//658 360//658
f 233//659 232//659 358//659
f 234//660 360//660 361//660
f 234//661 233//661 360//661
f 235//662 361//662 362//662
f 235//663 234//663 361//663
f 236//664 235//664 362//664
f 237//665 362//665 363//665
f 237//666 236//666 362//666
f 238//667 363//667 364//667
f 238//668 237//668 363//668
f 239//669 238//669 364//669
f 239//670 364//670 365//670
f 240//671 239//671 365//671
f 240//672 365//672 366//672
f 241//673 240//673 366//673
f 241//674 366//674 367//674
f 242//675 241//675 367//675
f 242//676 367//676 368//676
f 242//677 368//677 369//677
f 243//678 242//678 369//678
f 244//679 243//679 369//679
f 244//680 369//680 370//680
f 245//681 370//681 371//681
f 245//682 244//682 370//682
f 246//683 371//683 372//683
f 246//684 245//684 371//684
f 247//685 372//685 373//685
f 247//686 246//686 372//686
f 248//687 373//687 374//687
f 248//688 247//688 373//688
f 249//689 374//689 375//689
f 249//690 248//690 374//690
f 250//691 375//691 376//691
f 250//692 249//692 375//692
f 251//693 376//693 377//693
f 251//694 377//694 378//694
f 251//695 250//695 376//695
f 252//696 251//696 378//696
f 253//697 378//697 379//697
f 253//698 252//698 378//698
f 254//699 379//699 380//699
f 254//700 253//700 379//700
f 255//701 380//701 381//701
f 255//702 254//702 380//702
f 256//703 381//703 382//703
f 256//704 255//704 381//704
f 257//705 382//705 383//705
f 257//706 256//706 382//706
f 258//707 383//707 384//707
f 258//708 257//708 383//708
f 260//709 384//709 386//709
f 260//710 258//710 384//710
f 259//711 386//711 385//711
f 259//712 260//712 386//712
f 226//713 385//713 352//713
f 226//714 259//714 385//714
f 224//715 352//715 350//715
f 224//716 226//716 352//716
f 222//717 350//717 348//717
f 222//718 224//718 350//718
f 220//719 348//719 346//719
f 220//720 346//720 344//720
f 220//721 222//721 348//721
f 218//722 220//722 344//722
f 216//723 218//723 344//723
f 216//724 344//724 342//724
f 216//725 342//725 340//725
f 214//726 216//726 340//726
f 212//727 214//727 340//727
f 212//728 340//728 338//728
f 210//729 212//729 338//729
f 210//730 338//730 336//730
f 210//731 336//731 334//731
f 208//732 210//732 334//732
f 208//733 334//733 332//733
f 206//734 208//734 332//734
f 204//735 206//735 332//735
f 204//736 332//736 330//736
f 204//737 330//737 328//737
f 202//738 204//738 328//738
f 202//739 328//739 326//739
f 200//740 202//740 326//740
f 200//741 326//741 324//741
f 198//742 200//742 324//742
f 168//743 324//743 294//743
f 168//744 198//744 324//744
f 168//745 294//745 293//745
f 167//746 168//746 293//746
f 169//747 167//747 293//747
f 169//748 293//748 295//748
f 170//749 295//749 296//749
f 170//750 169//750 295//750
f 171//751 296//751 297//751
f 171//752 297//752 298//752
f 171//753 170//753 296//753
f 172//754 171//754 298//754
f 173//755 298//755 299//755
f 173//756 172//756 298//756
f 174//757 299//757 300//757
f 174//758 300//758 301//758
f 174//759 173//759 299//759
f 175//760 301//760 302//760
f 175//761 174//761 301//761
f 176//762 175//762 302//762
f 177//763 302//763 303//763
f 177//764 176//764 302//764
f 178//765 303//765 304//765
f 178//766 177//766 303//766
f 179//767 304//767 305//767
f 179//768 178//768 304//768
f 180//769 305//769 306//769
f 180//770 179//770 305//770
f 181//771 180//771 306//771
f 181//772 306//772 307//772
f 166//773 181//773 307//773
f 166//774 307//774 292//774
f 164//775 166//775 292//775
f 164//776 292//776 290//776
f 162//777 164//777 290//777
f 162//778 290//778 288//778
f 160//779 162//779 288//779
f 160//780 288//780 286//780
f 158//781 160//781 286//781
f 158//782 286//782 284//782
f 156//783 158//783 284//783
f 156//784 284//784 282//784
f 156//785 282//785 280//785
f 154//786 156//786 280//786
f 152//787 154//787 280//787
f 152//788 280//788 278//788
f 150//789 152//789 278//789
f 150//790 278//790 276//790
f 148//791 150//791 276//791
f 148//792 276//792 274//792
f 146//793 148//793 274//793
f 146//794 274//794 272//794
f 144//795 146//795 272//795
f 144//796 272//796 270//796
f 144//797 270//797 268//797
f 142//798 144//798 268//798
f 140//799 142//799 268//799
f 140//800 268//800 266//800
f 138//801 140//801 266//801
f 138//802 266//802 264//802
f 138//803 264//803 261//803
f 135//804 138//804 261//804
f 136//805 135//805 261//805
f 136//806 261//806 262//806
f 136//807 262//807 263//807
f 137//808 136//808 263//808
f 139//809 137//809 263//809
f 139//810 263//810 265//810
f 141//811 139//811 265//811
f 141//812 265//812 267//812
f 141//813 267//813 269//813
f 143//814 141//814 269//814
f 145//815 269//815 271//815
f 145//816 271//816 273//816
f 145//817 143//817 269//817
f 147//818 145//818 273//818
f 149//819 273//819 275//819
f 149//820 275//820 277//820
f 149//821 147//821 273//821
f 151//822 149//822 277//822
f 153//823 151//823 277//823
f 153//824 277//824 279//824
f 155//825 153//825 279//825
f 155//826 279//826 281//826
f 155//827 281//827 283//827
f 157//828 155//828 283//828
f 159//829 157//829 283//829
f 159//830 283//830 285//830
f 161//831 159//831 285//831
f 161//832 285//832 287//832
f 161//833 287//833 289//833
f 163//834 161//834 289//834
f 165//835 163//835 289//835
f 165//836 289//836 291//836
f 165//837 291//837 323//837
f 197//838 165//838 323//838
f 183//839 197//839 323//839
f 183//840 323//840 309//840
f 183//841 309//841 308//841
f 182//842 183//842 308//842
f 182//843 308//843 310//843
f 184//844 182//844 310//844
f 184//845 310//845 311//845
f 185//846 184//846 311//846
f 186//847 311//847 312//847
f 186//848 312//848 313//848
f 186//849 185//849 311//849
f 187//850 186//850 313//850
f 188//851 313//851 314//851
f 188//852 187//852 313//852
f 189//853 314//853 315//853
f 189//854 315//854 316//854
f 189//855 188//855 314//855
f 190//856 189//856 316//856
f 191//857 316//857 317//857
f 191//858 190//858 316//858
f 192//859 317//859 318//859
f 192//860 318//860 319//860
f 192//861 191//861 317//861
f 193//862 192//862 319//862
f 194//863 319//863 320//863
f 194//864 193//864 319//864
f 195//865 320//865 321//865
f 195//866 321//866 322//866
f 195//867 194//867 320//867
f 196//868 322//868 325//868
f 196//869 195//869 322//869
f 199//870 325//870 327//870
f 199//871 196//871 325//871
f 201//872 199//872 327//872
f 201//873 327//873 329//873
f 203//874 201//874 329//874
f 203//875 329//875 331//875
f 205//876 203//876 331//876
f 207//877 205//877 331//877
f 207//878 331//878 333//878
f 209//879 207//879 333//879
f 209//880 333//880 335//880
f 211//881 335//881 337//881
f 211//882 209//882 335//882
f 213//883 337//883 339//883
f 213//884 211//884 337//884
f 215//885 339//885 341//885
f 215//886 213//886 339//886
f 217//887 341//887 343//887
f 217//888 343//888 345//888
f 217//889 215//889 341//889
f 219//890 217//890 345//890
f 221//891 345//891 347//891
f 221//892 347//892 349//892
f 221//893 219//893 345//893
f 223//894 221//894 349//894
f 225//895 349//895 351//895
f 225//896 223//896 349//896
f 227//897 351//897 353//897
f 227//898 225//898 351//898
f 228//899 353//899 354//899
f 228//900 227//900 353//900
f 466//901 468//901 465//901
f 467//902 468//902 466//902
f 464//903 462//903 463//903
f 465//904 462//904 464//904
f 469//905 470//905 468//905
f 460//906 458//906 459//906
f 461//907 458//907 460//907
f 462//908 458//908 461//908
f 462//909 457//909 458//909
f 474//910 475//910 473//910
f 468//911 456//911 465//911
f 470//912 456//912 468//912
f 465//913 456//913 462//913
f 462//914 456//914 457//914
f 475//915 477//915 473//915
f 476//916 477//916 475//916
f 456//917 454//917 455//917
f 477//918 478//918 473//918
f 478//919 479//919 473//919
f 472//920 479//920 471//920
f 473//921 479//921 472//921
f 453//922 451//922 452//922
f 454//923 451//923 453//923
f 480//924 481//924 479//924
f 454//925 450//925 451//925
f 483//926 484//926 482//926
f 449//927 447//927 448//927
f 450//928 447//928 449//928
f 484//929 485//929 482//929
f 482//930 485//930 481//930
f 456//931 446//931 454//931
f 454//932 446//932 450//932
f 450//933 446//933 447//933
f 486//934 487//934 485//934
f 485//935 488//935 481//935
f 487//936 488//936 485//936
f 444//937 442//937 443//937
f 489//938 490//938 488//938
f 488//939 490//939 481//939
f 444//940 440//940 442//940
f 442//941 440//941 441//941
f 445//942 440//942 444//942
f 446//943 440//943 445//943
f 446//944 439//944 440//944
f 491//945 493//945 490//945
f 492//946 493//946 491//946
f 446//947 438//947 439//947
f 456//948 438//948 446//948
f 495//949 496//949 494//949
f 436//950 434//950 435//950
f 437//951 434//951 436//951
f 438//952 434//952 437//952
f 494//953 498//953 493//953
f 497//954 498//954 496//954
f 496//955 498//955 494//955
f 499//956 501//956 498//956
f 500//957 501//957 499//957
f 432//958 430//958 431//958
f 501//959 502//959 498//959
f 430//960 428//960 429//960
f 432//961 428//961 430//961
f 433//962 427//962 432//962
f 434//963 427//963 433//963
f 438//964 427//964 434//964
f 432//965 427//965 428//965
f 503//966 505//966 502//966
f 504//967 505//967 503//967
f 505//968 506//968 502//968
f 456//969 424//969 438//969
f 426//970 424//970 425//970
f 427//971 424//971 426//971
f 470//972 424//972 456//972
f 438//973 424//973 427//973
f 424//974 422//974 423//974
f 508//975 510//975 507//975
f 509//976 510//976 508//976
f 422//977 420//977 421//977
f 424//978 420//978 422//978
f 510//979 512//979 507//979
f 511//980 512//980 510//980
f 424//981 419//981 420//981
f 424//982 417//982 419//982
f 493//983 417//983 490//983
f 490//984 417//984 481//984
f 419//985 417//985 418//985
f 498//986 417//986 493//986
f 470//987 417//987 424//987
f 479//988 417//988 471//988
f 471//989 417//989 470//989
f 481//990 417//990 479//990
f 388//991 389//991 387//991
f 389//992 390//992 387//992
f 387//993 390//993 512//993
f 391//994 392//994 390//994
f 390//995 392//995 512//995
f 392//996 393//996 512//996
f 414//997 412//997 413//997
f 415//998 412//998 414//998
f 416//999 412//999 415//999
f 393//1000 394//1000 512//1000
f 417//1001 411//1001 416//1001
f 416//1002 411//1002 412//1002
f 417//1003 410//1003 411//1003
f 498//1004 410//1004 417//1004
f 395//1005 397//1005 394//1005
f 396//1006 397//1006 395//1006
f 397//1007 398//1007 394//1007
f 409//1008 407//1008 408//1008
f 410//1009 407//1009 409//1009
f 399//1010 400//1010 398//1010
f 398//1011 400//1011 394//1011
f 507//1012 405//1012 506//1012
f 407//1013 405//1013 406//1013
f 410//1014 405//1014 407//1014
f 498//1015 405//1015 410//1015
f 502//1016 405//1016 498//1016
f 506//1017 405//1017 502//1017
f 400//1018 401//1018 394//1018
f 512//1019 404//1019 507//1019
f 394//1020 404//1020 512//1020
f 507//1021 404//1021 405//1021
f 402//1022 403//1022 401//1022
f 401//1023 403//1023 394//1023
f 394//1024 403//1024 404//1024
