# Created by FreeCAD <https://www.freecad.org>
v -275.139008 190.300095 -86.959549
v -274.531555 164.907364 -86.960304
v -275.170441 190.300095 -112.359528
v -274.562988 164.907364 -112.360275
v -282.361084 190.127853 -104.751915
v -282.622467 190.121613 -105.019302
v -282.896820 190.115051 -105.273315
v -282.113373 190.133774 -104.471840
v -283.183502 190.108200 -105.513344
v -281.879913 190.139343 -104.179749
v -283.481812 190.101074 -105.738777
v -281.661285 190.144562 -103.876389
v -283.790924 190.093674 -105.949043
v -281.458069 190.149414 -103.562508
v -284.110199 190.086044 -106.143654
v -281.270752 190.153885 -103.238876
v -284.438751 190.078201 -106.322090
v -281.099762 190.157974 -102.906311
v -284.775787 190.070145 -106.483932
v -280.945618 190.161652 -102.565636
v -285.120453 190.061890 -106.628761
v -280.808594 190.164917 -102.217690
v -285.471893 190.053497 -106.756226
v -280.689087 190.167770 -101.863350
v -285.829315 190.044952 -106.866013
v -280.587372 190.170181 -101.503494
v -286.191711 190.036285 -106.957840
v -280.503723 190.172180 -101.139015
v -286.558258 190.027512 -107.031487
v -280.438385 190.173721 -100.770821
v -286.927979 190.018677 -107.086769
v -280.391418 190.174835 -100.399818
v -287.300018 190.009766 -107.123535
v -280.363007 190.175507 -100.026932
v -287.673462 190.000839 -107.141716
v -280.353241 190.175735 -99.653107
v -282.101440 190.133774 -94.830025
v -282.348450 190.127853 -94.549332
v -281.868683 190.139343 -95.122688
v -281.650848 190.144562 -95.426598
v -281.448395 190.149414 -95.740982
v -281.261871 190.153885 -96.065071
v -281.091705 190.157974 -96.398056
v -280.938385 190.161652 -96.739113
v -280.802246 190.164917 -97.087402
v -280.683594 190.167770 -97.442032
v -280.582794 190.170181 -97.802139
v -280.500031 190.172180 -98.166824
v -280.435608 190.173721 -98.535179
v -280.389587 190.174835 -98.906303
v -280.362091 190.175507 -99.279251
v -300.563141 189.692642 -112.328094
v -288.792603 189.974060 -107.084457
v -288.420654 189.982971 -107.122147
v -289.162201 189.965225 -107.028259
v -289.528564 189.956451 -106.953712
v -289.890717 189.947784 -106.860985
v -290.247864 189.939240 -106.750313
v -290.598999 189.930832 -106.621979
v -290.943329 189.922592 -106.476295
v -291.279938 189.914536 -106.313622
v -291.608063 189.906693 -106.134369
v -291.926819 189.899048 -105.938972
v -292.235443 189.891663 -105.727936
v -292.533173 189.884537 -105.501770
v -292.819275 189.877686 -105.261040
v -293.092987 189.871124 -105.006340
v -288.047302 189.991898 -107.141251
v -282.609161 190.121613 -94.281303
v -293.353699 189.864883 -104.738312
v -282.882904 190.115051 -94.026611
v -293.600739 189.858963 -104.457619
v -283.169006 190.108200 -93.785873
v -293.833466 189.853394 -104.164955
v -283.466736 190.101074 -93.559708
v -294.051331 189.848175 -103.861046
v -283.775330 190.093674 -93.348671
v -294.253754 189.843323 -103.546669
v -284.094116 190.086044 -93.153275
v -294.440277 189.838852 -103.222572
v -284.422211 190.078201 -92.974022
v -294.610443 189.834763 -102.889587
v -284.758850 190.070145 -92.811348
v -294.763794 189.831085 -102.548531
v -285.103149 190.061890 -92.665665
v -294.899902 189.827820 -102.200249
v -285.454315 190.053497 -92.537331
v -295.018555 189.824966 -101.845612
v -285.811432 190.044952 -92.426659
v -295.119354 189.822556 -101.485504
v -286.173615 190.036285 -92.333939
v -295.202118 189.820557 -101.120819
v -286.539948 190.027512 -92.259384
v -295.266571 189.819000 -100.752464
v -286.909576 190.018677 -92.203186
v -295.312592 189.817902 -100.381340
v -287.281525 190.009766 -92.165497
v -295.340057 189.817230 -100.008392
v -295.348938 189.817001 -99.634544
v -300.531708 189.692642 -86.928116
v -295.339142 189.817230 -99.260712
v -295.310730 189.817902 -98.887833
v -295.263824 189.819000 -98.516823
v -295.198425 189.820557 -98.148628
v -295.114777 189.822556 -97.784149
v -295.013092 189.824966 -97.424294
v -294.893555 189.827820 -97.069954
v -294.756592 189.831085 -96.722008
v -294.602386 189.834763 -96.381332
v -294.431396 189.838852 -96.048767
v -294.244080 189.843323 -95.725136
v -294.040863 189.848175 -95.411255
v -293.822266 189.853394 -95.107895
v -293.588806 189.858963 -94.815811
v -293.341064 189.864883 -94.535728
v -293.079712 189.871124 -94.268341
v -292.805359 189.877686 -94.014328
v -292.518646 189.884537 -93.774300
v -292.220367 189.891663 -93.548874
v -291.911224 189.899048 -93.338600
v -291.591980 189.906693 -93.143990
v -291.263428 189.914536 -92.965553
v -290.926392 189.922592 -92.803711
v -290.581726 189.930832 -92.658882
v -290.230255 189.939240 -92.531418
v -289.872864 189.947784 -92.421631
v -289.510437 189.956451 -92.329803
v -289.143921 189.965225 -92.256165
v -288.774170 189.974060 -92.200882
v -288.402130 189.982971 -92.164108
v -287.654877 190.000839 -92.146393
v -288.028748 189.991898 -92.145927
v -299.924255 164.299911 -86.928871
v -299.955719 164.299911 -112.328842
v -281.913330 172.331635 -86.951164
v -282.167969 172.057770 -86.950851
v -282.435944 171.796921 -86.950516
v -281.672668 172.617874 -86.951462
v -282.716583 171.549774 -86.950172
v -281.446564 172.915741 -86.951744
v -283.009186 171.316910 -86.949806
v -281.235596 173.224503 -86.952003
v -283.313019 171.098923 -86.949432
v -281.040283 173.543411 -86.952248
v -283.627380 170.896347 -86.949043
v -280.861084 173.871643 -86.952469
v -283.951416 170.709702 -86.948647
v -280.698486 174.208405 -86.952667
v -284.284393 170.539429 -86.948235
v -280.552887 174.552841 -86.952850
v -284.625397 170.385971 -86.947807
v -280.424622 174.904129 -86.953011
v -284.973633 170.249710 -86.947380
v -280.314026 175.261368 -86.953148
v -285.328247 170.130966 -86.946938
v -280.221375 175.623672 -86.953262
v -285.688354 170.030045 -86.946495
v -280.146912 175.990143 -86.953354
v -286.053009 169.947205 -86.946045
v -280.090820 176.359863 -86.953423
v -286.421356 169.882629 -86.945587
v -280.053192 176.731918 -86.953468
v -286.792450 169.836517 -86.945129
v -280.034180 177.105408 -86.953491
v -287.165405 169.808960 -86.944664
v -280.033813 177.479370 -86.953491
v -281.903259 182.256927 -86.951180
v -282.157318 182.531311 -86.950867
v -281.663147 181.970215 -86.951477
v -281.437653 181.671890 -86.951752
v -281.227325 181.362701 -86.952019
v -281.032654 181.043396 -86.952255
v -280.854126 180.714798 -86.952477
v -280.692230 180.377701 -86.952675
v -280.547333 180.032974 -86.952858
v -280.419769 179.681427 -86.953018
v -280.309906 179.323975 -86.953148
v -280.217987 178.961487 -86.953262
v -280.144287 178.594864 -86.953354
v -280.088898 178.225006 -86.953423
v -280.052032 177.852875 -86.953468
v -288.285980 169.838028 -86.943275
v -287.913086 169.809708 -86.943741
v -288.656982 169.884903 -86.942818
v -289.025177 169.950211 -86.942360
v -289.389679 170.033813 -86.941910
v -289.749573 170.135468 -86.941467
v -290.103943 170.254913 -86.941025
v -290.451935 170.391891 -86.940598
v -290.792633 170.546036 -86.940178
v -291.125244 170.716980 -86.939766
v -291.448914 170.904297 -86.939362
v -291.762817 171.107498 -86.938972
v -292.066223 171.326111 -86.938599
v -292.358398 171.559555 -86.938232
v -292.638489 171.807297 -86.937889
v -287.539276 169.800003 -86.944199
v -282.424774 182.792709 -86.950531
v -292.905945 172.068680 -86.937561
v -282.704926 183.040436 -86.950188
v -293.160034 172.343079 -86.937241
v -282.997040 183.273895 -86.949821
v -293.400116 172.629791 -86.936943
v -283.300446 183.492508 -86.949448
v -293.625610 172.928116 -86.936668
v -283.614380 183.695694 -86.949059
v -293.835938 173.237305 -86.936409
v -283.938049 183.883026 -86.948662
v -294.030609 173.556595 -86.936165
v -284.270630 184.053970 -86.948250
v -294.209167 173.885193 -86.935944
v -284.611359 184.208099 -86.947823
v -294.371063 174.222290 -86.935745
v -284.959320 184.345093 -86.947395
v -294.515961 174.567032 -86.935562
v -285.313690 184.464554 -86.946953
v -294.643494 174.918579 -86.935410
v -285.673584 184.566193 -86.946510
v -294.753387 175.276031 -86.935272
v -286.038086 184.649780 -86.946060
v -294.845276 175.638519 -86.935158
v -286.406281 184.715103 -86.945602
v -294.919006 176.005142 -86.935066
v -286.777313 184.761963 -86.945145
v -294.974365 176.374985 -86.934998
v -287.150177 184.790283 -86.944687
v -295.011230 176.747131 -86.934952
v -295.029510 177.120636 -86.934929
v -295.029114 177.494598 -86.934929
v -295.010071 177.868073 -86.934952
v -294.972473 178.240143 -86.934998
v -294.916382 178.609863 -86.935066
v -294.841888 178.976334 -86.935165
v -294.749237 179.338638 -86.935280
v -294.638641 179.695877 -86.935410
v -294.510406 180.047150 -86.935570
v -294.364807 180.391586 -86.935753
v -294.202179 180.728348 -86.935951
v -294.023010 181.056595 -86.936172
v -293.827698 181.375504 -86.936417
v -293.616730 181.684265 -86.936676
v -293.390625 181.982132 -86.936958
v -293.149933 182.268356 -86.937256
v -292.895294 182.542236 -86.937569
v -292.627350 182.803070 -86.937904
v -292.346680 183.050232 -86.938248
v -292.054077 183.283096 -86.938614
v -291.750244 183.501068 -86.938988
v -291.435913 183.703659 -86.939377
v -291.111847 183.890305 -86.939781
v -290.778900 184.060562 -86.940193
v -290.437866 184.214035 -86.940613
v -290.089630 184.350296 -86.941048
v -289.735016 184.469040 -86.941483
v -289.374908 184.569946 -86.941933
v -289.010254 184.652802 -86.942383
v -288.641907 184.717361 -86.942833
v -288.270813 184.763474 -86.943298
v -287.524017 184.800003 -86.944221
v -287.897888 184.791046 -86.943756
v -281.944763 172.331635 -112.351143
v -282.199402 172.057770 -112.350822
v -282.467377 171.796921 -112.350494
v -281.704132 172.617874 -112.351440
v -282.748016 171.549774 -112.350143
v -281.477997 172.915741 -112.351715
v -283.040649 171.316910 -112.349785
v -281.267029 173.224503 -112.351982
v -283.344482 171.098923 -112.349411
v -281.071716 173.543411 -112.352219
v -283.658844 170.896347 -112.349022
v -280.892517 173.871643 -112.352440
v -283.982849 170.709702 -112.348618
v -280.729919 174.208405 -112.352646
v -284.315826 170.539429 -112.348206
v -280.584320 174.552841 -112.352821
v -284.656830 170.385971 -112.347786
v -280.456055 174.904129 -112.352982
v -285.005096 170.249710 -112.347351
v -280.345459 175.261368 -112.353119
v -285.359711 170.130966 -112.346916
v -280.252808 175.623672 -112.353233
v -285.719788 170.030045 -112.346466
v -280.178345 175.990143 -112.353325
v -286.084473 169.947205 -112.346016
v -280.122253 176.359863 -112.353394
v -286.452789 169.882629 -112.345558
v -280.084625 176.731918 -112.353439
v -286.823914 169.836517 -112.345100
v -280.065613 177.105408 -112.353470
v -287.196869 169.808960 -112.344635
v -280.065247 177.479370 -112.353470
v -281.934692 182.256927 -112.351151
v -282.188782 182.531311 -112.350838
v -281.694580 181.970215 -112.351448
v -281.469116 181.671890 -112.351730
v -281.258759 181.362701 -112.351990
v -281.064087 181.043396 -112.352234
v -280.885559 180.714798 -112.352455
v -280.723663 180.377701 -112.352654
v -280.578766 180.032974 -112.352829
v -280.451202 179.681427 -112.352989
v -280.341339 179.323975 -112.353127
v -280.249420 178.961487 -112.353241
v -280.175720 178.594864 -112.353333
v -280.120361 178.225006 -112.353401
v -280.083496 177.852875 -112.353447
v -288.317413 169.838028 -112.343254
v -287.944519 169.809708 -112.343712
v -288.688416 169.884903 -112.342789
v -289.056641 169.950211 -112.342339
v -289.421143 170.033813 -112.341888
v -289.781036 170.135468 -112.341438
v -290.135406 170.254913 -112.341003
v -290.483368 170.391891 -112.340569
v -290.824066 170.546036 -112.340149
v -291.156677 170.716980 -112.339737
v -291.480347 170.904297 -112.339333
v -291.794250 171.107498 -112.338951
v -292.097656 171.326111 -112.338570
v -292.389832 171.559555 -112.338211
v -292.669952 171.807297 -112.337860
v -287.570709 169.800003 -112.344177
v -282.456207 182.792709 -112.350510
v -292.937378 172.068680 -112.337532
v -282.736359 183.040436 -112.350159
v -293.191498 172.343079 -112.337219
v -283.028503 183.273895 -112.349800
v -293.431549 172.629791 -112.336922
v -283.331909 183.492508 -112.349426
v -293.657043 172.928116 -112.336639
v -283.645813 183.695694 -112.349037
v -293.867401 173.237305 -112.336380
v -283.969513 183.883026 -112.348633
v -294.062073 173.556595 -112.336143
v -284.302094 184.053970 -112.348221
v -294.240601 173.885193 -112.335922
v -284.642822 184.208099 -112.347801
v -294.402527 174.222290 -112.335716
v -284.990753 184.345093 -112.347366
v -294.547394 174.567032 -112.335541
v -285.345123 184.464554 -112.346931
v -294.674957 174.918579 -112.335381
v -285.705017 184.566193 -112.346489
v -294.784821 175.276031 -112.335243
v -286.069519 184.649780 -112.346031
v -294.876740 175.638519 -112.335129
v -286.437744 184.715103 -112.345581
v -294.950470 176.005142 -112.335037
v -286.808746 184.761963 -112.345116
v -295.005798 176.374985 -112.334969
v -287.181641 184.790283 -112.344658
v -295.042664 176.747131 -112.334923
v -295.060944 177.120636 -112.334908
v -295.060547 177.494598 -112.334908
v -295.041534 177.868073 -112.334930
v -295.003937 178.240143 -112.334976
v -294.947815 178.609863 -112.335045
v -294.873322 178.976334 -112.335136
v -294.780670 179.338638 -112.335251
v -294.670074 179.695877 -112.335388
v -294.541840 180.047150 -112.335548
v -294.396240 180.391586 -112.335724
v -294.233612 180.728348 -112.335930
v -294.054443 181.056595 -112.336151
v -293.859131 181.375504 -112.336395
v -293.648163 181.684265 -112.336655
v -293.422058 181.982132 -112.336929
v -293.181366 182.268356 -112.337227
v -292.926758 182.542236 -112.337547
v -292.658813 182.803070 -112.337875
v -292.378143 183.050232 -112.338226
v -292.085510 183.283096 -112.338585
v -291.781677 183.501068 -112.338966
v -291.467346 183.703659 -112.339355
v -291.143280 183.890305 -112.339752
v -290.810364 184.060562 -112.340164
v -290.469330 184.214035 -112.340591
v -290.121063 184.350296 -112.341019
v -289.766449 184.469040 -112.341461
v -289.406372 184.569946 -112.341904
v -289.041687 184.652802 -112.342354
v -288.673340 184.717361 -112.342812
v -288.302246 184.763474 -112.343269
v -287.555481 184.800003 -112.344193
v -287.929321 184.791046 -112.343735
v -297.262146 269.794128 -99.632172
v -297.252350 269.794342 -99.258347
v -297.223938 269.795013 -98.885460
v -297.177032 269.796112 -98.514458
v -297.111633 269.797668 -98.146255
v -297.027985 269.799683 -97.781784
v -296.926300 269.802094 -97.421921
v -296.806793 269.804932 -97.067589
v -296.669800 269.808197 -96.719643
v -296.515594 269.811890 -96.378967
v -296.344604 269.815979 -96.046402
v -296.157288 269.820435 -95.722771
v -295.954071 269.825287 -95.408890
v -295.735474 269.830505 -95.105522
v -295.502014 269.836090 -94.813438
v -295.254272 269.842010 -94.533356
v -294.992920 269.848236 -94.265976
v -294.718567 269.854797 -94.011955
v -294.431854 269.861664 -93.771935
v -294.133575 269.868774 -93.546501
v -293.824432 269.876160 -93.336227
v -293.505188 269.883820 -93.141624
v -293.176636 269.891663 -92.963181
v -292.839630 269.899719 -92.801346
v -292.494934 269.907959 -92.656517
v -292.143463 269.916351 -92.529053
v -291.786072 269.924896 -92.419266
v -291.423676 269.933563 -92.327438
v -291.057129 269.942352 -92.253792
v -290.687378 269.951172 -92.198509
v -290.315338 269.960083 -92.161736
v -289.941956 269.969025 -92.143562
v -289.568085 269.977966 -92.144028
v -289.194733 269.986877 -92.163124
v -288.822784 269.995789 -92.200821
v -288.453156 270.004639 -92.257019
v -288.086823 270.013397 -92.331566
v -287.724640 270.022064 -92.424294
v -287.367523 270.030609 -92.534966
v -287.016357 270.039001 -92.663300
v -286.672089 270.047272 -92.808983
v -286.335419 270.055328 -92.971649
v -286.007355 270.063171 -93.150909
v -285.688568 270.070801 -93.346298
v -285.379944 270.078186 -93.557335
v -285.082214 270.085327 -93.783508
v -284.796112 270.092163 -94.024239
v -284.522369 270.098724 -94.278938
v -284.261688 270.104980 -94.546967
v -284.014648 270.110901 -94.827660
v -283.781891 270.116455 -95.120323
v -283.564056 270.121674 -95.424225
v -283.361603 270.126526 -95.738609
v -283.175079 270.131012 -96.062698
v -283.004913 270.135101 -96.395691
v -282.851624 270.138763 -96.736748
v -282.715454 270.142029 -97.085030
v -282.596832 270.144897 -97.439659
v -282.496002 270.147308 -97.799774
v -282.413269 270.149292 -98.164452
v -282.348816 270.150848 -98.532814
v -282.302795 270.151947 -98.903931
v -282.275299 270.152618 -99.276886
v -282.266449 270.152863 -99.650734
v -282.276215 270.152618 -100.024567
v -282.304626 270.151947 -100.397446
v -282.351593 270.150848 -100.768448
v -282.416931 270.149292 -101.136650
v -282.500580 270.147308 -101.501122
v -282.602295 270.144897 -101.860985
v -282.721802 270.142029 -102.215324
v -282.858826 270.138763 -102.563263
v -283.012970 270.135101 -102.903938
v -283.183960 270.131012 -103.236511
v -283.371307 270.126526 -103.560135
v -283.574493 270.121674 -103.874016
v -283.793121 270.116455 -104.177383
v -284.026581 270.110901 -104.469467
v -284.274292 270.104980 -104.749550
v -284.535675 270.098724 -105.016937
v -284.810059 270.092163 -105.270950
v -285.096741 270.085327 -105.510979
v -285.395020 270.078186 -105.736404
v -285.704163 270.070801 -105.946678
v -286.023438 270.063171 -106.141281
v -286.351959 270.055328 -106.319725
v -286.688995 270.047272 -106.481560
v -287.033661 270.039001 -106.626389
v -287.385132 270.030609 -106.753853
v -287.742523 270.022064 -106.863640
v -288.104919 270.013397 -106.955475
v -288.471466 270.004639 -107.029114
v -288.841187 269.995789 -107.084396
v -289.213226 269.986877 -107.121170
v -289.586670 269.977966 -107.139343
v -289.960510 269.969025 -107.138885
v -290.333862 269.960083 -107.119781
v -290.705811 269.951172 -107.082092
v -291.075409 269.942352 -107.025894
v -291.441772 269.933563 -106.951340
v -291.803955 269.924896 -106.858612
v -292.161072 269.916351 -106.747940
v -292.512207 269.907959 -106.619606
v -292.856537 269.899719 -106.473930
v -293.193146 269.891663 -106.311256
v -293.521271 269.883820 -106.132004
v -293.840027 269.876160 -105.936607
v -294.148651 269.868774 -105.725571
v -294.446381 269.861664 -105.499405
v -294.732483 269.854797 -105.258667
v -295.006195 269.848236 -105.003975
v -295.266907 269.842010 -104.735939
v -295.513947 269.836090 -104.455246
v -295.746674 269.830505 -104.162582
v -295.964539 269.825287 -103.858681
v -296.166962 269.820435 -103.544296
v -296.353485 269.815979 -103.220207
v -296.523651 269.811890 -102.887215
v -296.677002 269.808197 -102.546158
v -296.813141 269.804932 -102.197876
v -296.931763 269.802094 -101.843246
v -297.032593 269.799683 -101.483139
v -297.115326 269.797668 -101.118454
v -297.179810 269.796112 -100.750099
v -297.225800 269.795013 -100.378975
v -297.253296 269.794342 -100.006027
vn 0.999713 0.023915 -0.001237
vn 0.999713 0.023915 -0.001237
vn -0.023907 0.999714 0.000037
vn -0.023926 0.999714 0.000018
vn -0.023921 0.999714 0.000024
vn -0.023916 0.999714 0.000029
vn -0.023901 0.999714 0.000042
vn -0.023909 0.999714 0.000037
vn -0.023910 0.999714 0.000034
vn -0.023936 0.999713 0.000003
vn -0.023916 0.999714 0.000030
vn -0.023911 0.999714 0.000036
vn -0.023914 0.999714 0.000031
vn -0.023896 0.999714 0.000058
vn -0.023938 0.999713 0.000015
vn -0.023913 0.999714 0.000032
vn -0.023915 0.999714 0.000030
vn -0.023939 0.999713 -0.000011
vn -0.023909 0.999714 0.000033
vn -0.023896 0.999714 0.000064
vn -0.023931 0.999714 0.000021
vn -0.023911 0.999714 0.000036
vn -0.023875 0.999715 0.000051
vn -0.023916 0.999714 0.000028
vn -0.023949 0.999713 0.000014
vn -0.023930 0.999714 -0.000000
vn -0.023869 0.999715 0.000051
vn -0.023899 0.999714 0.000065
vn -0.023923 0.999714 0.000027
vn -0.023942 0.999713 -0.000031
vn -0.023931 0.999714 0.000023
vn -0.023899 0.999714 0.000068
vn -0.023954 0.999713 0.000014
vn -0.023921 0.999714 0.000035
vn -0.023900 0.999714 0.000017
vn -0.023912 0.999714 0.000027
vn -0.023916 0.999714 0.000029
vn -0.023914 0.999714 0.000028
vn -0.023938 0.999713 0.000044
vn -0.023914 0.999714 0.000029
vn -0.023910 0.999714 0.000027
vn -0.023929 0.999714 0.000037
vn -0.023877 0.999715 0.000010
vn -0.023947 0.999713 0.000045
vn -0.023870 0.999715 0.000008
vn -0.023926 0.999714 0.000034
vn -0.023930 0.999714 0.000035
vn -0.023953 0.999713 0.000045
vn -0.023915 0.999714 0.000030
vn -0.023942 0.999713 0.000090
vn -0.023898 0.999714 -0.000008
vn -0.023929 0.999714 0.000059
vn -0.023917 0.999714 0.000033
vn -0.023912 0.999714 0.000023
vn -0.023922 0.999714 0.000042
vn -0.023912 0.999714 0.000025
vn -0.023914 0.999714 0.000028
vn -0.023896 0.999714 -0.000000
vn -0.023938 0.999713 0.000061
vn -0.023908 0.999714 0.000021
vn -0.023910 0.999714 0.000023
vn -0.023915 0.999714 0.000029
vn -0.023926 0.999714 0.000041
vn -0.023915 0.999714 0.000030
vn -0.023911 0.999714 0.000020
vn -0.023902 0.999714 -0.000003
vn -0.023908 0.999714 0.000022
vn -0.023908 0.999714 0.000022
vn -0.023925 0.999714 0.000040
vn -0.023920 0.999714 0.000034
vn -0.023915 0.999714 0.000029
vn -0.023902 0.999714 0.000018
vn -0.023910 0.999714 0.000023
vn -0.023911 0.999714 0.000025
vn -0.023936 0.999713 0.000056
vn -0.023917 0.999714 0.000030
vn -0.023912 0.999714 0.000023
vn -0.023914 0.999714 0.000028
vn -0.023897 0.999714 0.000002
vn -0.023938 0.999713 0.000044
vn -0.023913 0.999714 0.000026
vn -0.023912 0.999714 0.000028
vn -0.023940 0.999713 0.000070
vn -0.023913 0.999714 0.000028
vn -0.023895 0.999714 -0.000008
vn -0.023929 0.999714 0.000037
vn -0.023913 0.999714 0.000025
vn -0.023877 0.999715 0.000010
vn -0.023915 0.999714 0.000030
vn -0.023947 0.999713 0.000045
vn -0.023931 0.999714 0.000062
vn -0.023930 0.999714 0.000037
vn -0.023897 0.999714 -0.000011
vn -0.023853 0.999716 0.000002
vn -0.023942 0.999713 0.000090
vn -0.023934 0.999714 0.000037
vn -0.023948 0.999713 0.000043
vn -0.023950 0.999713 0.000016
vn -0.023931 0.999714 0.000023
vn -0.023857 0.999715 0.000056
vn -0.023927 0.999714 0.000024
vn -0.023949 0.999713 0.000014
vn -0.023877 0.999715 0.000049
vn -0.023929 0.999714 0.000022
vn -0.023913 0.999714 0.000031
vn -0.023911 0.999714 0.000032
vn -0.023938 0.999713 0.000015
vn -0.023914 0.999714 0.000031
vn -0.023916 0.999714 0.000030
vn -0.023912 0.999714 0.000033
vn -0.023901 0.999714 0.000042
vn -0.023920 0.999714 0.000026
vn -0.023909 0.999714 0.000036
vn -0.023926 0.999714 0.000019
vn -0.023915 0.999714 0.000031
vn -0.023910 0.999714 0.000036
vn -0.023908 0.999714 0.000038
vn -0.023915 0.999714 0.000030
vn -0.023938 0.999713 -0.000002
vn -0.023896 0.999714 0.000058
vn -0.023913 0.999714 0.000032
vn -0.023913 0.999714 0.000032
vn -0.023921 0.999714 0.000019
vn -0.023913 0.999714 0.000034
vn -0.023915 0.999714 0.000030
vn -0.023931 0.999714 -0.000003
vn -0.023897 0.999714 0.000069
vn -0.023942 0.999713 -0.000031
vn -0.023915 0.999714 0.000029
vn -0.023902 0.999714 -0.000003
vn -0.023909 0.999714 0.000044
vn -0.023903 0.999714 0.000060
vn 0.023915 -0.999714 -0.000030
vn 0.023915 -0.999714 -0.000030
vn 0.001233 -0.000005 0.999999
vn 0.001245 0.000008 0.999999
vn 0.001237 -0.000001 0.999999
vn 0.001231 -0.000009 0.999999
vn 0.001243 0.000004 0.999999
vn 0.001245 0.000009 0.999999
vn 0.001234 -0.000003 0.999999
vn 0.001234 -0.000005 0.999999
vn 0.001243 0.000004 0.999999
vn 0.001238 -0.000000 0.999999
vn 0.001236 -0.000001 0.999999
vn 0.001231 -0.000011 0.999999
vn 0.001231 -0.000005 0.999999
vn 0.001237 -0.000000 0.999999
vn 0.001246 0.000005 0.999999
vn 0.001246 0.000015 0.999999
vn 0.001242 0.000003 0.999999
vn 0.001232 -0.000012 0.999999
vn 0.001239 0.000001 0.999999
vn 0.001244 0.000012 0.999999
vn 0.001237 -0.000000 0.999999
vn 0.001232 -0.000012 0.999999
vn 0.001235 -0.000001 0.999999
vn 0.001236 -0.000005 0.999999
vn 0.001235 -0.000002 0.999999
vn 0.001241 0.000008 0.999999
vn 0.001234 -0.000002 0.999999
vn 0.001235 -0.000008 0.999999
vn 0.001235 -0.000002 0.999999
vn 0.001246 0.000021 0.999999
vn 0.001235 -0.000001 0.999999
vn 0.001234 0.000003 0.999999
vn 0.001238 -0.000001 0.999999
vn 0.001228 0.000007 0.999999
vn 0.001253 -0.000011 0.999999
vn 0.001226 0.000007 0.999999
vn 0.001238 -0.000001 0.999999
vn 0.001232 0.000003 0.999999
vn 0.001249 -0.000006 0.999999
vn 0.001245 -0.000004 0.999999
vn 0.001215 0.000011 0.999999
vn 0.001240 -0.000001 0.999999
vn 0.001239 -0.000001 0.999999
vn 0.001238 -0.000000 0.999999
vn 0.001238 -0.000000 0.999999
vn 0.001240 -0.000001 0.999999
vn 0.001238 -0.000000 0.999999
vn 0.001247 -0.000019 0.999999
vn 0.001235 0.000006 0.999999
vn 0.001242 -0.000008 0.999999
vn 0.001236 0.000004 0.999999
vn 0.001232 0.000010 0.999999
vn 0.001245 -0.000012 0.999999
vn 0.001232 0.000010 0.999999
vn 0.001234 0.000006 0.999999
vn 0.001238 -0.000000 0.999999
vn 0.001244 -0.000008 0.999999
vn 0.001239 -0.000001 0.999999
vn 0.001235 0.000004 0.999999
vn 0.001246 -0.000009 0.999999
vn 0.001231 0.000006 0.999999
vn 0.001238 -0.000000 0.999999
vn 0.001245 -0.000017 0.999999
vn 0.001225 0.000028 0.999999
vn 0.001247 -0.000009 0.999999
vn 0.001232 0.000006 0.999999
vn 0.001231 0.000006 0.999999
vn 0.001250 -0.000010 0.999999
vn 0.001246 -0.000009 0.999999
vn 0.001238 -0.000001 0.999999
vn 0.001235 0.000004 0.999999
vn 0.001228 0.000007 0.999999
vn 0.001239 -0.000001 0.999999
vn 0.001236 0.000002 0.999999
vn 0.001231 0.000009 0.999999
vn 0.001246 -0.000005 0.999999
vn 0.001238 -0.000001 0.999999
vn 0.001238 -0.000000 0.999999
vn 0.001247 -0.000015 0.999999
vn 0.001232 0.000003 0.999999
vn 0.001232 0.000010 0.999999
vn 0.001249 -0.000006 0.999999
vn 0.001245 -0.000012 0.999999
vn 0.001221 0.000009 0.999999
vn 0.001232 0.000010 0.999999
vn 0.001243 -0.000002 0.999999
vn 0.001236 0.000004 0.999999
vn 0.001241 -0.000001 0.999999
vn 0.001242 -0.000008 0.999999
vn 0.001239 -0.000001 0.999999
vn 0.001235 0.000006 0.999999
vn 0.001238 -0.000000 0.999999
vn 0.001229 0.000018 0.999999
vn 0.001238 -0.000000 0.999999
vn 0.001239 -0.000001 0.999999
vn 0.001235 -0.000001 0.999999
vn 0.001234 -0.000002 0.999999
vn 0.001234 -0.000002 0.999999
vn 0.001235 -0.000002 0.999999
vn 0.001265 0.000014 0.999999
vn 0.001238 -0.000001 0.999999
vn 0.001215 -0.000013 0.999999
vn 0.001242 0.000003 0.999999
vn 0.001246 0.000005 0.999999
vn 0.001231 -0.000005 0.999999
vn 0.001237 -0.000001 0.999999
vn 0.001243 0.000004 0.999999
vn 0.001234 -0.000003 0.999999
vn 0.001243 0.000004 0.999999
vn 0.001237 -0.000001 0.999999
vn 0.001233 -0.000005 0.999999
vn 0.001245 0.000008 0.999999
vn 0.001231 -0.000009 0.999999
vn 0.001245 0.000009 0.999999
vn 0.001238 -0.000000 0.999999
vn 0.001234 -0.000005 0.999999
vn 0.001238 -0.000000 0.999999
vn 0.001243 0.000008 0.999999
vn 0.001238 -0.000001 0.999999
vn 0.001234 -0.000008 0.999999
vn 0.001244 0.000011 0.999999
vn 0.001231 -0.000014 0.999999
vn 0.001246 0.000016 0.999999
vn 0.001236 -0.000006 0.999999
vn 0.001227 -0.000027 0.999999
vn 0.001250 0.000030 0.999999
vn 0.001238 -0.000001 0.999999
vn 0.001244 -0.000016 0.999999
vn 0.001244 0.000017 0.999999
vn 0.001229 -0.000023 0.999999
vn -0.001247 -0.000010 -0.999999
vn -0.001231 0.000007 -0.999999
vn -0.001237 0.000000 -0.999999
vn -0.001244 -0.000008 -0.999999
vn -0.001227 0.000009 -0.999999
vn -0.001232 0.000008 -0.999999
vn -0.001250 -0.000011 -0.999999
vn -0.001234 0.000005 -0.999999
vn -0.001226 0.000009 -0.999999
vn -0.001237 -0.000000 -0.999999
vn -0.001236 0.000001 -0.999999
vn -0.001243 -0.000009 -0.999999
vn -0.001250 -0.000008 -0.999999
vn -0.001237 0.000000 -0.999999
vn -0.001225 0.000008 -0.999999
vn -0.001234 0.000007 -0.999999
vn -0.001242 -0.000003 -0.999999
vn -0.001244 -0.000012 -0.999999
vn -0.001239 -0.000001 -0.999999
vn -0.001231 0.000013 -0.999999
vn -0.001237 0.000000 -0.999999
vn -0.001245 -0.000017 -0.999999
vn -0.001235 0.000001 -0.999999
vn -0.001235 0.000005 -0.999999
vn -0.001235 0.000002 -0.999999
vn -0.001241 -0.000009 -0.999999
vn -0.001234 0.000002 -0.999999
vn -0.001234 0.000008 -0.999999
vn -0.001274 -0.000017 -0.999999
vn -0.001246 -0.000021 -0.999999
vn -0.001234 0.000001 -0.999999
vn -0.001235 -0.000003 -0.999999
vn -0.001239 0.000000 -0.999999
vn -0.001245 0.000005 -0.999999
vn -0.001236 -0.000002 -0.999999
vn -0.001246 0.000005 -0.999999
vn -0.001238 0.000001 -0.999999
vn -0.001232 -0.000003 -0.999999
vn -0.001226 -0.000006 -0.999999
vn -0.001246 0.000004 -0.999999
vn -0.001243 0.000002 -0.999999
vn -0.001240 0.000001 -0.999999
vn -0.001239 0.000001 -0.999999
vn -0.001238 0.000000 -0.999999
vn -0.001238 0.000000 -0.999999
vn -0.001239 0.000001 -0.999999
vn -0.001237 -0.000000 -0.999999
vn -0.001229 -0.000019 -0.999999
vn -0.001251 0.000027 -0.999999
vn -0.001226 -0.000023 -0.999999
vn -0.001236 -0.000005 -0.999999
vn -0.001247 0.000015 -0.999999
vn -0.001231 -0.000012 -0.999999
vn -0.001245 0.000011 -0.999999
vn -0.001234 -0.000006 -0.999999
vn -0.001238 0.000000 -0.999999
vn -0.001244 0.000008 -0.999999
vn -0.001225 -0.000016 -0.999999
vn -0.001249 0.000012 -0.999999
vn -0.001232 -0.000006 -0.999999
vn -0.001246 0.000008 -0.999999
vn -0.001238 0.000000 -0.999999
vn -0.001224 -0.000033 -0.999999
vn -0.001245 0.000014 -0.999999
vn -0.001232 -0.000005 -0.999999
vn -0.001232 -0.000005 -0.999999
vn -0.001246 0.000008 -0.999999
vn -0.001235 -0.000003 -0.999999
vn -0.001232 -0.000006 -0.999999
vn -0.001239 0.000000 -0.999999
vn -0.001235 -0.000004 -0.999999
vn -0.001245 0.000005 -0.999999
vn -0.001239 0.000001 -0.999999
vn -0.001236 -0.000002 -0.999999
vn -0.001244 0.000008 -0.999999
vn -0.001227 -0.000007 -0.999999
vn -0.001239 0.000000 -0.999999
vn -0.001239 0.000000 -0.999999
vn -0.001234 -0.000006 -0.999999
vn -0.001254 0.000009 -0.999999
vn -0.001245 0.000012 -0.999999
vn -0.001226 -0.000006 -0.999999
vn -0.001231 -0.000012 -0.999999
vn -0.001246 0.000004 -0.999999
vn -0.001232 -0.000010 -0.999999
vn -0.001243 0.000002 -0.999999
vn -0.001250 0.000023 -0.999999
vn -0.001240 0.000001 -0.999999
vn -0.001226 -0.000023 -0.999999
vn -0.001239 0.000001 -0.999999
vn -0.001251 0.000027 -0.999999
vn -0.001239 0.000000 -0.999999
vn -0.001229 -0.000019 -0.999999
vn -0.001238 0.000000 -0.999999
vn -0.001193 -0.000018 -0.999999
vn -0.001235 0.000001 -0.999999
vn -0.001235 0.000002 -0.999999
vn -0.001234 0.000002 -0.999999
vn -0.001234 0.000002 -0.999999
vn -0.001235 0.000001 -0.999999
vn -0.001237 0.000000 -0.999999
vn -0.001239 -0.000001 -0.999999
vn -0.001242 -0.000003 -0.999999
vn -0.001225 0.000008 -0.999999
vn -0.001250 -0.000008 -0.999999
vn -0.001237 0.000001 -0.999999
vn -0.001243 -0.000004 -0.999999
vn -0.001234 0.000003 -0.999999
vn -0.001227 0.000009 -0.999999
vn -0.001237 0.000000 -0.999999
vn -0.001247 -0.000010 -0.999999
vn -0.001231 0.000007 -0.999999
vn -0.001244 -0.000007 -0.999999
vn -0.001232 0.000008 -0.999999
vn -0.001239 -0.000000 -0.999999
vn -0.001247 -0.000012 -0.999999
vn -0.001238 0.000000 -0.999999
vn -0.001231 0.000011 -0.999999
vn -0.001238 0.000000 -0.999999
vn -0.001246 -0.000015 -0.999999
vn -0.001232 0.000012 -0.999999
vn -0.001244 -0.000012 -0.999999
vn -0.001232 0.000012 -0.999999
vn -0.001235 0.000005 -0.999999
vn -0.001241 -0.000008 -0.999999
vn -0.001235 0.000008 -0.999999
vn -0.001238 -0.000001 -0.999999
vn -0.001245 0.000014 -0.999999
vn -0.001225 0.000033 -0.999999
vn -0.001246 -0.000022 -0.999999
vn -0.999713 -0.023915 0.001237
vn -0.999713 -0.023914 0.001238
vn -0.999371 -0.023908 0.026203
vn -0.999371 -0.023908 0.026202
vn -0.996823 -0.023848 0.075995
vn -0.991814 -0.023730 0.125465
vn -0.996823 -0.023848 0.075997
vn -0.991815 -0.023730 0.125462
vn -0.984299 -0.023552 0.174928
vn -0.974367 -0.023315 0.223753
vn -0.984299 -0.023552 0.174932
vn -0.974368 -0.023315 0.223747
vn -0.962025 -0.023022 0.271988
vn -0.962024 -0.023022 0.271994
vn -0.947259 -0.022670 0.319667
vn -0.930176 -0.022263 0.366438
vn -0.947236 -0.022669 0.319735
vn -0.930204 -0.022263 0.366367
vn -0.910712 -0.021798 0.412466
vn -0.910712 -0.021798 0.412466
vn -0.889027 -0.021281 0.457359
vn -0.889027 -0.021281 0.457359
vn -0.865173 -0.020711 0.501046
vn -0.865173 -0.020711 0.501045
vn -0.839116 -0.020089 0.543581
vn -0.839116 -0.020089 0.543581
vn -0.810997 -0.019418 0.584728
vn -0.811004 -0.019418 0.584719
vn -0.780829 -0.018697 0.624465
vn -0.780829 -0.018697 0.624466
vn -0.748720 -0.017930 0.662644
vn -0.714817 -0.017121 0.699102
vn -0.748720 -0.017930 0.662644
vn -0.714826 -0.017121 0.699093
vn -0.679094 -0.016267 0.733871
vn -0.679083 -0.016267 0.733881
vn -0.641616 -0.015371 0.766872
vn -0.602665 -0.014441 0.797863
vn -0.641629 -0.015372 0.766861
vn -0.602652 -0.014440 0.797873
vn -0.562142 -0.013472 0.826931
vn -0.562142 -0.013472 0.826931
vn -0.520235 -0.012470 0.853932
vn -0.520251 -0.012471 0.853923
vn -0.477029 -0.011438 0.878813
vn -0.477014 -0.011437 0.878821
vn -0.432663 -0.010377 0.901496
vn -0.432647 -0.010377 0.901503
vn -0.387155 -0.009289 0.921968
vn -0.387185 -0.009290 0.921955
vn -0.340748 -0.008179 0.940119
vn -0.340748 -0.008179 0.940119
vn -0.293486 -0.007049 0.955937
vn -0.293486 -0.007049 0.955937
vn -0.245490 -0.005901 0.969381
vn -0.245470 -0.005901 0.969386
vn -0.196872 -0.004739 0.980418
vn -0.147785 -0.003565 0.989013
vn -0.196868 -0.004739 0.980419
vn -0.147785 -0.003565 0.989013
vn -0.098307 -0.002381 0.995153
vn -0.098307 -0.002381 0.995153
vn -0.048586 -0.001192 0.998818
vn -0.048606 -0.001192 0.998817
vn 0.001245 0.000000 0.999999
vn 0.001245 0.000000 0.999999
vn 0.051053 0.001192 0.998695
vn 0.051074 0.001192 0.998694
vn 0.100776 0.002381 0.994906
vn 0.100756 0.002381 0.994908
vn 0.150228 0.003564 0.988645
vn 0.150228 0.003565 0.988645
vn 0.199297 0.004738 0.979928
vn 0.199316 0.004739 0.979924
vn 0.247888 0.005901 0.968771
vn 0.295854 0.007049 0.955207
vn 0.247869 0.005901 0.968776
vn 0.295854 0.007049 0.955207
vn 0.343064 0.008179 0.939276
vn 0.343064 0.008179 0.939276
vn 0.389476 0.009290 0.920990
vn 0.389504 0.009291 0.920978
vn 0.434868 0.010376 0.900434
vn 0.434819 0.010375 0.900458
vn 0.479212 0.011438 0.877625
vn 0.479262 0.011439 0.877597
vn 0.522326 0.012470 0.852655
vn 0.522311 0.012470 0.852664
vn 0.564219 0.013473 0.825516
vn 0.564181 0.013472 0.825541
vn 0.604617 0.014440 0.796386
vn 0.604629 0.014440 0.796376
vn 0.643546 0.015372 0.765253
vn 0.643535 0.015372 0.765262
vn 0.680884 0.016266 0.732210
vn 0.680873 0.016266 0.732221
vn 0.716559 0.017121 0.697316
vn 0.716519 0.017120 0.697358
vn 0.750366 0.017931 0.660780
vn 0.750406 0.017932 0.660734
vn 0.782347 0.018697 0.622562
vn 0.812457 0.019418 0.582697
vn 0.782347 0.018697 0.622562
vn 0.812464 0.019418 0.582687
vn 0.840442 0.020089 0.541528
vn 0.866397 0.020711 0.498926
vn 0.840442 0.020089 0.541528
vn 0.866398 0.020711 0.498925
vn 0.890160 0.021281 0.455151
vn 0.911803 0.021800 0.410049
vn 0.890156 0.021281 0.455160
vn 0.911772 0.021800 0.410117
vn 0.931045 0.022262 0.364224
vn 0.931076 0.022263 0.364146
vn 0.948053 0.022670 0.317303
vn 0.962670 0.023021 0.269696
vn 0.948029 0.022669 0.317375
vn 0.962690 0.023021 0.269626
vn 0.974926 0.023316 0.221305
vn 0.974909 0.023315 0.221379
vn 0.984745 0.023552 0.172402
vn 0.984758 0.023553 0.172326
vn 0.992111 0.023730 0.123097
vn 0.992111 0.023730 0.123096
vn 0.997006 0.023848 0.073549
vn 0.997007 0.023848 0.073548
vn 0.999434 0.023908 0.023675
vn 0.999434 0.023908 0.023674
vn 0.999373 0.023908 -0.026122
vn 0.999373 0.023908 -0.026122
vn 0.996823 0.023848 -0.075995
vn 0.996823 0.023848 -0.075997
vn 0.991794 0.023729 -0.125625
vn 0.991794 0.023729 -0.125626
vn 0.984327 0.023552 -0.174770
vn 0.984327 0.023552 -0.174773
vn 0.974367 0.023315 -0.223751
vn 0.974368 0.023315 -0.223747
vn 0.962002 0.023021 -0.272069
vn 0.962004 0.023021 -0.272064
vn 0.947260 0.022670 -0.319663
vn 0.947261 0.022670 -0.319662
vn 0.930146 0.022262 -0.366516
vn 0.930148 0.022262 -0.366509
vn 0.910774 0.021800 -0.412330
vn 0.910774 0.021800 -0.412329
vn 0.889032 0.021281 -0.457351
vn 0.889027 0.021281 -0.457359
vn 0.865173 0.020711 -0.501046
vn 0.865132 0.020711 -0.501117
vn 0.839116 0.020090 -0.543581
vn 0.839153 0.020090 -0.543524
vn 0.810958 0.019417 -0.584782
vn 0.810965 0.019417 -0.584772
vn 0.780829 0.018697 -0.624464
vn 0.780837 0.018698 -0.624455
vn 0.748751 0.017931 -0.662609
vn 0.748760 0.017931 -0.662599
vn 0.714786 0.017120 -0.699134
vn 0.714785 0.017120 -0.699135
vn 0.679043 0.016266 -0.733918
vn 0.679083 0.016267 -0.733881
vn 0.641669 0.015373 -0.766828
vn 0.641670 0.015373 -0.766827
vn 0.602626 0.014440 -0.797893
vn 0.602651 0.014440 -0.797874
vn 0.562142 0.013472 -0.826931
vn 0.562166 0.013473 -0.826915
vn 0.520200 0.012470 -0.853954
vn 0.520215 0.012470 -0.853944
vn 0.477064 0.011438 -0.878794
vn 0.477014 0.011437 -0.878821
vn 0.432631 0.010376 -0.901511
vn 0.432647 0.010376 -0.901503
vn 0.387184 0.009290 -0.921956
vn 0.387184 0.009290 -0.921956
vn 0.340774 0.008180 -0.940110
vn 0.340748 0.008179 -0.940119
vn 0.293463 0.007049 -0.955944
vn 0.293486 0.007049 -0.955937
vn 0.245490 0.005901 -0.969381
vn 0.245509 0.005902 -0.969376
vn 0.196872 0.004739 -0.980418
vn 0.196853 0.004738 -0.980422
vn 0.147797 0.003565 -0.989011
vn 0.147797 0.003565 -0.989011
vn 0.098287 0.002381 -0.995155
vn 0.098307 0.002381 -0.995153
vn 0.048598 0.001192 -0.998818
vn 0.048578 0.001192 -0.998819
vn -0.001245 -0.000000 -0.999999
vn -0.001224 0.000000 -0.999999
vn -0.051074 -0.001192 -0.998694
vn -0.051073 -0.001192 -0.998694
vn -0.100756 -0.002381 -0.994908
vn -0.100756 -0.002381 -0.994908
vn -0.150240 -0.003565 -0.988643
vn -0.150240 -0.003565 -0.988643
vn -0.199281 -0.004738 -0.979931
vn -0.199300 -0.004739 -0.979927
vn -0.247888 -0.005901 -0.968771
vn -0.247908 -0.005902 -0.968766
vn -0.295854 -0.007049 -0.955207
vn -0.295831 -0.007049 -0.955214
vn -0.343091 -0.008180 -0.939267
vn -0.343090 -0.008180 -0.939267
vn -0.389429 -0.009289 -0.921010
vn -0.389447 -0.009289 -0.921002
vn -0.434900 -0.010377 -0.900419
vn -0.479178 -0.011437 -0.877643
vn -0.434900 -0.010377 -0.900419
vn -0.479178 -0.011437 -0.877643
vn -0.522361 -0.012471 -0.852633
vn -0.522362 -0.012471 -0.852633
vn -0.564181 -0.013472 -0.825541
vn -0.564181 -0.013472 -0.825541
vn -0.604617 -0.014440 -0.796385
vn -0.604617 -0.014440 -0.796386
vn -0.643546 -0.015372 -0.765253
vn -0.643534 -0.015372 -0.765263
vn -0.680914 -0.016267 -0.732183
vn -0.680925 -0.016267 -0.732173
vn -0.716529 -0.017120 -0.697347
vn -0.716519 -0.017120 -0.697358
vn -0.750366 -0.017931 -0.660780
vn -0.750366 -0.017931 -0.660780
vn -0.782387 -0.018698 -0.622512
vn -0.782386 -0.018698 -0.622513
vn -0.812426 -0.019418 -0.582741
vn -0.812419 -0.019417 -0.582751
vn -0.840474 -0.020090 -0.541480
vn -0.840480 -0.020090 -0.541471
vn -0.866403 -0.020711 -0.498916
vn -0.866398 -0.020711 -0.498924
vn -0.890160 -0.021281 -0.455151
vn -0.890156 -0.021281 -0.455160
vn -0.911741 -0.021798 -0.410186
vn -0.911742 -0.021798 -0.410185
vn -0.931073 -0.022263 -0.364153
vn -0.948054 -0.022670 -0.317301
vn -0.931101 -0.022263 -0.364082
vn -0.948031 -0.022669 -0.317369
vn -0.962669 -0.023021 -0.269701
vn -0.962690 -0.023021 -0.269626
vn -0.974926 -0.023316 -0.221302
vn -0.974909 -0.023316 -0.221379
vn -0.984731 -0.023552 -0.172485
vn -0.984744 -0.023552 -0.172406
vn -0.992121 -0.023730 -0.123015
vn -0.992111 -0.023730 -0.123095
vn -0.997006 -0.023849 -0.073549
vn -0.999434 -0.023908 -0.023673
vn -0.997012 -0.023848 -0.073468
vn -0.999432 -0.023908 -0.023756
vn 0.999999 -0.001061 -0.001238
vn 0.999999 -0.001061 -0.001238
vn 0.998706 -0.050841 -0.001237
vn 0.998702 -0.050923 -0.001236
vn 0.994932 -0.100538 -0.001232
vn 0.994932 -0.100538 -0.001232
vn 0.988674 -0.150076 -0.001224
vn 0.988686 -0.149996 -0.001225
vn 0.979958 -0.199199 -0.001213
vn 0.968822 -0.247755 -0.001199
vn 0.979958 -0.199199 -0.001213
vn 0.955269 -0.295737 -0.001182
vn 0.968822 -0.247755 -0.001199
vn 0.939363 -0.342922 -0.001162
vn 0.955269 -0.295737 -0.001182
vn 0.939363 -0.342922 -0.001162
vn 0.921085 -0.389359 -0.001140
vn 0.921085 -0.389359 -0.001140
vn 0.900495 -0.434866 -0.001114
vn 0.900495 -0.434866 -0.001114
vn 0.877754 -0.479110 -0.001086
vn 0.877754 -0.479110 -0.001086
vn 0.852776 -0.522275 -0.001055
vn 0.852776 -0.522275 -0.001055
vn 0.825668 -0.564156 -0.001022
vn 0.825668 -0.564156 -0.001022
vn 0.796514 -0.604619 -0.000986
vn 0.796514 -0.604619 -0.000986
vn 0.765357 -0.643606 -0.000947
vn 0.765357 -0.643606 -0.000947
vn 0.732364 -0.680913 -0.000906
vn 0.732404 -0.680869 -0.000907
vn 0.697534 -0.716551 -0.000864
vn 0.697534 -0.716551 -0.000864
vn 0.660886 -0.750485 -0.000819
vn 0.660886 -0.750485 -0.000819
vn 0.622667 -0.782486 -0.000771
vn 0.622707 -0.782455 -0.000771
vn 0.582915 -0.812533 -0.000721
vn 0.582915 -0.812533 -0.000721
vn 0.541742 -0.840544 -0.000670
vn 0.541742 -0.840544 -0.000670
vn 0.499088 -0.866551 -0.000618
vn 0.499088 -0.866551 -0.000618
vn 0.455323 -0.890326 -0.000564
vn 0.410381 -0.911914 -0.000508
vn 0.455290 -0.890343 -0.000563
vn 0.410381 -0.911914 -0.000508
vn 0.364359 -0.931259 -0.000451
vn 0.364387 -0.931248 -0.000451
vn 0.317525 -0.948250 -0.000393
vn 0.317524 -0.948250 -0.000393
vn 0.269840 -0.962905 -0.000334
vn 0.269819 -0.962911 -0.000334
vn 0.221550 -0.975149 -0.000274
vn 0.221568 -0.975145 -0.000274
vn 0.172637 -0.984985 -0.000214
vn 0.172637 -0.984985 -0.000214
vn 0.123311 -0.992368 -0.000153
vn 0.123311 -0.992368 -0.000153
vn 0.073735 -0.997278 -0.000091
vn 0.073735 -0.997278 -0.000091
vn 0.023952 -0.999713 -0.000030
vn 0.023950 -0.999713 -0.000030
vn -0.025991 -0.999662 0.000032
vn -0.025991 -0.999662 0.000032
vn -0.075729 -0.997128 0.000094
vn -0.075735 -0.997128 0.000094
vn -0.125310 -0.992118 0.000155
vn -0.125300 -0.992119 0.000155
vn -0.174672 -0.984627 0.000216
vn -0.223518 -0.974700 0.000277
vn -0.174686 -0.984624 0.000216
vn -0.223518 -0.974700 0.000277
vn -0.271782 -0.962359 0.000336
vn -0.271782 -0.962359 0.000336
vn -0.319445 -0.947605 0.000395
vn -0.319445 -0.947605 0.000395
vn -0.366333 -0.930484 0.000453
vn -0.366361 -0.930473 0.000454
vn -0.412145 -0.911118 0.000511
vn -0.412145 -0.911118 0.000511
vn -0.457142 -0.889394 0.000566
vn -0.457142 -0.889394 0.000566
vn -0.500889 -0.865511 0.000620
vn -0.500925 -0.865491 0.000620
vn -0.543349 -0.839507 0.000672
vn -0.543386 -0.839483 0.000673
vn -0.584587 -0.811331 0.000724
vn -0.584587 -0.811331 0.000724
vn -0.624276 -0.781203 0.000773
vn -0.624316 -0.781172 0.000773
vn -0.662423 -0.749129 0.000820
vn -0.662423 -0.749129 0.000820
vn -0.699001 -0.715120 0.000866
vn -0.698961 -0.715160 0.000865
vn -0.733719 -0.679452 0.000909
vn -0.733760 -0.679408 0.000908
vn -0.766660 -0.642053 0.000949
vn -0.766660 -0.642053 0.000949
vn -0.797785 -0.602941 0.000988
vn -0.797746 -0.602993 0.000987
vn -0.826790 -0.562510 0.001023
vn -0.853827 -0.520555 0.001057
vn -0.826828 -0.562454 0.001024
vn -0.853827 -0.520556 0.001057
vn -0.878689 -0.477394 0.001087
vn -0.878689 -0.477394 0.001087
vn -0.901429 -0.432925 0.001116
vn -0.921874 -0.387488 0.001141
vn -0.901429 -0.432925 0.001116
vn -0.940026 -0.341101 0.001163
vn -0.921874 -0.387488 0.001141
vn -0.940026 -0.341101 0.001163
vn -0.955870 -0.293788 0.001183
vn -0.955870 -0.293788 0.001183
vn -0.969320 -0.245799 0.001200
vn -0.969320 -0.245799 0.001200
vn -0.980386 -0.197081 0.001213
vn -0.980386 -0.197081 0.001213
vn -0.988982 -0.148027 0.001225
vn -0.988971 -0.148107 0.001224
vn -0.995128 -0.098583 0.001233
vn -0.995128 -0.098583 0.001233
vn -0.998812 -0.048721 0.001237
vn -0.998808 -0.048802 0.001236
vn -0.999999 0.000979 0.001238
vn -0.999999 0.000979 0.001238
vn -0.998706 0.050839 0.001236
vn -0.998706 0.050839 0.001236
vn -0.994924 0.100623 0.001231
vn -0.994924 0.100623 0.001231
vn -0.988686 0.149996 0.001224
vn -0.988686 0.149996 0.001224
vn -0.979974 0.199121 0.001213
vn -0.979974 0.199121 0.001213
vn -0.968822 0.247755 0.001199
vn -0.968822 0.247755 0.001199
vn -0.955269 0.295737 0.001182
vn -0.955269 0.295737 0.001182
vn -0.939341 0.342981 0.001162
vn -0.939341 0.342981 0.001162
vn -0.921085 0.389359 0.001140
vn -0.921085 0.389359 0.001140
vn -0.900527 0.434799 0.001114
vn -0.900527 0.434800 0.001114
vn -0.877711 0.479190 0.001086
vn -0.877711 0.479190 0.001086
vn -0.852776 0.522275 0.001055
vn -0.852776 0.522275 0.001055
vn -0.825668 0.564156 0.001022
vn -0.825668 0.564156 0.001022
vn -0.796514 0.604619 0.000986
vn -0.796475 0.604671 0.000987
vn -0.765454 0.643490 0.000948
vn -0.765414 0.643538 0.000947
vn -0.732345 0.680933 0.000906
vn -0.732345 0.680933 0.000906
vn -0.697514 0.716570 0.000863
vn -0.697514 0.716570 0.000863
vn -0.660904 0.750470 0.000818
vn -0.660904 0.750470 0.000818
vn -0.622707 0.782455 0.000771
vn -0.622667 0.782486 0.000771
vn -0.582942 0.812513 0.000722
vn -0.582942 0.812513 0.000722
vn -0.541676 0.840587 0.000671
vn -0.499159 0.866510 0.000618
vn -0.541676 0.840587 0.000671
vn -0.499123 0.866531 0.000618
vn -0.455289 0.890343 0.000563
vn -0.410378 0.911916 0.000508
vn -0.455289 0.890343 0.000563
vn -0.410378 0.911915 0.000508
vn -0.364387 0.931248 0.000451
vn -0.364359 0.931259 0.000451
vn -0.317524 0.948250 0.000393
vn -0.317525 0.948250 0.000393
vn -0.269878 0.962895 0.000334
vn -0.269857 0.962901 0.000334
vn -0.221529 0.975154 0.000274
vn -0.221511 0.975158 0.000274
vn -0.172677 0.984978 0.000214
vn -0.172691 0.984976 0.000214
vn -0.123301 0.992369 0.000153
vn -0.123311 0.992368 0.000153
vn -0.073688 0.997281 0.000091
vn -0.073688 0.997281 0.000091
vn -0.023952 0.999713 0.000030
vn -0.023950 0.999713 0.000030
vn 0.025953 0.999663 -0.000032
vn 0.025953 0.999663 -0.000032
vn 0.075729 0.997128 -0.000094
vn 0.075729 0.997128 -0.000094
vn 0.125350 0.992113 -0.000155
vn 0.125350 0.992113 -0.000155
vn 0.174632 0.984634 -0.000216
vn 0.174646 0.984631 -0.000216
vn 0.223557 0.974691 -0.000277
vn 0.271820 0.962348 -0.000337
vn 0.223557 0.974691 -0.000277
vn 0.271820 0.962348 -0.000337
vn 0.319408 0.947617 -0.000396
vn 0.319408 0.947617 -0.000396
vn 0.366298 0.930497 -0.000453
vn 0.412209 0.911089 -0.000510
vn 0.366270 0.930508 -0.000454
vn 0.412209 0.911089 -0.000510
vn 0.457109 0.889411 -0.000566
vn 0.457109 0.889411 -0.000566
vn 0.500894 0.865508 -0.000620
vn 0.543415 0.839464 -0.000672
vn 0.500894 0.865508 -0.000620
vn 0.543415 0.839464 -0.000672
vn 0.584587 0.811331 -0.000723
vn 0.584587 0.811331 -0.000723
vn 0.624212 0.781255 -0.000772
vn 0.662487 0.749073 -0.000820
vn 0.624212 0.781255 -0.000772
vn 0.698981 0.715140 -0.000866
vn 0.662527 0.749037 -0.000821
vn 0.733697 0.679476 -0.000908
vn 0.698940 0.715180 -0.000865
vn 0.733738 0.679432 -0.000909
vn 0.766740 0.641957 -0.000950
vn 0.766700 0.642005 -0.000949
vn 0.797746 0.602993 -0.000987
vn 0.797746 0.602993 -0.000987
vn 0.826828 0.562454 -0.001023
vn 0.826790 0.562510 -0.001024
vn 0.853816 0.520574 -0.001058
vn 0.853816 0.520574 -0.001058
vn 0.878689 0.477394 -0.001087
vn 0.878655 0.477457 -0.001088
vn 0.901397 0.432991 -0.001117
vn 0.901429 0.432925 -0.001116
vn 0.921909 0.387404 -0.001141
vn 0.921880 0.387473 -0.001142
vn 0.940026 0.341101 -0.001164
vn 0.955870 0.293788 -0.001184
vn 0.940052 0.341029 -0.001163
vn 0.955847 0.293862 -0.001183
vn 0.969320 0.245799 -0.001201
vn 0.980371 0.197160 -0.001214
vn 0.969340 0.245722 -0.001200
vn 0.980371 0.197160 -0.001214
vn 0.988994 0.147953 -0.001224
vn 0.988982 0.148033 -0.001225
vn 0.995129 0.098579 -0.001231
vn 0.995129 0.098579 -0.001231
vn 0.998804 0.048883 -0.001236
vn 0.998804 0.048883 -0.001236
vn -0.023523 0.999723 -0.000396
vn -0.023197 0.999731 -0.000766
vn -0.023065 0.999734 -0.000575
vn -0.024328 0.999704 0.000384
vn -0.023418 0.999726 -0.000683
vn -0.025068 0.999686 0.000596
vn -0.024464 0.999701 0.000304
vn -0.023882 0.999715 0.000005
vn -0.023999 0.999712 0.000069
vn -0.023132 0.999730 -0.002038
vn -0.023915 0.999714 0.000028
vn -0.023940 0.999713 0.000045
vn -0.023796 0.999717 -0.000041
vn -0.023613 0.999721 -0.000130
vn -0.023847 0.999716 -0.000210
vn -0.023940 0.999713 0.000124
vn -0.023646 0.999720 -0.000014
vn -0.023844 0.999716 -0.000218
vn -0.023949 0.999713 0.000122
vn -0.023971 0.999713 0.000192
vn -0.023938 0.999713 0.000084
vn -0.023025 0.999735 -0.000046
vn -0.024265 0.999706 0.000080
vn -0.023768 0.999716 -0.001794
vn -0.023279 0.999729 -0.000045
vn -0.023934 0.999714 0.000166
vn -0.023068 0.999734 0.000099
vn -0.022964 0.999736 0.000109
vn -0.024038 0.999710 -0.001202
vn -0.023911 0.999714 0.000052
vn -0.023816 0.999716 0.000029
vn -0.024013 0.999712 0.000030
vn -0.023918 0.999714 0.000039
vn -0.024216 0.999706 -0.001144
vn -0.023904 0.999714 0.000151
vn -0.024046 0.999711 -0.000406
vn -0.022773 0.999741 0.000470
vn -0.023708 0.999719 0.000507
vn -0.023939 0.999713 -0.000077
vn -0.023618 0.999721 0.000163
vn -0.025056 0.999686 -0.000528
vn -0.024211 0.999707 -0.000086
vn -0.024021 0.999711 -0.000012
vn -0.024138 0.999709 -0.000054
vn -0.023772 0.999717 0.000322
vn -0.022847 0.999737 0.001920
vn -0.023900 0.999714 0.000039
vn -0.023911 0.999714 0.000034
vn -0.022788 0.999739 0.001433
vn -0.024312 0.999704 -0.000311
vn -0.024710 0.999694 -0.000680
vn -0.023888 0.999715 0.000044
vn -0.023909 0.999714 0.000020
vn -0.024844 0.999691 -0.000945
vn -0.023995 0.999712 -0.000077
vn -0.023897 0.999714 0.000054
vn -0.024392 0.999702 -0.000320
vn -0.023422 0.999725 0.000733
vn -0.023969 0.999713 -0.000003
vn -0.023690 0.999719 0.000385
vn -0.023761 0.999718 0.000263
vn -0.024044 0.999711 -0.000187
vn -0.023833 0.999716 0.000139
vn -0.023910 0.999714 0.000025
vn -0.023902 0.999714 0.000044
vn -0.023043 0.999734 0.000482
vn -0.023673 0.999720 0.000180
vn -0.024011 0.999712 -0.000013
vn -0.023909 0.999714 0.000034
vn -0.024083 0.999710 -0.000523
vn -0.023475 0.999724 0.001278
vn -0.023919 0.999714 0.000029
vn -0.023950 0.999713 -0.000022
vn -0.023820 0.999716 0.000403
vn -0.023033 0.999735 0.000244
vn -0.025044 0.999686 -0.000160
vn -0.023981 0.999712 -0.000292
vn -0.023982 0.999712 -0.000305
vn -0.024129 0.999709 -0.000005
vn -0.023106 0.999733 0.000096
vn -0.023834 0.999716 0.000531
vn -0.023924 0.999714 -0.000060
vn -0.023930 0.999714 0.000033
vn -0.023917 0.999714 0.000030
vn -0.023910 0.999714 -0.000626
vn -0.023904 0.999714 0.000026
vn -0.023915 0.999714 0.000030
vn -0.023917 0.999714 0.000029
vn -0.023909 0.999714 0.000032
vn -0.023902 0.999714 0.000031
vn -0.024579 0.999698 0.000073
vn -0.023592 0.999722 0.000022
vn -0.023497 0.999724 0.000015
vn -0.025031 0.999687 0.000220
vn -0.024199 0.999707 0.000051
vn -0.023706 0.999719 0.000001
vn -0.023940 0.999713 0.000123
vn -0.024137 0.999708 0.000827
vn -0.023728 0.999718 -0.000788
vn -0.023768 0.999718 0.000009
vn -0.023974 0.999713 0.000293
vn -0.023967 0.999713 0.000266
vn -0.023920 0.999714 0.000053
vn -0.023914 0.999714 0.000030
vn -0.024338 0.999704 0.000200
vn -0.023685 0.999720 -0.000115
vn -0.023364 0.999727 -0.000241
vn -0.022865 0.999737 -0.001842
vn -0.023773 0.999717 -0.000264
vn -0.023824 0.999716 -0.000030
vn -0.023883 0.999715 0.000010
vn -0.023873 0.999715 0.000016
vn -0.024338 0.999704 0.000670
vn -0.024099 0.999710 0.000336
vn -0.023912 0.999714 0.000029
vn -0.023925 0.999714 0.000030
vn -0.023923 0.999714 0.000030
vn -0.024023 0.999711 0.000087
vn -0.023919 0.999714 0.000032
vn -0.023919 0.999714 0.000032
vn -0.023984 0.999712 0.000050
vn -0.023083 0.999733 -0.000715
vn -0.023815 0.999716 -0.000034
vn -0.023971 0.999713 0.000067
f 1//1 2//1 3//1
f 3//2 2//2 4//2
f 5//3 3//3 6//3
f 7//4 6//4 3//4
f 8//5 3//5 5//5
f 9//6 7//6 3//6
f 10//7 3//7 8//7
f 11//8 9//8 3//8
f 12//9 3//9 10//9
f 13//10 11//10 3//10
f 14//11 3//11 12//11
f 15//12 13//12 3//12
f 16//13 3//13 14//13
f 17//14 15//14 3//14
f 18//15 3//15 16//15
f 19//16 17//16 3//16
f 20//17 3//17 18//17
f 21//18 19//18 3//18
f 22//19 3//19 20//19
f 23//20 21//20 3//20
f 24//21 3//21 22//21
f 25//22 23//22 3//22
f 26//23 3//23 24//23
f 27//24 25//24 3//24
f 28//25 3//25 26//25
f 29//26 27//26 3//26
f 30//27 3//27 28//27
f 31//28 29//28 3//28
f 32//29 3//29 30//29
f 33//30 31//30 3//30
f 34//31 3//31 32//31
f 35//32 33//32 3//32
f 36//33 3//33 34//33
f 1//34 37//34 38//34
f 1//35 39//35 37//35
f 1//36 40//36 39//36
f 1//37 41//37 40//37
f 1//38 42//38 41//38
f 1//39 43//39 42//39
f 1//40 44//40 43//40
f 1//41 45//41 44//41
f 1//42 46//42 45//42
f 1//43 47//43 46//43
f 1//44 48//44 47//44
f 1//45 49//45 48//45
f 1//46 50//46 49//46
f 1//47 51//47 50//47
f 1//48 36//48 51//48
f 1//49 3//49 36//49
f 52//50 53//50 54//50
f 52//51 55//51 53//51
f 52//52 56//52 55//52
f 52//53 57//53 56//53
f 52//54 58//54 57//54
f 52//55 59//55 58//55
f 52//56 60//56 59//56
f 52//57 61//57 60//57
f 52//58 62//58 61//58
f 52//59 63//59 62//59
f 52//60 64//60 63//60
f 52//61 65//61 64//61
f 52//62 66//62 65//62
f 52//63 67//63 66//63
f 52//64 35//64 3//64
f 52//65 68//65 35//65
f 52//66 54//66 68//66
f 69//67 1//67 38//67
f 70//68 67//68 52//68
f 71//69 1//69 69//69
f 72//70 70//70 52//70
f 73//71 1//71 71//71
f 74//72 72//72 52//72
f 75//73 1//73 73//73
f 76//74 74//74 52//74
f 77//75 1//75 75//75
f 78//76 76//76 52//76
f 79//77 1//77 77//77
f 80//78 78//78 52//78
f 81//79 1//79 79//79
f 82//80 80//80 52//80
f 83//81 1//81 81//81
f 84//82 82//82 52//82
f 85//83 1//83 83//83
f 86//84 84//84 52//84
f 87//85 1//85 85//85
f 88//86 86//86 52//86
f 89//87 1//87 87//87
f 90//88 88//88 52//88
f 91//89 1//89 89//89
f 92//90 90//90 52//90
f 93//91 1//91 91//91
f 94//92 92//92 52//92
f 95//93 1//93 93//93
f 96//94 94//94 52//94
f 97//95 1//95 95//95
f 98//96 96//96 52//96
f 99//97 98//97 52//97
f 100//98 101//98 99//98
f 100//99 102//99 101//99
f 100//100 103//100 102//100
f 100//101 104//101 103//101
f 100//102 105//102 104//102
f 100//103 106//103 105//103
f 100//104 107//104 106//104
f 100//105 108//105 107//105
f 100//106 109//106 108//106
f 100//107 110//107 109//107
f 100//108 111//108 110//108
f 100//109 112//109 111//109
f 100//110 113//110 112//110
f 100//111 114//111 113//111
f 100//112 115//112 114//112
f 100//113 116//113 115//113
f 100//114 117//114 116//114
f 100//115 118//115 117//115
f 100//116 119//116 118//116
f 100//117 120//117 119//117
f 100//118 99//118 52//118
f 100//119 121//119 120//119
f 100//120 122//120 121//120
f 100//121 123//121 122//121
f 100//122 124//122 123//122
f 100//123 125//123 124//123
f 100//124 126//124 125//124
f 100//125 127//125 126//125
f 100//126 128//126 127//126
f 100//127 129//127 128//127
f 100//128 130//128 129//128
f 100//129 1//129 131//129
f 131//130 1//130 97//130
f 100//131 131//131 132//131
f 100//132 132//132 130//132
f 2//133 133//133 4//133
f 4//134 133//134 134//134
f 2//135 135//135 136//135
f 136//136 137//136 2//136
f 2//137 138//137 135//137
f 137//138 139//138 2//138
f 2//139 140//139 138//139
f 139//140 141//140 2//140
f 2//141 142//141 140//141
f 141//142 143//142 2//142
f 2//143 144//143 142//143
f 143//144 145//144 2//144
f 2//145 146//145 144//145
f 145//146 147//146 2//146
f 2//147 148//147 146//147
f 147//148 149//148 2//148
f 2//149 150//149 148//149
f 149//150 151//150 2//150
f 2//151 152//151 150//151
f 151//152 153//152 2//152
f 2//153 154//153 152//153
f 153//154 155//154 2//154
f 2//155 156//155 154//155
f 155//156 157//156 2//156
f 2//157 158//157 156//157
f 157//158 159//158 2//158
f 2//159 160//159 158//159
f 159//160 161//160 2//160
f 2//161 162//161 160//161
f 161//162 163//162 2//162
f 2//163 164//163 162//163
f 163//164 165//164 2//164
f 2//165 166//165 164//165
f 167//166 1//166 168//166
f 169//167 1//167 167//167
f 170//168 1//168 169//168
f 171//169 1//169 170//169
f 172//170 1//170 171//170
f 173//171 1//171 172//171
f 174//172 1//172 173//172
f 175//173 1//173 174//173
f 176//174 1//174 175//174
f 177//175 1//175 176//175
f 178//176 1//176 177//176
f 179//177 1//177 178//177
f 180//178 1//178 179//178
f 181//179 1//179 180//179
f 166//180 1//180 181//180
f 2//181 1//181 166//181
f 182//182 133//182 183//182
f 184//183 133//183 182//183
f 185//184 133//184 184//184
f 186//185 133//185 185//185
f 187//186 133//186 186//186
f 188//187 133//187 187//187
f 189//188 133//188 188//188
f 190//189 133//189 189//189
f 191//190 133//190 190//190
f 192//191 133//191 191//191
f 193//192 133//192 192//192
f 194//193 133//193 193//193
f 195//194 133//194 194//194
f 196//195 133//195 195//195
f 165//196 133//196 2//196
f 197//197 133//197 165//197
f 183//198 133//198 197//198
f 1//199 198//199 168//199
f 196//200 199//200 133//200
f 1//201 200//201 198//201
f 199//202 201//202 133//202
f 1//203 202//203 200//203
f 201//204 203//204 133//204
f 1//205 204//205 202//205
f 203//206 205//206 133//206
f 1//207 206//207 204//207
f 205//208 207//208 133//208
f 1//209 208//209 206//209
f 207//210 209//210 133//210
f 1//211 210//211 208//211
f 209//212 211//212 133//212
f 1//213 212//213 210//213
f 211//214 213//214 133//214
f 1//215 214//215 212//215
f 213//216 215//216 133//216
f 1//217 216//217 214//217
f 215//218 217//218 133//218
f 1//219 218//219 216//219
f 217//220 219//220 133//220
f 1//221 220//221 218//221
f 219//222 221//222 133//222
f 1//223 222//223 220//223
f 221//224 223//224 133//224
f 1//225 224//225 222//225
f 223//226 225//226 133//226
f 1//227 226//227 224//227
f 225//228 227//228 133//228
f 227//229 228//229 133//229
f 229//230 100//230 228//230
f 230//231 100//231 229//231
f 231//232 100//232 230//232
f 232//233 100//233 231//233
f 233//234 100//234 232//234
f 234//235 100//235 233//235
f 235//236 100//236 234//236
f 236//237 100//237 235//237
f 237//238 100//238 236//238
f 238//239 100//239 237//239
f 239//240 100//240 238//240
f 240//241 100//241 239//241
f 241//242 100//242 240//242
f 242//243 100//243 241//243
f 243//244 100//244 242//244
f 244//245 100//245 243//245
f 245//246 100//246 244//246
f 246//247 100//247 245//247
f 247//248 100//248 246//248
f 228//249 100//249 133//249
f 248//250 100//250 247//250
f 249//251 100//251 248//251
f 250//252 100//252 249//252
f 251//253 100//253 250//253
f 252//254 100//254 251//254
f 253//255 100//255 252//255
f 254//256 100//256 253//256
f 255//257 100//257 254//257
f 256//258 100//258 255//258
f 257//259 100//259 256//259
f 258//260 100//260 257//260
f 1//261 100//261 259//261
f 1//262 259//262 226//262
f 259//263 100//263 260//263
f 260//264 100//264 258//264
f 261//265 4//265 262//265
f 263//266 262//266 4//266
f 264//267 4//267 261//267
f 265//268 263//268 4//268
f 266//269 4//269 264//269
f 267//270 265//270 4//270
f 268//271 4//271 266//271
f 269//272 267//272 4//272
f 270//273 4//273 268//273
f 271//274 269//274 4//274
f 272//275 4//275 270//275
f 273//276 271//276 4//276
f 274//277 4//277 272//277
f 275//278 273//278 4//278
f 276//279 4//279 274//279
f 277//280 275//280 4//280
f 278//281 4//281 276//281
f 279//282 277//282 4//282
f 280//283 4//283 278//283
f 281//284 279//284 4//284
f 282//285 4//285 280//285
f 283//286 281//286 4//286
f 284//287 4//287 282//287
f 285//288 283//288 4//288
f 286//289 4//289 284//289
f 287//290 285//290 4//290
f 288//291 4//291 286//291
f 289//292 287//292 4//292
f 290//293 4//293 288//293
f 291//294 289//294 4//294
f 292//295 4//295 290//295
f 3//296 293//296 294//296
f 3//297 295//297 293//297
f 3//298 296//298 295//298
f 3//299 297//299 296//299
f 3//300 298//300 297//300
f 3//301 299//301 298//301
f 3//302 300//302 299//302
f 3//303 301//303 300//303
f 3//304 302//304 301//304
f 3//305 303//305 302//305
f 3//306 304//306 303//306
f 3//307 305//307 304//307
f 3//308 306//308 305//308
f 3//309 307//309 306//309
f 3//310 292//310 307//310
f 3//311 4//311 292//311
f 134//312 308//312 309//312
f 134//313 310//313 308//313
f 134//314 311//314 310//314
f 134//315 312//315 311//315
f 134//316 313//316 312//316
f 134//317 314//317 313//317
f 134//318 315//318 314//318
f 134//319 316//319 315//319
f 134//320 317//320 316//320
f 134//321 318//321 317//321
f 134//322 319//322 318//322
f 134//323 320//323 319//323
f 134//324 321//324 320//324
f 134//325 322//325 321//325
f 134//326 291//326 4//326
f 134//327 323//327 291//327
f 134//328 309//328 323//328
f 324//329 3//329 294//329
f 325//330 322//330 134//330
f 326//331 3//331 324//331
f 327//332 325//332 134//332
f 328//333 3//333 326//333
f 329//334 327//334 134//334
f 330//335 3//335 328//335
f 331//336 329//336 134//336
f 332//337 3//337 330//337
f 333//338 331//338 134//338
f 334//339 3//339 332//339
f 335//340 333//340 134//340
f 336//341 3//341 334//341
f 337//342 335//342 134//342
f 338//343 3//343 336//343
f 339//344 337//344 134//344
f 340//345 3//345 338//345
f 341//346 339//346 134//346
f 342//347 3//347 340//347
f 343//348 341//348 134//348
f 344//349 3//349 342//349
f 345//350 343//350 134//350
f 346//351 3//351 344//351
f 347//352 345//352 134//352
f 348//353 3//353 346//353
f 349//354 347//354 134//354
f 350//355 3//355 348//355
f 351//356 349//356 134//356
f 352//357 3//357 350//357
f 353//358 351//358 134//358
f 354//359 353//359 134//359
f 52//360 355//360 354//360
f 52//361 356//361 355//361
f 52//362 357//362 356//362
f 52//363 358//363 357//363
f 52//364 359//364 358//364
f 52//365 360//365 359//365
f 52//366 361//366 360//366
f 52//367 362//367 361//367
f 52//368 363//368 362//368
f 52//369 364//369 363//369
f 52//370 365//370 364//370
f 52//371 366//371 365//371
f 52//372 367//372 366//372
f 52//373 368//373 367//373
f 52//374 369//374 368//374
f 52//375 370//375 369//375
f 52//376 371//376 370//376
f 52//377 372//377 371//377
f 52//378 373//378 372//378
f 52//379 354//379 134//379
f 52//380 374//380 373//380
f 52//381 375//381 374//381
f 52//382 376//382 375//382
f 52//383 377//383 376//383
f 52//384 378//384 377//384
f 52//385 379//385 378//385
f 52//386 380//386 379//386
f 52//387 381//387 380//387
f 52//388 382//388 381//388
f 52//389 383//389 382//389
f 52//390 384//390 383//390
f 52//391 3//391 385//391
f 385//392 3//392 352//392
f 52//393 385//393 386//393
f 52//394 386//394 384//394
f 133//395 100//395 52//395
f 133//396 52//396 134//396
f 99//397 101//397 387//397
f 387//398 101//398 388//398
f 388//399 101//399 389//399
f 389//400 102//400 390//400
f 101//401 102//401 389//401
f 102//402 103//402 390//402
f 390//403 104//403 391//403
f 391//404 104//404 392//404
f 103//405 104//405 390//405
f 104//406 105//406 392//406
f 392//407 106//407 393//407
f 105//408 106//408 392//408
f 393//409 107//409 394//409
f 394//410 107//410 395//410
f 106//411 107//411 393//411
f 107//412 108//412 395//412
f 395//413 109//413 396//413
f 108//414 109//414 395//414
f 396//415 110//415 397//415
f 109//416 110//416 396//416
f 110//417 111//417 397//417
f 397//418 111//418 398//418
f 398//419 111//419 399//419
f 111//420 112//420 399//420
f 112//421 113//421 399//421
f 399//422 113//422 400//422
f 113//423 114//423 400//423
f 400//424 114//424 401//424
f 401//425 115//425 402//425
f 402//426 115//426 403//426
f 114//427 115//427 401//427
f 115//428 116//428 403//428
f 403//429 117//429 404//429
f 116//430 117//430 403//430
f 404//431 118//431 405//431
f 405//432 118//432 406//432
f 117//433 118//433 404//433
f 118//434 119//434 406//434
f 406//435 120//435 407//435
f 119//436 120//436 406//436
f 407//437 121//437 408//437
f 120//438 121//438 407//438
f 408//439 122//439 409//439
f 121//440 122//440 408//440
f 409//441 123//441 410//441
f 122//442 123//442 409//442
f 410//443 124//443 411//443
f 123//444 124//444 410//444
f 411//445 125//445 412//445
f 124//446 125//446 411//446
f 412//447 126//447 413//447
f 125//448 126//448 412//448
f 413//449 127//449 414//449
f 126//450 127//450 413//450
f 414//451 128//451 415//451
f 415//452 128//452 416//452
f 127//453 128//453 414//453
f 128//454 129//454 416//454
f 416//455 130//455 417//455
f 129//456 130//456 416//456
f 417//457 132//457 418//457
f 130//458 132//458 417//458
f 418//459 131//459 419//459
f 132//460 131//460 418//460
f 419//461 97//461 420//461
f 131//462 97//462 419//462
f 420//463 95//463 421//463
f 97//464 95//464 420//464
f 421//465 93//465 422//465
f 95//466 93//466 421//466
f 422//467 91//467 423//467
f 93//468 91//468 422//468
f 423//469 89//469 424//469
f 424//470 89//470 425//470
f 91//471 89//471 423//471
f 89//472 87//472 425//472
f 425//473 87//473 426//473
f 87//474 85//474 426//474
f 85//475 83//475 426//475
f 426//476 83//476 427//476
f 83//477 81//477 427//477
f 427//478 81//478 428//478
f 81//479 79//479 428//479
f 428//480 79//480 429//480
f 79//481 77//481 429//481
f 429//482 77//482 430//482
f 77//483 75//483 430//483
f 430//484 75//484 431//484
f 75//485 73//485 431//485
f 431//486 73//486 432//486
f 73//487 71//487 432//487
f 432//488 71//488 433//488
f 433//489 71//489 434//489
f 71//490 69//490 434//490
f 434//491 38//491 435//491
f 69//492 38//492 434//492
f 435//493 37//493 436//493
f 38//494 37//494 435//494
f 436//495 39//495 437//495
f 437//496 39//496 438//496
f 37//497 39//497 436//497
f 39//498 40//498 438//498
f 438//499 41//499 439//499
f 439//500 41//500 440//500
f 40//501 41//501 438//501
f 41//502 42//502 440//502
f 440//503 43//503 441//503
f 441//504 43//504 442//504
f 42//505 43//505 440//505
f 43//506 44//506 442//506
f 442//507 45//507 443//507
f 44//508 45//508 442//508
f 443//509 46//509 444//509
f 444//510 46//510 445//510
f 45//511 46//511 443//511
f 46//512 47//512 445//512
f 445//513 48//513 446//513
f 47//514 48//514 445//514
f 446//515 49//515 447//515
f 48//516 49//516 446//516
f 447//517 50//517 448//517
f 49//518 50//518 447//518
f 50//519 51//519 448//519
f 448//520 51//520 449//520
f 449//521 51//521 450//521
f 51//522 36//522 450//522
f 450//523 36//523 451//523
f 36//524 34//524 451//524
f 34//525 32//525 451//525
f 451//526 32//526 452//526
f 452//527 32//527 453//527
f 32//528 30//528 453//528
f 453//529 30//529 454//529
f 30//530 28//530 454//530
f 454//531 28//531 455//531
f 28//532 26//532 455//532
f 26//533 24//533 455//533
f 455//534 24//534 456//534
f 456//535 24//535 457//535
f 24//536 22//536 457//536
f 457//537 22//537 458//537
f 22//538 20//538 458//538
f 20//539 18//539 458//539
f 458//540 18//540 459//540
f 459//541 18//541 460//541
f 18//542 16//542 460//542
f 16//543 14//543 460//543
f 460//544 14//544 461//544
f 14//545 12//545 461//545
f 461//546 12//546 462//546
f 12//547 10//547 462//547
f 462//548 10//548 463//548
f 463//549 10//549 464//549
f 10//550 8//550 464//550
f 8//551 5//551 464//551
f 464//552 5//552 465//552
f 5//553 6//553 465//553
f 465//554 6//554 466//554
f 466//555 6//555 467//555
f 6//556 7//556 467//556
f 7//557 9//557 467//557
f 467//558 9//558 468//558
f 9//559 11//559 468//559
f 468//560 11//560 469//560
f 469//561 13//561 470//561
f 11//562 13//562 469//562
f 470//563 13//563 471//563
f 13//564 15//564 471//564
f 471//565 17//565 472//565
f 15//566 17//566 471//566
f 472//567 19//567 473//567
f 17//568 19//568 472//568
f 473//569 21//569 474//569
f 19//570 21//570 473//570
f 21//571 23//571 474//571
f 474//572 23//572 475//572
f 23//573 25//573 475//573
f 475//574 25//574 476//574
f 25//575 27//575 476//575
f 476//576 27//576 477//576
f 27//577 29//577 477//577
f 477//578 29//578 478//578
f 478//579 29//579 479//579
f 29//580 31//580 479//580
f 31//581 33//581 479//581
f 479//582 33//582 480//582
f 33//583 35//583 480//583
f 480//584 35//584 481//584
f 35//585 68//585 481//585
f 481//586 68//586 482//586
f 68//587 54//587 482//587
f 482//588 54//588 483//588
f 54//589 53//589 483//589
f 483//590 53//590 484//590
f 53//591 55//591 484//591
f 484//592 55//592 485//592
f 55//593 56//593 485//593
f 485//594 56//594 486//594
f 486//595 57//595 487//595
f 56//596 57//596 486//596
f 487//597 58//597 488//597
f 57//598 58//598 487//598
f 488//599 59//599 489//599
f 58//600 59//600 488//600
f 489//601 60//601 490//601
f 59//602 60//602 489//602
f 490//603 61//603 491//603
f 491//604 61//604 492//604
f 60//605 61//605 490//605
f 61//606 62//606 492//606
f 492//607 63//607 493//607
f 62//608 63//608 492//608
f 493//609 64//609 494//609
f 63//610 64//610 493//610
f 494//611 65//611 495//611
f 64//612 65//612 494//612
f 495//613 66//613 496//613
f 65//614 66//614 495//614
f 496//615 67//615 497//615
f 66//616 67//616 496//616
f 497//617 70//617 498//617
f 67//618 70//618 497//618
f 70//619 72//619 498//619
f 498//620 72//620 499//620
f 72//621 74//621 499//621
f 499//622 74//622 500//622
f 74//623 76//623 500//623
f 500//624 76//624 501//624
f 76//625 78//625 501//625
f 501//626 78//626 502//626
f 78//627 80//627 502//627
f 502//628 80//628 503//628
f 503//629 82//629 504//629
f 80//630 82//630 503//630
f 504//631 84//631 505//631
f 82//632 84//632 504//632
f 505//633 86//633 506//633
f 506//634 86//634 507//634
f 84//635 86//635 505//635
f 86//636 88//636 507//636
f 507//637 90//637 508//637
f 88//638 90//638 507//638
f 508//639 92//639 509//639
f 90//640 92//640 508//640
f 509//641 94//641 510//641
f 92//642 94//642 509//642
f 510//643 96//643 511//643
f 94//644 96//644 510//644
f 511//645 98//645 512//645
f 512//646 98//646 387//646
f 96//647 98//647 511//647
f 98//648 99//648 387//648
f 229//649 228//649 354//649
f 229//650 354//650 355//650
f 230//651 355//651 356//651
f 230//652 229//652 355//652
f 231//653 356//653 357//653
f 231//654 230//654 356//654
f 232//655 357//655 358//655
f 232//656 231//656 357//656
f 233//657 358//657 359//657
f 233//658 359//658 360//658
f 233//659 232//659 358//659
f 234//660 360//660 361//660
f 234//661 233//661 360//661
f 235//662 361//662 362//662
f 235//663 234//663 361//663
f 236//664 235//664 362//664
f 237//665 362//665 363//665
f 237//666 236//666 362//666
f 238//667 363//667 364//667
f 238//668 237//668 363//668
f 239//669 238//669 364//669
f 239//670 364//670 365//670
f 240//671 239//671 365//671
f 240//672 365//672 366//672
f 241//673 240//673 366//673
f 241//674 366//674 367//674
f 242//675 241//675 367//675
f 242//676 367//676 368//676
f 242//677 368//677 369//677
f 243//678 242//678 369//678
f 244//679 243//679 369//679
f 244//680 369//680 370//680
f 245//681 370//681 371//681
f 245//682 244//682 370//682
f 246//683 371//683 372//683
f 246//684 245//684 371//684
f 247//685 372//685 373//685
f 247//686 246//686 372//686
f 248//687 373//687 374//687
f 248//688 247//688 373//688
f 249//689 374//689 375//689
f 249//690 248//690 374//690
f 250//691 375//691 376//691
f 250//692 249//692 375//692
f 251//693 376//693 377//693
f 251//694 377//694 378//694
f 251//695 250//695 376//695
f 252//696 251//696 378//696
f 253//697 378//697 379//697
f 253//698 252//698 378//698
f 254//699 379//699 380//699
f 254//700 253//700 379//700
f 255//701 380//701 381//701
f 255//702 254//702 380//702
f 256//703 381//703 382//703
f 256//704 255//704 381//704
f 257//705 382//705 383//705
f 257//706 256//706 382//706
f 258//707 383//707 384//707
f 258//708 257//708 383//708
f 260//709 384//709 386//709
f 260//710 258//710 384//710
f 259//711 386//711 385//711
f 259//712 260//712 386//712
f 226//713 385//713 352//713
f 226//714 259//714 385//714
f 224//715 352//715 350//715
f 224//716 226//716 352//716
f 222//717 350//717 348//717
f 222//718 224//718 350//718
f 220//719 348//719 346//719
f 220//720 346//720 344//720
f 220//721 222//721 348//721
f 218//722 220//722 344//722
f 216//723 218//723 344//723
f 216//724 344//724 342//724
f 216//725 342//725 340//725
f 214//726 216//726 340//726
f 212//727 214//727 340//727
f 212//728 340//728 338//728
f 210//729 212//729 338//729
f 210//730 338//730 336//730
f 210//731 336//731 334//731
f 208//732 210//732 334//732
f 208//733 334//733 332//733
f 206//734 208//734 332//734
f 204//735 206//735 332//735
f 204//736 332//736 330//736
f 204//737 330//737 328//737
f 202//738 204//738 328//738
f 202//739 328//739 326//739
f 200//740 202//740 326//740
f 200//741 326//741 324//741
f 198//742 200//742 324//742
f 168//743 324//743 294//743
f 168//744 198//744 324//744
f 168//745 294//745 293//745
f 167//746 168//746 293//746
f 169//747 167//747 293//747
f 169//748 293//748 295//748
f 170//749 295//749 296//749
f 170//750 169//750 295//750
f 171//751 296//751 297//751
f 171//752 297//752 298//752
f 171//753 170//753 296//753
f 172//754 171//754 298//754
f 173//755 298//755 299//755
f 173//756 172//756 298//756
f 174//757 299//757 300//757
f 174//758 300//758 301//758
f 174//759 173//759 299//759
f 175//760 301//760 302//760
f 175//761 174//761 301//761
f 176//762 175//762 302//762
f 177//763 302//763 303//763
f 177//764 176//764 302//764
f 178//765 303//765 304//765
f 178//766 177//766 303//766
f 179//767 304//767 305//767
f 179//768 178//768 304//768
f 180//769 305//769 306//769
f 180//770 179//770 305//770
f 181//771 180//771 306//771
f 181//772 306//772 307//772
f 166//773 181//773 307//773
f 166//774 307//774 292//774
f 164//775 166//775 292//775
f 164//776 292//776 290//776
f 162//777 164//777 290//777
f 162//778 290//778 288//778
f 160//779 162//779 288//779
f 160//780 288//780 286//780
f 158//781 160//781 286//781
f 158//782 286//782 284//782
f 156//783 158//783 284//783
f 156//784 284//784 282//784
f 156//785 282//785 280//785
f 154//786 156//786 280//786
f 152//787 154//787 280//787
f 152//788 280//788 278//788
f 150//789 152//789 278//789
f 150//790 278//790 276//790
f 148//791 150//791 276//791
f 148//792 276//792 274//792
f 146//793 148//793 274//793
f 146//794 274//794 272//794
f 144//795 146//795 272//795
f 144//796 272//796 270//796
f 144//797 270//797 268//797
f 142//798 144//798 268//798
f 140//799 142//799 268//799
f 140//800 268//800 266//800
f 138//801 140//801 266//801
f 138//802 266//802 264//802
f 138//803 264//803 261//803
f 135//804 138//804 261//804
f 136//805 135//805 261//805
f 136//806 261//806 262//806
f 136//807 262//807 263//807
f 137//808 136//808 263//808
f 139//809 137//809 263//809
f 139//810 263//810 265//810
f 141//811 139//811 265//811
f 141//812 265//812 267//812
f 141//813 267//813 269//813
f 143//814 141//814 269//814
f 145//815 269//815 271//815
f 145//816 271//816 273//816
f 145//817 143//817 269//817
f 147//818 145//818 273//818
f 149//819 273//819 275//819
f 149//820 275//820 277//820
f 149//821 147//821 273//821
f 151//822 149//822 277//822
f 153//823 151//823 277//823
f 153//824 277//824 279//824
f 155//825 153//825 279//825
f 155//826 279//826 281//826
f 155//827 281//827 283//827
f 157//828 155//828 283//828
f 159//829 157//829 283//829
f 159//830 283//830 285//830
f 161//831 159//831 285//831
f 161//832 285//832 287//832
f 161//833 287//833 289//833
f 163//834 161//834 289//834
f 165//835 163//835 289//835
f 165//836 289//836 291//836
f 165//837 291//837 323//837
f 197//838 165//838 323//838
f 183//839 197//839 323//839
f 183//840 323//840 309//840
f 183//841 309//841 308//841
f 182//842 183//842 308//842
f 182//843 308//843 310//843
f 184//844 182//844 310//844
f 184//845 310//845 311//845
f 185//846 184//846 311//846
f 186//847 311//847 312//847
f 186//848 312//848 313//848
f 186//849 185//849 311//849
f 187//850 186//850 313//850
f 188//851 313//851 314//851
f 188//852 187//852 313//852
f 189//853 314//853 315//853
f 189//854 315//854 316//854
f 189//855 188//855 314//855
f 190//856 189//856 316//856
f 191//857 316//857 317//857
f 191//858 190//858 316//858
f 192//859 317//859 318//859
f 192//860 318//860 319//860
f 192//861 191//861 317//861
f 193//862 192//862 319//862
f 194//863 319//863 320//863
f 194//864 193//864 319//864
f 195//865 320//865 321//865
f 195//866 321//866 322//866
f 195//867 194//867 320//867
f 196//868 322//868 325//868
f 196//869 195//869 322//869
f 199//870 325//870 327//870
f 199//871 196//871 325//871
f 201//872 199//872 327//872
f 201//873 327//873 329//873
f 203//874 201//874 329//874
f 203//875 329//875 331//875
f 205//876 203//876 331//876
f 207//877 205//877 331//877
f 207//878 331//878 333//878
f 209//879 207//879 333//879
f 209//880 333//880 335//880
f 211//881 335//881 337//881
f 211//882 209//882 335//882
f 213//883 337//883 339//883
f 213//884 211//884 337//884
f 215//885 339//885 341//885
f 215//886 213//886 339//886
f 217//887 341//887 343//887
f 217//888 343//888 345//888
f 217//889 215//889 341//889
f 219//890 217//890 345//890
f 221//891 345//891 347//891
f 221//892 347//892 349//892
f 221//893 219//893 345//893
f 223//894 221//894 349//894
f 225//895 349//895 351//895
f 225//896 223//896 349//896
f 227//897 351//897 353//897
f 227//898 225//898 351//898
f 228//899 353//899 354//899
f 228//900 227//900 353//900
f 466//901 468//901 465//901
f 467//902 468//902 466//902
f 464//903 462//903 463//903
f 465//904 462//904 464//904
f 469//905 470//905 468//905
f 460//906 458//906 459//906
f 461//907 458//907 460//907
f 462//908 458//908 461//908
f 462//909 457//909 458//909
f 474//910 475//910 473//910
f 468//911 456//911 465//911
f 470//912 456//912 468//912
f 465//913 456//913 462//913
f 462//914 456//914 457//914
f 475//915 477//915 473//915
f 476//916 477//916 475//916
f 456//917 454//917 455//917
f 477//918 478//918 473//918
f 478//919 479//919 473//919
f 472//920 479//920 471//920
f 473//921 479//921 472//921
f 453//922 451//922 452//922
f 454//923 451//923 453//923
f 480//924 481//924 479//924
f 454//925 450//925 451//925
f 483//926 484//926 482//926
f 449//927 447//927 448//927
f 450//928 447//928 449//928
f 484//929 485//929 482//929
f 482//930 485//930 481//930
f 456//931 446//931 454//931
f 454//932 446//932 450//932
f 450//933 446//933 447//933
f 486//934 487//934 485//934
f 485//935 488//935 481//935
f 487//936 488//936 485//936
f 444//937 442//937 443//937
f 489//938 490//938 488//938
f 488//939 490//939 481//939
f 444//940 440//940 442//940
f 442//941 440//941 441//941
f 445//942 440//942 444//942
f 446//943 440//943 445//943
f 446//944 439//944 440//944
f 491//945 493//945 490//945
f 492//946 493//946 491//946
f 446//947 438//947 439//947
f 456//948 438//948 446//948
f 495//949 496//949 494//949
f 436//950 434//950 435//950
f 437//951 434//951 436//951
f 438//952 434//952 437//952
f 494//953 498//953 493//953
f 497//954 498//954 496//954
f 496//955 498//955 494//955
f 499//956 501//956 498//956
f 500//957 501//957 499//957
f 432//958 430//958 431//958
f 501//959 502//959 498//959
f 430//960 428//960 429//960
f 432//961 428//961 430//961
f 433//962 427//962 432//962
f 434//963 427//963 433//963
f 438//964 427//964 434//964
f 432//965 427//965 428//965
f 503//966 505//966 502//966
f 504//967 505//967 503//967
f 505//968 506//968 502//968
f 456//969 424//969 438//969
f 426//970 424//970 425//970
f 427//971 424//971 426//971
f 470//972 424//972 456//972
f 438//973 424//973 427//973
f 424//974 422//974 423//974
f 508//975 510//975 507//975
f 509//976 510//976 508//976
f 422//977 420//977 421//977
f 424//978 420//978 422//978
f 510//979 512//979 507//979
f 511//980 512//980 510//980
f 424//981 419//981 420//981
f 424//982 417//982 419//982
f 493//983 417//983 490//983
f 490//984 417//984 481//984
f 419//985 417//985 418//985
f 498//986 417//986 493//986
f 470//987 417//987 424//987
f 479//988 417//988 471//988
f 471//989 417//989 470//989
f 481//990 417//990 479//990
f 388//991 389//991 387//991
f 389//992 390//992 387//992
f 387//993 390//993 512//993
f 391//994 392//994 390//994
f 390//995 392//995 512//995
f 392//996 393//996 512//996
f 414//997 412//997 413//997
f 415//998 412//998 414//998
f 416//999 412//999 415//999
f 393//1000 394//1000 512//1000
f 417//1001 411//1001 416//1001
f 416//1002 411//1002 412//1002
f 417//1003 410//1003 411//1003
f 498//1004 410//1004 417//1004
f 395//1005 397//1005 394//1005
f 396//1006 397//1006 395//1006
f 397//1007 398//1007 394//1007
f 409//1008 407//1008 408//1008
f 410//1009 407//1009 409//1009
f 399//1010 400//1010 398//1010
f 398//1011 400//1011 394//1011
f 507//1012 405//1012 506//1012
f 407//1013 405//1013 406//1013
f 410//1014 405//1014 407//1014
f 498//1015 405//1015 410//1015
f 502//1016 405//1016 498//1016
f 506//1017 405//1017 502//1017
f 400//1018 401//1018 394//1018
f 512//1019 404//1019 507//1019
f 394//1020 404//1020 512//1020
f 507//1021 404//1021 405//1021
f 402//1022 403//1022 401//1022
f 401//1023 403//1023 394//1023
f 394//1024 403//1024 404//1024
