# Created by FreeCAD <https://www.freecad.org>
v 325.360321 -190.066498 -83.177025
v 325.226990 -164.666855 -83.179817
v 325.892883 -190.066498 -108.571434
v 325.759552 -164.666855 -108.574234
v 332.933990 -190.028687 -100.823395
v 333.200653 -190.027313 -101.085571
v 333.480072 -190.025879 -101.334122
v 332.680756 -190.029984 -100.548256
v 333.771515 -190.024384 -101.568443
v 332.441467 -190.031219 -100.260841
v 334.074280 -190.022812 -101.787941
v 332.216888 -190.032364 -99.961845
v 334.387573 -190.021194 -101.992073
v 332.007446 -190.033432 -99.652039
v 334.710724 -190.019516 -102.180344
v 331.813721 -190.034409 -99.332169
v 335.042786 -190.017792 -102.352264
v 331.636169 -190.035309 -99.003044
v 335.383057 -190.016022 -102.507416
v 331.475281 -190.036102 -98.665474
v 335.730591 -190.014206 -102.645416
v 331.331390 -190.036819 -98.320305
v 336.084595 -190.012360 -102.765923
v 331.204865 -190.037445 -97.968391
v 336.444183 -190.010483 -102.868629
v 331.096069 -190.037979 -97.610611
v 336.808441 -190.008591 -102.953293
v 331.005219 -190.038422 -97.247856
v 337.176453 -190.006668 -103.019684
v 330.932587 -190.038757 -96.881020
v 337.547302 -190.004715 -103.067665
v 330.878326 -190.039001 -96.511017
v 337.920105 -190.002762 -103.097084
v 330.842560 -190.039154 -96.138763
v 338.293915 -190.000809 -103.107887
v 330.825409 -190.039200 -95.765198
v 332.478577 -190.029984 -90.908562
v 332.720093 -190.028687 -90.623047
v 332.251587 -190.031219 -91.205765
v 332.039703 -190.032364 -91.513908
v 331.843445 -190.033432 -91.832222
v 331.663300 -190.034409 -92.159935
v 331.499695 -190.035309 -92.496216
v 331.353119 -190.036102 -92.840233
v 331.223816 -190.036819 -93.191132
v 331.112152 -190.037445 -93.548035
v 331.018463 -190.037979 -93.910065
v 330.942902 -190.038422 -94.276314
v 330.885712 -190.038757 -94.645866
v 330.846985 -190.039001 -95.017830
v 330.826874 -190.039154 -95.391251
v 351.286957 -189.933151 -108.038872
v 339.412018 -189.994934 -103.028557
v 339.040802 -189.996887 -103.073578
v 339.780548 -189.992981 -102.965073
v 340.145447 -189.991058 -102.883308
v 340.505829 -189.989166 -102.783455
v 340.860809 -189.987289 -102.665756
v 341.209442 -189.985443 -102.530518
v 341.550934 -189.983627 -102.378067
v 341.884369 -189.981857 -102.208786
v 342.208954 -189.980133 -102.023087
v 342.523895 -189.978455 -101.821442
v 342.828369 -189.976837 -101.604355
v 343.121643 -189.975281 -101.372353
v 343.403046 -189.973770 -101.126022
v 343.671753 -189.972336 -100.865974
v 338.667786 -189.998840 -103.100044
v 332.975525 -190.027313 -90.349922
v 343.927185 -189.970963 -100.592850
v 333.244263 -190.025879 -90.089874
v 344.168732 -189.969666 -100.307335
v 333.525604 -190.024384 -89.843544
v 344.395691 -189.968430 -100.010139
v 333.818909 -190.022812 -89.611542
v 344.607574 -189.967285 -99.701996
v 334.123383 -190.021194 -89.394455
v 344.803802 -189.966232 -99.383675
v 334.438354 -190.019516 -89.192810
v 344.983948 -189.965240 -99.055969
v 334.762909 -190.017792 -89.007118
v 345.147552 -189.964340 -98.719681
v 335.096375 -190.016022 -88.837830
v 345.294189 -189.963547 -98.375664
v 335.437836 -190.014206 -88.685387
v 345.423462 -189.962830 -98.024765
v 335.786469 -190.012360 -88.550140
v 345.535095 -189.962204 -97.667862
v 336.141449 -190.010483 -88.432449
v 345.628815 -189.961670 -97.305832
v 336.501801 -190.008591 -88.332588
v 345.704376 -189.961227 -96.939590
v 336.866730 -190.006668 -88.250824
v 345.761597 -189.960892 -96.570030
v 337.235260 -190.004715 -88.187340
v 345.800262 -189.960648 -96.198074
v 337.606476 -190.002762 -88.142319
v 345.820404 -189.960495 -95.824654
v 345.821899 -189.960449 -95.450699
v 350.754395 -189.933151 -82.644463
v 345.804718 -189.960495 -95.077133
v 345.768951 -189.960648 -94.704887
v 345.714722 -189.960892 -94.334877
v 345.642059 -189.961227 -93.968040
v 345.551208 -189.961670 -93.605293
v 345.442413 -189.962204 -93.247505
v 345.315887 -189.962830 -92.895599
v 345.172028 -189.963547 -92.550423
v 345.011108 -189.964340 -92.212860
v 344.833557 -189.965240 -91.883728
v 344.639801 -189.966232 -91.563858
v 344.430389 -189.967285 -91.254051
v 344.205780 -189.968430 -90.955063
v 343.966553 -189.969666 -90.667641
v 343.713257 -189.970963 -90.392502
v 343.446625 -189.972336 -90.130325
v 343.167236 -189.973770 -89.881775
v 342.875763 -189.975281 -89.647453
v 342.572998 -189.976837 -89.427956
v 342.259705 -189.978455 -89.223824
v 341.936584 -189.980133 -89.035561
v 341.604492 -189.981857 -88.863632
v 341.264252 -189.983627 -88.708481
v 340.916687 -189.985443 -88.570480
v 340.562683 -189.987289 -88.449982
v 340.203094 -189.989166 -88.347267
v 339.838837 -189.991058 -88.262604
v 339.470825 -189.992981 -88.196213
v 339.099945 -189.994934 -88.148239
v 338.727173 -189.996887 -88.118813
v 337.979523 -190.000809 -88.115852
v 338.353394 -189.998840 -88.108009
v 350.621063 -164.533508 -82.647263
v 351.153625 -164.533508 -108.041672
v 332.467316 -172.227631 -83.027977
v 332.726959 -171.958572 -83.022530
v 332.999695 -171.702774 -83.016815
v 332.221405 -172.509323 -83.033134
v 333.284851 -171.460892 -83.010834
v 331.989807 -172.802917 -83.037994
v 333.581665 -171.233536 -83.004608
v 331.773163 -173.107697 -83.042534
v 333.889465 -171.021255 -82.998154
v 331.571991 -173.422897 -83.046753
v 334.207489 -170.824585 -82.991486
v 331.386749 -173.747726 -83.050636
v 334.534882 -170.644012 -82.984619
v 331.217896 -174.081390 -83.054176
v 334.870880 -170.479996 -82.977570
v 331.065948 -174.423065 -83.057365
v 335.214630 -170.332932 -82.970360
v 330.931183 -174.771881 -83.060196
v 335.565277 -170.203186 -82.963005
v 330.813965 -175.126999 -83.062653
v 335.921967 -170.091080 -82.955528
v 330.714600 -175.487503 -83.064735
v 336.283783 -169.996902 -82.947937
v 330.633301 -175.852524 -83.066437
v 336.649872 -169.920883 -82.940262
v 330.570343 -176.221146 -83.067764
v 337.019287 -169.863205 -82.932518
v 330.525787 -176.592422 -83.068695
v 337.391083 -169.824020 -82.924721
v 330.499786 -176.965500 -83.069237
v 337.764404 -169.803421 -82.916885
v 330.492462 -177.339386 -83.069397
v 332.272034 -182.151001 -83.032074
v 332.520874 -182.430084 -83.026855
v 332.037354 -181.859863 -83.036995
v 331.817535 -181.557373 -83.041603
v 331.613037 -181.244308 -83.045891
v 331.424408 -180.921432 -83.049850
v 331.252075 -180.589554 -83.053467
v 331.096527 -180.249496 -83.056725
v 330.958130 -179.902130 -83.059631
v 330.837158 -179.548264 -83.062164
v 330.734009 -179.188812 -83.064331
v 330.648895 -178.824677 -83.066116
v 330.582062 -178.456741 -83.067513
v 330.533630 -178.085922 -83.068527
v 330.503723 -177.713165 -83.069160
v 338.883972 -169.853409 -82.893410
v 338.511780 -169.818130 -82.901215
v 339.253967 -169.907211 -82.885651
v 339.620819 -169.979370 -82.877953
v 339.983612 -170.069763 -82.870346
v 340.341461 -170.178116 -82.862839
v 340.693481 -170.304169 -82.855461
v 341.038757 -170.447601 -82.848221
v 341.376434 -170.608093 -82.841141
v 341.705719 -170.785217 -82.834229
v 342.025787 -170.978531 -82.827522
v 342.335754 -171.187561 -82.821022
v 342.634979 -171.411789 -82.814743
v 342.922668 -171.650665 -82.808708
v 343.198059 -171.903580 -82.802933
v 338.138275 -169.801453 -82.909050
v 332.783325 -182.696426 -83.021347
v 343.460510 -172.169907 -82.797432
v 333.058746 -182.949326 -83.015572
v 343.709381 -172.448990 -82.792213
v 333.346405 -183.188217 -83.009544
v 343.944031 -172.740143 -82.787292
v 333.645599 -183.412445 -83.003265
v 344.163849 -173.042633 -82.782677
v 333.955597 -183.621460 -82.996765
v 344.368347 -173.355698 -82.778389
v 334.275665 -183.814789 -82.990051
v 344.556976 -173.678558 -82.774437
v 334.604950 -183.991913 -82.983147
v 344.729309 -174.010437 -82.770821
v 334.942657 -184.152390 -82.976067
v 344.884857 -174.350494 -82.767563
v 335.287903 -184.295837 -82.968826
v 345.023254 -174.697876 -82.764656
v 335.639923 -184.421890 -82.961441
v 345.144196 -175.051743 -82.762123
v 335.997772 -184.530243 -82.953941
v 345.247345 -175.411194 -82.759956
v 336.360565 -184.620621 -82.946327
v 345.332489 -175.775330 -82.758171
v 336.727417 -184.692795 -82.938637
v 345.399323 -176.143265 -82.756767
v 337.097412 -184.746582 -82.930878
v 345.447754 -176.514069 -82.755753
v 337.469604 -184.781860 -82.923073
v 345.477661 -176.886841 -82.755127
v 345.488953 -177.260620 -82.754890
v 345.481567 -177.634506 -82.755043
v 345.455597 -178.007568 -82.755592
v 345.411072 -178.378860 -82.756523
v 345.348083 -178.747482 -82.757843
v 345.266785 -179.112503 -82.759552
v 345.167419 -179.473007 -82.761635
v 345.050201 -179.828125 -82.764091
v 344.915466 -180.176926 -82.766914
v 344.763458 -180.518600 -82.770103
v 344.594635 -180.852264 -82.773643
v 344.409393 -181.177109 -82.777534
v 344.208221 -181.492310 -82.781754
v 343.991577 -181.797089 -82.786293
v 343.760010 -182.090683 -82.791153
v 343.514069 -182.372360 -82.796310
v 343.254425 -182.641434 -82.801750
v 342.981720 -182.897217 -82.807472
v 342.696533 -183.139114 -82.813454
v 342.399689 -183.366470 -82.819679
v 342.091919 -183.578735 -82.826134
v 341.773926 -183.775421 -82.832802
v 341.446503 -183.955994 -82.839668
v 341.110535 -184.119995 -82.846718
v 340.766754 -184.267075 -82.853920
v 340.416107 -184.396820 -82.861275
v 340.059418 -184.508926 -82.868759
v 339.697571 -184.603088 -82.876343
v 339.331512 -184.679123 -82.884026
v 338.962097 -184.736786 -82.891769
v 338.590302 -184.775970 -82.899567
v 337.843109 -184.798553 -82.915237
v 338.217010 -184.796585 -82.907394
v 332.999878 -172.227631 -108.422386
v 333.259521 -171.958572 -108.416939
v 333.532257 -171.702774 -108.411224
v 332.753967 -172.509323 -108.427544
v 333.817413 -171.460892 -108.405243
v 332.522369 -172.802917 -108.432404
v 334.114258 -171.233536 -108.399017
v 332.305725 -173.107697 -108.436943
v 334.422028 -171.021255 -108.392563
v 332.104553 -173.422897 -108.441162
v 334.740051 -170.824585 -108.385895
v 331.919312 -173.747726 -108.445053
v 335.067444 -170.644012 -108.379028
v 331.750488 -174.081390 -108.448593
v 335.403442 -170.479996 -108.371979
v 331.598511 -174.423065 -108.451775
v 335.747192 -170.332932 -108.364769
v 331.463745 -174.771881 -108.454605
v 336.097839 -170.203186 -108.357414
v 331.346527 -175.126999 -108.457062
v 336.454529 -170.091080 -108.349937
v 331.247162 -175.487503 -108.459145
v 336.816376 -169.996902 -108.342346
v 331.165863 -175.852524 -108.460854
v 337.182434 -169.920883 -108.334671
v 331.102905 -176.221146 -108.462173
v 337.551849 -169.863205 -108.326927
v 331.058350 -176.592422 -108.463104
v 337.923645 -169.824020 -108.319130
v 331.032379 -176.965500 -108.463654
v 338.296967 -169.803421 -108.311295
v 331.025024 -177.339386 -108.463806
v 332.804596 -182.151001 -108.426483
v 333.053436 -182.430084 -108.421265
v 332.569916 -181.859863 -108.431404
v 332.350098 -181.557373 -108.436012
v 332.145599 -181.244308 -108.440300
v 331.956970 -180.921432 -108.444260
v 331.784637 -180.589554 -108.447876
v 331.629120 -180.249496 -108.451134
v 331.490692 -179.902130 -108.454041
v 331.369751 -179.548264 -108.456573
v 331.266571 -179.188812 -108.458740
v 331.181458 -178.824677 -108.460526
v 331.114655 -178.456741 -108.461922
v 331.066193 -178.085922 -108.462944
v 331.036285 -177.713165 -108.463570
v 339.416534 -169.853409 -108.287819
v 339.044342 -169.818130 -108.295624
v 339.786530 -169.907211 -108.280060
v 340.153381 -169.979370 -108.272369
v 340.516174 -170.069763 -108.264755
v 340.874023 -170.178116 -108.257256
v 341.226044 -170.304169 -108.249870
v 341.571320 -170.447601 -108.242630
v 341.908997 -170.608093 -108.235550
v 342.238312 -170.785217 -108.228638
v 342.558350 -170.978531 -108.221931
v 342.868347 -171.187561 -108.215431
v 343.167542 -171.411789 -108.209152
v 343.455231 -171.650665 -108.203117
v 343.730621 -171.903580 -108.197342
v 338.670837 -169.801453 -108.303459
v 333.315887 -182.696426 -108.415764
v 343.993073 -172.169907 -108.191841
v 333.591309 -182.949326 -108.409988
v 344.241943 -172.448990 -108.186623
v 333.878967 -183.188217 -108.403954
v 344.476593 -172.740143 -108.181702
v 334.178162 -183.412445 -108.397675
v 344.696411 -173.042633 -108.177094
v 334.488159 -183.621460 -108.391174
v 344.900909 -173.355698 -108.172798
v 334.808228 -183.814789 -108.384460
v 345.089539 -173.678558 -108.168846
v 335.137512 -183.991913 -108.377556
v 345.261871 -174.010437 -108.165230
v 335.475220 -184.152390 -108.370476
v 345.417450 -174.350494 -108.161972
v 335.820465 -184.295837 -108.363235
v 345.555817 -174.697876 -108.159065
v 336.172485 -184.421890 -108.355850
v 345.676758 -175.051743 -108.156532
v 336.530334 -184.530243 -108.348351
v 345.779938 -175.411194 -108.154366
v 336.893127 -184.620621 -108.340736
v 345.865051 -175.775330 -108.152580
v 337.259979 -184.692795 -108.333046
v 345.931885 -176.143265 -108.151176
v 337.629974 -184.746582 -108.325287
v 345.980316 -176.514069 -108.150162
v 338.002167 -184.781860 -108.317482
v 346.010223 -176.886841 -108.149536
v 346.021515 -177.260620 -108.149300
v 346.014130 -177.634506 -108.149452
v 345.988159 -178.007568 -108.150002
v 345.943634 -178.378860 -108.150932
v 345.880646 -178.747482 -108.152252
v 345.799347 -179.112503 -108.153961
v 345.699982 -179.473007 -108.156044
v 345.582764 -179.828125 -108.158501
v 345.448029 -180.176926 -108.161331
v 345.296051 -180.518600 -108.164513
v 345.127197 -180.852264 -108.168053
v 344.941956 -181.177109 -108.171944
v 344.740784 -181.492310 -108.176163
v 344.524139 -181.797089 -108.180702
v 344.292572 -182.090683 -108.185562
v 344.046631 -182.372360 -108.190720
v 343.786987 -182.641434 -108.196159
v 343.514282 -182.897217 -108.201881
v 343.229095 -183.139114 -108.207863
v 342.932251 -183.366470 -108.214088
v 342.624481 -183.578735 -108.220543
v 342.306488 -183.775421 -108.227211
v 341.979065 -183.955994 -108.234077
v 341.643097 -184.119995 -108.241127
v 341.299316 -184.267075 -108.248337
v 340.948669 -184.396820 -108.255684
v 340.591980 -184.508926 -108.263168
v 340.230133 -184.603088 -108.270760
v 339.864075 -184.679123 -108.278435
v 339.494659 -184.736786 -108.286179
v 339.122864 -184.775970 -108.293976
v 338.375702 -184.798553 -108.309647
v 338.749573 -184.796585 -108.301804
v 346.241821 -269.959351 -95.441895
v 346.224640 -269.959381 -95.068329
v 346.188873 -269.959534 -94.696083
v 346.134644 -269.959778 -94.326073
v 346.061981 -269.960114 -93.959236
v 345.971130 -269.960571 -93.596481
v 345.862335 -269.961090 -93.238701
v 345.735809 -269.961731 -92.886795
v 345.591949 -269.962433 -92.541618
v 345.431030 -269.963257 -92.204048
v 345.253479 -269.964142 -91.874924
v 345.059753 -269.965118 -91.555054
v 344.850311 -269.966187 -91.245247
v 344.625702 -269.967346 -90.946251
v 344.386475 -269.968567 -90.658836
v 344.133209 -269.969849 -90.383698
v 343.866547 -269.971222 -90.121521
v 343.587158 -269.972656 -89.872971
v 343.295685 -269.974182 -89.638649
v 342.992920 -269.975739 -89.419151
v 342.679626 -269.977356 -89.215019
v 342.356506 -269.979034 -89.026749
v 342.024414 -269.980743 -88.854828
v 341.684174 -269.982513 -88.699677
v 341.336609 -269.984344 -88.561676
v 340.982605 -269.986176 -88.441170
v 340.623016 -269.988068 -88.338463
v 340.258759 -269.989960 -88.253799
v 339.890747 -269.991882 -88.187408
v 339.519897 -269.993835 -88.139427
v 339.147095 -269.995789 -88.110008
v 338.773315 -269.997742 -88.099205
v 338.399445 -269.999695 -88.107048
v 338.026398 -270.001678 -88.133514
v 337.655182 -270.003632 -88.178535
v 337.286652 -270.005554 -88.242020
v 336.921753 -270.007477 -88.323784
v 336.561371 -270.009399 -88.423637
v 336.206390 -270.011261 -88.541336
v 335.857758 -270.013123 -88.676575
v 335.516296 -270.014923 -88.829025
v 335.182831 -270.016693 -88.998306
v 334.858276 -270.018402 -89.184006
v 334.543304 -270.020081 -89.385651
v 334.238831 -270.021698 -89.602737
v 333.945557 -270.023285 -89.834740
v 333.664185 -270.024780 -90.081070
v 333.395447 -270.026215 -90.341118
v 333.140015 -270.027588 -90.614243
v 332.898499 -270.028900 -90.899757
v 332.671509 -270.030121 -91.196953
v 332.459625 -270.031250 -91.505096
v 332.263397 -270.032318 -91.823418
v 332.083252 -270.033295 -92.151123
v 331.919647 -270.034210 -92.487411
v 331.773041 -270.035004 -92.831429
v 331.643738 -270.035736 -93.182327
v 331.532104 -270.036346 -93.539230
v 331.438385 -270.036896 -93.901260
v 331.362823 -270.037323 -94.267502
v 331.305634 -270.037659 -94.637062
v 331.266937 -270.037903 -95.009018
v 331.246796 -270.038055 -95.382439
v 331.245331 -270.038086 -95.756393
v 331.262482 -270.038055 -96.129959
v 331.298248 -270.037903 -96.502205
v 331.352509 -270.037659 -96.872215
v 331.425140 -270.037323 -97.239052
v 331.515991 -270.036896 -97.601799
v 331.624786 -270.036346 -97.959587
v 331.751312 -270.035736 -98.311493
v 331.895203 -270.035004 -98.656670
v 332.056091 -270.034210 -98.994232
v 332.233643 -270.033295 -99.323364
v 332.427368 -270.032318 -99.643234
v 332.636810 -270.031250 -99.953041
v 332.861420 -270.030121 -100.252029
v 333.100677 -270.028900 -100.539452
v 333.353943 -270.027588 -100.814590
v 333.620575 -270.026215 -101.076767
v 333.899994 -270.024780 -101.325317
v 334.191437 -270.023285 -101.559639
v 334.494202 -270.021698 -101.779137
v 334.807495 -270.020081 -101.983269
v 335.130646 -270.018402 -102.171532
v 335.462708 -270.016693 -102.343460
v 335.802979 -270.014923 -102.498611
v 336.150513 -270.013123 -102.636612
v 336.504517 -270.011261 -102.757111
v 336.864105 -270.009399 -102.859825
v 337.228363 -270.007477 -102.944489
v 337.596375 -270.005554 -103.010880
v 337.967255 -270.003632 -103.058853
v 338.340027 -270.001678 -103.088280
v 338.713837 -269.999695 -103.099083
v 339.087708 -269.997742 -103.091240
v 339.460724 -269.995789 -103.064774
v 339.831940 -269.993835 -103.019753
v 340.200470 -269.991882 -102.956268
v 340.565369 -269.989960 -102.874504
v 340.925751 -269.988068 -102.774643
v 341.280731 -269.986176 -102.656952
v 341.629364 -269.984344 -102.521713
v 341.970856 -269.982513 -102.369263
v 342.304291 -269.980743 -102.199974
v 342.628876 -269.979034 -102.014282
v 342.943817 -269.977356 -101.812637
v 343.248291 -269.975739 -101.595551
v 343.541565 -269.974182 -101.363548
v 343.822968 -269.972656 -101.117218
v 344.091675 -269.971222 -100.857170
v 344.347107 -269.969849 -100.584045
v 344.588654 -269.968567 -100.298531
v 344.815613 -269.967346 -100.001328
v 345.027496 -269.966187 -99.693184
v 345.223724 -269.965118 -99.374870
v 345.403900 -269.964142 -99.047157
v 345.567505 -269.963257 -98.710876
v 345.714111 -269.962433 -98.366859
v 345.843384 -269.961731 -98.015961
v 345.955048 -269.961090 -97.659058
v 346.048737 -269.960571 -97.297028
v 346.124298 -269.960114 -96.930779
v 346.181519 -269.959778 -96.561226
v 346.220215 -269.959534 -96.189262
v 346.240326 -269.959381 -95.815842
vn -0.999766 -0.005250 -0.020967
vn -0.999766 -0.005250 -0.020967
vn 0.005254 -0.999986 0.000106
vn 0.005240 -0.999986 0.000120
vn 0.005245 -0.999986 0.000114
vn 0.005233 -0.999986 0.000127
vn 0.005273 -0.999986 0.000090
vn 0.005260 -0.999986 0.000096
vn 0.005245 -0.999986 0.000112
vn 0.005240 -0.999986 0.000120
vn 0.005255 -0.999986 0.000105
vn 0.005254 -0.999986 0.000102
vn 0.005236 -0.999986 0.000118
vn 0.005249 -0.999986 0.000109
vn 0.005260 -0.999986 0.000102
vn 0.005250 -0.999986 0.000107
vn 0.005210 -0.999986 0.000133
vn 0.005261 -0.999986 0.000091
vn 0.005249 -0.999986 0.000110
vn 0.005252 -0.999986 0.000106
vn 0.005250 -0.999986 0.000110
vn 0.005250 -0.999986 0.000108
vn 0.005258 -0.999986 0.000106
vn 0.005229 -0.999986 0.000148
vn 0.005270 -0.999986 0.000100
vn 0.005245 -0.999986 0.000116
vn 0.005227 -0.999986 0.000120
vn 0.005274 -0.999986 0.000058
vn 0.005249 -0.999986 0.000110
vn 0.005248 -0.999986 0.000113
vn 0.005280 -0.999986 0.000097
vn 0.005229 -0.999986 0.000154
vn 0.005229 -0.999986 0.000118
vn 0.005245 -0.999986 0.000106
vn 0.005273 -0.999986 0.000132
vn 0.005245 -0.999986 0.000108
vn 0.005255 -0.999986 0.000116
vn 0.005236 -0.999986 0.000102
vn 0.005260 -0.999986 0.000118
vn 0.005211 -0.999986 0.000086
vn 0.005249 -0.999986 0.000110
vn 0.005250 -0.999986 0.000110
vn 0.005258 -0.999986 0.000115
vn 0.005270 -0.999986 0.000121
vn 0.005227 -0.999986 0.000099
vn 0.005249 -0.999986 0.000110
vn 0.005280 -0.999986 0.000124
vn 0.005230 -0.999986 0.000102
vn 0.005248 -0.999986 0.000110
vn 0.005248 -0.999986 0.000108
vn 0.005272 -0.999986 0.000163
vn 0.005246 -0.999986 0.000104
vn 0.005230 -0.999986 0.000071
vn 0.005250 -0.999986 0.000112
vn 0.005251 -0.999986 0.000114
vn 0.005260 -0.999986 0.000129
vn 0.005251 -0.999986 0.000114
vn 0.005249 -0.999986 0.000111
vn 0.005254 -0.999986 0.000118
vn 0.005241 -0.999986 0.000100
vn 0.005234 -0.999986 0.000092
vn 0.005260 -0.999986 0.000123
vn 0.005240 -0.999986 0.000101
vn 0.005249 -0.999986 0.000110
vn 0.005262 -0.999986 0.000144
vn 0.005231 -0.999986 0.000066
vn 0.005254 -0.999986 0.000115
vn 0.005254 -0.999986 0.000115
vn 0.005240 -0.999986 0.000100
vn 0.005244 -0.999986 0.000106
vn 0.005234 -0.999986 0.000093
vn 0.005273 -0.999986 0.000132
vn 0.005260 -0.999986 0.000125
vn 0.005245 -0.999986 0.000108
vn 0.005241 -0.999986 0.000100
vn 0.005221 -0.999986 0.000089
vn 0.005253 -0.999986 0.000118
vn 0.005273 -0.999986 0.000128
vn 0.005249 -0.999986 0.000111
vn 0.005260 -0.999986 0.000118
vn 0.005250 -0.999986 0.000113
vn 0.005210 -0.999986 0.000086
vn 0.005260 -0.999986 0.000130
vn 0.005249 -0.999986 0.000110
vn 0.005251 -0.999986 0.000114
vn 0.005250 -0.999986 0.000111
vn 0.005250 -0.999986 0.000112
vn 0.005257 -0.999986 0.000114
vn 0.005231 -0.999986 0.000072
vn 0.005270 -0.999986 0.000121
vn 0.005245 -0.999986 0.000103
vn 0.005226 -0.999986 0.000099
vn 0.005272 -0.999986 0.000163
vn 0.005250 -0.999986 0.000111
vn 0.005248 -0.999986 0.000108
vn 0.005279 -0.999986 0.000124
vn 0.005229 -0.999986 0.000102
vn 0.005228 -0.999986 0.000118
vn 0.005280 -0.999986 0.000097
vn 0.005250 -0.999986 0.000110
vn 0.005226 -0.999986 0.000120
vn 0.005270 -0.999986 0.000100
vn 0.005258 -0.999986 0.000106
vn 0.005250 -0.999986 0.000110
vn 0.005249 -0.999986 0.000110
vn 0.005209 -0.999986 0.000133
vn 0.005260 -0.999986 0.000102
vn 0.005273 -0.999986 0.000094
vn 0.005220 -0.999986 0.000130
vn 0.005245 -0.999986 0.000112
vn 0.005274 -0.999986 0.000089
vn 0.005244 -0.999986 0.000114
vn 0.005254 -0.999986 0.000105
vn 0.005240 -0.999986 0.000119
vn 0.005261 -0.999986 0.000097
vn 0.005233 -0.999986 0.000128
vn 0.005240 -0.999986 0.000120
vn 0.005248 -0.999986 0.000110
vn 0.005254 -0.999986 0.000102
vn 0.005249 -0.999986 0.000109
vn 0.005251 -0.999986 0.000106
vn 0.005260 -0.999986 0.000091
vn 0.005252 -0.999986 0.000106
vn 0.005250 -0.999986 0.000108
vn 0.005229 -0.999986 0.000148
vn 0.005245 -0.999986 0.000116
vn 0.005274 -0.999986 0.000058
vn 0.005248 -0.999986 0.000112
vn 0.005249 -0.999986 0.000111
vn 0.005231 -0.999986 0.000065
vn 0.005263 -0.999986 0.000077
vn 0.005230 -0.999986 0.000153
vn -0.005249 0.999986 -0.000110
vn -0.005249 0.999986 -0.000110
vn -0.020971 -0.000004 0.999780
vn -0.020957 0.000010 0.999780
vn -0.020968 -0.000001 0.999780
vn -0.020969 -0.000003 0.999780
vn -0.020973 -0.000005 0.999780
vn -0.020968 -0.000002 0.999780
vn -0.020958 0.000007 0.999780
vn -0.020966 0.000001 0.999780
vn -0.020967 -0.000000 0.999780
vn -0.020965 0.000003 0.999780
vn -0.020963 0.000002 0.999780
vn -0.020968 -0.000002 0.999780
vn -0.020964 0.000002 0.999780
vn -0.020972 -0.000009 0.999780
vn -0.020974 -0.000004 0.999780
vn -0.020968 -0.000002 0.999780
vn -0.020979 -0.000007 0.999780
vn -0.020969 -0.000003 0.999780
vn -0.020961 0.000003 0.999780
vn -0.020961 0.000012 0.999780
vn -0.020963 0.000002 0.999780
vn -0.020973 -0.000012 0.999780
vn -0.020953 0.000007 0.999780
vn -0.020963 0.000009 0.999780
vn -0.020997 -0.000014 0.999780
vn -0.020960 0.000015 0.999780
vn -0.020949 0.000008 0.999780
vn -0.020967 -0.000001 0.999780
vn -0.020948 0.000008 0.999781
vn -0.020982 -0.000036 0.999780
vn -0.021007 -0.000017 0.999779
vn -0.020967 -0.000000 0.999780
vn -0.020966 -0.000001 0.999780
vn -0.020963 -0.000003 0.999780
vn -0.020965 -0.000002 0.999780
vn -0.020976 0.000006 0.999780
vn -0.020973 0.000004 0.999780
vn -0.020955 -0.000007 0.999780
vn -0.020980 0.000007 0.999780
vn -0.020954 -0.000007 0.999780
vn -0.020979 0.000006 0.999780
vn -0.020968 0.000001 0.999780
vn -0.020944 -0.000011 0.999781
vn -0.020963 -0.000002 0.999780
vn -0.020999 0.000014 0.999779
vn -0.020969 0.000001 0.999780
vn -0.020966 -0.000000 0.999780
vn -0.020966 -0.000003 0.999780
vn -0.020966 -0.000002 0.999780
vn -0.020976 0.000018 0.999780
vn -0.020964 -0.000006 0.999780
vn -0.020972 0.000009 0.999780
vn -0.020959 -0.000015 0.999780
vn -0.020966 -0.000002 0.999780
vn -0.020964 -0.000004 0.999780
vn -0.020978 0.000016 0.999780
vn -0.020957 -0.000014 0.999780
vn -0.020967 -0.000001 0.999780
vn -0.020974 0.000008 0.999780
vn -0.020970 0.000003 0.999780
vn -0.020967 0.000000 0.999780
vn -0.020967 0.000000 0.999780
vn -0.020953 -0.000035 0.999780
vn -0.020973 0.000013 0.999780
vn -0.020976 0.000008 0.999780
vn -0.020961 -0.000006 0.999780
vn -0.020966 -0.000001 0.999780
vn -0.020966 -0.000001 0.999780
vn -0.020957 -0.000011 0.999780
vn -0.020967 -0.000000 0.999780
vn -0.020975 0.000009 0.999780
vn -0.020980 0.000010 0.999780
vn -0.020966 -0.000002 0.999780
vn -0.020965 -0.000001 0.999780
vn -0.020970 0.000003 0.999780
vn -0.020958 -0.000006 0.999780
vn -0.020965 -0.000003 0.999780
vn -0.020973 0.000004 0.999780
vn -0.020963 -0.000006 0.999780
vn -0.020955 -0.000007 0.999780
vn -0.020967 -0.000000 0.999780
vn -0.020980 0.000007 0.999780
vn -0.020972 0.000008 0.999780
vn -0.020956 -0.000006 0.999780
vn -0.020958 -0.000017 0.999780
vn -0.020979 0.000006 0.999780
vn -0.020978 0.000021 0.999780
vn -0.020966 -0.000001 0.999780
vn -0.020961 -0.000013 0.999780
vn -0.020976 0.000004 0.999780
vn -0.020966 -0.000002 0.999780
vn -0.020962 -0.000002 0.999780
vn -0.020966 -0.000003 0.999780
vn -0.020958 -0.000004 0.999780
vn -0.020965 -0.000001 0.999780
vn -0.020953 0.000006 0.999780
vn -0.020992 -0.000011 0.999780
vn -0.020954 0.000006 0.999780
vn -0.020963 0.000002 0.999780
vn -0.020983 -0.000007 0.999780
vn -0.020964 0.000002 0.999780
vn -0.020962 0.000003 0.999780
vn -0.020959 0.000005 0.999780
vn -0.020970 -0.000002 0.999780
vn -0.020966 0.000001 0.999780
vn -0.020982 -0.000010 0.999780
vn -0.020968 0.000000 0.999780
vn -0.020959 0.000007 0.999780
vn -0.020975 -0.000006 0.999780
vn -0.020967 0.000001 0.999780
vn -0.020957 0.000010 0.999780
vn -0.020973 -0.000006 0.999780
vn -0.020968 -0.000001 0.999780
vn -0.020968 -0.000000 0.999780
vn -0.020967 0.000000 0.999780
vn -0.020967 0.000000 0.999780
vn -0.020966 0.000002 0.999780
vn -0.020967 0.000001 0.999780
vn -0.020974 -0.000010 0.999780
vn -0.020955 0.000022 0.999780
vn -0.020969 -0.000003 0.999780
vn -0.020974 -0.000013 0.999780
vn -0.020958 0.000018 0.999780
vn -0.020978 -0.000024 0.999780
vn -0.020960 0.000016 0.999780
vn -0.020967 0.000000 0.999780
vn -0.020967 0.000000 0.999780
vn -0.020973 0.000013 0.999780
vn -0.020971 -0.000010 0.999780
vn -0.020965 0.000005 0.999780
vn 0.020972 0.000004 -0.999780
vn 0.020958 -0.000011 -0.999780
vn 0.020968 0.000000 -0.999780
vn 0.020969 0.000002 -0.999780
vn 0.020973 0.000005 -0.999780
vn 0.020968 0.000000 -0.999780
vn 0.020959 -0.000007 -0.999780
vn 0.020967 -0.000000 -0.999780
vn 0.020968 -0.000000 -0.999780
vn 0.020965 -0.000004 -0.999780
vn 0.020982 0.000010 -0.999780
vn 0.020968 0.000001 -0.999780
vn 0.020966 -0.000001 -0.999780
vn 0.020972 0.000008 -0.999780
vn 0.020952 -0.000010 -0.999780
vn 0.020969 0.000001 -0.999780
vn 0.020980 0.000007 -0.999780
vn 0.020969 0.000002 -0.999780
vn 0.020962 -0.000003 -0.999780
vn 0.020961 -0.000013 -0.999780
vn 0.020964 -0.000002 -0.999780
vn 0.020972 0.000009 -0.999780
vn 0.020983 0.000007 -0.999780
vn 0.020964 -0.000008 -0.999780
vn 0.020965 -0.000001 -0.999780
vn 0.020960 -0.000016 -0.999780
vn 0.020951 -0.000008 -0.999780
vn 0.020967 -0.000000 -0.999780
vn 0.020992 0.000011 -0.999780
vn 0.020982 0.000034 -0.999780
vn 0.020957 -0.000004 -0.999780
vn 0.020967 0.000000 -0.999780
vn 0.020966 0.000001 -0.999780
vn 0.020963 0.000003 -0.999780
vn 0.020965 0.000002 -0.999780
vn 0.020976 -0.000006 -0.999780
vn 0.020973 -0.000004 -0.999780
vn 0.020957 0.000006 -0.999780
vn 0.020978 -0.000006 -0.999780
vn 0.020956 0.000006 -0.999780
vn 0.020977 -0.000005 -0.999780
vn 0.020968 -0.000001 -0.999780
vn 0.020947 0.000009 -0.999781
vn 0.020995 -0.000012 -0.999780
vn 0.020958 0.000004 -0.999780
vn 0.020969 -0.000001 -0.999780
vn 0.020967 -0.000000 -0.999780
vn 0.020966 0.000003 -0.999780
vn 0.020966 0.000002 -0.999780
vn 0.020961 0.000013 -0.999780
vn 0.020978 -0.000021 -0.999780
vn 0.020958 0.000017 -0.999780
vn 0.020972 -0.000008 -0.999780
vn 0.020966 0.000002 -0.999780
vn 0.020964 0.000004 -0.999780
vn 0.020977 -0.000015 -0.999780
vn 0.020958 0.000013 -0.999780
vn 0.020966 0.000002 -0.999780
vn 0.020975 -0.000009 -0.999780
vn 0.020970 -0.000003 -0.999780
vn 0.020967 -0.000000 -0.999780
vn 0.020967 -0.000001 -0.999780
vn 0.020953 0.000035 -0.999780
vn 0.020973 -0.000013 -0.999780
vn 0.020961 0.000006 -0.999780
vn 0.020961 0.000006 -0.999780
vn 0.020966 0.000001 -0.999780
vn 0.020966 0.000001 -0.999780
vn 0.020971 -0.000005 -0.999780
vn 0.020967 0.000000 -0.999780
vn 0.020975 -0.000009 -0.999780
vn 0.020963 0.000003 -0.999780
vn 0.020966 0.000002 -0.999780
vn 0.020982 -0.000011 -0.999780
vn 0.020970 -0.000003 -0.999780
vn 0.020958 0.000006 -0.999780
vn 0.020965 0.000003 -0.999780
vn 0.020973 -0.000004 -0.999780
vn 0.020963 0.000006 -0.999780
vn 0.020953 0.000008 -0.999780
vn 0.020967 0.000000 -0.999780
vn 0.020982 -0.000008 -0.999780
vn 0.020972 -0.000008 -0.999780
vn 0.020956 0.000006 -0.999780
vn 0.020958 0.000017 -0.999780
vn 0.020977 -0.000005 -0.999780
vn 0.020978 -0.000021 -0.999780
vn 0.020968 -0.000001 -0.999780
vn 0.020961 0.000013 -0.999780
vn 0.020976 -0.000004 -0.999780
vn 0.020966 0.000002 -0.999780
vn 0.020962 0.000002 -0.999780
vn 0.020966 0.000003 -0.999780
vn 0.020958 0.000004 -0.999780
vn 0.020965 0.000001 -0.999780
vn 0.020953 -0.000006 -0.999780
vn 0.020992 0.000011 -0.999780
vn 0.020954 -0.000006 -0.999780
vn 0.020963 -0.000002 -0.999780
vn 0.020983 0.000008 -0.999780
vn 0.020964 -0.000002 -0.999780
vn 0.020962 -0.000003 -0.999780
vn 0.020982 0.000008 -0.999780
vn 0.020952 -0.000010 -0.999780
vn 0.020964 -0.000002 -0.999780
vn 0.020982 0.000010 -0.999780
vn 0.020968 -0.000000 -0.999780
vn 0.020959 -0.000007 -0.999780
vn 0.020975 0.000006 -0.999780
vn 0.020967 -0.000001 -0.999780
vn 0.020957 -0.000010 -0.999780
vn 0.020973 0.000006 -0.999780
vn 0.020968 0.000001 -0.999780
vn 0.020968 0.000000 -0.999780
vn 0.020967 -0.000000 -0.999780
vn 0.020967 -0.000000 -0.999780
vn 0.020966 -0.000002 -0.999780
vn 0.020967 -0.000001 -0.999780
vn 0.020974 0.000010 -0.999780
vn 0.020968 -0.000000 -0.999780
vn 0.020956 -0.000021 -0.999780
vn 0.020974 0.000013 -0.999780
vn 0.020972 0.000009 -0.999780
vn 0.020964 -0.000008 -0.999780
vn 0.020960 -0.000016 -0.999780
vn 0.020967 0.000000 -0.999780
vn 0.020967 -0.000000 -0.999780
vn 0.020971 -0.000010 -0.999780
vn 0.020973 0.000015 -0.999780
vn 0.020965 -0.000005 -0.999780
vn 0.999766 0.005250 0.020967
vn 0.999766 0.005250 0.020967
vn 0.998930 0.005249 0.045944
vn 0.998930 0.005249 0.045944
vn 0.995402 0.005235 0.095644
vn 0.989416 0.005209 0.145015
vn 0.995402 0.005235 0.095644
vn 0.989416 0.005209 0.145015
vn 0.980928 0.005170 0.194305
vn 0.970026 0.005118 0.242947
vn 0.980928 0.005170 0.194305
vn 0.970025 0.005119 0.242951
vn 0.956730 0.005054 0.290933
vn 0.956732 0.005054 0.290928
vn 0.941009 0.004977 0.338344
vn 0.923028 0.004887 0.384702
vn 0.941009 0.004977 0.338344
vn 0.923028 0.004887 0.384702
vn 0.902668 0.004786 0.430312
vn 0.902664 0.004786 0.430319
vn 0.880087 0.004672 0.474789
vn 0.880092 0.004672 0.474781
vn 0.855307 0.004547 0.518102
vn 0.855343 0.004547 0.518042
vn 0.828433 0.004410 0.560070
vn 0.828471 0.004410 0.560014
vn 0.799512 0.004263 0.600635
vn 0.799519 0.004263 0.600625
vn 0.768589 0.004105 0.639730
vn 0.768581 0.004105 0.639740
vn 0.735733 0.003937 0.677261
vn 0.701069 0.003759 0.713084
vn 0.735692 0.003936 0.677305
vn 0.701109 0.003759 0.713044
vn 0.664656 0.003571 0.747141
vn 0.664656 0.003571 0.747141
vn 0.626542 0.003375 0.779380
vn 0.586942 0.003170 0.809623
vn 0.626542 0.003375 0.779380
vn 0.586942 0.003170 0.809623
vn 0.545899 0.002958 0.837846
vn 0.545899 0.002958 0.837846
vn 0.503427 0.002738 0.864033
vn 0.503412 0.002738 0.864042
vn 0.459725 0.002511 0.888058
vn 0.459741 0.002511 0.888049
vn 0.414892 0.002278 0.909868
vn 0.414892 0.002278 0.909868
vn 0.369016 0.002039 0.929421
vn 0.369016 0.002039 0.929421
vn 0.322241 0.001796 0.946656
vn 0.322223 0.001796 0.946662
vn 0.274632 0.001547 0.961548
vn 0.274651 0.001548 0.961543
vn 0.226386 0.001296 0.974037
vn 0.226386 0.001296 0.974037
vn 0.177533 0.001040 0.984114
vn 0.128308 0.000783 0.991734
vn 0.177533 0.001040 0.984114
vn 0.128278 0.000783 0.991738
vn 0.078666 0.000523 0.996901
vn 0.078692 0.000523 0.996899
vn 0.028889 0.000262 0.999583
vn 0.028889 0.000262 0.999583
vn -0.020973 -0.000000 0.999780
vn -0.020973 -0.000000 0.999780
vn -0.070767 -0.000262 0.997493
vn -0.070767 -0.000262 0.997493
vn -0.120395 -0.000523 0.992726
vn -0.120395 -0.000523 0.992726
vn -0.169759 -0.000783 0.985485
vn -0.169759 -0.000783 0.985485
vn -0.218646 -0.001040 0.975804
vn -0.218629 -0.001040 0.975807
vn -0.267010 -0.001295 0.963693
vn -0.314708 -0.001547 0.949187
vn -0.267050 -0.001296 0.963682
vn -0.314690 -0.001547 0.949193
vn -0.361646 -0.001796 0.932314
vn -0.361663 -0.001796 0.932307
vn -0.407652 -0.002039 0.913135
vn -0.407669 -0.002039 0.913127
vn -0.452662 -0.002278 0.891679
vn -0.452646 -0.002278 0.891688
vn -0.496595 -0.002511 0.867979
vn -0.496611 -0.002511 0.867970
vn -0.539161 -0.002737 0.842198
vn -0.539161 -0.002737 0.842198
vn -0.580526 -0.002958 0.814236
vn -0.580526 -0.002958 0.814236
vn -0.620365 -0.003170 0.784307
vn -0.620405 -0.003170 0.784275
vn -0.658728 -0.003375 0.752374
vn -0.658687 -0.003375 0.752409
vn -0.695378 -0.003571 0.718635
vn -0.695378 -0.003571 0.718635
vn -0.730352 -0.003759 0.683060
vn -0.730352 -0.003759 0.683060
vn -0.763468 -0.003936 0.645833
vn -0.763468 -0.003936 0.645833
vn -0.794701 -0.004105 0.606988
vn -0.823984 -0.004263 0.566597
vn -0.794708 -0.004105 0.606978
vn -0.823984 -0.004263 0.566598
vn -0.851240 -0.004411 0.524759
vn -0.876306 -0.004547 0.481734
vn -0.851198 -0.004410 0.524827
vn -0.876311 -0.004547 0.481725
vn -0.899215 -0.004672 0.437482
vn -0.919932 -0.004786 0.392049
vn -0.899211 -0.004672 0.437490
vn -0.919961 -0.004786 0.391980
vn -0.938307 -0.004887 0.345768
vn -0.938307 -0.004887 0.345768
vn -0.954389 -0.004977 0.298525
vn -0.968074 -0.005054 0.250615
vn -0.954365 -0.004977 0.298600
vn -0.968094 -0.005054 0.250538
vn -0.979359 -0.005118 0.202064
vn -0.979360 -0.005119 0.202060
vn -0.988223 -0.005170 0.152934
vn -0.988222 -0.005170 0.152937
vn -0.994618 -0.005210 0.103478
vn -0.994610 -0.005209 0.103557
vn -0.998539 -0.005236 0.053780
vn -0.998535 -0.005235 0.053861
vn -0.999979 -0.005249 0.003918
vn -0.999979 -0.005249 0.003918
vn -0.998934 -0.005249 -0.045863
vn -0.998934 -0.005249 -0.045863
vn -0.995402 -0.005235 -0.095642
vn -0.995402 -0.005235 -0.095644
vn -0.989404 -0.005209 -0.145095
vn -0.989404 -0.005209 -0.145098
vn -0.980943 -0.005170 -0.194227
vn -0.980943 -0.005170 -0.194227
vn -0.970025 -0.005118 -0.242951
vn -0.970026 -0.005119 -0.242946
vn -0.956730 -0.005054 -0.290933
vn -0.956732 -0.005054 -0.290928
vn -0.941009 -0.004977 -0.338344
vn -0.941012 -0.004977 -0.338337
vn -0.922999 -0.004887 -0.384772
vn -0.922996 -0.004887 -0.384779
vn -0.902699 -0.004786 -0.430245
vn -0.902696 -0.004786 -0.430253
vn -0.880092 -0.004672 -0.474781
vn -0.880087 -0.004672 -0.474789
vn -0.855343 -0.004547 -0.518042
vn -0.855343 -0.004547 -0.518042
vn -0.828433 -0.004410 -0.560070
vn -0.828433 -0.004410 -0.560070
vn -0.799559 -0.004263 -0.600573
vn -0.799512 -0.004263 -0.600635
vn -0.768549 -0.004105 -0.639778
vn -0.768500 -0.004104 -0.639836
vn -0.735773 -0.003937 -0.677216
vn -0.735733 -0.003937 -0.677261
vn -0.701068 -0.003759 -0.713084
vn -0.701109 -0.003759 -0.713044
vn -0.664615 -0.003571 -0.747177
vn -0.664615 -0.003571 -0.747177
vn -0.626582 -0.003375 -0.779348
vn -0.626582 -0.003375 -0.779348
vn -0.586942 -0.003170 -0.809623
vn -0.586942 -0.003170 -0.809623
vn -0.545899 -0.002958 -0.837846
vn -0.545899 -0.002958 -0.837846
vn -0.503376 -0.002737 -0.864063
vn -0.503392 -0.002738 -0.864054
vn -0.459775 -0.002511 -0.888032
vn -0.459759 -0.002511 -0.888040
vn -0.414862 -0.002278 -0.909882
vn -0.414862 -0.002278 -0.909882
vn -0.369044 -0.002039 -0.929410
vn -0.369044 -0.002039 -0.929410
vn -0.322241 -0.001796 -0.946656
vn -0.322223 -0.001796 -0.946662
vn -0.274633 -0.001547 -0.961548
vn -0.274651 -0.001547 -0.961543
vn -0.226386 -0.001296 -0.974037
vn -0.226386 -0.001296 -0.974037
vn -0.177533 -0.001040 -0.984114
vn -0.177533 -0.001040 -0.984114
vn -0.128278 -0.000782 -0.991738
vn -0.128308 -0.000783 -0.991734
vn -0.078666 -0.000523 -0.996901
vn -0.078692 -0.000523 -0.996899
vn -0.028887 -0.000262 -0.999583
vn -0.028887 -0.000262 -0.999583
vn 0.020973 0.000000 -0.999780
vn 0.020973 0.000000 -0.999780
vn 0.070773 0.000262 -0.997492
vn 0.070773 0.000262 -0.997492
vn 0.120395 0.000523 -0.992726
vn 0.120395 0.000523 -0.992726
vn 0.169759 0.000783 -0.985485
vn 0.169759 0.000783 -0.985485
vn 0.218646 0.001040 -0.975804
vn 0.218646 0.001040 -0.975804
vn 0.267029 0.001296 -0.963688
vn 0.267010 0.001296 -0.963693
vn 0.314690 0.001547 -0.949193
vn 0.314708 0.001547 -0.949187
vn 0.361646 0.001796 -0.932314
vn 0.361646 0.001796 -0.932314
vn 0.407638 0.002039 -0.913141
vn 0.407639 0.002039 -0.913141
vn 0.452695 0.002278 -0.891663
vn 0.496560 0.002511 -0.867999
vn 0.452679 0.002278 -0.891671
vn 0.496575 0.002511 -0.867990
vn 0.539198 0.002738 -0.842175
vn 0.539198 0.002738 -0.842175
vn 0.580526 0.002958 -0.814236
vn 0.580526 0.002958 -0.814236
vn 0.620405 0.003170 -0.784275
vn 0.620405 0.003170 -0.784275
vn 0.658646 0.003374 -0.752445
vn 0.658647 0.003374 -0.752445
vn 0.695419 0.003571 -0.718596
vn 0.695419 0.003571 -0.718596
vn 0.730352 0.003759 -0.683060
vn 0.730352 0.003759 -0.683060
vn 0.763428 0.003936 -0.645881
vn 0.763428 0.003936 -0.645881
vn 0.794740 0.004105 -0.606936
vn 0.794748 0.004105 -0.606926
vn 0.823984 0.004263 -0.566598
vn 0.823983 0.004263 -0.566598
vn 0.851240 0.004410 -0.524758
vn 0.851234 0.004410 -0.524768
vn 0.876306 0.004547 -0.481734
vn 0.876276 0.004547 -0.481788
vn 0.899211 0.004672 -0.437490
vn 0.899215 0.004672 -0.437482
vn 0.919932 0.004786 -0.392050
vn 0.919902 0.004786 -0.392119
vn 0.938334 0.004887 -0.345696
vn 0.954365 0.004977 -0.298600
vn 0.938334 0.004887 -0.345696
vn 0.954389 0.004977 -0.298526
vn 0.968094 0.005054 -0.250538
vn 0.968074 0.005054 -0.250615
vn 0.979360 0.005118 -0.202060
vn 0.979359 0.005119 -0.202064
vn 0.988210 0.005170 -0.153016
vn 0.988211 0.005170 -0.153013
vn 0.994618 0.005210 -0.103476
vn 0.994626 0.005210 -0.103397
vn 0.998539 0.005236 -0.053780
vn 0.999978 0.005249 -0.003999
vn 0.998535 0.005236 -0.053861
vn 0.999978 0.005249 -0.003999
vn -0.999585 0.019753 -0.020963
vn -0.999585 0.019753 -0.020963
vn -0.997365 0.069462 -0.020916
vn -0.997365 0.069462 -0.020916
vn -0.992665 0.119092 -0.020818
vn -0.992665 0.119092 -0.020818
vn -0.985490 0.168470 -0.020667
vn -0.985490 0.168470 -0.020667
vn -0.975859 0.217443 -0.020465
vn -0.963823 0.265774 -0.020213
vn -0.975859 0.217443 -0.020465
vn -0.949376 0.313510 -0.019910
vn -0.963823 0.265774 -0.020213
vn -0.932592 0.360401 -0.019558
vn -0.949376 0.313510 -0.019910
vn -0.932592 0.360401 -0.019558
vn -0.913456 0.406485 -0.019158
vn -0.913426 0.406554 -0.019156
vn -0.892018 0.451613 -0.018707
vn -0.892051 0.451548 -0.018709
vn -0.868447 0.495448 -0.018213
vn -0.868447 0.495448 -0.018213
vn -0.842708 0.538081 -0.017673
vn -0.842708 0.538081 -0.017673
vn -0.814827 0.579453 -0.017088
vn -0.814827 0.579453 -0.017088
vn -0.784927 0.619370 -0.016461
vn -0.784927 0.619370 -0.016461
vn -0.753037 0.657789 -0.015792
vn -0.753037 0.657789 -0.015792
vn -0.719370 0.694464 -0.015086
vn -0.719370 0.694464 -0.015086
vn -0.683884 0.729449 -0.014342
vn -0.683884 0.729449 -0.014342
vn -0.646630 0.762684 -0.013561
vn -0.646630 0.762684 -0.013561
vn -0.607835 0.793961 -0.012747
vn -0.607835 0.793961 -0.012747
vn -0.567542 0.823259 -0.011902
vn -0.567542 0.823259 -0.011902
vn -0.525832 0.850517 -0.011028
vn -0.525832 0.850517 -0.011028
vn -0.482737 0.875707 -0.010124
vn -0.482737 0.875707 -0.010124
vn -0.438497 0.898686 -0.009196
vn -0.393183 0.919423 -0.008246
vn -0.438497 0.898686 -0.009196
vn -0.393184 0.919423 -0.008246
vn -0.346880 0.937881 -0.007275
vn -0.346880 0.937881 -0.007275
vn -0.299710 0.954010 -0.006285
vn -0.299710 0.954010 -0.006285
vn -0.251732 0.967783 -0.005279
vn -0.251732 0.967783 -0.005279
vn -0.203283 0.979111 -0.004263
vn -0.203283 0.979111 -0.004263
vn -0.154158 0.988041 -0.003233
vn -0.154158 0.988041 -0.003233
vn -0.104766 0.994494 -0.002197
vn -0.104766 0.994494 -0.002197
vn -0.055116 0.998479 -0.001156
vn -0.055116 0.998479 -0.001156
vn -0.005262 0.999986 -0.000110
vn -0.005262 0.999986 -0.000110
vn 0.044625 0.999003 0.000936
vn 0.044629 0.999003 0.000936
vn 0.094321 0.995540 0.001978
vn 0.094321 0.995540 0.001978
vn 0.143798 0.989602 0.003016
vn 0.143798 0.989602 0.003016
vn 0.192955 0.981199 0.004047
vn 0.241626 0.970356 0.005067
vn 0.192955 0.981199 0.004047
vn 0.241626 0.970356 0.005067
vn 0.289674 0.957106 0.006075
vn 0.289674 0.957106 0.006075
vn 0.336982 0.941484 0.007067
vn 0.336982 0.941484 0.007067
vn 0.383537 0.923490 0.008043
vn 0.383537 0.923490 0.008043
vn 0.429029 0.903246 0.008997
vn 0.429029 0.903246 0.008997
vn 0.473535 0.880719 0.009931
vn 0.473535 0.880719 0.009931
vn 0.516829 0.856020 0.010839
vn 0.516829 0.856020 0.010839
vn 0.558836 0.829195 0.011720
vn 0.558836 0.829195 0.011720
vn 0.599496 0.800279 0.012572
vn 0.599496 0.800279 0.012572
vn 0.638659 0.769373 0.013394
vn 0.638660 0.769373 0.013394
vn 0.676120 0.736655 0.014179
vn 0.676120 0.736655 0.014179
vn 0.712057 0.701963 0.014933
vn 0.712057 0.701963 0.014933
vn 0.746154 0.665590 0.015648
vn 0.746154 0.665590 0.015648
vn 0.778316 0.627661 0.016323
vn 0.778316 0.627661 0.016323
vn 0.808719 0.587950 0.016960
vn 0.808719 0.587950 0.016960
vn 0.836973 0.546963 0.017553
vn 0.863209 0.504522 0.018103
vn 0.836973 0.546963 0.017553
vn 0.863209 0.504522 0.018103
vn 0.887247 0.460919 0.018607
vn 0.887247 0.460919 0.018607
vn 0.909177 0.415974 0.019068
vn 0.928722 0.370265 0.019478
vn 0.909146 0.416042 0.019066
vn 0.946031 0.323468 0.019840
vn 0.928750 0.370194 0.019477
vn 0.946006 0.323541 0.019840
vn 0.960957 0.275963 0.020153
vn 0.960979 0.275887 0.020154
vn 0.973528 0.227654 0.020416
vn 0.973528 0.227654 0.020416
vn 0.983691 0.178679 0.020631
vn 0.983677 0.178758 0.020629
vn 0.991346 0.129615 0.020790
vn 0.991357 0.129535 0.020792
vn 0.996576 0.079993 0.020900
vn 0.996576 0.079993 0.020900
vn 0.999327 0.030120 0.020958
vn 0.999327 0.030120 0.020958
vn 0.999588 -0.019590 0.020963
vn 0.999587 -0.019671 0.020964
vn 0.997360 -0.069540 0.020917
vn 0.997365 -0.069459 0.020916
vn 0.992655 -0.119177 0.020818
vn 0.992655 -0.119177 0.020818
vn 0.985504 -0.168391 0.020668
vn 0.985504 -0.168390 0.020668
vn 0.975859 -0.217442 0.020465
vn 0.975859 -0.217443 0.020465
vn 0.963823 -0.265774 0.020213
vn 0.963823 -0.265774 0.020213
vn 0.949376 -0.313510 0.019910
vn 0.949376 -0.313510 0.019910
vn 0.932570 -0.360459 0.019558
vn 0.932570 -0.360459 0.019558
vn 0.913487 -0.406418 0.019157
vn 0.913456 -0.406485 0.019158
vn 0.892018 -0.451613 0.018708
vn 0.892051 -0.451548 0.018708
vn 0.868437 -0.495465 0.018213
vn 0.868437 -0.495465 0.018213
vn 0.842708 -0.538081 0.017673
vn 0.842708 -0.538081 0.017673
vn 0.814827 -0.579453 0.017088
vn 0.814827 -0.579453 0.017088
vn 0.784887 -0.619420 0.016460
vn 0.784887 -0.619420 0.016460
vn 0.753095 -0.657722 0.015794
vn 0.753095 -0.657722 0.015794
vn 0.719350 -0.694484 0.015086
vn 0.719350 -0.694484 0.015086
vn 0.683866 -0.729467 0.014342
vn 0.683866 -0.729467 0.014342
vn 0.646646 -0.762670 0.013561
vn 0.646646 -0.762670 0.013561
vn 0.607874 -0.793931 0.012748
vn 0.607835 -0.793961 0.012748
vn 0.567569 -0.823240 0.011904
vn 0.567531 -0.823266 0.011902
vn 0.525766 -0.850558 0.011026
vn 0.482771 -0.875688 0.010124
vn 0.525766 -0.850558 0.011026
vn 0.482771 -0.875688 0.010124
vn 0.438498 -0.898685 0.009196
vn 0.393178 -0.919425 0.008246
vn 0.438498 -0.898685 0.009196
vn 0.393178 -0.919425 0.008246
vn 0.346880 -0.937881 0.007275
vn 0.346880 -0.937881 0.007275
vn 0.299710 -0.954010 0.006285
vn 0.299710 -0.954010 0.006285
vn 0.251770 -0.967773 0.005280
vn 0.251790 -0.967768 0.005281
vn 0.203228 -0.979122 0.004262
vn 0.203244 -0.979119 0.004262
vn 0.154198 -0.988035 0.003234
vn 0.154198 -0.988035 0.003234
vn 0.104766 -0.994494 0.002197
vn 0.104766 -0.994494 0.002197
vn 0.055071 -0.998482 0.001155
vn 0.055071 -0.998482 0.001155
vn 0.005262 -0.999986 0.000110
vn 0.005262 -0.999986 0.000110
vn -0.044588 -0.999005 -0.000935
vn -0.044588 -0.999005 -0.000935
vn -0.094321 -0.995540 -0.001978
vn -0.094321 -0.995540 -0.001978
vn -0.143838 -0.989597 -0.003017
vn -0.143838 -0.989597 -0.003017
vn -0.192916 -0.981207 -0.004046
vn -0.192916 -0.981207 -0.004046
vn -0.241664 -0.970347 -0.005068
vn -0.289674 -0.957106 -0.006075
vn -0.241664 -0.970347 -0.005068
vn -0.289673 -0.957106 -0.006075
vn -0.336982 -0.941484 -0.007067
vn -0.336982 -0.941484 -0.007067
vn -0.383474 -0.923517 -0.008042
vn -0.429094 -0.903215 -0.008999
vn -0.383474 -0.923517 -0.008042
vn -0.429094 -0.903215 -0.008999
vn -0.473501 -0.880737 -0.009931
vn -0.473535 -0.880719 -0.009931
vn -0.516835 -0.856016 -0.010839
vn -0.558865 -0.829176 -0.011720
vn -0.516799 -0.856038 -0.010839
vn -0.558902 -0.829151 -0.011722
vn -0.599496 -0.800279 -0.012572
vn -0.599457 -0.800308 -0.012572
vn -0.638595 -0.769426 -0.013392
vn -0.676182 -0.736598 -0.014181
vn -0.638595 -0.769426 -0.013392
vn -0.712037 -0.701983 -0.014933
vn -0.676182 -0.736598 -0.014181
vn -0.746114 -0.665635 -0.015647
vn -0.712037 -0.701983 -0.014933
vn -0.746114 -0.665635 -0.015647
vn -0.778372 -0.627591 -0.016324
vn -0.778372 -0.627591 -0.016324
vn -0.808719 -0.587950 -0.016960
vn -0.808719 -0.587951 -0.016960
vn -0.836973 -0.546963 -0.017553
vn -0.836973 -0.546963 -0.017553
vn -0.863199 -0.504540 -0.018103
vn -0.863199 -0.504540 -0.018103
vn -0.887247 -0.460919 -0.018607
vn -0.887247 -0.460919 -0.018607
vn -0.909115 -0.416109 -0.019067
vn -0.909146 -0.416042 -0.019066
vn -0.928784 -0.370110 -0.019478
vn -0.928756 -0.370180 -0.019479
vn -0.946031 -0.323468 -0.019840
vn -0.960957 -0.275963 -0.020153
vn -0.946031 -0.323468 -0.019840
vn -0.960979 -0.275887 -0.020154
vn -0.973528 -0.227654 -0.020416
vn -0.983677 -0.178758 -0.020629
vn -0.973510 -0.227731 -0.020417
vn -0.983677 -0.178758 -0.020629
vn -0.991356 -0.129540 -0.020790
vn -0.991356 -0.129540 -0.020790
vn -0.996577 -0.079990 -0.020900
vn -0.996577 -0.079990 -0.020900
vn -0.999324 -0.030202 -0.020957
vn -0.999324 -0.030202 -0.020957
vn 0.005018 -0.999987 -0.000134
vn 0.005109 -0.999987 -0.000028
vn 0.005795 -0.999983 0.000577
vn 0.005887 -0.999982 0.000650
vn 0.004464 -0.999990 -0.001073
vn 0.006861 -0.999976 0.000919
vn 0.004996 -0.999988 -0.000027
vn 0.005310 -0.999986 0.000142
vn 0.004985 -0.999988 -0.000044
vn 0.005725 -0.999983 0.001371
vn 0.005223 -0.999986 0.000095
vn 0.005309 -0.999986 0.000157
vn 0.005217 -0.999986 0.000092
vn 0.005550 -0.999985 0.000261
vn 0.005246 -0.999986 0.000071
vn 0.005720 -0.999982 0.001902
vn 0.006667 -0.999978 0.000492
vn 0.005225 -0.999986 0.000002
vn 0.005151 -0.999987 -0.000257
vn 0.005299 -0.999986 0.000295
vn 0.005237 -0.999986 0.000078
vn 0.004943 -0.999988 0.000065
vn 0.004962 -0.999988 0.000067
vn 0.005345 -0.999985 0.001341
vn 0.005744 -0.999983 0.000182
vn 0.005200 -0.999986 0.000505
vn 0.004945 -0.999988 0.000142
vn 0.006007 -0.999982 0.000058
vn 0.005184 -0.999986 0.000670
vn 0.005215 -0.999986 0.000414
vn 0.005292 -0.999986 0.000111
vn 0.005130 -0.999987 0.000108
vn 0.005221 -0.999986 0.000100
vn 0.005348 -0.999986 -0.000352
vn 0.005240 -0.999986 0.000153
vn 0.005042 -0.999987 0.000869
vn 0.006770 -0.999977 -0.000407
vn 0.004524 -0.999988 0.001877
vn 0.005239 -0.999986 0.000162
vn 0.005320 -0.999986 0.000086
vn 0.006894 -0.999976 -0.000632
vn 0.004930 -0.999988 0.000241
vn 0.005495 -0.999985 0.000033
vn 0.005143 -0.999987 0.000153
vn 0.005369 -0.999986 -0.000119
vn 0.004725 -0.999988 0.000943
vn 0.005273 -0.999986 0.000105
vn 0.005263 -0.999986 0.000109
vn 0.004224 -0.999990 0.001369
vn 0.004836 -0.999988 0.000505
vn 0.005564 -0.999985 -0.000142
vn 0.005686 -0.999984 -0.000245
vn 0.005147 -0.999987 0.000231
vn 0.004971 -0.999988 0.000379
vn 0.005394 -0.999985 -0.000037
vn 0.004601 -0.999989 0.000597
vn 0.004523 -0.999990 0.000653
vn 0.004410 -0.999989 0.001265
vn 0.005128 -0.999987 0.000195
vn 0.004733 -0.999988 0.000931
vn 0.005031 -0.999987 0.000439
vn 0.005348 -0.999986 -0.000038
vn 0.005287 -0.999986 0.000052
vn 0.005248 -0.999986 0.000107
vn 0.005248 -0.999986 0.000117
vn 0.004987 -0.999988 0.000238
vn 0.003920 -0.999992 0.000724
vn 0.005622 -0.999984 -0.000071
vn 0.005243 -0.999986 0.000111
vn 0.004682 -0.999988 0.001694
vn 0.005368 -0.999986 -0.000212
vn 0.005248 -0.999986 0.000109
vn 0.005241 -0.999986 0.000115
vn 0.004990 -0.999987 0.001246
vn 0.004528 -0.999990 0.000261
vn 0.006634 -0.999978 -0.000119
vn 0.005367 -0.999985 -0.000872
vn 0.005151 -0.999987 0.000602
vn 0.005205 -0.999986 0.000122
vn 0.004937 -0.999988 0.000143
vn 0.005344 -0.999986 -0.000372
vn 0.005226 -0.999986 0.000312
vn 0.005240 -0.999986 0.000107
vn 0.005251 -0.999986 0.000109
vn 0.005225 -0.999986 -0.000026
vn 0.005253 -0.999986 0.000110
vn 0.005251 -0.999986 0.000109
vn 0.005242 -0.999986 0.000111
vn 0.005256 -0.999986 0.000107
vn 0.005279 -0.999986 0.000108
vn 0.006552 -0.999978 0.000220
vn 0.005482 -0.999985 0.000144
vn 0.004643 -0.999989 0.000063
vn 0.006622 -0.999978 0.000397
vn 0.005361 -0.999986 0.000114
vn 0.004999 -0.999987 0.000070
vn 0.004900 -0.999987 -0.001268
vn 0.005216 -0.999986 -0.000045
vn 0.005317 -0.999986 0.000388
vn 0.005440 -0.999985 0.000135
vn 0.005247 -0.999986 0.000096
vn 0.005336 -0.999986 0.000480
vn 0.005182 -0.999987 -0.000217
vn 0.005259 -0.999986 0.000113
vn 0.005829 -0.999983 0.000396
vn 0.003952 -0.999992 -0.000557
vn 0.005198 -0.999987 0.000095
vn 0.004760 -0.999988 -0.000746
vn 0.005359 -0.999986 0.000344
vn 0.005732 -0.999983 0.000427
vn 0.005434 -0.999985 0.000215
vn 0.005319 -0.999986 0.000131
vn 0.005358 -0.999986 0.000301
vn 0.005270 -0.999986 0.000172
vn 0.005232 -0.999986 0.000107
vn 0.005247 -0.999986 0.000108
vn 0.005235 -0.999986 0.000106
vn 0.005200 -0.999986 0.000081
vn 0.005258 -0.999986 0.000113
vn 0.005221 -0.999986 0.000097
vn 0.005348 -0.999986 0.000141
vn 0.005998 -0.999982 0.000863
vn 0.005174 -0.999987 0.000065
vn 0.005219 -0.999986 0.000096
f 1//1 2//1 3//1
f 3//2 2//2 4//2
f 5//3 3//3 6//3
f 7//4 6//4 3//4
f 8//5 3//5 5//5
f 9//6 7//6 3//6
f 10//7 3//7 8//7
f 11//8 9//8 3//8
f 12//9 3//9 10//9
f 13//10 11//10 3//10
f 14//11 3//11 12//11
f 15//12 13//12 3//12
f 16//13 3//13 14//13
f 17//14 15//14 3//14
f 18//15 3//15 16//15
f 19//16 17//16 3//16
f 20//17 3//17 18//17
f 21//18 19//18 3//18
f 22//19 3//19 20//19
f 23//20 21//20 3//20
f 24//21 3//21 22//21
f 25//22 23//22 3//22
f 26//23 3//23 24//23
f 27//24 25//24 3//24
f 28//25 3//25 26//25
f 29//26 27//26 3//26
f 30//27 3//27 28//27
f 31//28 29//28 3//28
f 32//29 3//29 30//29
f 33//30 31//30 3//30
f 34//31 3//31 32//31
f 35//32 33//32 3//32
f 36//33 3//33 34//33
f 1//34 37//34 38//34
f 1//35 39//35 37//35
f 1//36 40//36 39//36
f 1//37 41//37 40//37
f 1//38 42//38 41//38
f 1//39 43//39 42//39
f 1//40 44//40 43//40
f 1//41 45//41 44//41
f 1//42 46//42 45//42
f 1//43 47//43 46//43
f 1//44 48//44 47//44
f 1//45 49//45 48//45
f 1//46 50//46 49//46
f 1//47 51//47 50//47
f 1//48 36//48 51//48
f 1//49 3//49 36//49
f 52//50 53//50 54//50
f 52//51 55//51 53//51
f 52//52 56//52 55//52
f 52//53 57//53 56//53
f 52//54 58//54 57//54
f 52//55 59//55 58//55
f 52//56 60//56 59//56
f 52//57 61//57 60//57
f 52//58 62//58 61//58
f 52//59 63//59 62//59
f 52//60 64//60 63//60
f 52//61 65//61 64//61
f 52//62 66//62 65//62
f 52//63 67//63 66//63
f 52//64 35//64 3//64
f 52//65 68//65 35//65
f 52//66 54//66 68//66
f 69//67 1//67 38//67
f 70//68 67//68 52//68
f 71//69 1//69 69//69
f 72//70 70//70 52//70
f 73//71 1//71 71//71
f 74//72 72//72 52//72
f 75//73 1//73 73//73
f 76//74 74//74 52//74
f 77//75 1//75 75//75
f 78//76 76//76 52//76
f 79//77 1//77 77//77
f 80//78 78//78 52//78
f 81//79 1//79 79//79
f 82//80 80//80 52//80
f 83//81 1//81 81//81
f 84//82 82//82 52//82
f 85//83 1//83 83//83
f 86//84 84//84 52//84
f 87//85 1//85 85//85
f 88//86 86//86 52//86
f 89//87 1//87 87//87
f 90//88 88//88 52//88
f 91//89 1//89 89//89
f 92//90 90//90 52//90
f 93//91 1//91 91//91
f 94//92 92//92 52//92
f 95//93 1//93 93//93
f 96//94 94//94 52//94
f 97//95 1//95 95//95
f 98//96 96//96 52//96
f 99//97 98//97 52//97
f 100//98 101//98 99//98
f 100//99 102//99 101//99
f 100//100 103//100 102//100
f 100//101 104//101 103//101
f 100//102 105//102 104//102
f 100//103 106//103 105//103
f 100//104 107//104 106//104
f 100//105 108//105 107//105
f 100//106 109//106 108//106
f 100//107 110//107 109//107
f 100//108 111//108 110//108
f 100//109 112//109 111//109
f 100//110 113//110 112//110
f 100//111 114//111 113//111
f 100//112 115//112 114//112
f 100//113 116//113 115//113
f 100//114 117//114 116//114
f 100//115 118//115 117//115
f 100//116 119//116 118//116
f 100//117 120//117 119//117
f 100//118 99//118 52//118
f 100//119 121//119 120//119
f 100//120 122//120 121//120
f 100//121 123//121 122//121
f 100//122 124//122 123//122
f 100//123 125//123 124//123
f 100//124 126//124 125//124
f 100//125 127//125 126//125
f 100//126 128//126 127//126
f 100//127 129//127 128//127
f 100//128 130//128 129//128
f 100//129 1//129 131//129
f 131//130 1//130 97//130
f 100//131 131//131 132//131
f 100//132 132//132 130//132
f 2//133 133//133 4//133
f 4//134 133//134 134//134
f 2//135 135//135 136//135
f 136//136 137//136 2//136
f 2//137 138//137 135//137
f 137//138 139//138 2//138
f 2//139 140//139 138//139
f 139//140 141//140 2//140
f 2//141 142//141 140//141
f 141//142 143//142 2//142
f 2//143 144//143 142//143
f 143//144 145//144 2//144
f 2//145 146//145 144//145
f 145//146 147//146 2//146
f 2//147 148//147 146//147
f 147//148 149//148 2//148
f 2//149 150//149 148//149
f 149//150 151//150 2//150
f 2//151 152//151 150//151
f 151//152 153//152 2//152
f 2//153 154//153 152//153
f 153//154 155//154 2//154
f 2//155 156//155 154//155
f 155//156 157//156 2//156
f 2//157 158//157 156//157
f 157//158 159//158 2//158
f 2//159 160//159 158//159
f 159//160 161//160 2//160
f 2//161 162//161 160//161
f 161//162 163//162 2//162
f 2//163 164//163 162//163
f 163//164 165//164 2//164
f 2//165 166//165 164//165
f 167//166 1//166 168//166
f 169//167 1//167 167//167
f 170//168 1//168 169//168
f 171//169 1//169 170//169
f 172//170 1//170 171//170
f 173//171 1//171 172//171
f 174//172 1//172 173//172
f 175//173 1//173 174//173
f 176//174 1//174 175//174
f 177//175 1//175 176//175
f 178//176 1//176 177//176
f 179//177 1//177 178//177
f 180//178 1//178 179//178
f 181//179 1//179 180//179
f 166//180 1//180 181//180
f 2//181 1//181 166//181
f 182//182 133//182 183//182
f 184//183 133//183 182//183
f 185//184 133//184 184//184
f 186//185 133//185 185//185
f 187//186 133//186 186//186
f 188//187 133//187 187//187
f 189//188 133//188 188//188
f 190//189 133//189 189//189
f 191//190 133//190 190//190
f 192//191 133//191 191//191
f 193//192 133//192 192//192
f 194//193 133//193 193//193
f 195//194 133//194 194//194
f 196//195 133//195 195//195
f 165//196 133//196 2//196
f 197//197 133//197 165//197
f 183//198 133//198 197//198
f 1//199 198//199 168//199
f 196//200 199//200 133//200
f 1//201 200//201 198//201
f 199//202 201//202 133//202
f 1//203 202//203 200//203
f 201//204 203//204 133//204
f 1//205 204//205 202//205
f 203//206 205//206 133//206
f 1//207 206//207 204//207
f 205//208 207//208 133//208
f 1//209 208//209 206//209
f 207//210 209//210 133//210
f 1//211 210//211 208//211
f 209//212 211//212 133//212
f 1//213 212//213 210//213
f 211//214 213//214 133//214
f 1//215 214//215 212//215
f 213//216 215//216 133//216
f 1//217 216//217 214//217
f 215//218 217//218 133//218
f 1//219 218//219 216//219
f 217//220 219//220 133//220
f 1//221 220//221 218//221
f 219//222 221//222 133//222
f 1//223 222//223 220//223
f 221//224 223//224 133//224
f 1//225 224//225 222//225
f 223//226 225//226 133//226
f 1//227 226//227 224//227
f 225//228 227//228 133//228
f 227//229 228//229 133//229
f 229//230 100//230 228//230
f 230//231 100//231 229//231
f 231//232 100//232 230//232
f 232//233 100//233 231//233
f 233//234 100//234 232//234
f 234//235 100//235 233//235
f 235//236 100//236 234//236
f 236//237 100//237 235//237
f 237//238 100//238 236//238
f 238//239 100//239 237//239
f 239//240 100//240 238//240
f 240//241 100//241 239//241
f 241//242 100//242 240//242
f 242//243 100//243 241//243
f 243//244 100//244 242//244
f 244//245 100//245 243//245
f 245//246 100//246 244//246
f 246//247 100//247 245//247
f 247//248 100//248 246//248
f 228//249 100//249 133//249
f 248//250 100//250 247//250
f 249//251 100//251 248//251
f 250//252 100//252 249//252
f 251//253 100//253 250//253
f 252//254 100//254 251//254
f 253//255 100//255 252//255
f 254//256 100//256 253//256
f 255//257 100//257 254//257
f 256//258 100//258 255//258
f 257//259 100//259 256//259
f 258//260 100//260 257//260
f 1//261 100//261 259//261
f 1//262 259//262 226//262
f 259//263 100//263 260//263
f 260//264 100//264 258//264
f 261//265 4//265 262//265
f 263//266 262//266 4//266
f 264//267 4//267 261//267
f 265//268 263//268 4//268
f 266//269 4//269 264//269
f 267//270 265//270 4//270
f 268//271 4//271 266//271
f 269//272 267//272 4//272
f 270//273 4//273 268//273
f 271//274 269//274 4//274
f 272//275 4//275 270//275
f 273//276 271//276 4//276
f 274//277 4//277 272//277
f 275//278 273//278 4//278
f 276//279 4//279 274//279
f 277//280 275//280 4//280
f 278//281 4//281 276//281
f 279//282 277//282 4//282
f 280//283 4//283 278//283
f 281//284 279//284 4//284
f 282//285 4//285 280//285
f 283//286 281//286 4//286
f 284//287 4//287 282//287
f 285//288 283//288 4//288
f 286//289 4//289 284//289
f 287//290 285//290 4//290
f 288//291 4//291 286//291
f 289//292 287//292 4//292
f 290//293 4//293 288//293
f 291//294 289//294 4//294
f 292//295 4//295 290//295
f 3//296 293//296 294//296
f 3//297 295//297 293//297
f 3//298 296//298 295//298
f 3//299 297//299 296//299
f 3//300 298//300 297//300
f 3//301 299//301 298//301
f 3//302 300//302 299//302
f 3//303 301//303 300//303
f 3//304 302//304 301//304
f 3//305 303//305 302//305
f 3//306 304//306 303//306
f 3//307 305//307 304//307
f 3//308 306//308 305//308
f 3//309 307//309 306//309
f 3//310 292//310 307//310
f 3//311 4//311 292//311
f 134//312 308//312 309//312
f 134//313 310//313 308//313
f 134//314 311//314 310//314
f 134//315 312//315 311//315
f 134//316 313//316 312//316
f 134//317 314//317 313//317
f 134//318 315//318 314//318
f 134//319 316//319 315//319
f 134//320 317//320 316//320
f 134//321 318//321 317//321
f 134//322 319//322 318//322
f 134//323 320//323 319//323
f 134//324 321//324 320//324
f 134//325 322//325 321//325
f 134//326 291//326 4//326
f 134//327 323//327 291//327
f 134//328 309//328 323//328
f 324//329 3//329 294//329
f 325//330 322//330 134//330
f 326//331 3//331 324//331
f 327//332 325//332 134//332
f 328//333 3//333 326//333
f 329//334 327//334 134//334
f 330//335 3//335 328//335
f 331//336 329//336 134//336
f 332//337 3//337 330//337
f 333//338 331//338 134//338
f 334//339 3//339 332//339
f 335//340 333//340 134//340
f 336//341 3//341 334//341
f 337//342 335//342 134//342
f 338//343 3//343 336//343
f 339//344 337//344 134//344
f 340//345 3//345 338//345
f 341//346 339//346 134//346
f 342//347 3//347 340//347
f 343//348 341//348 134//348
f 344//349 3//349 342//349
f 345//350 343//350 134//350
f 346//351 3//351 344//351
f 347//352 345//352 134//352
f 348//353 3//353 346//353
f 349//354 347//354 134//354
f 350//355 3//355 348//355
f 351//356 349//356 134//356
f 352//357 3//357 350//357
f 353//358 351//358 134//358
f 354//359 353//359 134//359
f 52//360 355//360 354//360
f 52//361 356//361 355//361
f 52//362 357//362 356//362
f 52//363 358//363 357//363
f 52//364 359//364 358//364
f 52//365 360//365 359//365
f 52//366 361//366 360//366
f 52//367 362//367 361//367
f 52//368 363//368 362//368
f 52//369 364//369 363//369
f 52//370 365//370 364//370
f 52//371 366//371 365//371
f 52//372 367//372 366//372
f 52//373 368//373 367//373
f 52//374 369//374 368//374
f 52//375 370//375 369//375
f 52//376 371//376 370//376
f 52//377 372//377 371//377
f 52//378 373//378 372//378
f 52//379 354//379 134//379
f 52//380 374//380 373//380
f 52//381 375//381 374//381
f 52//382 376//382 375//382
f 52//383 377//383 376//383
f 52//384 378//384 377//384
f 52//385 379//385 378//385
f 52//386 380//386 379//386
f 52//387 381//387 380//387
f 52//388 382//388 381//388
f 52//389 383//389 382//389
f 52//390 384//390 383//390
f 52//391 3//391 385//391
f 385//392 3//392 352//392
f 52//393 385//393 386//393
f 52//394 386//394 384//394
f 133//395 100//395 52//395
f 133//396 52//396 134//396
f 99//397 101//397 387//397
f 387//398 101//398 388//398
f 388//399 101//399 389//399
f 389//400 102//400 390//400
f 101//401 102//401 389//401
f 102//402 103//402 390//402
f 390//403 104//403 391//403
f 391//404 104//404 392//404
f 103//405 104//405 390//405
f 104//406 105//406 392//406
f 392//407 106//407 393//407
f 105//408 106//408 392//408
f 393//409 107//409 394//409
f 394//410 107//410 395//410
f 106//411 107//411 393//411
f 107//412 108//412 395//412
f 395//413 109//413 396//413
f 108//414 109//414 395//414
f 396//415 110//415 397//415
f 109//416 110//416 396//416
f 110//417 111//417 397//417
f 397//418 111//418 398//418
f 398//419 111//419 399//419
f 111//420 112//420 399//420
f 112//421 113//421 399//421
f 399//422 113//422 400//422
f 113//423 114//423 400//423
f 400//424 114//424 401//424
f 401//425 115//425 402//425
f 402//426 115//426 403//426
f 114//427 115//427 401//427
f 115//428 116//428 403//428
f 403//429 117//429 404//429
f 116//430 117//430 403//430
f 404//431 118//431 405//431
f 405//432 118//432 406//432
f 117//433 118//433 404//433
f 118//434 119//434 406//434
f 406//435 120//435 407//435
f 119//436 120//436 406//436
f 407//437 121//437 408//437
f 120//438 121//438 407//438
f 408//439 122//439 409//439
f 121//440 122//440 408//440
f 409//441 123//441 410//441
f 122//442 123//442 409//442
f 410//443 124//443 411//443
f 123//444 124//444 410//444
f 411//445 125//445 412//445
f 124//446 125//446 411//446
f 412//447 126//447 413//447
f 125//448 126//448 412//448
f 413//449 127//449 414//449
f 126//450 127//450 413//450
f 414//451 128//451 415//451
f 415//452 128//452 416//452
f 127//453 128//453 414//453
f 128//454 129//454 416//454
f 416//455 130//455 417//455
f 129//456 130//456 416//456
f 417//457 132//457 418//457
f 130//458 132//458 417//458
f 418//459 131//459 419//459
f 132//460 131//460 418//460
f 419//461 97//461 420//461
f 131//462 97//462 419//462
f 420//463 95//463 421//463
f 97//464 95//464 420//464
f 421//465 93//465 422//465
f 95//466 93//466 421//466
f 422//467 91//467 423//467
f 93//468 91//468 422//468
f 423//469 89//469 424//469
f 424//470 89//470 425//470
f 91//471 89//471 423//471
f 89//472 87//472 425//472
f 425//473 87//473 426//473
f 87//474 85//474 426//474
f 85//475 83//475 426//475
f 426//476 83//476 427//476
f 83//477 81//477 427//477
f 427//478 81//478 428//478
f 81//479 79//479 428//479
f 428//480 79//480 429//480
f 79//481 77//481 429//481
f 429//482 77//482 430//482
f 77//483 75//483 430//483
f 430//484 75//484 431//484
f 75//485 73//485 431//485
f 431//486 73//486 432//486
f 73//487 71//487 432//487
f 432//488 71//488 433//488
f 433//489 71//489 434//489
f 71//490 69//490 434//490
f 434//491 38//491 435//491
f 69//492 38//492 434//492
f 435//493 37//493 436//493
f 38//494 37//494 435//494
f 436//495 39//495 437//495
f 437//496 39//496 438//496
f 37//497 39//497 436//497
f 39//498 40//498 438//498
f 438//499 41//499 439//499
f 439//500 41//500 440//500
f 40//501 41//501 438//501
f 41//502 42//502 440//502
f 440//503 43//503 441//503
f 441//504 43//504 442//504
f 42//505 43//505 440//505
f 43//506 44//506 442//506
f 442//507 45//507 443//507
f 44//508 45//508 442//508
f 443//509 46//509 444//509
f 444//510 46//510 445//510
f 45//511 46//511 443//511
f 46//512 47//512 445//512
f 445//513 48//513 446//513
f 47//514 48//514 445//514
f 446//515 49//515 447//515
f 48//516 49//516 446//516
f 447//517 50//517 448//517
f 49//518 50//518 447//518
f 50//519 51//519 448//519
f 448//520 51//520 449//520
f 449//521 51//521 450//521
f 51//522 36//522 450//522
f 450//523 36//523 451//523
f 36//524 34//524 451//524
f 34//525 32//525 451//525
f 451//526 32//526 452//526
f 452//527 32//527 453//527
f 32//528 30//528 453//528
f 453//529 30//529 454//529
f 30//530 28//530 454//530
f 454//531 28//531 455//531
f 28//532 26//532 455//532
f 26//533 24//533 455//533
f 455//534 24//534 456//534
f 456//535 24//535 457//535
f 24//536 22//536 457//536
f 457//537 22//537 458//537
f 22//538 20//538 458//538
f 20//539 18//539 458//539
f 458//540 18//540 459//540
f 459//541 18//541 460//541
f 18//542 16//542 460//542
f 16//543 14//543 460//543
f 460//544 14//544 461//544
f 14//545 12//545 461//545
f 461//546 12//546 462//546
f 12//547 10//547 462//547
f 462//548 10//548 463//548
f 463//549 10//549 464//549
f 10//550 8//550 464//550
f 8//551 5//551 464//551
f 464//552 5//552 465//552
f 5//553 6//553 465//553
f 465//554 6//554 466//554
f 466//555 6//555 467//555
f 6//556 7//556 467//556
f 7//557 9//557 467//557
f 467//558 9//558 468//558
f 9//559 11//559 468//559
f 468//560 11//560 469//560
f 469//561 13//561 470//561
f 11//562 13//562 469//562
f 470//563 13//563 471//563
f 13//564 15//564 471//564
f 471//565 17//565 472//565
f 15//566 17//566 471//566
f 472//567 19//567 473//567
f 17//568 19//568 472//568
f 473//569 21//569 474//569
f 19//570 21//570 473//570
f 21//571 23//571 474//571
f 474//572 23//572 475//572
f 23//573 25//573 475//573
f 475//574 25//574 476//574
f 25//575 27//575 476//575
f 476//576 27//576 477//576
f 27//577 29//577 477//577
f 477//578 29//578 478//578
f 478//579 29//579 479//579
f 29//580 31//580 479//580
f 31//581 33//581 479//581
f 479//582 33//582 480//582
f 33//583 35//583 480//583
f 480//584 35//584 481//584
f 35//585 68//585 481//585
f 481//586 68//586 482//586
f 68//587 54//587 482//587
f 482//588 54//588 483//588
f 54//589 53//589 483//589
f 483//590 53//590 484//590
f 53//591 55//591 484//591
f 484//592 55//592 485//592
f 55//593 56//593 485//593
f 485//594 56//594 486//594
f 486//595 57//595 487//595
f 56//596 57//596 486//596
f 487//597 58//597 488//597
f 57//598 58//598 487//598
f 488//599 59//599 489//599
f 58//600 59//600 488//600
f 489//601 60//601 490//601
f 59//602 60//602 489//602
f 490//603 61//603 491//603
f 491//604 61//604 492//604
f 60//605 61//605 490//605
f 61//606 62//606 492//606
f 492//607 63//607 493//607
f 62//608 63//608 492//608
f 493//609 64//609 494//609
f 63//610 64//610 493//610
f 494//611 65//611 495//611
f 64//612 65//612 494//612
f 495//613 66//613 496//613
f 65//614 66//614 495//614
f 496//615 67//615 497//615
f 66//616 67//616 496//616
f 497//617 70//617 498//617
f 67//618 70//618 497//618
f 70//619 72//619 498//619
f 498//620 72//620 499//620
f 72//621 74//621 499//621
f 499//622 74//622 500//622
f 74//623 76//623 500//623
f 500//624 76//624 501//624
f 76//625 78//625 501//625
f 501//626 78//626 502//626
f 78//627 80//627 502//627
f 502//628 80//628 503//628
f 503//629 82//629 504//629
f 80//630 82//630 503//630
f 504//631 84//631 505//631
f 82//632 84//632 504//632
f 505//633 86//633 506//633
f 506//634 86//634 507//634
f 84//635 86//635 505//635
f 86//636 88//636 507//636
f 507//637 90//637 508//637
f 88//638 90//638 507//638
f 508//639 92//639 509//639
f 90//640 92//640 508//640
f 509//641 94//641 510//641
f 92//642 94//642 509//642
f 510//643 96//643 511//643
f 94//644 96//644 510//644
f 511//645 98//645 512//645
f 512//646 98//646 387//646
f 96//647 98//647 511//647
f 98//648 99//648 387//648
f 229//649 228//649 354//649
f 229//650 354//650 355//650
f 230//651 355//651 356//651
f 230//652 229//652 355//652
f 231//653 356//653 357//653
f 231//654 230//654 356//654
f 232//655 357//655 358//655
f 232//656 231//656 357//656
f 233//657 358//657 359//657
f 233//658 359//658 360//658
f 233//659 232//659 358//659
f 234//660 360//660 361//660
f 234//661 233//661 360//661
f 235//662 361//662 362//662
f 235//663 234//663 361//663
f 236//664 235//664 362//664
f 237//665 362//665 363//665
f 237//666 236//666 362//666
f 238//667 363//667 364//667
f 238//668 237//668 363//668
f 239//669 238//669 364//669
f 239//670 364//670 365//670
f 240//671 239//671 365//671
f 240//672 365//672 366//672
f 241//673 240//673 366//673
f 241//674 366//674 367//674
f 242//675 241//675 367//675
f 242//676 367//676 368//676
f 242//677 368//677 369//677
f 243//678 242//678 369//678
f 244//679 243//679 369//679
f 244//680 369//680 370//680
f 245//681 370//681 371//681
f 245//682 244//682 370//682
f 246//683 371//683 372//683
f 246//684 245//684 371//684
f 247//685 372//685 373//685
f 247//686 246//686 372//686
f 248//687 373//687 374//687
f 248//688 247//688 373//688
f 249//689 374//689 375//689
f 249//690 248//690 374//690
f 250//691 375//691 376//691
f 250//692 249//692 375//692
f 251//693 376//693 377//693
f 251//694 377//694 378//694
f 251//695 250//695 376//695
f 252//696 251//696 378//696
f 253//697 378//697 379//697
f 253//698 252//698 378//698
f 254//699 379//699 380//699
f 254//700 253//700 379//700
f 255//701 380//701 381//701
f 255//702 254//702 380//702
f 256//703 381//703 382//703
f 256//704 255//704 381//704
f 257//705 382//705 383//705
f 257//706 256//706 382//706
f 258//707 383//707 384//707
f 258//708 257//708 383//708
f 260//709 384//709 386//709
f 260//710 258//710 384//710
f 259//711 386//711 385//711
f 259//712 260//712 386//712
f 226//713 385//713 352//713
f 226//714 259//714 385//714
f 224//715 352//715 350//715
f 224//716 226//716 352//716
f 222//717 350//717 348//717
f 222//718 224//718 350//718
f 220//719 348//719 346//719
f 220//720 346//720 344//720
f 220//721 222//721 348//721
f 218//722 220//722 344//722
f 216//723 218//723 344//723
f 216//724 344//724 342//724
f 216//725 342//725 340//725
f 214//726 216//726 340//726
f 212//727 214//727 340//727
f 212//728 340//728 338//728
f 210//729 212//729 338//729
f 210//730 338//730 336//730
f 210//731 336//731 334//731
f 208//732 210//732 334//732
f 208//733 334//733 332//733
f 206//734 208//734 332//734
f 204//735 206//735 332//735
f 204//736 332//736 330//736
f 204//737 330//737 328//737
f 202//738 204//738 328//738
f 202//739 328//739 326//739
f 200//740 202//740 326//740
f 200//741 326//741 324//741
f 198//742 200//742 324//742
f 168//743 324//743 294//743
f 168//744 198//744 324//744
f 168//745 294//745 293//745
f 167//746 168//746 293//746
f 169//747 167//747 293//747
f 169//748 293//748 295//748
f 170//749 295//749 296//749
f 170//750 169//750 295//750
f 171//751 296//751 297//751
f 171//752 297//752 298//752
f 171//753 170//753 296//753
f 172//754 171//754 298//754
f 173//755 298//755 299//755
f 173//756 172//756 298//756
f 174//757 299//757 300//757
f 174//758 300//758 301//758
f 174//759 173//759 299//759
f 175//760 301//760 302//760
f 175//761 174//761 301//761
f 176//762 175//762 302//762
f 177//763 302//763 303//763
f 177//764 176//764 302//764
f 178//765 303//765 304//765
f 178//766 177//766 303//766
f 179//767 304//767 305//767
f 179//768 178//768 304//768
f 180//769 305//769 306//769
f 180//770 179//770 305//770
f 181//771 180//771 306//771
f 181//772 306//772 307//772
f 166//773 181//773 307//773
f 166//774 307//774 292//774
f 164//775 166//775 292//775
f 164//776 292//776 290//776
f 162//777 164//777 290//777
f 162//778 290//778 288//778
f 160//779 162//779 288//779
f 160//780 288//780 286//780
f 158//781 160//781 286//781
f 158//782 286//782 284//782
f 156//783 158//783 284//783
f 156//784 284//784 282//784
f 156//785 282//785 280//785
f 154//786 156//786 280//786
f 152//787 154//787 280//787
f 152//788 280//788 278//788
f 150//789 152//789 278//789
f 150//790 278//790 276//790
f 148//791 150//791 276//791
f 148//792 276//792 274//792
f 146//793 148//793 274//793
f 146//794 274//794 272//794
f 144//795 146//795 272//795
f 144//796 272//796 270//796
f 144//797 270//797 268//797
f 142//798 144//798 268//798
f 140//799 142//799 268//799
f 140//800 268//800 266//800
f 138//801 140//801 266//801
f 138//802 266//802 264//802
f 138//803 264//803 261//803
f 135//804 138//804 261//804
f 136//805 135//805 261//805
f 136//806 261//806 262//806
f 136//807 262//807 263//807
f 137//808 136//808 263//808
f 139//809 137//809 263//809
f 139//810 263//810 265//810
f 141//811 139//811 265//811
f 141//812 265//812 267//812
f 141//813 267//813 269//813
f 143//814 141//814 269//814
f 145//815 269//815 271//815
f 145//816 271//816 273//816
f 145//817 143//817 269//817
f 147//818 145//818 273//818
f 149//819 273//819 275//819
f 149//820 275//820 277//820
f 149//821 147//821 273//821
f 151//822 149//822 277//822
f 153//823 151//823 277//823
f 153//824 277//824 279//824
f 155//825 153//825 279//825
f 155//826 279//826 281//826
f 155//827 281//827 283//827
f 157//828 155//828 283//828
f 159//829 157//829 283//829
f 159//830 283//830 285//830
f 161//831 159//831 285//831
f 161//832 285//832 287//832
f 161//833 287//833 289//833
f 163//834 161//834 289//834
f 165//835 163//835 289//835
f 165//836 289//836 291//836
f 165//837 291//837 323//837
f 197//838 165//838 323//838
f 183//839 197//839 323//839
f 183//840 323//840 309//840
f 183//841 309//841 308//841
f 182//842 183//842 308//842
f 182//843 308//843 310//843
f 184//844 182//844 310//844
f 184//845 310//845 311//845
f 185//846 184//846 311//846
f 186//847 311//847 312//847
f 186//848 312//848 313//848
f 186//849 185//849 311//849
f 187//850 186//850 313//850
f 188//851 313//851 314//851
f 188//852 187//852 313//852
f 189//853 314//853 315//853
f 189//854 315//854 316//854
f 189//855 188//855 314//855
f 190//856 189//856 316//856
f 191//857 316//857 317//857
f 191//858 190//858 316//858
f 192//859 317//859 318//859
f 192//860 318//860 319//860
f 192//861 191//861 317//861
f 193//862 192//862 319//862
f 194//863 319//863 320//863
f 194//864 193//864 319//864
f 195//865 320//865 321//865
f 195//866 321//866 322//866
f 195//867 194//867 320//867
f 196//868 322//868 325//868
f 196//869 195//869 322//869
f 199//870 325//870 327//870
f 199//871 196//871 325//871
f 201//872 199//872 327//872
f 201//873 327//873 329//873
f 203//874 201//874 329//874
f 203//875 329//875 331//875
f 205//876 203//876 331//876
f 207//877 205//877 331//877
f 207//878 331//878 333//878
f 209//879 207//879 333//879
f 209//880 333//880 335//880
f 211//881 335//881 337//881
f 211//882 209//882 335//882
f 213//883 337//883 339//883
f 213//884 211//884 337//884
f 215//885 339//885 341//885
f 215//886 213//886 339//886
f 217//887 341//887 343//887
f 217//888 343//888 345//888
f 217//889 215//889 341//889
f 219//890 217//890 345//890
f 221//891 345//891 347//891
f 221//892 347//892 349//892
f 221//893 219//893 345//893
f 223//894 221//894 349//894
f 225//895 349//895 351//895
f 225//896 223//896 349//896
f 227//897 351//897 353//897
f 227//898 225//898 351//898
f 228//899 353//899 354//899
f 228//900 227//900 353//900
f 466//901 468//901 465//901
f 467//902 468//902 466//902
f 464//903 462//903 463//903
f 465//904 462//904 464//904
f 469//905 470//905 468//905
f 460//906 458//906 459//906
f 461//907 458//907 460//907
f 462//908 458//908 461//908
f 462//909 457//909 458//909
f 474//910 475//910 473//910
f 468//911 456//911 465//911
f 470//912 456//912 468//912
f 465//913 456//913 462//913
f 462//914 456//914 457//914
f 475//915 477//915 473//915
f 476//916 477//916 475//916
f 456//917 454//917 455//917
f 477//918 478//918 473//918
f 478//919 479//919 473//919
f 472//920 479//920 471//920
f 473//921 479//921 472//921
f 453//922 451//922 452//922
f 454//923 451//923 453//923
f 480//924 481//924 479//924
f 454//925 450//925 451//925
f 483//926 484//926 482//926
f 449//927 447//927 448//927
f 450//928 447//928 449//928
f 484//929 485//929 482//929
f 482//930 485//930 481//930
f 456//931 446//931 454//931
f 454//932 446//932 450//932
f 450//933 446//933 447//933
f 486//934 487//934 485//934
f 485//935 488//935 481//935
f 487//936 488//936 485//936
f 444//937 442//937 443//937
f 489//938 490//938 488//938
f 488//939 490//939 481//939
f 444//940 440//940 442//940
f 442//941 440//941 441//941
f 445//942 440//942 444//942
f 446//943 440//943 445//943
f 446//944 439//944 440//944
f 491//945 493//945 490//945
f 492//946 493//946 491//946
f 446//947 438//947 439//947
f 456//948 438//948 446//948
f 495//949 496//949 494//949
f 436//950 434//950 435//950
f 437//951 434//951 436//951
f 438//952 434//952 437//952
f 494//953 498//953 493//953
f 497//954 498//954 496//954
f 496//955 498//955 494//955
f 499//956 501//956 498//956
f 500//957 501//957 499//957
f 432//958 430//958 431//958
f 501//959 502//959 498//959
f 430//960 428//960 429//960
f 432//961 428//961 430//961
f 433//962 427//962 432//962
f 434//963 427//963 433//963
f 438//964 427//964 434//964
f 432//965 427//965 428//965
f 503//966 505//966 502//966
f 504//967 505//967 503//967
f 505//968 506//968 502//968
f 456//969 424//969 438//969
f 426//970 424//970 425//970
f 427//971 424//971 426//971
f 470//972 424//972 456//972
f 438//973 424//973 427//973
f 424//974 422//974 423//974
f 508//975 510//975 507//975
f 509//976 510//976 508//976
f 422//977 420//977 421//977
f 424//978 420//978 422//978
f 510//979 512//979 507//979
f 511//980 512//980 510//980
f 424//981 419//981 420//981
f 424//982 417//982 419//982
f 493//983 417//983 490//983
f 490//984 417//984 481//984
f 419//985 417//985 418//985
f 498//986 417//986 493//986
f 470//987 417//987 424//987
f 479//988 417//988 471//988
f 471//989 417//989 470//989
f 481//990 417//990 479//990
f 388//991 389//991 387//991
f 389//992 390//992 387//992
f 387//993 390//993 512//993
f 391//994 392//994 390//994
f 390//995 392//995 512//995
f 392//996 393//996 512//996
f 414//997 412//997 413//997
f 415//998 412//998 414//998
f 416//999 412//999 415//999
f 393//1000 394//1000 512//1000
f 417//1001 411//1001 416//1001
f 416//1002 411//1002 412//1002
f 417//1003 410//1003 411//1003
f 498//1004 410//1004 417//1004
f 395//1005 397//1005 394//1005
f 396//1006 397//1006 395//1006
f 397//1007 398//1007 394//1007
f 409//1008 407//1008 408//1008
f 410//1009 407//1009 409//1009
f 399//1010 400//1010 398//1010
f 398//1011 400//1011 394//1011
f 507//1012 405//1012 506//1012
f 407//1013 405//1013 406//1013
f 410//1014 405//1014 407//1014
f 498//1015 405//1015 410//1015
f 502//1016 405//1016 498//1016
f 506//1017 405//1017 502//1017
f 400//1018 401//1018 394//1018
f 512//1019 404//1019 507//1019
f 394//1020 404//1020 512//1020
f 507//1021 404//1021 405//1021
f 402//1022 403//1022 401//1022
f 401//1023 403//1023 394//1023
f 394//1024 403//1024 404//1024
