# Created by FreeCAD <https://www.freecad.org>
v 350.543823 189.602402 -83.758560
v 349.760803 164.214493 -83.772118
v 350.983704 189.602402 -109.154739
v 350.200684 164.214493 -109.168304
v 343.654480 189.824463 -101.681847
v 343.398163 189.832504 -101.954033
v 343.128601 189.840958 -102.213097
v 343.896912 189.816833 -101.397217
v 342.846497 189.849792 -102.458405
v 344.124878 189.809631 -101.100853
v 342.552490 189.858978 -102.689331
v 344.337769 189.802902 -100.793488
v 342.247375 189.868500 -102.905296
v 344.535095 189.796646 -100.475891
v 341.931824 189.878342 -103.105797
v 344.716339 189.790894 -100.148842
v 341.606720 189.888474 -103.290298
v 344.881104 189.785629 -99.813156
v 341.272797 189.898865 -103.458359
v 345.028870 189.780884 -99.469681
v 340.930969 189.909485 -103.609558
v 345.159393 189.776672 -99.119255
v 340.581970 189.920319 -103.743523
v 345.272278 189.772995 -98.762764
v 340.226746 189.931335 -103.859924
v 345.367279 189.769882 -98.401077
v 339.866180 189.942505 -103.958458
v 345.444153 189.767319 -98.035110
v 339.501160 189.953812 -104.038887
v 345.502625 189.765320 -97.665764
v 339.132568 189.965210 -104.101021
v 345.542694 189.763885 -97.293953
v 338.761353 189.976685 -104.144691
v 345.564148 189.763016 -96.920609
v 338.388397 189.988205 -104.169792
v 345.566986 189.762726 -96.546661
v 343.729919 189.816833 -91.756851
v 343.477783 189.824463 -91.480789
v 343.968018 189.809631 -92.045143
v 344.191437 189.802902 -92.344955
v 344.399628 189.796646 -92.655525
v 344.592102 189.790894 -92.976105
v 344.768402 189.785629 -93.305878
v 344.927979 189.780884 -93.644035
v 345.070557 189.776672 -93.989731
v 345.195709 189.772995 -94.342102
v 345.303192 189.769882 -94.700279
v 345.392670 189.767319 -95.063362
v 345.463928 189.765320 -95.430458
v 345.516815 189.763885 -95.800659
v 345.551208 189.763016 -96.173042
v 325.599579 190.385513 -109.594414
v 337.268585 190.022720 -104.133308
v 337.641083 190.011246 -104.164093
v 336.898071 190.034119 -104.083977
v 336.530457 190.045410 -104.016235
v 336.166687 190.056595 -103.930244
v 335.807648 190.067612 -103.826218
v 335.454254 190.078445 -103.704422
v 335.107330 190.089066 -103.565155
v 334.767822 190.099457 -103.408752
v 334.436523 190.109573 -103.235619
v 334.114227 190.119415 -103.046173
v 333.801819 190.128937 -102.840897
v 333.500000 190.138138 -102.620293
v 333.209534 190.146973 -102.384903
v 332.931183 190.155411 -102.135330
v 338.014648 189.999725 -104.176262
v 343.212219 189.832504 -91.217644
v 332.665588 190.163467 -101.872185
v 342.933838 189.840958 -90.968071
v 332.413422 190.171097 -101.596123
v 342.643372 189.849792 -90.732681
v 332.175354 190.178284 -101.307831
v 342.341553 189.858978 -90.512077
v 331.951935 190.185013 -101.008018
v 342.029144 189.868500 -90.306801
v 331.743744 190.191269 -100.697441
v 341.706848 189.878342 -90.117355
v 331.551270 190.197037 -100.376869
v 341.375549 189.888474 -89.944221
v 331.375000 190.202301 -100.047096
v 341.036011 189.898865 -89.787819
v 331.215393 190.207047 -99.708939
v 340.689148 189.909485 -89.648552
v 331.072845 190.211258 -99.363243
v 340.335724 189.920319 -89.526756
v 330.947662 190.214920 -99.010872
v 339.976685 189.931335 -89.422729
v 330.840210 190.218048 -98.652695
v 339.612915 189.942505 -89.336739
v 330.750732 190.220612 -98.289612
v 339.245331 189.953812 -89.268997
v 330.679443 190.222610 -97.922516
v 338.874817 189.965210 -89.219666
v 330.626556 190.224045 -97.552307
v 338.502289 189.976685 -89.188881
v 330.592163 190.224915 -97.179932
v 330.576355 190.225189 -96.806313
v 325.159698 190.385513 -84.198227
v 330.579224 190.224915 -96.432365
v 330.600708 190.224045 -96.059021
v 330.640717 190.222610 -95.687210
v 330.699249 190.220612 -95.317863
v 330.776123 190.218048 -94.951897
v 330.871094 190.214920 -94.590210
v 330.984009 190.211258 -94.233719
v 331.114471 190.207047 -93.883293
v 331.262299 190.202301 -93.539818
v 331.427032 190.197037 -93.204132
v 331.608307 190.191269 -92.877083
v 331.805603 190.185013 -92.559486
v 332.018494 190.178284 -92.252121
v 332.246460 190.171097 -91.955750
v 332.488922 190.163467 -91.671120
v 332.745209 190.155411 -91.398933
v 333.014740 190.146973 -91.139870
v 333.296906 190.138138 -90.894569
v 333.590912 190.128937 -90.663643
v 333.896027 190.119415 -90.447670
v 334.211548 190.109573 -90.247177
v 334.536682 190.099457 -90.062675
v 334.870575 190.089066 -89.894608
v 335.212433 190.078445 -89.743408
v 335.561401 190.067612 -89.609451
v 335.916626 190.056595 -89.493050
v 336.277222 190.045410 -89.394516
v 336.642242 190.034119 -89.314079
v 337.010834 190.022720 -89.251953
v 337.382050 190.011246 -89.208282
v 338.128693 189.988205 -89.176712
v 337.754974 189.999725 -89.183182
v 324.376709 164.997604 -84.211792
v 324.816589 164.997604 -109.607979
v 342.797455 172.031616 -83.892731
v 342.528259 171.772095 -83.897392
v 342.246429 171.526306 -83.902275
v 343.053375 172.304260 -83.888298
v 341.952728 171.294876 -83.907364
v 343.295410 172.589294 -83.884102
v 341.647858 171.078384 -83.912643
v 343.522949 172.886063 -83.880165
v 341.332611 170.877335 -83.918106
v 343.735382 173.193787 -83.876488
v 341.007660 170.692276 -83.923729
v 343.932220 173.511719 -83.873077
v 340.673981 170.523636 -83.929512
v 344.113007 173.839081 -83.869942
v 340.332245 170.371841 -83.935432
v 344.277191 174.175049 -83.867104
v 339.983398 170.237289 -83.941475
v 344.424469 174.518784 -83.864548
v 339.628265 170.120285 -83.947624
v 344.554413 174.869431 -83.862297
v 339.267731 170.021133 -83.953865
v 344.666748 175.226120 -83.860352
v 338.902710 169.940063 -83.960190
v 344.761139 175.587967 -83.858719
v 338.534119 169.877304 -83.966576
v 344.837372 175.954071 -83.857399
v 338.162842 169.832993 -83.973007
v 344.895294 176.323502 -83.856392
v 337.789825 169.807251 -83.979469
v 344.934723 176.695389 -83.855713
v 337.415985 169.800140 -83.985939
v 344.955566 177.068771 -83.855354
v 343.350586 181.941483 -83.883148
v 343.111969 182.229355 -83.887283
v 343.574615 181.642059 -83.879272
v 343.783417 181.331833 -83.875656
v 343.976471 181.011597 -83.872307
v 344.153381 180.682129 -83.869247
v 344.313629 180.344238 -83.866470
v 344.456787 179.998795 -83.863991
v 344.582611 179.646652 -83.861809
v 344.690704 179.288651 -83.859940
v 344.780853 178.925720 -83.858376
v 344.852783 178.558746 -83.857132
v 344.906281 178.188629 -83.856201
v 344.941345 177.816315 -83.855598
v 344.957764 177.442719 -83.855316
v 336.298859 169.890488 -84.005295
v 336.669586 169.841797 -83.998871
v 335.931030 169.957611 -84.011665
v 335.566986 170.042969 -84.017967
v 335.207672 170.146378 -84.024193
v 334.853943 170.267578 -84.030319
v 334.506683 170.406250 -84.036331
v 334.166779 170.562057 -84.042221
v 333.835083 170.734619 -84.047966
v 333.512360 170.923508 -84.053558
v 333.199493 171.128250 -84.058975
v 332.897217 171.348343 -84.064209
v 332.606262 171.583221 -84.069252
v 332.327362 171.832306 -84.074081
v 332.061249 172.095001 -84.078690
v 337.042267 169.811661 -83.992416
v 342.859253 182.505005 -83.891663
v 331.808563 172.370636 -84.083069
v 342.593140 182.767685 -83.896271
v 331.569885 172.658524 -84.087204
v 342.314270 183.016785 -83.901100
v 331.345886 172.957947 -84.091080
v 342.023315 183.251663 -83.906143
v 331.137115 173.268173 -84.094696
v 341.721039 183.471741 -83.911377
v 330.944031 173.588409 -84.098038
v 341.408112 183.676498 -83.916794
v 330.767151 173.917862 -84.101105
v 341.085449 183.865387 -83.922386
v 330.606903 174.255753 -84.103882
v 340.753723 184.037933 -83.928131
v 330.463684 174.601196 -84.106361
v 340.413818 184.193756 -83.934013
v 330.337921 174.953354 -84.108536
v 340.066589 184.332428 -83.940033
v 330.229797 175.311356 -84.110413
v 339.712830 184.453629 -83.946159
v 330.139679 175.674286 -84.111969
v 339.353516 184.557022 -83.952385
v 330.067749 176.041260 -84.113220
v 338.989471 184.642395 -83.958687
v 330.014191 176.411377 -84.114143
v 338.621643 184.709503 -83.965057
v 329.979187 176.783676 -84.114754
v 338.250946 184.758194 -83.971481
v 329.962738 177.157288 -84.115036
v 329.964935 177.531235 -84.114998
v 329.985779 177.904617 -84.114639
v 330.025208 178.276489 -84.113953
v 330.083099 178.645935 -84.112953
v 330.159363 179.012039 -84.111633
v 330.253784 179.373886 -84.109993
v 330.366089 179.730576 -84.108047
v 330.496063 180.081223 -84.105797
v 330.643311 180.424942 -84.103249
v 330.807526 180.760910 -84.100403
v 330.988281 181.088272 -84.097275
v 331.185150 181.406219 -84.093864
v 331.397583 181.713943 -84.090187
v 331.625092 182.010712 -84.086243
v 331.867126 182.295761 -84.082054
v 332.123077 182.568375 -84.077621
v 332.392273 182.827911 -84.072952
v 332.674042 183.073685 -84.068077
v 332.967773 183.305130 -84.062988
v 333.272644 183.521622 -84.057709
v 333.587921 183.722656 -84.052246
v 333.912811 183.907730 -84.046616
v 334.246552 184.076370 -84.040840
v 334.588257 184.228149 -84.034920
v 334.937134 184.362717 -84.028877
v 335.292267 184.479721 -84.022728
v 335.652802 184.578873 -84.016479
v 336.017792 184.659927 -84.010162
v 336.386414 184.722702 -84.003777
v 336.757660 184.766998 -83.997345
v 337.130676 184.792740 -83.990883
v 337.878235 184.788345 -83.977936
v 337.504517 184.799866 -83.984406
v 343.237335 172.031616 -109.288918
v 342.968140 171.772095 -109.293579
v 342.686310 171.526306 -109.298462
v 343.493256 172.304260 -109.284485
v 342.392609 171.294876 -109.303543
v 343.735291 172.589294 -109.280289
v 342.087738 171.078384 -109.308830
v 343.962830 172.886063 -109.276352
v 341.772491 170.877335 -109.314285
v 344.175262 173.193787 -109.272667
v 341.447540 170.692276 -109.319916
v 344.372101 173.511719 -109.269264
v 341.113861 170.523636 -109.325699
v 344.552887 173.839081 -109.266129
v 340.772125 170.371841 -109.331612
v 344.717072 174.175049 -109.263283
v 340.423279 170.237289 -109.337654
v 344.864349 174.518784 -109.260735
v 340.068146 170.120285 -109.343811
v 344.994293 174.869431 -109.258484
v 339.707611 170.021133 -109.350052
v 345.106628 175.226120 -109.256538
v 339.342590 169.940063 -109.356377
v 345.201019 175.587967 -109.254906
v 338.973999 169.877304 -109.362762
v 345.277252 175.954071 -109.253586
v 338.602722 169.832993 -109.369194
v 345.335175 176.323502 -109.252579
v 338.229706 169.807251 -109.375648
v 345.374603 176.695389 -109.251900
v 337.855865 169.800140 -109.382126
v 345.395447 177.068771 -109.251534
v 343.790466 181.941483 -109.279335
v 343.551849 182.229355 -109.283470
v 344.014496 181.642059 -109.275452
v 344.223297 181.331833 -109.271835
v 344.416351 181.011597 -109.268494
v 344.593262 180.682129 -109.265427
v 344.753510 180.344238 -109.262657
v 344.896667 179.998795 -109.260178
v 345.022491 179.646652 -109.257996
v 345.130585 179.288651 -109.256126
v 345.220734 178.925720 -109.254562
v 345.292664 178.558746 -109.253319
v 345.346161 178.188629 -109.252388
v 345.381226 177.816315 -109.251785
v 345.397644 177.442719 -109.251495
v 336.738739 169.890488 -109.401474
v 337.109467 169.841797 -109.395058
v 336.370911 169.957611 -109.407845
v 336.006866 170.042969 -109.414154
v 335.647552 170.146378 -109.420380
v 335.293823 170.267578 -109.426506
v 334.946564 170.406250 -109.432518
v 334.606659 170.562057 -109.438408
v 334.274963 170.734619 -109.444153
v 333.952240 170.923508 -109.449738
v 333.639374 171.128250 -109.455162
v 333.337097 171.348343 -109.460396
v 333.046143 171.583221 -109.465431
v 332.767242 171.832306 -109.470268
v 332.501129 172.095001 -109.474876
v 337.482147 169.811661 -109.388603
v 343.299133 182.505005 -109.287842
v 332.248444 172.370636 -109.479248
v 343.033020 182.767685 -109.292458
v 332.009766 172.658524 -109.483383
v 342.754150 183.016785 -109.297287
v 331.785767 172.957947 -109.487267
v 342.463196 183.251663 -109.302322
v 331.576996 173.268173 -109.490883
v 342.160919 183.471741 -109.307556
v 331.383911 173.588409 -109.494225
v 341.847992 183.676498 -109.312981
v 331.207031 173.917862 -109.497292
v 341.525330 183.865387 -109.318565
v 331.046783 174.255753 -109.500061
v 341.193604 184.037933 -109.324318
v 330.903564 174.601196 -109.502548
v 340.853699 184.193756 -109.330200
v 330.777802 174.953354 -109.504723
v 340.506470 184.332428 -109.336220
v 330.669678 175.311356 -109.506599
v 340.152710 184.453629 -109.342346
v 330.579559 175.674286 -109.508156
v 339.793396 184.557022 -109.348564
v 330.507629 176.041260 -109.509399
v 339.429352 184.642395 -109.354874
v 330.454071 176.411377 -109.510330
v 339.061523 184.709503 -109.361244
v 330.419067 176.783676 -109.510941
v 338.690796 184.758194 -109.367668
v 330.402618 177.157288 -109.511223
v 330.404816 177.531235 -109.511185
v 330.425659 177.904617 -109.510826
v 330.465088 178.276489 -109.510139
v 330.522980 178.645935 -109.509140
v 330.599243 179.012039 -109.507812
v 330.693665 179.373886 -109.506180
v 330.805969 179.730576 -109.504234
v 330.935944 180.081223 -109.501984
v 331.083191 180.424942 -109.499435
v 331.247406 180.760910 -109.496590
v 331.428162 181.088272 -109.493462
v 331.625031 181.406219 -109.490051
v 331.837463 181.713943 -109.486366
v 332.064972 182.010712 -109.482430
v 332.307007 182.295761 -109.478233
v 332.562958 182.568375 -109.473801
v 332.832153 182.827911 -109.469139
v 333.113922 183.073685 -109.464264
v 333.407654 183.305130 -109.459175
v 333.712524 183.521622 -109.453896
v 334.027802 183.722656 -109.448433
v 334.352692 183.907730 -109.442802
v 334.686432 184.076370 -109.437027
v 335.028137 184.228149 -109.431107
v 335.377014 184.362717 -109.425064
v 335.732147 184.479721 -109.418907
v 336.092682 184.578873 -109.412666
v 336.457672 184.659927 -109.406342
v 336.826294 184.722702 -109.399956
v 337.197540 184.766998 -109.393532
v 337.570557 184.792740 -109.387070
v 338.318115 184.788345 -109.374123
v 337.944397 184.799866 -109.380592
v 333.042480 270.187164 -96.763596
v 333.045349 270.186890 -96.389648
v 333.066833 270.186005 -96.016304
v 333.106842 270.184570 -95.644493
v 333.165375 270.182587 -95.275146
v 333.242218 270.180023 -94.909180
v 333.337219 270.176880 -94.547493
v 333.450104 270.173218 -94.191002
v 333.580597 270.169006 -93.840576
v 333.728394 270.164276 -93.497101
v 333.893158 270.158997 -93.161415
v 334.074402 270.153229 -92.834366
v 334.271729 270.146973 -92.516769
v 334.484619 270.140259 -92.209404
v 334.712585 270.133057 -91.913040
v 334.955017 270.125427 -91.628410
v 335.211334 270.117401 -91.356224
v 335.480865 270.108948 -91.097160
v 335.763031 270.100098 -90.851852
v 336.057037 270.090912 -90.620934
v 336.362152 270.081390 -90.404961
v 336.677673 270.071533 -90.204468
v 337.002777 270.061432 -90.019958
v 337.336670 270.051025 -89.851898
v 337.678558 270.040405 -89.700699
v 338.027527 270.029572 -89.566734
v 338.382751 270.018555 -89.450333
v 338.743317 270.007385 -89.351799
v 339.108368 269.996094 -89.271370
v 339.476959 269.984680 -89.209236
v 339.848175 269.973206 -89.165565
v 340.221100 269.961700 -89.140465
v 340.594818 269.950165 -89.133995
v 340.968414 269.938660 -89.146164
v 341.340912 269.927185 -89.176949
v 341.711456 269.915771 -89.226280
v 342.079041 269.904480 -89.294022
v 342.442810 269.893311 -89.380013
v 342.801849 269.882294 -89.484039
v 343.155273 269.871460 -89.605835
v 343.502136 269.860840 -89.745102
v 343.841675 269.850433 -89.901505
v 344.172974 269.840302 -90.074638
v 344.495270 269.830475 -90.264084
v 344.807678 269.820953 -90.469360
v 345.109497 269.811768 -90.689964
v 345.399963 269.802917 -90.925354
v 345.678345 269.794464 -91.174927
v 345.943909 269.786438 -91.438072
v 346.196045 269.778809 -91.714134
v 346.434143 269.771606 -92.002426
v 346.657562 269.764862 -92.302238
v 346.865753 269.758636 -92.612816
v 347.058228 269.752869 -92.933388
v 347.234528 269.747589 -93.263161
v 347.394104 269.742859 -93.601318
v 347.536682 269.738647 -93.947014
v 347.661835 269.734985 -94.299385
v 347.769287 269.731842 -94.657562
v 347.858795 269.729279 -95.020645
v 347.930023 269.727295 -95.387741
v 347.982941 269.725861 -95.757950
v 348.017334 269.724976 -96.130325
v 348.033112 269.724701 -96.503944
v 348.030273 269.724976 -96.877892
v 348.008789 269.725861 -97.251236
v 347.968750 269.727295 -97.623047
v 347.910248 269.729279 -97.992401
v 347.833405 269.731842 -98.358360
v 347.738403 269.734985 -98.720047
v 347.625519 269.738647 -99.076538
v 347.494995 269.742859 -99.426964
v 347.347229 269.747589 -99.770447
v 347.182465 269.752869 -100.106125
v 347.001221 269.758636 -100.433174
v 346.803894 269.764862 -100.750771
v 346.591003 269.771606 -101.058136
v 346.363037 269.778809 -101.354507
v 346.120605 269.786438 -101.639137
v 345.864288 269.794464 -101.911324
v 345.594727 269.802917 -102.170387
v 345.312592 269.811768 -102.415688
v 345.018616 269.820953 -102.646614
v 344.713470 269.830475 -102.862587
v 344.397949 269.840302 -103.063080
v 344.072845 269.850433 -103.247581
v 343.738922 269.860840 -103.415649
v 343.397064 269.871460 -103.566849
v 343.048096 269.882294 -103.700806
v 342.692871 269.893311 -103.817207
v 342.332306 269.904480 -103.915741
v 341.967255 269.915771 -103.996178
v 341.598694 269.927185 -104.058311
v 341.227448 269.938660 -104.101974
v 340.854523 269.950165 -104.127075
v 340.480774 269.961700 -104.133553
v 340.107208 269.973206 -104.121376
v 339.734711 269.984680 -104.090591
v 339.364197 269.996094 -104.041260
v 338.996582 270.007385 -103.973518
v 338.632812 270.018555 -103.887527
v 338.273773 270.029572 -103.783501
v 337.920380 270.040405 -103.661705
v 337.573456 270.051025 -103.522438
v 337.233948 270.061432 -103.366043
v 336.902618 270.071533 -103.192902
v 336.580353 270.081390 -103.003456
v 336.267944 270.090912 -102.798180
v 335.966125 270.100098 -102.577576
v 335.675629 270.108948 -102.342194
v 335.397308 270.117401 -102.092621
v 335.131714 270.125427 -101.829468
v 334.879547 270.133057 -101.553406
v 334.641479 270.140259 -101.265114
v 334.418060 270.146973 -100.965302
v 334.209869 270.153229 -100.654732
v 334.017395 270.158997 -100.334152
v 333.841125 270.164276 -100.004379
v 333.681488 270.169006 -99.666229
v 333.538971 270.173218 -99.320526
v 333.413788 270.176880 -98.968163
v 333.306335 270.180023 -98.609978
v 333.216858 270.182587 -98.246895
v 333.145569 270.184570 -97.879799
v 333.092682 270.186005 -97.509598
v 333.058289 270.186890 -97.137215
vn 0.999375 -0.030832 0.017310
vn 0.999375 -0.030832 0.017310
vn 0.030810 0.999525 0.000516
vn 0.030829 0.999525 0.000536
vn 0.030828 0.999525 0.000534
vn 0.030833 0.999524 0.000540
vn 0.030854 0.999524 0.000557
vn 0.030818 0.999525 0.000523
vn 0.030825 0.999525 0.000533
vn 0.030820 0.999525 0.000525
vn 0.030828 0.999525 0.000535
vn 0.030831 0.999524 0.000541
vn 0.030798 0.999525 0.000513
vn 0.030838 0.999524 0.000551
vn 0.030836 0.999524 0.000539
vn 0.030832 0.999524 0.000541
vn 0.030840 0.999524 0.000542
vn 0.030822 0.999525 0.000524
vn 0.030823 0.999525 0.000532
vn 0.030825 0.999525 0.000529
vn 0.030844 0.999524 0.000544
vn 0.030825 0.999525 0.000530
vn 0.030791 0.999526 0.000515
vn 0.030821 0.999525 0.000521
vn 0.030817 0.999525 0.000528
vn 0.030838 0.999524 0.000558
vn 0.030821 0.999525 0.000530
vn 0.030821 0.999525 0.000521
vn 0.030828 0.999525 0.000534
vn 0.030832 0.999524 0.000546
vn 0.030873 0.999523 0.000554
vn 0.030837 0.999524 0.000558
vn 0.030843 0.999524 0.000541
vn 0.030829 0.999525 0.000533
vn 0.030854 0.999524 0.000512
vn 0.030824 0.999525 0.000536
vn 0.030829 0.999525 0.000532
vn 0.030797 0.999526 0.000554
vn 0.030836 0.999524 0.000529
vn 0.030840 0.999524 0.000527
vn 0.030823 0.999525 0.000536
vn 0.030845 0.999524 0.000524
vn 0.030789 0.999526 0.000553
vn 0.030819 0.999525 0.000538
vn 0.030817 0.999525 0.000539
vn 0.030833 0.999524 0.000532
vn 0.030870 0.999523 0.000517
vn 0.030845 0.999524 0.000527
vn 0.030827 0.999525 0.000534
vn 0.030833 0.999524 0.000519
vn 0.030821 0.999525 0.000543
vn 0.030807 0.999525 0.000573
vn 0.030848 0.999524 0.000492
vn 0.030825 0.999525 0.000535
vn 0.030826 0.999525 0.000534
vn 0.030818 0.999525 0.000548
vn 0.030833 0.999524 0.000523
vn 0.030812 0.999525 0.000555
vn 0.030832 0.999524 0.000527
vn 0.030820 0.999525 0.000543
vn 0.030845 0.999524 0.000512
vn 0.030830 0.999525 0.000529
vn 0.030801 0.999525 0.000559
vn 0.030827 0.999525 0.000532
vn 0.030799 0.999525 0.000597
vn 0.030841 0.999524 0.000501
vn 0.030811 0.999525 0.000550
vn 0.030838 0.999524 0.000523
vn 0.030829 0.999525 0.000532
vn 0.030826 0.999525 0.000534
vn 0.030831 0.999524 0.000530
vn 0.030823 0.999525 0.000536
vn 0.030818 0.999525 0.000544
vn 0.030824 0.999525 0.000536
vn 0.030820 0.999525 0.000542
vn 0.030829 0.999525 0.000532
vn 0.030832 0.999524 0.000527
vn 0.030833 0.999524 0.000529
vn 0.030838 0.999524 0.000518
vn 0.030837 0.999524 0.000527
vn 0.030832 0.999524 0.000527
vn 0.030836 0.999524 0.000527
vn 0.030821 0.999525 0.000544
vn 0.030825 0.999525 0.000534
vn 0.030825 0.999525 0.000538
vn 0.030792 0.999526 0.000551
vn 0.030825 0.999525 0.000537
vn 0.030845 0.999524 0.000524
vn 0.030820 0.999525 0.000548
vn 0.030817 0.999525 0.000538
vn 0.030839 0.999524 0.000510
vn 0.030811 0.999525 0.000541
vn 0.030822 0.999525 0.000546
vn 0.030831 0.999524 0.000532
vn 0.030831 0.999525 0.000526
vn 0.030868 0.999523 0.000516
vn 0.030745 0.999527 0.000566
vn 0.030744 0.999527 0.000498
vn 0.030866 0.999523 0.000552
vn 0.030835 0.999524 0.000538
vn 0.030811 0.999525 0.000527
vn 0.030815 0.999525 0.000528
vn 0.030846 0.999524 0.000545
vn 0.030792 0.999526 0.000515
vn 0.030827 0.999525 0.000535
vn 0.030833 0.999524 0.000539
vn 0.030837 0.999524 0.000542
vn 0.030832 0.999524 0.000538
vn 0.030830 0.999525 0.000537
vn 0.030825 0.999525 0.000532
vn 0.030822 0.999525 0.000530
vn 0.030825 0.999525 0.000533
vn 0.030840 0.999524 0.000547
vn 0.030803 0.999525 0.000509
vn 0.030829 0.999525 0.000538
vn 0.030844 0.999524 0.000556
vn 0.030820 0.999525 0.000525
vn 0.030827 0.999525 0.000534
vn 0.030833 0.999524 0.000543
vn 0.030811 0.999525 0.000510
vn 0.030832 0.999524 0.000545
vn 0.030820 0.999525 0.000523
vn 0.030825 0.999525 0.000534
vn 0.030825 0.999525 0.000532
vn 0.030846 0.999524 0.000574
vn 0.030810 0.999525 0.000497
vn 0.030821 0.999525 0.000523
vn 0.030832 0.999524 0.000548
vn 0.030826 0.999525 0.000536
vn 0.030838 0.999524 0.000509
vn 0.030804 0.999525 0.000476
vn 0.030839 0.999524 0.000566
vn -0.030827 -0.999525 -0.000534
vn -0.030827 -0.999525 -0.000534
vn -0.017316 0.000002 0.999850
vn -0.017321 -0.000002 0.999850
vn -0.017318 0.000000 0.999850
vn -0.017321 -0.000003 0.999850
vn -0.017327 -0.000007 0.999850
vn -0.017316 0.000002 0.999850
vn -0.017308 0.000007 0.999850
vn -0.017323 -0.000005 0.999850
vn -0.017313 0.000004 0.999850
vn -0.017309 0.000013 0.999850
vn -0.017321 -0.000001 0.999850
vn -0.017324 -0.000008 0.999850
vn -0.017330 -0.000007 0.999850
vn -0.017321 -0.000003 0.999850
vn -0.017302 0.000009 0.999850
vn -0.017319 -0.000000 0.999850
vn -0.017333 -0.000008 0.999850
vn -0.017315 0.000006 0.999850
vn -0.017318 0.000000 0.999850
vn -0.017311 0.000013 0.999850
vn -0.017317 0.000000 0.999850
vn -0.017323 -0.000008 0.999850
vn -0.017310 0.000004 0.999850
vn -0.017321 -0.000006 0.999850
vn -0.017316 0.000001 0.999850
vn -0.017320 -0.000003 0.999850
vn -0.017337 -0.000007 0.999850
vn -0.017321 -0.000005 0.999850
vn -0.017297 0.000008 0.999850
vn -0.017304 0.000031 0.999850
vn -0.017304 0.000006 0.999850
vn -0.017322 0.000004 0.999850
vn -0.017309 -0.000008 0.999850
vn -0.017318 -0.000000 0.999850
vn -0.017330 0.000010 0.999850
vn -0.017306 -0.000008 0.999850
vn -0.017322 0.000003 0.999850
vn -0.017318 -0.000000 0.999850
vn -0.017326 0.000005 0.999850
vn -0.017308 -0.000006 0.999850
vn -0.017327 0.000005 0.999850
vn -0.017309 -0.000004 0.999850
vn -0.017335 0.000009 0.999850
vn -0.017296 -0.000010 0.999850
vn -0.017307 -0.000005 0.999850
vn -0.017318 -0.000000 0.999850
vn -0.017319 0.000000 0.999850
vn -0.017324 0.000014 0.999850
vn -0.017317 -0.000002 0.999850
vn -0.017312 -0.000015 0.999850
vn -0.017322 0.000007 0.999850
vn -0.017317 -0.000001 0.999850
vn -0.017314 -0.000009 0.999850
vn -0.017322 0.000007 0.999850
vn -0.017318 -0.000001 0.999850
vn -0.017322 0.000007 0.999850
vn -0.017314 -0.000005 0.999850
vn -0.017315 -0.000004 0.999850
vn -0.017324 0.000008 0.999850
vn -0.017316 -0.000003 0.999850
vn -0.017316 -0.000002 0.999850
vn -0.017318 -0.000000 0.999850
vn -0.017329 0.000028 0.999850
vn -0.017317 -0.000003 0.999850
vn -0.017322 0.000004 0.999850
vn -0.017323 0.000005 0.999850
vn -0.017316 -0.000002 0.999850
vn -0.017320 0.000002 0.999850
vn -0.017317 -0.000002 0.999850
vn -0.017310 -0.000007 0.999850
vn -0.017324 0.000008 0.999850
vn -0.017319 0.000000 0.999850
vn -0.017315 -0.000004 0.999850
vn -0.017312 -0.000005 0.999850
vn -0.017313 -0.000008 0.999850
vn -0.017326 0.000006 0.999850
vn -0.017324 0.000009 0.999850
vn -0.017322 0.000003 0.999850
vn -0.017317 -0.000002 0.999850
vn -0.017315 -0.000002 0.999850
vn -0.017310 -0.000015 0.999850
vn -0.017307 -0.000007 0.999850
vn -0.017327 0.000017 0.999850
vn -0.017331 0.000007 0.999850
vn -0.017316 -0.000003 0.999850
vn -0.017303 -0.000009 0.999850
vn -0.017322 0.000008 0.999850
vn -0.017338 0.000011 0.999850
vn -0.017312 -0.000015 0.999850
vn -0.017300 -0.000009 0.999850
vn -0.017317 -0.000002 0.999850
vn -0.017337 0.000009 0.999850
vn -0.017325 0.000017 0.999850
vn -0.017305 -0.000006 0.999850
vn -0.017318 -0.000000 0.999850
vn -0.017303 0.000006 0.999850
vn -0.017338 -0.000008 0.999850
vn -0.017302 0.000006 0.999850
vn -0.017313 0.000002 0.999850
vn -0.017337 -0.000009 0.999850
vn -0.017319 -0.000000 0.999850
vn -0.017316 0.000001 0.999850
vn -0.017311 0.000004 0.999850
vn -0.017322 -0.000002 0.999850
vn -0.017311 0.000004 0.999850
vn -0.017319 -0.000001 0.999850
vn -0.017313 0.000003 0.999850
vn -0.017326 -0.000006 0.999850
vn -0.017310 0.000006 0.999850
vn -0.017317 0.000001 0.999850
vn -0.017331 -0.000012 0.999850
vn -0.017308 0.000010 0.999850
vn -0.017320 -0.000003 0.999850
vn -0.017316 0.000002 0.999850
vn -0.017318 -0.000000 0.999850
vn -0.017321 -0.000004 0.999850
vn -0.017324 -0.000007 0.999850
vn -0.017309 0.000013 0.999850
vn -0.017321 -0.000005 0.999850
vn -0.017317 0.000001 0.999850
vn -0.017315 0.000005 0.999850
vn -0.017325 -0.000013 0.999850
vn -0.017309 0.000017 0.999850
vn -0.017320 -0.000005 0.999850
vn -0.017321 -0.000006 0.999850
vn -0.017321 -0.000006 0.999850
vn -0.017318 -0.000000 0.999850
vn -0.017316 -0.000006 0.999850
vn -0.017309 0.000021 0.999850
vn -0.017324 -0.000012 0.999850
vn 0.017316 -0.000002 -0.999850
vn 0.017321 0.000002 -0.999850
vn 0.017318 -0.000000 -0.999850
vn 0.017307 -0.000012 -0.999850
vn 0.017327 0.000007 -0.999850
vn 0.017330 0.000014 -0.999850
vn 0.017308 -0.000007 -0.999850
vn 0.017309 -0.000012 -0.999850
vn 0.017331 0.000009 -0.999850
vn 0.017322 0.000005 -0.999850
vn 0.017302 -0.000011 -0.999850
vn 0.017324 0.000008 -0.999850
vn 0.017330 0.000007 -0.999850
vn 0.017307 -0.000017 -0.999850
vn 0.017324 0.000003 -0.999850
vn 0.017318 0.000001 -0.999850
vn 0.017310 -0.000004 -0.999850
vn 0.017329 0.000017 -0.999850
vn 0.017318 -0.000000 -0.999850
vn 0.017311 -0.000013 -0.999850
vn 0.017317 -0.000000 -0.999850
vn 0.017323 0.000008 -0.999850
vn 0.017310 -0.000004 -0.999850
vn 0.017321 0.000006 -0.999850
vn 0.017316 -0.000001 -0.999850
vn 0.017320 0.000003 -0.999850
vn 0.017337 0.000007 -0.999850
vn 0.017303 -0.000032 -0.999850
vn 0.017297 -0.000008 -0.999850
vn 0.017324 0.000012 -0.999850
vn 0.017350 0.000012 -0.999849
vn 0.017323 -0.000004 -0.999850
vn 0.017324 -0.000005 -0.999850
vn 0.017318 0.000000 -0.999850
vn 0.017313 0.000004 -0.999850
vn 0.017325 -0.000005 -0.999850
vn 0.017303 0.000011 -0.999850
vn 0.017319 0.000000 -0.999850
vn 0.017326 -0.000005 -0.999850
vn 0.017309 0.000006 -0.999850
vn 0.017328 -0.000005 -0.999850
vn 0.017310 0.000005 -0.999850
vn 0.017336 -0.000009 -0.999850
vn 0.017297 0.000010 -0.999850
vn 0.017348 -0.000014 -0.999850
vn 0.017318 0.000000 -0.999850
vn 0.017318 0.000000 -0.999850
vn 0.017308 0.000025 -0.999850
vn 0.017317 0.000003 -0.999850
vn 0.017325 -0.000016 -0.999850
vn 0.017322 -0.000007 -0.999850
vn 0.017317 0.000001 -0.999850
vn 0.017314 0.000009 -0.999850
vn 0.017322 -0.000007 -0.999850
vn 0.017318 0.000001 -0.999850
vn 0.017310 0.000013 -0.999850
vn 0.017327 -0.000013 -0.999850
vn 0.017315 0.000004 -0.999850
vn 0.017311 0.000009 -0.999850
vn 0.017329 -0.000013 -0.999850
vn 0.017316 0.000002 -0.999850
vn 0.017318 0.000000 -0.999850
vn 0.017329 -0.000028 -0.999850
vn 0.017317 0.000003 -0.999850
vn 0.017308 0.000011 -0.999850
vn 0.017309 0.000010 -0.999850
vn 0.017330 -0.000013 -0.999850
vn 0.017321 -0.000002 -0.999850
vn 0.017317 0.000002 -0.999850
vn 0.017325 -0.000006 -0.999850
vn 0.017311 0.000009 -0.999850
vn 0.017319 -0.000000 -0.999850
vn 0.017315 0.000004 -0.999850
vn 0.017312 0.000005 -0.999850
vn 0.017325 -0.000010 -0.999850
vn 0.017326 -0.000006 -0.999850
vn 0.017312 0.000010 -0.999850
vn 0.017303 0.000011 -0.999850
vn 0.017329 -0.000018 -0.999850
vn 0.017336 -0.000011 -0.999850
vn 0.017310 0.000015 -0.999850
vn 0.017307 0.000007 -0.999850
vn 0.017327 -0.000016 -0.999850
vn 0.017331 -0.000007 -0.999850
vn 0.017317 0.000004 -0.999850
vn 0.017303 0.000009 -0.999850
vn 0.017309 0.000021 -0.999850
vn 0.017310 0.000005 -0.999850
vn 0.017325 -0.000016 -0.999850
vn 0.017332 -0.000006 -0.999850
vn 0.017317 0.000003 -0.999850
vn 0.017337 -0.000009 -0.999850
vn 0.017324 -0.000013 -0.999850
vn 0.017305 0.000006 -0.999850
vn 0.017318 0.000000 -0.999850
vn 0.017303 -0.000006 -0.999850
vn 0.017338 0.000008 -0.999850
vn 0.017302 -0.000006 -0.999850
vn 0.017346 0.000012 -0.999849
vn 0.017308 -0.000005 -0.999850
vn 0.017319 0.000000 -0.999850
vn 0.017316 -0.000001 -0.999850
vn 0.017311 -0.000004 -0.999850
vn 0.017322 0.000002 -0.999850
vn 0.017311 -0.000004 -0.999850
vn 0.017319 0.000001 -0.999850
vn 0.017331 0.000009 -0.999850
vn 0.017310 -0.000006 -0.999850
vn 0.017327 0.000007 -0.999850
vn 0.017317 -0.000001 -0.999850
vn 0.017316 -0.000002 -0.999850
vn 0.017308 -0.000010 -0.999850
vn 0.017320 0.000003 -0.999850
vn 0.017316 -0.000002 -0.999850
vn 0.017318 0.000000 -0.999850
vn 0.017321 0.000004 -0.999850
vn 0.017324 0.000007 -0.999850
vn 0.017309 -0.000013 -0.999850
vn 0.017321 0.000005 -0.999850
vn 0.017317 -0.000001 -0.999850
vn 0.017329 0.000017 -0.999850
vn 0.017311 -0.000013 -0.999850
vn 0.017324 0.000010 -0.999850
vn 0.017320 0.000004 -0.999850
vn 0.017305 -0.000028 -0.999850
vn 0.017321 0.000006 -0.999850
vn 0.017318 0.000001 -0.999850
vn 0.017317 0.000005 -0.999850
vn 0.017309 -0.000021 -0.999850
vn 0.017324 0.000012 -0.999850
vn -0.999375 0.030831 -0.017310
vn -0.999375 0.030831 -0.017310
vn -0.999495 0.030822 0.007690
vn -0.999495 0.030822 0.007690
vn -0.997872 0.030745 0.057496
vn -0.993783 0.030592 0.107054
vn -0.997872 0.030745 0.057495
vn -0.993783 0.030592 0.107054
vn -0.987194 0.030363 0.156610
vn -0.978174 0.030058 0.205601
vn -0.987193 0.030363 0.156611
vn -0.978158 0.030057 0.205679
vn -0.966703 0.029679 0.254174
vn -0.966723 0.029679 0.254096
vn -0.952852 0.029225 0.302025
vn -0.936634 0.028700 0.349133
vn -0.952828 0.029225 0.302099
vn -0.936660 0.028701 0.349061
vn -0.918067 0.028103 0.395429
vn -0.918037 0.028102 0.395499
vn -0.897187 0.027435 0.440797
vn -0.897220 0.027436 0.440731
vn -0.874122 0.026700 0.484973
vn -0.874156 0.026701 0.484910
vn -0.848889 0.025898 0.527936
vn -0.848926 0.025900 0.527877
vn -0.821554 0.025033 0.569581
vn -0.821554 0.025033 0.569580
vn -0.792126 0.024104 0.609881
vn -0.792118 0.024104 0.609892
vn -0.760774 0.023117 0.648605
vn -0.727508 0.022071 0.685744
vn -0.760734 0.023116 0.648652
vn -0.727548 0.022072 0.685702
vn -0.692474 0.020972 0.721138
vn -0.692475 0.020972 0.721137
vn -0.655614 0.019817 0.754836
vn -0.617212 0.018615 0.786576
vn -0.655603 0.019816 0.754845
vn -0.617224 0.018616 0.786567
vn -0.577302 0.017369 0.816346
vn -0.577302 0.017369 0.816346
vn -0.535890 0.016077 0.844135
vn -0.535890 0.016077 0.844135
vn -0.493187 0.014746 0.869798
vn -0.493136 0.014744 0.869827
vn -0.449223 0.013377 0.893319
vn -0.449240 0.013378 0.893311
vn -0.404120 0.011975 0.914628
vn -0.404150 0.011976 0.914614
vn -0.358082 0.010545 0.933631
vn -0.358064 0.010544 0.933638
vn -0.311125 0.009088 0.950325
vn -0.311125 0.009088 0.950325
vn -0.263383 0.007608 0.964661
vn -0.263362 0.007607 0.964667
vn -0.214978 0.006109 0.976600
vn -0.166086 0.004596 0.986101
vn -0.215015 0.006110 0.976592
vn -0.166066 0.004595 0.986104
vn -0.116742 0.003070 0.993157
vn -0.116742 0.003070 0.993157
vn -0.067108 0.001537 0.997745
vn -0.067108 0.001537 0.997745
vn -0.017309 -0.000000 0.999850
vn -0.017309 -0.000000 0.999850
vn 0.032508 -0.001537 0.999470
vn 0.032508 -0.001537 0.999470
vn 0.082269 -0.003070 0.996605
vn 0.082262 -0.003069 0.996606
vn 0.131828 -0.004595 0.991262
vn 0.131839 -0.004596 0.991261
vn 0.181051 -0.006109 0.983455
vn 0.181051 -0.006109 0.983455
vn 0.229820 -0.007608 0.973203
vn 0.278022 -0.009088 0.960532
vn 0.229820 -0.007608 0.973203
vn 0.278022 -0.009088 0.960532
vn 0.325505 -0.010544 0.945482
vn 0.325505 -0.010544 0.945482
vn 0.372251 -0.011976 0.928055
vn 0.372251 -0.011976 0.928055
vn 0.418005 -0.013377 0.908346
vn 0.418004 -0.013377 0.908347
vn 0.462755 -0.014745 0.886364
vn 0.462755 -0.014745 0.886364
vn 0.506311 -0.016076 0.862201
vn 0.506311 -0.016076 0.862201
vn 0.548687 -0.017369 0.835847
vn 0.548687 -0.017369 0.835847
vn 0.589622 -0.018616 0.807465
vn 0.589622 -0.018616 0.807465
vn 0.629115 -0.019818 0.777059
vn 0.629114 -0.019818 0.777060
vn 0.667030 -0.020970 0.744736
vn 0.667030 -0.020970 0.744736
vn 0.703357 -0.022072 0.710494
vn 0.703356 -0.022072 0.710495
vn 0.737864 -0.023117 0.674553
vn 0.737864 -0.023117 0.674554
vn 0.770516 -0.024104 0.636965
vn 0.801324 -0.025033 0.597707
vn 0.770516 -0.024104 0.636965
vn 0.801324 -0.025033 0.597706
vn 0.830122 -0.025899 0.556979
vn 0.856820 -0.026700 0.514923
vn 0.830115 -0.025899 0.556991
vn 0.856826 -0.026701 0.514913
vn 0.881370 -0.027434 0.471629
vn 0.903852 -0.028104 0.426921
vn 0.881371 -0.027435 0.471628
vn 0.903852 -0.028104 0.426922
vn 0.923955 -0.028700 0.381424
vn 0.923955 -0.028700 0.381424
vn 0.941830 -0.029226 0.334816
vn 0.957333 -0.029679 0.287458
vn 0.941830 -0.029226 0.334817
vn 0.957311 -0.029678 0.287531
vn 0.970444 -0.030058 0.239448
vn 0.970463 -0.030058 0.239371
vn 0.981208 -0.030363 0.190549
vn 0.981193 -0.030363 0.190629
vn 0.989458 -0.030592 0.141551
vn 0.989469 -0.030592 0.141474
vn 0.995285 -0.030745 0.091996
vn 0.995284 -0.030745 0.091999
vn 0.998634 -0.030822 0.042194
vn 0.998634 -0.030822 0.042195
vn 0.999496 -0.030822 -0.007608
vn 0.999496 -0.030822 -0.007610
vn 0.997877 -0.030745 -0.057414
vn 0.997872 -0.030745 -0.057496
vn 0.993774 -0.030592 -0.107134
vn 0.993765 -0.030592 -0.107215
vn 0.987207 -0.030363 -0.156527
vn 0.987219 -0.030363 -0.156452
vn 0.978173 -0.030058 -0.205605
vn 0.978158 -0.030058 -0.205679
vn 0.966704 -0.029679 -0.254171
vn 0.966703 -0.029679 -0.254174
vn 0.952852 -0.029226 -0.302025
vn 0.952852 -0.029226 -0.302026
vn 0.936607 -0.028700 -0.349205
vn 0.936607 -0.028700 -0.349205
vn 0.918096 -0.028104 -0.395361
vn 0.918099 -0.028104 -0.395353
vn 0.897183 -0.027435 -0.440805
vn 0.897188 -0.027435 -0.440796
vn 0.874157 -0.026701 -0.484909
vn 0.874156 -0.026701 -0.484910
vn 0.848889 -0.025899 -0.527936
vn 0.848890 -0.025899 -0.527934
vn 0.821554 -0.025033 -0.569581
vn 0.821553 -0.025033 -0.569582
vn 0.792126 -0.024104 -0.609882
vn 0.792118 -0.024104 -0.609892
vn 0.760774 -0.023117 -0.648604
vn 0.760774 -0.023117 -0.648605
vn 0.727508 -0.022071 -0.685744
vn 0.727508 -0.022071 -0.685744
vn 0.692433 -0.020970 -0.721177
vn 0.692433 -0.020970 -0.721177
vn 0.655696 -0.019819 -0.754765
vn 0.655643 -0.019817 -0.754811
vn 0.617225 -0.018616 -0.786566
vn 0.617265 -0.018617 -0.786535
vn 0.577263 -0.017367 -0.816373
vn 0.577288 -0.017368 -0.816356
vn 0.535891 -0.016076 -0.844134
vn 0.535868 -0.016076 -0.844149
vn 0.493170 -0.014745 -0.869808
vn 0.493170 -0.014745 -0.869808
vn 0.449207 -0.013377 -0.893328
vn 0.449191 -0.013376 -0.893336
vn 0.404150 -0.011976 -0.914614
vn 0.404180 -0.011977 -0.914601
vn 0.358054 -0.010544 -0.933641
vn 0.358064 -0.010544 -0.933638
vn 0.311125 -0.009088 -0.950325
vn 0.311125 -0.009088 -0.950325
vn 0.263383 -0.007608 -0.964661
vn 0.263383 -0.007608 -0.964661
vn 0.214995 -0.006109 -0.976596
vn 0.214998 -0.006109 -0.976595
vn 0.166099 -0.004596 -0.986098
vn 0.166086 -0.004596 -0.986101
vn 0.116742 -0.003070 -0.993157
vn 0.116713 -0.003069 -0.993161
vn 0.067103 -0.001537 -0.997745
vn 0.067108 -0.001537 -0.997745
vn 0.017308 0.000000 -0.999850
vn 0.017328 -0.000000 -0.999850
vn -0.032510 0.001536 -0.999470
vn -0.032531 0.001537 -0.999470
vn -0.082269 0.003070 -0.996605
vn -0.082269 0.003070 -0.996605
vn -0.131839 0.004596 -0.991261
vn -0.131839 0.004596 -0.991261
vn -0.181037 0.006109 -0.983457
vn -0.181037 0.006109 -0.983457
vn -0.229820 0.007608 -0.973203
vn -0.229820 0.007608 -0.973203
vn -0.278022 0.009088 -0.960532
vn -0.278022 0.009088 -0.960532
vn -0.325530 0.010545 -0.945473
vn -0.325530 0.010545 -0.945473
vn -0.372195 0.011975 -0.928077
vn -0.372195 0.011975 -0.928077
vn -0.418018 0.013377 -0.908340
vn -0.462739 0.014745 -0.886372
vn -0.418036 0.013378 -0.908332
vn -0.462755 0.014745 -0.886363
vn -0.506346 0.016077 -0.862181
vn -0.506311 0.016076 -0.862201
vn -0.548687 0.017369 -0.835847
vn -0.548687 0.017369 -0.835847
vn -0.589622 0.018616 -0.807465
vn -0.589621 0.018616 -0.807465
vn -0.629062 0.019816 -0.777102
vn -0.629115 0.019818 -0.777060
vn -0.667111 0.020972 -0.744663
vn -0.667071 0.020971 -0.744699
vn -0.703326 0.022071 -0.710524
vn -0.703315 0.022071 -0.710536
vn -0.737823 0.023116 -0.674598
vn -0.737823 0.023116 -0.674598
vn -0.770556 0.024105 -0.636916
vn -0.770556 0.024105 -0.636917
vn -0.801324 0.025033 -0.597706
vn -0.801325 0.025033 -0.597705
vn -0.830121 0.025900 -0.556981
vn -0.830115 0.025899 -0.556991
vn -0.856820 0.026700 -0.514923
vn -0.856826 0.026701 -0.514914
vn -0.881404 0.027436 -0.471565
vn -0.881405 0.027436 -0.471565
vn -0.903786 0.028102 -0.427062
vn -0.903820 0.028103 -0.426988
vn -0.924015 0.028701 -0.381277
vn -0.941802 0.029225 -0.334895
vn -0.923983 0.028700 -0.381354
vn -0.941804 0.029225 -0.334888
vn -0.957335 0.029679 -0.287453
vn -0.957334 0.029679 -0.287457
vn -0.970463 0.030058 -0.239371
vn -0.970463 0.030058 -0.239371
vn -0.981177 0.030363 -0.190706
vn -0.981177 0.030363 -0.190707
vn -0.989469 0.030592 -0.141474
vn -0.989470 0.030592 -0.141471
vn -0.995284 0.030745 -0.091998
vn -0.998630 0.030822 -0.042275
vn -0.995284 0.030745 -0.091998
vn -0.998630 0.030822 -0.042275
vn 0.998295 -0.055745 0.017291
vn 0.998295 -0.055745 0.017291
vn 0.994275 -0.105453 0.017222
vn 0.994275 -0.105452 0.017222
vn 0.987793 -0.154833 0.017109
vn 0.987793 -0.154833 0.017109
vn 0.978832 -0.203963 0.016954
vn 0.978832 -0.203962 0.016954
vn 0.967446 -0.252524 0.016757
vn 0.953683 -0.300360 0.016518
vn 0.967446 -0.252524 0.016757
vn 0.937500 -0.347607 0.016238
vn 0.953683 -0.300360 0.016518
vn 0.919045 -0.393831 0.015919
vn 0.937500 -0.347607 0.016238
vn 0.919045 -0.393831 0.015919
vn 0.898262 -0.439186 0.015559
vn 0.898262 -0.439186 0.015559
vn 0.875255 -0.483424 0.015160
vn 0.875255 -0.483424 0.015160
vn 0.850049 -0.526497 0.014723
vn 0.850049 -0.526497 0.014723
vn 0.822788 -0.568170 0.014251
vn 0.822788 -0.568170 0.014251
vn 0.793461 -0.608466 0.013743
vn 0.793461 -0.608466 0.013743
vn 0.762116 -0.647305 0.013200
vn 0.762116 -0.647306 0.013200
vn 0.728875 -0.684530 0.012625
vn 0.728875 -0.684530 0.012625
vn 0.693915 -0.719956 0.012019
vn 0.693916 -0.719956 0.012019
vn 0.657176 -0.753651 0.011383
vn 0.657176 -0.753651 0.011383
vn 0.618756 -0.785510 0.010717
vn 0.618756 -0.785510 0.010717
vn 0.578837 -0.815382 0.010026
vn 0.578837 -0.815382 0.010026
vn 0.537506 -0.843209 0.009310
vn 0.537506 -0.843209 0.009310
vn 0.494844 -0.868940 0.008571
vn 0.494844 -0.868940 0.008571
vn 0.450875 -0.892553 0.007809
vn 0.450875 -0.892553 0.007809
vn 0.405826 -0.913923 0.007029
vn 0.359772 -0.933019 0.006232
vn 0.405826 -0.913923 0.007029
vn 0.359772 -0.933019 0.006232
vn 0.312831 -0.949793 0.005418
vn 0.312831 -0.949793 0.005418
vn 0.265091 -0.964212 0.004592
vn 0.265091 -0.964212 0.004592
vn 0.216729 -0.976225 0.003754
vn 0.216729 -0.976225 0.003754
vn 0.167829 -0.985812 0.002907
vn 0.167829 -0.985812 0.002907
vn 0.118442 -0.992959 0.002052
vn 0.118442 -0.992959 0.002052
vn 0.068825 -0.997628 0.001192
vn 0.068825 -0.997628 0.001192
vn 0.019052 -0.999819 0.000330
vn 0.019052 -0.999819 0.000330
vn -0.030803 -0.999525 -0.000534
vn -0.030803 -0.999525 -0.000534
vn -0.080616 -0.996744 -0.001396
vn -0.080610 -0.996745 -0.001396
vn -0.130181 -0.991488 -0.002255
vn -0.130192 -0.991486 -0.002255
vn -0.179429 -0.983766 -0.003108
vn -0.179429 -0.983766 -0.003108
vn -0.228252 -0.973594 -0.003953
vn -0.276452 -0.961016 -0.004788
vn -0.228252 -0.973594 -0.003953
vn -0.276452 -0.961016 -0.004788
vn -0.324020 -0.946033 -0.005612
vn -0.324020 -0.946033 -0.005612
vn -0.370780 -0.928698 -0.006422
vn -0.370780 -0.928698 -0.006422
vn -0.416614 -0.909055 -0.007216
vn -0.416614 -0.909055 -0.007216
vn -0.461332 -0.887192 -0.007991
vn -0.461332 -0.887192 -0.007991
vn -0.505073 -0.863032 -0.008748
vn -0.505073 -0.863032 -0.008748
vn -0.547393 -0.836822 -0.009481
vn -0.547394 -0.836822 -0.009481
vn -0.588446 -0.808473 -0.010192
vn -0.588446 -0.808473 -0.010192
vn -0.627986 -0.778148 -0.010877
vn -0.627986 -0.778148 -0.010877
vn -0.666022 -0.745842 -0.011536
vn -0.666022 -0.745842 -0.011536
vn -0.702342 -0.711736 -0.012165
vn -0.702342 -0.711735 -0.012165
vn -0.736944 -0.675833 -0.012764
vn -0.736944 -0.675833 -0.012764
vn -0.769735 -0.638224 -0.013332
vn -0.769735 -0.638224 -0.013332
vn -0.800527 -0.599136 -0.013866
vn -0.800527 -0.599137 -0.013866
vn -0.829431 -0.558425 -0.014366
vn -0.829431 -0.558425 -0.014366
vn -0.856252 -0.516346 -0.014831
vn -0.880862 -0.473128 -0.015257
vn -0.856252 -0.516346 -0.014831
vn -0.880862 -0.473128 -0.015257
vn -0.903376 -0.428563 -0.015647
vn -0.903376 -0.428563 -0.015647
vn -0.923654 -0.382893 -0.015998
vn -0.941535 -0.336521 -0.016308
vn -0.923654 -0.382893 -0.015998
vn -0.957159 -0.289087 -0.016579
vn -0.941535 -0.336521 -0.016308
vn -0.957159 -0.289087 -0.016579
vn -0.970355 -0.241101 -0.016807
vn -0.970355 -0.241101 -0.016807
vn -0.981174 -0.192376 -0.016995
vn -0.981174 -0.192376 -0.016995
vn -0.989563 -0.143076 -0.017140
vn -0.989563 -0.143076 -0.017140
vn -0.995444 -0.093779 -0.017242
vn -0.995444 -0.093779 -0.017242
vn -0.998886 -0.043911 -0.017301
vn -0.998886 -0.043912 -0.017301
vn -0.999833 0.005877 -0.017318
vn -0.999833 0.005877 -0.017318
vn -0.998295 0.055745 -0.017291
vn -0.998295 0.055745 -0.017291
vn -0.994276 0.105448 -0.017222
vn -0.994276 0.105448 -0.017222
vn -0.987779 0.154919 -0.017109
vn -0.987779 0.154919 -0.017109
vn -0.978848 0.203884 -0.016954
vn -0.978848 0.203884 -0.016954
vn -0.967465 0.252447 -0.016757
vn -0.967466 0.252447 -0.016757
vn -0.953659 0.300434 -0.016518
vn -0.953659 0.300434 -0.016518
vn -0.937526 0.347536 -0.016239
vn -0.937526 0.347536 -0.016239
vn -0.919022 0.393886 -0.015918
vn -0.919022 0.393885 -0.015918
vn -0.898294 0.439120 -0.015559
vn -0.898294 0.439120 -0.015559
vn -0.875220 0.483487 -0.015159
vn -0.875220 0.483487 -0.015159
vn -0.850074 0.526457 -0.014724
vn -0.850075 0.526456 -0.014724
vn -0.822788 0.568170 -0.014251
vn -0.822788 0.568170 -0.014251
vn -0.793422 0.608517 -0.013743
vn -0.793422 0.608517 -0.013743
vn -0.762099 0.647326 -0.013200
vn -0.762099 0.647326 -0.013200
vn -0.728954 0.684446 -0.012626
vn -0.728954 0.684446 -0.012626
vn -0.693895 0.719976 -0.012019
vn -0.693895 0.719976 -0.012019
vn -0.657118 0.753701 -0.011382
vn -0.657118 0.753701 -0.011382
vn -0.618770 0.785499 -0.010718
vn -0.618770 0.785499 -0.010718
vn -0.578837 0.815382 -0.010026
vn -0.578837 0.815382 -0.010026
vn -0.537572 0.843167 -0.009311
vn -0.537572 0.843167 -0.009311
vn -0.494743 0.868997 -0.008569
vn -0.450941 0.892520 -0.007811
vn -0.494743 0.868997 -0.008569
vn -0.450941 0.892520 -0.007811
vn -0.405830 0.913922 -0.007029
vn -0.359764 0.933023 -0.006231
vn -0.405830 0.913922 -0.007029
vn -0.359764 0.933023 -0.006231
vn -0.312831 0.949793 -0.005418
vn -0.312831 0.949793 -0.005418
vn -0.265091 0.964212 -0.004592
vn -0.265091 0.964212 -0.004592
vn -0.216750 0.976220 -0.003754
vn -0.216750 0.976220 -0.003754
vn -0.167803 0.985816 -0.002906
vn -0.167803 0.985816 -0.002906
vn -0.118473 0.992955 -0.002052
vn -0.118473 0.992955 -0.002052
vn -0.068825 0.997628 -0.001192
vn -0.068825 0.997628 -0.001192
vn -0.019011 0.999819 -0.000329
vn -0.019011 0.999819 -0.000329
vn 0.030803 0.999525 0.000534
vn 0.030803 0.999525 0.000534
vn 0.080576 0.996747 0.001396
vn 0.080576 0.996747 0.001396
vn 0.130181 0.991488 0.002255
vn 0.130181 0.991488 0.002255
vn 0.179468 0.983759 0.003109
vn 0.179468 0.983759 0.003109
vn 0.228213 0.973603 0.003953
vn 0.228213 0.973603 0.003953
vn 0.276490 0.961005 0.004789
vn 0.324045 0.946025 0.005613
vn 0.276490 0.961005 0.004789
vn 0.324045 0.946025 0.005613
vn 0.370752 0.928710 0.006422
vn 0.370752 0.928710 0.006422
vn 0.416580 0.909070 0.007215
vn 0.461397 0.887158 0.007992
vn 0.416580 0.909070 0.007215
vn 0.461397 0.887158 0.007992
vn 0.505002 0.863074 0.008747
vn 0.505002 0.863074 0.008747
vn 0.547439 0.836792 0.009482
vn 0.588472 0.808453 0.010193
vn 0.547440 0.836791 0.009482
vn 0.588472 0.808453 0.010193
vn 0.627986 0.778148 0.010877
vn 0.627986 0.778148 0.010877
vn 0.665959 0.745899 0.011535
vn 0.702363 0.711715 0.012165
vn 0.665959 0.745899 0.011535
vn 0.736966 0.675809 0.012765
vn 0.702363 0.711715 0.012165
vn 0.769672 0.638301 0.013331
vn 0.736966 0.675809 0.012765
vn 0.769672 0.638301 0.013331
vn 0.800566 0.599084 0.013866
vn 0.800566 0.599084 0.013866
vn 0.829469 0.558369 0.014367
vn 0.829469 0.558369 0.014367
vn 0.856216 0.516406 0.014830
vn 0.856216 0.516406 0.014830
vn 0.880887 0.473081 0.015258
vn 0.880886 0.473081 0.015258
vn 0.903376 0.428563 0.015647
vn 0.903376 0.428563 0.015647
vn 0.923596 0.383033 0.015997
vn 0.923596 0.383033 0.015997
vn 0.941591 0.336363 0.016309
vn 0.941591 0.336363 0.016309
vn 0.957137 0.289162 0.016578
vn 0.970374 0.241023 0.016808
vn 0.957137 0.289162 0.016578
vn 0.970374 0.241023 0.016808
vn 0.981174 0.192376 0.016995
vn 0.989540 0.143236 0.017140
vn 0.981174 0.192376 0.016995
vn 0.989540 0.143236 0.017140
vn 0.995459 0.093622 0.017242
vn 0.995459 0.093622 0.017242
vn 0.998882 0.043991 0.017301
vn 0.998882 0.043991 0.017301
vn 0.999833 -0.005877 0.017318
vn 0.999833 -0.005877 0.017318
vn 0.031663 0.999499 -0.000344
vn 0.031435 0.999506 -0.000094
vn 0.030791 0.999526 0.000605
vn 0.030466 0.999535 0.000843
vn 0.030791 0.999526 0.000561
vn 0.032249 0.999480 -0.000109
vn 0.030807 0.999525 0.000555
vn 0.030020 0.999549 0.000941
vn 0.030758 0.999527 0.000556
vn 0.030893 0.999523 0.000357
vn 0.030813 0.999525 0.000541
vn 0.030800 0.999525 0.000550
vn 0.030975 0.999520 0.000451
vn 0.030917 0.999522 0.000478
vn 0.030821 0.999525 0.000532
vn 0.030781 0.999526 0.000665
vn 0.031984 0.999488 0.000285
vn 0.030764 0.999526 0.000692
vn 0.030913 0.999522 0.000237
vn 0.030811 0.999525 0.000598
vn 0.030740 0.999527 0.000813
vn 0.029647 0.999560 0.000663
vn 0.029766 0.999557 0.000654
vn 0.030760 0.999526 0.001138
vn 0.031216 0.999512 0.000497
vn 0.030779 0.999526 -0.000128
vn 0.029599 0.999562 0.000358
vn 0.031680 0.999498 0.000603
vn 0.030784 0.999526 -0.000045
vn 0.030839 0.999524 0.000622
vn 0.030926 0.999522 0.000535
vn 0.030783 0.999526 0.000533
vn 0.030275 0.999542 0.000473
vn 0.030740 0.999527 0.000209
vn 0.030841 0.999524 0.000651
vn 0.030764 0.999527 0.000326
vn 0.031237 0.999512 0.000707
vn 0.030909 0.999522 0.000775
vn 0.030829 0.999524 0.000561
vn 0.031052 0.999518 0.000636
vn 0.032217 0.999480 0.001222
vn 0.030405 0.999538 0.000350
vn 0.030940 0.999521 0.000570
vn 0.030836 0.999524 0.000531
vn 0.031200 0.999512 0.001224
vn 0.029675 0.999558 -0.001529
vn 0.030432 0.999537 0.000364
vn 0.030827 0.999525 0.000539
vn 0.030139 0.999546 -0.000385
vn 0.029866 0.999554 -0.000347
vn 0.030177 0.999545 -0.000048
vn 0.030477 0.999535 0.000226
vn 0.030801 0.999525 0.000514
vn 0.031818 0.999492 0.001629
vn 0.031111 0.999516 0.000878
vn 0.030854 0.999524 0.000560
vn 0.032104 0.999483 0.001542
vn 0.030845 0.999524 0.000581
vn 0.030781 0.999526 0.000500
vn 0.031309 0.999509 0.001420
vn 0.030842 0.999524 0.000576
vn 0.030677 0.999529 0.000275
vn 0.030855 0.999524 0.000561
vn 0.030845 0.999524 0.000547
vn 0.031066 0.999517 0.000937
vn 0.030816 0.999525 0.000519
vn 0.032358 0.999476 0.001295
vn 0.030890 0.999523 0.000558
vn 0.030836 0.999524 0.000540
vn 0.030831 0.999524 0.000557
vn 0.030847 0.999524 0.000608
vn 0.030823 0.999525 0.000533
vn 0.030812 0.999525 0.000505
vn 0.030751 0.999527 0.000258
vn 0.031910 0.999490 0.000802
vn 0.031697 0.999497 0.000755
vn 0.030794 0.999526 0.000046
vn 0.030885 0.999523 0.000897
vn 0.030572 0.999532 0.000471
vn 0.029647 0.999560 0.000363
vn 0.030791 0.999526 0.000300
vn 0.030822 0.999525 0.000534
vn 0.030839 0.999524 0.000532
vn 0.030824 0.999525 0.000534
vn 0.030858 0.999524 -0.000323
vn 0.030819 0.999525 0.000536
vn 0.030822 0.999525 0.000533
vn 0.030833 0.999524 0.000535
vn 0.030797 0.999526 0.000524
vn 0.030816 0.999525 0.000533
vn 0.032785 0.999462 0.000483
vn 0.030724 0.999528 0.000550
vn 0.030571 0.999532 0.000559
vn 0.031714 0.999497 0.000342
vn 0.030532 0.999534 0.000560
vn 0.031126 0.999515 0.000511
vn 0.030781 0.999526 0.000665
vn 0.030740 0.999527 0.000803
vn 0.030937 0.999521 0.000081
vn 0.030651 0.999530 0.000562
vn 0.030839 0.999524 0.000482
vn 0.030825 0.999525 0.000534
vn 0.030845 0.999524 0.000460
vn 0.030825 0.999525 0.000534
vn 0.030958 0.999521 0.000484
vn 0.032296 0.999478 -0.000133
vn 0.030855 0.999524 0.000528
vn 0.029638 0.999558 0.002501
vn 0.031216 0.999513 -0.000127
vn 0.030063 0.999548 0.001011
vn 0.030662 0.999530 0.000617
vn 0.030779 0.999526 0.000547
vn 0.030851 0.999524 0.000480
vn 0.030936 0.999521 0.000367
vn 0.030830 0.999524 0.000533
vn 0.030824 0.999525 0.000534
vn 0.030837 0.999524 0.000532
vn 0.031016 0.999519 0.000432
vn 0.030848 0.999524 0.000525
vn 0.030809 0.999525 0.000541
vn 0.030907 0.999522 0.000510
vn 0.029813 0.999555 0.001400
vn 0.030691 0.999529 0.000613
vn 0.030861 0.999524 0.000507
f 1//1 2//1 3//1
f 3//2 2//2 4//2
f 5//3 3//3 6//3
f 7//4 6//4 3//4
f 8//5 3//5 5//5
f 9//6 7//6 3//6
f 10//7 3//7 8//7
f 11//8 9//8 3//8
f 12//9 3//9 10//9
f 13//10 11//10 3//10
f 14//11 3//11 12//11
f 15//12 13//12 3//12
f 16//13 3//13 14//13
f 17//14 15//14 3//14
f 18//15 3//15 16//15
f 19//16 17//16 3//16
f 20//17 3//17 18//17
f 21//18 19//18 3//18
f 22//19 3//19 20//19
f 23//20 21//20 3//20
f 24//21 3//21 22//21
f 25//22 23//22 3//22
f 26//23 3//23 24//23
f 27//24 25//24 3//24
f 28//25 3//25 26//25
f 29//26 27//26 3//26
f 30//27 3//27 28//27
f 31//28 29//28 3//28
f 32//29 3//29 30//29
f 33//30 31//30 3//30
f 34//31 3//31 32//31
f 35//32 33//32 3//32
f 36//33 3//33 34//33
f 1//34 37//34 38//34
f 1//35 39//35 37//35
f 1//36 40//36 39//36
f 1//37 41//37 40//37
f 1//38 42//38 41//38
f 1//39 43//39 42//39
f 1//40 44//40 43//40
f 1//41 45//41 44//41
f 1//42 46//42 45//42
f 1//43 47//43 46//43
f 1//44 48//44 47//44
f 1//45 49//45 48//45
f 1//46 50//46 49//46
f 1//47 51//47 50//47
f 1//48 36//48 51//48
f 1//49 3//49 36//49
f 52//50 53//50 54//50
f 52//51 55//51 53//51
f 52//52 56//52 55//52
f 52//53 57//53 56//53
f 52//54 58//54 57//54
f 52//55 59//55 58//55
f 52//56 60//56 59//56
f 52//57 61//57 60//57
f 52//58 62//58 61//58
f 52//59 63//59 62//59
f 52//60 64//60 63//60
f 52//61 65//61 64//61
f 52//62 66//62 65//62
f 52//63 67//63 66//63
f 52//64 35//64 3//64
f 52//65 68//65 35//65
f 52//66 54//66 68//66
f 69//67 1//67 38//67
f 70//68 67//68 52//68
f 71//69 1//69 69//69
f 72//70 70//70 52//70
f 73//71 1//71 71//71
f 74//72 72//72 52//72
f 75//73 1//73 73//73
f 76//74 74//74 52//74
f 77//75 1//75 75//75
f 78//76 76//76 52//76
f 79//77 1//77 77//77
f 80//78 78//78 52//78
f 81//79 1//79 79//79
f 82//80 80//80 52//80
f 83//81 1//81 81//81
f 84//82 82//82 52//82
f 85//83 1//83 83//83
f 86//84 84//84 52//84
f 87//85 1//85 85//85
f 88//86 86//86 52//86
f 89//87 1//87 87//87
f 90//88 88//88 52//88
f 91//89 1//89 89//89
f 92//90 90//90 52//90
f 93//91 1//91 91//91
f 94//92 92//92 52//92
f 95//93 1//93 93//93
f 96//94 94//94 52//94
f 97//95 1//95 95//95
f 98//96 96//96 52//96
f 99//97 98//97 52//97
f 100//98 101//98 99//98
f 100//99 102//99 101//99
f 100//100 103//100 102//100
f 100//101 104//101 103//101
f 100//102 105//102 104//102
f 100//103 106//103 105//103
f 100//104 107//104 106//104
f 100//105 108//105 107//105
f 100//106 109//106 108//106
f 100//107 110//107 109//107
f 100//108 111//108 110//108
f 100//109 112//109 111//109
f 100//110 113//110 112//110
f 100//111 114//111 113//111
f 100//112 115//112 114//112
f 100//113 116//113 115//113
f 100//114 117//114 116//114
f 100//115 118//115 117//115
f 100//116 119//116 118//116
f 100//117 120//117 119//117
f 100//118 99//118 52//118
f 100//119 121//119 120//119
f 100//120 122//120 121//120
f 100//121 123//121 122//121
f 100//122 124//122 123//122
f 100//123 125//123 124//123
f 100//124 126//124 125//124
f 100//125 127//125 126//125
f 100//126 128//126 127//126
f 100//127 129//127 128//127
f 100//128 130//128 129//128
f 100//129 1//129 131//129
f 131//130 1//130 97//130
f 100//131 131//131 132//131
f 100//132 132//132 130//132
f 2//133 133//133 4//133
f 4//134 133//134 134//134
f 2//135 135//135 136//135
f 136//136 137//136 2//136
f 2//137 138//137 135//137
f 137//138 139//138 2//138
f 2//139 140//139 138//139
f 139//140 141//140 2//140
f 2//141 142//141 140//141
f 141//142 143//142 2//142
f 2//143 144//143 142//143
f 143//144 145//144 2//144
f 2//145 146//145 144//145
f 145//146 147//146 2//146
f 2//147 148//147 146//147
f 147//148 149//148 2//148
f 2//149 150//149 148//149
f 149//150 151//150 2//150
f 2//151 152//151 150//151
f 151//152 153//152 2//152
f 2//153 154//153 152//153
f 153//154 155//154 2//154
f 2//155 156//155 154//155
f 155//156 157//156 2//156
f 2//157 158//157 156//157
f 157//158 159//158 2//158
f 2//159 160//159 158//159
f 159//160 161//160 2//160
f 2//161 162//161 160//161
f 161//162 163//162 2//162
f 2//163 164//163 162//163
f 163//164 165//164 2//164
f 2//165 166//165 164//165
f 167//166 1//166 168//166
f 169//167 1//167 167//167
f 170//168 1//168 169//168
f 171//169 1//169 170//169
f 172//170 1//170 171//170
f 173//171 1//171 172//171
f 174//172 1//172 173//172
f 175//173 1//173 174//173
f 176//174 1//174 175//174
f 177//175 1//175 176//175
f 178//176 1//176 177//176
f 179//177 1//177 178//177
f 180//178 1//178 179//178
f 181//179 1//179 180//179
f 166//180 1//180 181//180
f 2//181 1//181 166//181
f 182//182 133//182 183//182
f 184//183 133//183 182//183
f 185//184 133//184 184//184
f 186//185 133//185 185//185
f 187//186 133//186 186//186
f 188//187 133//187 187//187
f 189//188 133//188 188//188
f 190//189 133//189 189//189
f 191//190 133//190 190//190
f 192//191 133//191 191//191
f 193//192 133//192 192//192
f 194//193 133//193 193//193
f 195//194 133//194 194//194
f 196//195 133//195 195//195
f 165//196 133//196 2//196
f 197//197 133//197 165//197
f 183//198 133//198 197//198
f 1//199 198//199 168//199
f 196//200 199//200 133//200
f 1//201 200//201 198//201
f 199//202 201//202 133//202
f 1//203 202//203 200//203
f 201//204 203//204 133//204
f 1//205 204//205 202//205
f 203//206 205//206 133//206
f 1//207 206//207 204//207
f 205//208 207//208 133//208
f 1//209 208//209 206//209
f 207//210 209//210 133//210
f 1//211 210//211 208//211
f 209//212 211//212 133//212
f 1//213 212//213 210//213
f 211//214 213//214 133//214
f 1//215 214//215 212//215
f 213//216 215//216 133//216
f 1//217 216//217 214//217
f 215//218 217//218 133//218
f 1//219 218//219 216//219
f 217//220 219//220 133//220
f 1//221 220//221 218//221
f 219//222 221//222 133//222
f 1//223 222//223 220//223
f 221//224 223//224 133//224
f 1//225 224//225 222//225
f 223//226 225//226 133//226
f 1//227 226//227 224//227
f 225//228 227//228 133//228
f 227//229 228//229 133//229
f 229//230 100//230 228//230
f 230//231 100//231 229//231
f 231//232 100//232 230//232
f 232//233 100//233 231//233
f 233//234 100//234 232//234
f 234//235 100//235 233//235
f 235//236 100//236 234//236
f 236//237 100//237 235//237
f 237//238 100//238 236//238
f 238//239 100//239 237//239
f 239//240 100//240 238//240
f 240//241 100//241 239//241
f 241//242 100//242 240//242
f 242//243 100//243 241//243
f 243//244 100//244 242//244
f 244//245 100//245 243//245
f 245//246 100//246 244//246
f 246//247 100//247 245//247
f 247//248 100//248 246//248
f 228//249 100//249 133//249
f 248//250 100//250 247//250
f 249//251 100//251 248//251
f 250//252 100//252 249//252
f 251//253 100//253 250//253
f 252//254 100//254 251//254
f 253//255 100//255 252//255
f 254//256 100//256 253//256
f 255//257 100//257 254//257
f 256//258 100//258 255//258
f 257//259 100//259 256//259
f 258//260 100//260 257//260
f 1//261 100//261 259//261
f 1//262 259//262 226//262
f 259//263 100//263 260//263
f 260//264 100//264 258//264
f 261//265 4//265 262//265
f 263//266 262//266 4//266
f 264//267 4//267 261//267
f 265//268 263//268 4//268
f 266//269 4//269 264//269
f 267//270 265//270 4//270
f 268//271 4//271 266//271
f 269//272 267//272 4//272
f 270//273 4//273 268//273
f 271//274 269//274 4//274
f 272//275 4//275 270//275
f 273//276 271//276 4//276
f 274//277 4//277 272//277
f 275//278 273//278 4//278
f 276//279 4//279 274//279
f 277//280 275//280 4//280
f 278//281 4//281 276//281
f 279//282 277//282 4//282
f 280//283 4//283 278//283
f 281//284 279//284 4//284
f 282//285 4//285 280//285
f 283//286 281//286 4//286
f 284//287 4//287 282//287
f 285//288 283//288 4//288
f 286//289 4//289 284//289
f 287//290 285//290 4//290
f 288//291 4//291 286//291
f 289//292 287//292 4//292
f 290//293 4//293 288//293
f 291//294 289//294 4//294
f 292//295 4//295 290//295
f 3//296 293//296 294//296
f 3//297 295//297 293//297
f 3//298 296//298 295//298
f 3//299 297//299 296//299
f 3//300 298//300 297//300
f 3//301 299//301 298//301
f 3//302 300//302 299//302
f 3//303 301//303 300//303
f 3//304 302//304 301//304
f 3//305 303//305 302//305
f 3//306 304//306 303//306
f 3//307 305//307 304//307
f 3//308 306//308 305//308
f 3//309 307//309 306//309
f 3//310 292//310 307//310
f 3//311 4//311 292//311
f 134//312 308//312 309//312
f 134//313 310//313 308//313
f 134//314 311//314 310//314
f 134//315 312//315 311//315
f 134//316 313//316 312//316
f 134//317 314//317 313//317
f 134//318 315//318 314//318
f 134//319 316//319 315//319
f 134//320 317//320 316//320
f 134//321 318//321 317//321
f 134//322 319//322 318//322
f 134//323 320//323 319//323
f 134//324 321//324 320//324
f 134//325 322//325 321//325
f 134//326 291//326 4//326
f 134//327 323//327 291//327
f 134//328 309//328 323//328
f 324//329 3//329 294//329
f 325//330 322//330 134//330
f 326//331 3//331 324//331
f 327//332 325//332 134//332
f 328//333 3//333 326//333
f 329//334 327//334 134//334
f 330//335 3//335 328//335
f 331//336 329//336 134//336
f 332//337 3//337 330//337
f 333//338 331//338 134//338
f 334//339 3//339 332//339
f 335//340 333//340 134//340
f 336//341 3//341 334//341
f 337//342 335//342 134//342
f 338//343 3//343 336//343
f 339//344 337//344 134//344
f 340//345 3//345 338//345
f 341//346 339//346 134//346
f 342//347 3//347 340//347
f 343//348 341//348 134//348
f 344//349 3//349 342//349
f 345//350 343//350 134//350
f 346//351 3//351 344//351
f 347//352 345//352 134//352
f 348//353 3//353 346//353
f 349//354 347//354 134//354
f 350//355 3//355 348//355
f 351//356 349//356 134//356
f 352//357 3//357 350//357
f 353//358 351//358 134//358
f 354//359 353//359 134//359
f 52//360 355//360 354//360
f 52//361 356//361 355//361
f 52//362 357//362 356//362
f 52//363 358//363 357//363
f 52//364 359//364 358//364
f 52//365 360//365 359//365
f 52//366 361//366 360//366
f 52//367 362//367 361//367
f 52//368 363//368 362//368
f 52//369 364//369 363//369
f 52//370 365//370 364//370
f 52//371 366//371 365//371
f 52//372 367//372 366//372
f 52//373 368//373 367//373
f 52//374 369//374 368//374
f 52//375 370//375 369//375
f 52//376 371//376 370//376
f 52//377 372//377 371//377
f 52//378 373//378 372//378
f 52//379 354//379 134//379
f 52//380 374//380 373//380
f 52//381 375//381 374//381
f 52//382 376//382 375//382
f 52//383 377//383 376//383
f 52//384 378//384 377//384
f 52//385 379//385 378//385
f 52//386 380//386 379//386
f 52//387 381//387 380//387
f 52//388 382//388 381//388
f 52//389 383//389 382//389
f 52//390 384//390 383//390
f 52//391 3//391 385//391
f 385//392 3//392 352//392
f 52//393 385//393 386//393
f 52//394 386//394 384//394
f 133//395 100//395 52//395
f 133//396 52//396 134//396
f 99//397 101//397 387//397
f 387//398 101//398 388//398
f 388//399 101//399 389//399
f 389//400 102//400 390//400
f 101//401 102//401 389//401
f 102//402 103//402 390//402
f 390//403 104//403 391//403
f 391//404 104//404 392//404
f 103//405 104//405 390//405
f 104//406 105//406 392//406
f 392//407 106//407 393//407
f 105//408 106//408 392//408
f 393//409 107//409 394//409
f 394//410 107//410 395//410
f 106//411 107//411 393//411
f 107//412 108//412 395//412
f 395//413 109//413 396//413
f 108//414 109//414 395//414
f 396//415 110//415 397//415
f 109//416 110//416 396//416
f 110//417 111//417 397//417
f 397//418 111//418 398//418
f 398//419 111//419 399//419
f 111//420 112//420 399//420
f 112//421 113//421 399//421
f 399//422 113//422 400//422
f 113//423 114//423 400//423
f 400//424 114//424 401//424
f 401//425 115//425 402//425
f 402//426 115//426 403//426
f 114//427 115//427 401//427
f 115//428 116//428 403//428
f 403//429 117//429 404//429
f 116//430 117//430 403//430
f 404//431 118//431 405//431
f 405//432 118//432 406//432
f 117//433 118//433 404//433
f 118//434 119//434 406//434
f 406//435 120//435 407//435
f 119//436 120//436 406//436
f 407//437 121//437 408//437
f 120//438 121//438 407//438
f 408//439 122//439 409//439
f 121//440 122//440 408//440
f 409//441 123//441 410//441
f 122//442 123//442 409//442
f 410//443 124//443 411//443
f 123//444 124//444 410//444
f 411//445 125//445 412//445
f 124//446 125//446 411//446
f 412//447 126//447 413//447
f 125//448 126//448 412//448
f 413//449 127//449 414//449
f 126//450 127//450 413//450
f 414//451 128//451 415//451
f 415//452 128//452 416//452
f 127//453 128//453 414//453
f 128//454 129//454 416//454
f 416//455 130//455 417//455
f 129//456 130//456 416//456
f 417//457 132//457 418//457
f 130//458 132//458 417//458
f 418//459 131//459 419//459
f 132//460 131//460 418//460
f 419//461 97//461 420//461
f 131//462 97//462 419//462
f 420//463 95//463 421//463
f 97//464 95//464 420//464
f 421//465 93//465 422//465
f 95//466 93//466 421//466
f 422//467 91//467 423//467
f 93//468 91//468 422//468
f 423//469 89//469 424//469
f 424//470 89//470 425//470
f 91//471 89//471 423//471
f 89//472 87//472 425//472
f 425//473 87//473 426//473
f 87//474 85//474 426//474
f 85//475 83//475 426//475
f 426//476 83//476 427//476
f 83//477 81//477 427//477
f 427//478 81//478 428//478
f 81//479 79//479 428//479
f 428//480 79//480 429//480
f 79//481 77//481 429//481
f 429//482 77//482 430//482
f 77//483 75//483 430//483
f 430//484 75//484 431//484
f 75//485 73//485 431//485
f 431//486 73//486 432//486
f 73//487 71//487 432//487
f 432//488 71//488 433//488
f 433//489 71//489 434//489
f 71//490 69//490 434//490
f 434//491 38//491 435//491
f 69//492 38//492 434//492
f 435//493 37//493 436//493
f 38//494 37//494 435//494
f 436//495 39//495 437//495
f 437//496 39//496 438//496
f 37//497 39//497 436//497
f 39//498 40//498 438//498
f 438//499 41//499 439//499
f 439//500 41//500 440//500
f 40//501 41//501 438//501
f 41//502 42//502 440//502
f 440//503 43//503 441//503
f 441//504 43//504 442//504
f 42//505 43//505 440//505
f 43//506 44//506 442//506
f 442//507 45//507 443//507
f 44//508 45//508 442//508
f 443//509 46//509 444//509
f 444//510 46//510 445//510
f 45//511 46//511 443//511
f 46//512 47//512 445//512
f 445//513 48//513 446//513
f 47//514 48//514 445//514
f 446//515 49//515 447//515
f 48//516 49//516 446//516
f 447//517 50//517 448//517
f 49//518 50//518 447//518
f 50//519 51//519 448//519
f 448//520 51//520 449//520
f 449//521 51//521 450//521
f 51//522 36//522 450//522
f 450//523 36//523 451//523
f 36//524 34//524 451//524
f 34//525 32//525 451//525
f 451//526 32//526 452//526
f 452//527 32//527 453//527
f 32//528 30//528 453//528
f 453//529 30//529 454//529
f 30//530 28//530 454//530
f 454//531 28//531 455//531
f 28//532 26//532 455//532
f 26//533 24//533 455//533
f 455//534 24//534 456//534
f 456//535 24//535 457//535
f 24//536 22//536 457//536
f 457//537 22//537 458//537
f 22//538 20//538 458//538
f 20//539 18//539 458//539
f 458//540 18//540 459//540
f 459//541 18//541 460//541
f 18//542 16//542 460//542
f 16//543 14//543 460//543
f 460//544 14//544 461//544
f 14//545 12//545 461//545
f 461//546 12//546 462//546
f 12//547 10//547 462//547
f 462//548 10//548 463//548
f 463//549 10//549 464//549
f 10//550 8//550 464//550
f 8//551 5//551 464//551
f 464//552 5//552 465//552
f 5//553 6//553 465//553
f 465//554 6//554 466//554
f 466//555 6//555 467//555
f 6//556 7//556 467//556
f 7//557 9//557 467//557
f 467//558 9//558 468//558
f 9//559 11//559 468//559
f 468//560 11//560 469//560
f 469//561 13//561 470//561
f 11//562 13//562 469//562
f 470//563 13//563 471//563
f 13//564 15//564 471//564
f 471//565 17//565 472//565
f 15//566 17//566 471//566
f 472//567 19//567 473//567
f 17//568 19//568 472//568
f 473//569 21//569 474//569
f 19//570 21//570 473//570
f 21//571 23//571 474//571
f 474//572 23//572 475//572
f 23//573 25//573 475//573
f 475//574 25//574 476//574
f 25//575 27//575 476//575
f 476//576 27//576 477//576
f 27//577 29//577 477//577
f 477//578 29//578 478//578
f 478//579 29//579 479//579
f 29//580 31//580 479//580
f 31//581 33//581 479//581
f 479//582 33//582 480//582
f 33//583 35//583 480//583
f 480//584 35//584 481//584
f 35//585 68//585 481//585
f 481//586 68//586 482//586
f 68//587 54//587 482//587
f 482//588 54//588 483//588
f 54//589 53//589 483//589
f 483//590 53//590 484//590
f 53//591 55//591 484//591
f 484//592 55//592 485//592
f 55//593 56//593 485//593
f 485//594 56//594 486//594
f 486//595 57//595 487//595
f 56//596 57//596 486//596
f 487//597 58//597 488//597
f 57//598 58//598 487//598
f 488//599 59//599 489//599
f 58//600 59//600 488//600
f 489//601 60//601 490//601
f 59//602 60//602 489//602
f 490//603 61//603 491//603
f 491//604 61//604 492//604
f 60//605 61//605 490//605
f 61//606 62//606 492//606
f 492//607 63//607 493//607
f 62//608 63//608 492//608
f 493//609 64//609 494//609
f 63//610 64//610 493//610
f 494//611 65//611 495//611
f 64//612 65//612 494//612
f 495//613 66//613 496//613
f 65//614 66//614 495//614
f 496//615 67//615 497//615
f 66//616 67//616 496//616
f 497//617 70//617 498//617
f 67//618 70//618 497//618
f 70//619 72//619 498//619
f 498//620 72//620 499//620
f 72//621 74//621 499//621
f 499//622 74//622 500//622
f 74//623 76//623 500//623
f 500//624 76//624 501//624
f 76//625 78//625 501//625
f 501//626 78//626 502//626
f 78//627 80//627 502//627
f 502//628 80//628 503//628
f 503//629 82//629 504//629
f 80//630 82//630 503//630
f 504//631 84//631 505//631
f 82//632 84//632 504//632
f 505//633 86//633 506//633
f 506//634 86//634 507//634
f 84//635 86//635 505//635
f 86//636 88//636 507//636
f 507//637 90//637 508//637
f 88//638 90//638 507//638
f 508//639 92//639 509//639
f 90//640 92//640 508//640
f 509//641 94//641 510//641
f 92//642 94//642 509//642
f 510//643 96//643 511//643
f 94//644 96//644 510//644
f 511//645 98//645 512//645
f 512//646 98//646 387//646
f 96//647 98//647 511//647
f 98//648 99//648 387//648
f 229//649 228//649 354//649
f 229//650 354//650 355//650
f 230//651 355//651 356//651
f 230//652 229//652 355//652
f 231//653 356//653 357//653
f 231//654 230//654 356//654
f 232//655 357//655 358//655
f 232//656 231//656 357//656
f 233//657 358//657 359//657
f 233//658 359//658 360//658
f 233//659 232//659 358//659
f 234//660 360//660 361//660
f 234//661 233//661 360//661
f 235//662 361//662 362//662
f 235//663 234//663 361//663
f 236//664 235//664 362//664
f 237//665 362//665 363//665
f 237//666 236//666 362//666
f 238//667 363//667 364//667
f 238//668 237//668 363//668
f 239//669 238//669 364//669
f 239//670 364//670 365//670
f 240//671 239//671 365//671
f 240//672 365//672 366//672
f 241//673 240//673 366//673
f 241//674 366//674 367//674
f 242//675 241//675 367//675
f 242//676 367//676 368//676
f 242//677 368//677 369//677
f 243//678 242//678 369//678
f 244//679 243//679 369//679
f 244//680 369//680 370//680
f 245//681 370//681 371//681
f 245//682 244//682 370//682
f 246//683 371//683 372//683
f 246//684 245//684 371//684
f 247//685 372//685 373//685
f 247//686 246//686 372//686
f 248//687 373//687 374//687
f 248//688 247//688 373//688
f 249//689 374//689 375//689
f 249//690 248//690 374//690
f 250//691 375//691 376//691
f 250//692 249//692 375//692
f 251//693 376//693 377//693
f 251//694 377//694 378//694
f 251//695 250//695 376//695
f 252//696 251//696 378//696
f 253//697 378//697 379//697
f 253//698 252//698 378//698
f 254//699 379//699 380//699
f 254//700 253//700 379//700
f 255//701 380//701 381//701
f 255//702 254//702 380//702
f 256//703 381//703 382//703
f 256//704 255//704 381//704
f 257//705 382//705 383//705
f 257//706 256//706 382//706
f 258//707 383//707 384//707
f 258//708 257//708 383//708
f 260//709 384//709 386//709
f 260//710 258//710 384//710
f 259//711 386//711 385//711
f 259//712 260//712 386//712
f 226//713 385//713 352//713
f 226//714 259//714 385//714
f 224//715 352//715 350//715
f 224//716 226//716 352//716
f 222//717 350//717 348//717
f 222//718 224//718 350//718
f 220//719 348//719 346//719
f 220//720 346//720 344//720
f 220//721 222//721 348//721
f 218//722 220//722 344//722
f 216//723 218//723 344//723
f 216//724 344//724 342//724
f 216//725 342//725 340//725
f 214//726 216//726 340//726
f 212//727 214//727 340//727
f 212//728 340//728 338//728
f 210//729 212//729 338//729
f 210//730 338//730 336//730
f 210//731 336//731 334//731
f 208//732 210//732 334//732
f 208//733 334//733 332//733
f 206//734 208//734 332//734
f 204//735 206//735 332//735
f 204//736 332//736 330//736
f 204//737 330//737 328//737
f 202//738 204//738 328//738
f 202//739 328//739 326//739
f 200//740 202//740 326//740
f 200//741 326//741 324//741
f 198//742 200//742 324//742
f 168//743 324//743 294//743
f 168//744 198//744 324//744
f 168//745 294//745 293//745
f 167//746 168//746 293//746
f 169//747 167//747 293//747
f 169//748 293//748 295//748
f 170//749 295//749 296//749
f 170//750 169//750 295//750
f 171//751 296//751 297//751
f 171//752 297//752 298//752
f 171//753 170//753 296//753
f 172//754 171//754 298//754
f 173//755 298//755 299//755
f 173//756 172//756 298//756
f 174//757 299//757 300//757
f 174//758 300//758 301//758
f 174//759 173//759 299//759
f 175//760 301//760 302//760
f 175//761 174//761 301//761
f 176//762 175//762 302//762
f 177//763 302//763 303//763
f 177//764 176//764 302//764
f 178//765 303//765 304//765
f 178//766 177//766 303//766
f 179//767 304//767 305//767
f 179//768 178//768 304//768
f 180//769 305//769 306//769
f 180//770 179//770 305//770
f 181//771 180//771 306//771
f 181//772 306//772 307//772
f 166//773 181//773 307//773
f 166//774 307//774 292//774
f 164//775 166//775 292//775
f 164//776 292//776 290//776
f 162//777 164//777 290//777
f 162//778 290//778 288//778
f 160//779 162//779 288//779
f 160//780 288//780 286//780
f 158//781 160//781 286//781
f 158//782 286//782 284//782
f 156//783 158//783 284//783
f 156//784 284//784 282//784
f 156//785 282//785 280//785
f 154//786 156//786 280//786
f 152//787 154//787 280//787
f 152//788 280//788 278//788
f 150//789 152//789 278//789
f 150//790 278//790 276//790
f 148//791 150//791 276//791
f 148//792 276//792 274//792
f 146//793 148//793 274//793
f 146//794 274//794 272//794
f 144//795 146//795 272//795
f 144//796 272//796 270//796
f 144//797 270//797 268//797
f 142//798 144//798 268//798
f 140//799 142//799 268//799
f 140//800 268//800 266//800
f 138//801 140//801 266//801
f 138//802 266//802 264//802
f 138//803 264//803 261//803
f 135//804 138//804 261//804
f 136//805 135//805 261//805
f 136//806 261//806 262//806
f 136//807 262//807 263//807
f 137//808 136//808 263//808
f 139//809 137//809 263//809
f 139//810 263//810 265//810
f 141//811 139//811 265//811
f 141//812 265//812 267//812
f 141//813 267//813 269//813
f 143//814 141//814 269//814
f 145//815 269//815 271//815
f 145//816 271//816 273//816
f 145//817 143//817 269//817
f 147//818 145//818 273//818
f 149//819 273//819 275//819
f 149//820 275//820 277//820
f 149//821 147//821 273//821
f 151//822 149//822 277//822
f 153//823 151//823 277//823
f 153//824 277//824 279//824
f 155//825 153//825 279//825
f 155//826 279//826 281//826
f 155//827 281//827 283//827
f 157//828 155//828 283//828
f 159//829 157//829 283//829
f 159//830 283//830 285//830
f 161//831 159//831 285//831
f 161//832 285//832 287//832
f 161//833 287//833 289//833
f 163//834 161//834 289//834
f 165//835 163//835 289//835
f 165//836 289//836 291//836
f 165//837 291//837 323//837
f 197//838 165//838 323//838
f 183//839 197//839 323//839
f 183//840 323//840 309//840
f 183//841 309//841 308//841
f 182//842 183//842 308//842
f 182//843 308//843 310//843
f 184//844 182//844 310//844
f 184//845 310//845 311//845
f 185//846 184//846 311//846
f 186//847 311//847 312//847
f 186//848 312//848 313//848
f 186//849 185//849 311//849
f 187//850 186//850 313//850
f 188//851 313//851 314//851
f 188//852 187//852 313//852
f 189//853 314//853 315//853
f 189//854 315//854 316//854
f 189//855 188//855 314//855
f 190//856 189//856 316//856
f 191//857 316//857 317//857
f 191//858 190//858 316//858
f 192//859 317//859 318//859
f 192//860 318//860 319//860
f 192//861 191//861 317//861
f 193//862 192//862 319//862
f 194//863 319//863 320//863
f 194//864 193//864 319//864
f 195//865 320//865 321//865
f 195//866 321//866 322//866
f 195//867 194//867 320//867
f 196//868 322//868 325//868
f 196//869 195//869 322//869
f 199//870 325//870 327//870
f 199//871 196//871 325//871
f 201//872 199//872 327//872
f 201//873 327//873 329//873
f 203//874 201//874 329//874
f 203//875 329//875 331//875
f 205//876 203//876 331//876
f 207//877 205//877 331//877
f 207//878 331//878 333//878
f 209//879 207//879 333//879
f 209//880 333//880 335//880
f 211//881 335//881 337//881
f 211//882 209//882 335//882
f 213//883 337//883 339//883
f 213//884 211//884 337//884
f 215//885 339//885 341//885
f 215//886 213//886 339//886
f 217//887 341//887 343//887
f 217//888 343//888 345//888
f 217//889 215//889 341//889
f 219//890 217//890 345//890
f 221//891 345//891 347//891
f 221//892 347//892 349//892
f 221//893 219//893 345//893
f 223//894 221//894 349//894
f 225//895 349//895 351//895
f 225//896 223//896 349//896
f 227//897 351//897 353//897
f 227//898 225//898 351//898
f 228//899 353//899 354//899
f 228//900 227//900 353//900
f 466//901 468//901 465//901
f 467//902 468//902 466//902
f 464//903 462//903 463//903
f 465//904 462//904 464//904
f 469//905 470//905 468//905
f 460//906 458//906 459//906
f 461//907 458//907 460//907
f 462//908 458//908 461//908
f 462//909 457//909 458//909
f 474//910 475//910 473//910
f 468//911 456//911 465//911
f 470//912 456//912 468//912
f 465//913 456//913 462//913
f 462//914 456//914 457//914
f 475//915 477//915 473//915
f 476//916 477//916 475//916
f 456//917 454//917 455//917
f 477//918 478//918 473//918
f 478//919 479//919 473//919
f 472//920 479//920 471//920
f 473//921 479//921 472//921
f 453//922 451//922 452//922
f 454//923 451//923 453//923
f 480//924 481//924 479//924
f 454//925 450//925 451//925
f 483//926 484//926 482//926
f 449//927 447//927 448//927
f 450//928 447//928 449//928
f 484//929 485//929 482//929
f 482//930 485//930 481//930
f 456//931 446//931 454//931
f 454//932 446//932 450//932
f 450//933 446//933 447//933
f 486//934 487//934 485//934
f 485//935 488//935 481//935
f 487//936 488//936 485//936
f 444//937 442//937 443//937
f 489//938 490//938 488//938
f 488//939 490//939 481//939
f 444//940 440//940 442//940
f 442//941 440//941 441//941
f 445//942 440//942 444//942
f 446//943 440//943 445//943
f 446//944 439//944 440//944
f 491//945 493//945 490//945
f 492//946 493//946 491//946
f 446//947 438//947 439//947
f 456//948 438//948 446//948
f 495//949 496//949 494//949
f 436//950 434//950 435//950
f 437//951 434//951 436//951
f 438//952 434//952 437//952
f 494//953 498//953 493//953
f 497//954 498//954 496//954
f 496//955 498//955 494//955
f 499//956 501//956 498//956
f 500//957 501//957 499//957
f 432//958 430//958 431//958
f 501//959 502//959 498//959
f 430//960 428//960 429//960
f 432//961 428//961 430//961
f 433//962 427//962 432//962
f 434//963 427//963 433//963
f 438//964 427//964 434//964
f 432//965 427//965 428//965
f 503//966 505//966 502//966
f 504//967 505//967 503//967
f 505//968 506//968 502//968
f 456//969 424//969 438//969
f 426//970 424//970 425//970
f 427//971 424//971 426//971
f 470//972 424//972 456//972
f 438//973 424//973 427//973
f 424//974 422//974 423//974
f 508//975 510//975 507//975
f 509//976 510//976 508//976
f 422//977 420//977 421//977
f 424//978 420//978 422//978
f 510//979 512//979 507//979
f 511//980 512//980 510//980
f 424//981 419//981 420//981
f 424//982 417//982 419//982
f 493//983 417//983 490//983
f 490//984 417//984 481//984
f 419//985 417//985 418//985
f 498//986 417//986 493//986
f 470//987 417//987 424//987
f 479//988 417//988 471//988
f 471//989 417//989 470//989
f 481//990 417//990 479//990
f 388//991 389//991 387//991
f 389//992 390//992 387//992
f 387//993 390//993 512//993
f 391//994 392//994 390//994
f 390//995 392//995 512//995
f 392//996 393//996 512//996
f 414//997 412//997 413//997
f 415//998 412//998 414//998
f 416//999 412//999 415//999
f 393//1000 394//1000 512//1000
f 417//1001 411//1001 416//1001
f 416//1002 411//1002 412//1002
f 417//1003 410//1003 411//1003
f 498//1004 410//1004 417//1004
f 395//1005 397//1005 394//1005
f 396//1006 397//1006 395//1006
f 397//1007 398//1007 394//1007
f 409//1008 407//1008 408//1008
f 410//1009 407//1009 409//1009
f 399//1010 400//1010 398//1010
f 398//1011 400//1011 394//1011
f 507//1012 405//1012 506//1012
f 407//1013 405//1013 406//1013
f 410//1014 405//1014 407//1014
f 498//1015 405//1015 410//1015
f 502//1016 405//1016 498//1016
f 506//1017 405//1017 502//1017
f 400//1018 401//1018 394//1018
f 512//1019 404//1019 507//1019
f 394//1020 404//1020 512//1020
f 507//1021 404//1021 405//1021
f 402//1022 403//1022 401//1022
f 401//1023 403//1023 394//1023
f 394//1024 403//1024 404//1024
